%TF.GenerationSoftware,KiCad,Pcbnew,8.0.9-8.0.9-0~ubuntu20.04.1*%
%TF.CreationDate,2025-08-05T19:54:57+10:00*%
%TF.ProjectId,glowforge-psu-breakout,676c6f77-666f-4726-9765-2d7073752d62,rev?*%
%TF.SameCoordinates,Original*%
%TF.FileFunction,Soldermask,Top*%
%TF.FilePolarity,Negative*%
%FSLAX46Y46*%
G04 Gerber Fmt 4.6, Leading zero omitted, Abs format (unit mm)*
G04 Created by KiCad (PCBNEW 8.0.9-8.0.9-0~ubuntu20.04.1) date 2025-08-05 19:54:57*
%MOMM*%
%LPD*%
G01*
G04 APERTURE LIST*
G04 Aperture macros list*
%AMRoundRect*
0 Rectangle with rounded corners*
0 $1 Rounding radius*
0 $2 $3 $4 $5 $6 $7 $8 $9 X,Y pos of 4 corners*
0 Add a 4 corners polygon primitive as box body*
4,1,4,$2,$3,$4,$5,$6,$7,$8,$9,$2,$3,0*
0 Add four circle primitives for the rounded corners*
1,1,$1+$1,$2,$3*
1,1,$1+$1,$4,$5*
1,1,$1+$1,$6,$7*
1,1,$1+$1,$8,$9*
0 Add four rect primitives between the rounded corners*
20,1,$1+$1,$2,$3,$4,$5,0*
20,1,$1+$1,$4,$5,$6,$7,0*
20,1,$1+$1,$6,$7,$8,$9,0*
20,1,$1+$1,$8,$9,$2,$3,0*%
G04 Aperture macros list end*
%ADD10R,1.700000X1.700000*%
%ADD11O,1.700000X1.700000*%
%ADD12RoundRect,0.250000X-0.350000X-0.450000X0.350000X-0.450000X0.350000X0.450000X-0.350000X0.450000X0*%
%ADD13C,3.600000*%
%ADD14C,5.600000*%
%ADD15RoundRect,0.250000X0.450000X-0.350000X0.450000X0.350000X-0.450000X0.350000X-0.450000X-0.350000X0*%
%ADD16R,1.200000X1.200000*%
%ADD17C,1.200000*%
%ADD18RoundRect,0.250000X-0.450000X0.325000X-0.450000X-0.325000X0.450000X-0.325000X0.450000X0.325000X0*%
%ADD19RoundRect,0.250000X0.350000X0.450000X-0.350000X0.450000X-0.350000X-0.450000X0.350000X-0.450000X0*%
%ADD20RoundRect,0.250000X0.450000X-0.325000X0.450000X0.325000X-0.450000X0.325000X-0.450000X-0.325000X0*%
G04 APERTURE END LIST*
D10*
%TO.C,J2*%
X178540000Y-90750000D03*
D11*
X176000000Y-90750000D03*
X173460000Y-90750000D03*
X170920000Y-90750000D03*
X168380000Y-90750000D03*
X165840000Y-90750000D03*
X163300000Y-90750000D03*
X160760000Y-90750000D03*
X158220000Y-90750000D03*
X155680000Y-90750000D03*
X153140000Y-90750000D03*
X150600000Y-90750000D03*
X148060000Y-90750000D03*
X145520000Y-90750000D03*
X142980000Y-90750000D03*
%TD*%
D10*
%TO.C,J3*%
X142940000Y-96250000D03*
D11*
X145480000Y-96250000D03*
X148020000Y-96250000D03*
X150560000Y-96250000D03*
X153100000Y-96250000D03*
X155640000Y-96250000D03*
X158180000Y-96250000D03*
X160720000Y-96250000D03*
X163260000Y-96250000D03*
X165800000Y-96250000D03*
X168340000Y-96250000D03*
X170880000Y-96250000D03*
X173420000Y-96250000D03*
X175960000Y-96250000D03*
X178500000Y-96250000D03*
%TD*%
D12*
%TO.C,R9*%
X167000000Y-107750000D03*
X169000000Y-107750000D03*
%TD*%
D13*
%TO.C,H3*%
X138500000Y-121000000D03*
D14*
X138500000Y-121000000D03*
%TD*%
D15*
%TO.C,R6*%
X158250000Y-82750000D03*
X158250000Y-80750000D03*
%TD*%
D12*
%TO.C,R8*%
X169750000Y-82500000D03*
X171750000Y-82500000D03*
%TD*%
D13*
%TO.C,H4*%
X183750000Y-121000000D03*
D14*
X183750000Y-121000000D03*
%TD*%
D16*
%TO.C,J4*%
X146000000Y-112500000D03*
D17*
X147000000Y-110500000D03*
X148000000Y-112500000D03*
X149000000Y-110500000D03*
X150000000Y-112500000D03*
X151000000Y-110500000D03*
X152000000Y-112500000D03*
X153000000Y-110500000D03*
X154000000Y-112500000D03*
X155000000Y-110500000D03*
X156000000Y-112500000D03*
X157000000Y-110500000D03*
X158000000Y-112500000D03*
X159000000Y-110500000D03*
X160000000Y-112500000D03*
X161000000Y-110500000D03*
X162000000Y-112500000D03*
X163000000Y-110500000D03*
X164000000Y-112500000D03*
X165000000Y-110500000D03*
X166000000Y-112500000D03*
X167000000Y-110500000D03*
X168000000Y-112500000D03*
X169000000Y-110500000D03*
X170000000Y-112500000D03*
X171000000Y-110500000D03*
X172000000Y-112500000D03*
X173000000Y-110500000D03*
X174000000Y-112500000D03*
X175000000Y-110500000D03*
%TD*%
D18*
%TO.C,D1*%
X176000000Y-82450000D03*
X176000000Y-84500000D03*
%TD*%
D19*
%TO.C,R3*%
X156000000Y-80500000D03*
X154000000Y-80500000D03*
%TD*%
D13*
%TO.C,H2*%
X138500000Y-67500000D03*
D14*
X138500000Y-67500000D03*
%TD*%
D18*
%TO.C,D6*%
X160750000Y-80725000D03*
X160750000Y-82775000D03*
%TD*%
%TO.C,D8*%
X165750000Y-80225000D03*
X165750000Y-82275000D03*
%TD*%
%TO.C,D7*%
X163250000Y-80725000D03*
X163250000Y-82775000D03*
%TD*%
D16*
%TO.C,J1*%
X175000000Y-75750000D03*
D17*
X174000000Y-77750000D03*
X173000000Y-75750000D03*
X172000000Y-77750000D03*
X171000000Y-75750000D03*
X170000000Y-77750000D03*
X169000000Y-75750000D03*
X168000000Y-77750000D03*
X167000000Y-75750000D03*
X166000000Y-77750000D03*
X165000000Y-75750000D03*
X164000000Y-77750000D03*
X163000000Y-75750000D03*
X162000000Y-77750000D03*
X161000000Y-75750000D03*
X160000000Y-77750000D03*
X159000000Y-75750000D03*
X158000000Y-77750000D03*
X157000000Y-75750000D03*
X156000000Y-77750000D03*
X155000000Y-75750000D03*
X154000000Y-77750000D03*
X153000000Y-75750000D03*
X152000000Y-77750000D03*
X151000000Y-75750000D03*
X150000000Y-77750000D03*
X149000000Y-75750000D03*
X148000000Y-77750000D03*
X147000000Y-75750000D03*
X146000000Y-77750000D03*
%TD*%
D18*
%TO.C,D2*%
X155750000Y-82475000D03*
X155750000Y-84525000D03*
%TD*%
D20*
%TO.C,D3*%
X158250000Y-107000000D03*
X158250000Y-104950000D03*
%TD*%
D19*
%TO.C,R4*%
X145750000Y-80500000D03*
X143750000Y-80500000D03*
%TD*%
D13*
%TO.C,H1*%
X183750000Y-67500000D03*
D14*
X183750000Y-67500000D03*
%TD*%
D19*
%TO.C,R1*%
X176000000Y-80500000D03*
X174000000Y-80500000D03*
%TD*%
D12*
%TO.C,R7*%
X169750000Y-80500000D03*
X171750000Y-80500000D03*
%TD*%
D18*
%TO.C,D4*%
X150500000Y-80225000D03*
X150500000Y-82275000D03*
%TD*%
D20*
%TO.C,D9*%
X163250000Y-108000000D03*
X163250000Y-105950000D03*
%TD*%
D19*
%TO.C,R5*%
X145750000Y-82500000D03*
X143750000Y-82500000D03*
%TD*%
D18*
%TO.C,D5*%
X148000000Y-82475000D03*
X148000000Y-84525000D03*
%TD*%
D19*
%TO.C,R2*%
X155000000Y-107000000D03*
X153000000Y-107000000D03*
%TD*%
M02*
