  0
SECTION
  2
HEADER
  9
$ANGBASE
  50
0.0
  9
$ANGDIR
  70
1
  9
$MEASUREMENT
  70
1
  0
ENDSEC
  0
SECTION
  2
TABLES
  0
TABLE
  2
LTYPE
  70
4
  0
LTYPE
  5
40F
  2
CONTINUOUS
  70
0
  3
Solid line
  72
65
  73
0
  40
0.0
  0
LTYPE
  5
410
  2
DASHDOT
 70
0
  3
Dash Dot ____ _ ____ _
 72
65
 73
4
 40
2.0
 49
1.25
 49
-0.25
 49
0.25
 49
-0.25
  0
LTYPE
  5
411
  2
DASHED
 70
0
  3
Dashed __ __ __ __ __
 72
65
 73
2
 40
0.75
 49
0.5
 49
-0.25
  0
LTYPE
  5
43B
  2
DOTTED
 70
0
  3
Dotted .  .  .  .
 72
65
 73
2
 40
0.2
 49
0.0
 49
-0.2
  0
ENDTAB
  0
TABLE
  2
STYLE
  70
4
  0
STYLE
  2
KICAD
  70
0
  40
0
  41
1
  42
1
  50
0
  71
0
  3
isocp.shx
  0
STYLE
  2
KICADB
  70
0
  40
0
  41
1
  42
1
  50
0
  71
0
  3
isocp.shx
  0
STYLE
  2
KICADI
  70
0
  40
0
  41
1
  42
1
  50
15
  71
0
  3
isocp.shx
  0
STYLE
  2
KICADBI
  70
0
  40
0
  41
1
  42
1
  50
15
  71
0
  3
isocp.shx
  0
ENDTAB
  0
TABLE
  2
LAYER
  70
1
  0
LAYER
  2
BLACK
  70
0
  62
7
  6
CONTINUOUS
  0
ENDTAB
  0
ENDSEC
  0
SECTION
  2
ENTITIES
0
LINE
8
BLACK
6
CONTINUOUS
10
135.
20
-67.5
11
187.5
21
-67.5
0
LINE
8
BLACK
6
CONTINUOUS
10
187.5
20
-67.5
11
187.5
21
-110.
0
LINE
8
BLACK
6
CONTINUOUS
10
187.5
20
-110.
11
135.
21
-110.
0
LINE
8
BLACK
6
CONTINUOUS
10
135.
20
-110.
11
135.
21
-67.5
0
LINE
8
BLACK
6
CONTINUOUS
10
137.5827679999999873
20
-113.1398379999999975
11
137.5827679999999873
21
-111.1398379999999975
0
LINE
8
BLACK
6
CONTINUOUS
10
137.5827679999999873
20
-111.1398379999999975
11
138.0589579999999899
21
-111.1398379999999975
0
LINE
8
BLACK
6
CONTINUOUS
10
138.0589579999999899
20
-111.1398379999999975
11
138.3446730000000002
21
-111.2350759999999923
0
LINE
8
BLACK
6
CONTINUOUS
10
138.3446730000000002
20
-111.2350759999999923
11
138.5351489999999899
21
-111.4255519999999962
0
LINE
8
BLACK
6
CONTINUOUS
10
138.5351489999999899
20
-111.4255519999999962
11
138.6303869999999847
21
-111.616028
0
LINE
8
BLACK
6
CONTINUOUS
10
138.6303869999999847
20
-111.616028
11
138.7256249999999795
21
-111.9969799999999935
0
LINE
8
BLACK
6
CONTINUOUS
10
138.7256249999999795
20
-111.9969799999999935
11
138.7256249999999795
21
-112.2826949999999897
0
LINE
8
BLACK
6
CONTINUOUS
10
138.7256249999999795
20
-112.2826949999999897
11
138.6303869999999847
21
-112.6636469999999974
0
LINE
8
BLACK
6
CONTINUOUS
10
138.6303869999999847
20
-112.6636469999999974
11
138.5351489999999899
21
-112.8541230000000013
0
LINE
8
BLACK
6
CONTINUOUS
10
138.5351489999999899
20
-112.8541230000000013
11
138.3446730000000002
21
-113.0445999999999884
0
LINE
8
BLACK
6
CONTINUOUS
10
138.3446730000000002
20
-113.0445999999999884
11
138.0589579999999899
21
-113.1398379999999975
0
LINE
8
BLACK
6
CONTINUOUS
10
138.0589579999999899
20
-113.1398379999999975
11
137.5827679999999873
21
-113.1398379999999975
0
LINE
8
BLACK
6
CONTINUOUS
10
139.5827679999999873
20
-113.1398379999999975
11
139.5827679999999873
21
-111.8065039999999897
0
LINE
8
BLACK
6
CONTINUOUS
10
139.5827679999999873
20
-112.1874569999999949
11
139.6780059999999821
21
-111.9969799999999935
0
LINE
8
BLACK
6
CONTINUOUS
10
139.6780059999999821
20
-111.9969799999999935
11
139.7732440000000054
21
-111.9017419999999987
0
LINE
8
BLACK
6
CONTINUOUS
10
139.7732440000000054
20
-111.9017419999999987
11
139.963719999999995
21
-111.8065039999999897
0
LINE
8
BLACK
6
CONTINUOUS
10
139.963719999999995
20
-111.8065039999999897
11
140.1541969999999822
21
-111.8065039999999897
0
LINE
8
BLACK
6
CONTINUOUS
10
140.8208630000000028
20
-113.1398379999999975
11
140.8208630000000028
21
-111.8065039999999897
0
LINE
8
BLACK
6
CONTINUOUS
10
140.8208630000000028
20
-111.1398379999999975
11
140.7256249999999795
21
-111.2350759999999923
0
LINE
8
BLACK
6
CONTINUOUS
10
140.7256249999999795
20
-111.2350759999999923
11
140.8208630000000028
21
-111.3303140000000013
0
LINE
8
BLACK
6
CONTINUOUS
10
140.8208630000000028
20
-111.3303140000000013
11
140.9161009999999976
21
-111.2350759999999923
0
LINE
8
BLACK
6
CONTINUOUS
10
140.9161009999999976
20
-111.2350759999999923
11
140.8208630000000028
21
-111.1398379999999975
0
LINE
8
BLACK
6
CONTINUOUS
10
140.8208630000000028
20
-111.1398379999999975
11
140.8208630000000028
21
-111.3303140000000013
0
LINE
8
BLACK
6
CONTINUOUS
10
142.0589579999999899
20
-113.1398379999999975
11
141.8684820000000002
21
-113.0445999999999884
0
LINE
8
BLACK
6
CONTINUOUS
10
141.8684820000000002
20
-113.0445999999999884
11
141.7732440000000054
21
-112.8541230000000013
0
LINE
8
BLACK
6
CONTINUOUS
10
141.7732440000000054
20
-112.8541230000000013
11
141.7732440000000054
21
-111.1398379999999975
0
LINE
8
BLACK
6
CONTINUOUS
10
143.1065769999999873
20
-113.1398379999999975
11
142.9161009999999976
21
-113.0445999999999884
0
LINE
8
BLACK
6
CONTINUOUS
10
142.9161009999999976
20
-113.0445999999999884
11
142.8208630000000028
21
-112.8541230000000013
0
LINE
8
BLACK
6
CONTINUOUS
10
142.8208630000000028
20
-112.8541230000000013
11
142.8208630000000028
21
-111.1398379999999975
0
LINE
8
BLACK
6
CONTINUOUS
10
145.3922919999999976
20
-113.1398379999999975
11
145.3922919999999976
21
-111.1398379999999975
0
LINE
8
BLACK
6
CONTINUOUS
10
145.3922919999999976
20
-111.1398379999999975
11
146.0589589999999873
21
-112.5684089999999884
0
LINE
8
BLACK
6
CONTINUOUS
10
146.0589589999999873
20
-112.5684089999999884
11
146.7256249999999795
21
-111.1398379999999975
0
LINE
8
BLACK
6
CONTINUOUS
10
146.7256249999999795
20
-111.1398379999999975
11
146.7256249999999795
21
-113.1398379999999975
0
LINE
8
BLACK
6
CONTINUOUS
10
148.5351489999999899
20
-113.1398379999999975
11
148.5351489999999899
21
-112.0922190000000001
0
LINE
8
BLACK
6
CONTINUOUS
10
148.5351489999999899
20
-112.0922190000000001
11
148.4399109999999951
21
-111.9017419999999987
0
LINE
8
BLACK
6
CONTINUOUS
10
148.4399109999999951
20
-111.9017419999999987
11
148.2494350000000054
21
-111.8065039999999897
0
LINE
8
BLACK
6
CONTINUOUS
10
148.2494350000000054
20
-111.8065039999999897
11
147.8684820000000002
21
-111.8065039999999897
0
LINE
8
BLACK
6
CONTINUOUS
10
147.8684820000000002
20
-111.8065039999999897
11
147.6780059999999821
21
-111.9017419999999987
0
LINE
8
BLACK
6
CONTINUOUS
10
148.5351489999999899
20
-113.0445999999999884
11
148.3446730000000002
21
-113.1398379999999975
0
LINE
8
BLACK
6
CONTINUOUS
10
148.3446730000000002
20
-113.1398379999999975
11
147.8684820000000002
21
-113.1398379999999975
0
LINE
8
BLACK
6
CONTINUOUS
10
147.8684820000000002
20
-113.1398379999999975
11
147.6780059999999821
21
-113.0445999999999884
0
LINE
8
BLACK
6
CONTINUOUS
10
147.6780059999999821
20
-113.0445999999999884
11
147.5827679999999873
21
-112.8541230000000013
0
LINE
8
BLACK
6
CONTINUOUS
10
147.5827679999999873
20
-112.8541230000000013
11
147.5827679999999873
21
-112.6636469999999974
0
LINE
8
BLACK
6
CONTINUOUS
10
147.5827679999999873
20
-112.6636469999999974
11
147.6780059999999821
21
-112.4731709999999936
0
LINE
8
BLACK
6
CONTINUOUS
10
147.6780059999999821
20
-112.4731709999999936
11
147.8684820000000002
21
-112.3779329999999987
0
LINE
8
BLACK
6
CONTINUOUS
10
147.8684820000000002
20
-112.3779329999999987
11
148.3446730000000002
21
-112.3779329999999987
0
LINE
8
BLACK
6
CONTINUOUS
10
148.3446730000000002
20
-112.3779329999999987
11
148.5351489999999899
21
-112.2826949999999897
0
LINE
8
BLACK
6
CONTINUOUS
10
149.4875299999999925
20
-111.8065039999999897
11
149.4875299999999925
21
-113.8065039999999897
0
LINE
8
BLACK
6
CONTINUOUS
10
149.4875299999999925
20
-111.9017419999999987
11
149.6780059999999821
21
-111.8065039999999897
0
LINE
8
BLACK
6
CONTINUOUS
10
149.6780059999999821
20
-111.8065039999999897
11
150.0589589999999873
21
-111.8065039999999897
0
LINE
8
BLACK
6
CONTINUOUS
10
150.0589589999999873
20
-111.8065039999999897
11
150.2494350000000054
21
-111.9017419999999987
0
LINE
8
BLACK
6
CONTINUOUS
10
150.2494350000000054
20
-111.9017419999999987
11
150.3446730000000002
21
-111.9969799999999935
0
LINE
8
BLACK
6
CONTINUOUS
10
150.3446730000000002
20
-111.9969799999999935
11
150.4399109999999951
21
-112.1874569999999949
0
LINE
8
BLACK
6
CONTINUOUS
10
150.4399109999999951
20
-112.1874569999999949
11
150.4399109999999951
21
-112.7588849999999923
0
LINE
8
BLACK
6
CONTINUOUS
10
150.4399109999999951
20
-112.7588849999999923
11
150.3446730000000002
21
-112.9493609999999961
0
LINE
8
BLACK
6
CONTINUOUS
10
150.3446730000000002
20
-112.9493609999999961
11
150.2494350000000054
21
-113.0445999999999884
0
LINE
8
BLACK
6
CONTINUOUS
10
150.2494350000000054
20
-113.0445999999999884
11
150.0589589999999873
21
-113.1398379999999975
0
LINE
8
BLACK
6
CONTINUOUS
10
150.0589589999999873
20
-113.1398379999999975
11
149.6780059999999821
21
-113.1398379999999975
0
LINE
8
BLACK
6
CONTINUOUS
10
149.6780059999999821
20
-113.1398379999999975
11
149.4875299999999925
21
-113.0445999999999884
0
LINE
8
BLACK
6
CONTINUOUS
10
151.2970540000000028
20
-112.9493609999999961
11
151.3922919999999976
21
-113.0445999999999884
0
LINE
8
BLACK
6
CONTINUOUS
10
151.3922919999999976
20
-113.0445999999999884
11
151.2970540000000028
21
-113.1398379999999975
0
LINE
8
BLACK
6
CONTINUOUS
10
151.2970540000000028
20
-113.1398379999999975
11
151.2018159999999796
21
-113.0445999999999884
0
LINE
8
BLACK
6
CONTINUOUS
10
151.2018159999999796
20
-113.0445999999999884
11
151.2970540000000028
21
-112.9493609999999961
0
LINE
8
BLACK
6
CONTINUOUS
10
151.2970540000000028
20
-112.9493609999999961
11
151.2970540000000028
21
-113.1398379999999975
0
LINE
8
BLACK
6
CONTINUOUS
10
151.2970540000000028
20
-111.9017419999999987
11
151.3922919999999976
21
-111.9969799999999935
0
LINE
8
BLACK
6
CONTINUOUS
10
151.3922919999999976
20
-111.9969799999999935
11
151.2970540000000028
21
-112.0922190000000001
0
LINE
8
BLACK
6
CONTINUOUS
10
151.2970540000000028
20
-112.0922190000000001
11
151.2018159999999796
21
-111.9969799999999935
0
LINE
8
BLACK
6
CONTINUOUS
10
151.2018159999999796
20
-111.9969799999999935
11
151.2970540000000028
21
-111.9017419999999987
0
LINE
8
BLACK
6
CONTINUOUS
10
151.2970540000000028
20
-111.9017419999999987
11
151.2970540000000028
21
-112.0922190000000001
  0
ENDSEC
  0
EOF
