%TF.GenerationSoftware,KiCad,Pcbnew,8.0.9-8.0.9-0~ubuntu20.04.1*%
%TF.CreationDate,2025-08-05T19:54:57+10:00*%
%TF.ProjectId,glowforge-psu-breakout,676c6f77-666f-4726-9765-2d7073752d62,rev?*%
%TF.SameCoordinates,Original*%
%TF.FileFunction,Legend,Top*%
%TF.FilePolarity,Positive*%
%FSLAX46Y46*%
G04 Gerber Fmt 4.6, Leading zero omitted, Abs format (unit mm)*
G04 Created by KiCad (PCBNEW 8.0.9-8.0.9-0~ubuntu20.04.1) date 2025-08-05 19:54:57*
%MOMM*%
%LPD*%
G01*
G04 APERTURE LIST*
%ADD10C,0.100000*%
%ADD11C,0.150000*%
%ADD12C,0.400000*%
%ADD13C,0.120000*%
%ADD14C,0.200000*%
G04 APERTURE END LIST*
D10*
X140217657Y-96993734D02*
X140170038Y-96946115D01*
X140170038Y-96946115D02*
X140122419Y-96850877D01*
X140122419Y-96850877D02*
X140122419Y-96612782D01*
X140122419Y-96612782D02*
X140170038Y-96517544D01*
X140170038Y-96517544D02*
X140217657Y-96469925D01*
X140217657Y-96469925D02*
X140312895Y-96422306D01*
X140312895Y-96422306D02*
X140408133Y-96422306D01*
X140408133Y-96422306D02*
X140550990Y-96469925D01*
X140550990Y-96469925D02*
X141122419Y-97041353D01*
X141122419Y-97041353D02*
X141122419Y-96422306D01*
X141122419Y-95946115D02*
X141122419Y-95755639D01*
X141122419Y-95755639D02*
X141074800Y-95660401D01*
X141074800Y-95660401D02*
X141027180Y-95612782D01*
X141027180Y-95612782D02*
X140884323Y-95517544D01*
X140884323Y-95517544D02*
X140693847Y-95469925D01*
X140693847Y-95469925D02*
X140312895Y-95469925D01*
X140312895Y-95469925D02*
X140217657Y-95517544D01*
X140217657Y-95517544D02*
X140170038Y-95565163D01*
X140170038Y-95565163D02*
X140122419Y-95660401D01*
X140122419Y-95660401D02*
X140122419Y-95850877D01*
X140122419Y-95850877D02*
X140170038Y-95946115D01*
X140170038Y-95946115D02*
X140217657Y-95993734D01*
X140217657Y-95993734D02*
X140312895Y-96041353D01*
X140312895Y-96041353D02*
X140550990Y-96041353D01*
X140550990Y-96041353D02*
X140646228Y-95993734D01*
X140646228Y-95993734D02*
X140693847Y-95946115D01*
X140693847Y-95946115D02*
X140741466Y-95850877D01*
X140741466Y-95850877D02*
X140741466Y-95660401D01*
X140741466Y-95660401D02*
X140693847Y-95565163D01*
X140693847Y-95565163D02*
X140646228Y-95517544D01*
X140646228Y-95517544D02*
X140550990Y-95469925D01*
X147667657Y-94493734D02*
X147620038Y-94446115D01*
X147620038Y-94446115D02*
X147572419Y-94350877D01*
X147572419Y-94350877D02*
X147572419Y-94112782D01*
X147572419Y-94112782D02*
X147620038Y-94017544D01*
X147620038Y-94017544D02*
X147667657Y-93969925D01*
X147667657Y-93969925D02*
X147762895Y-93922306D01*
X147762895Y-93922306D02*
X147858133Y-93922306D01*
X147858133Y-93922306D02*
X148000990Y-93969925D01*
X148000990Y-93969925D02*
X148572419Y-94541353D01*
X148572419Y-94541353D02*
X148572419Y-93922306D01*
X147572419Y-93017544D02*
X147572419Y-93493734D01*
X147572419Y-93493734D02*
X148048609Y-93541353D01*
X148048609Y-93541353D02*
X148000990Y-93493734D01*
X148000990Y-93493734D02*
X147953371Y-93398496D01*
X147953371Y-93398496D02*
X147953371Y-93160401D01*
X147953371Y-93160401D02*
X148000990Y-93065163D01*
X148000990Y-93065163D02*
X148048609Y-93017544D01*
X148048609Y-93017544D02*
X148143847Y-92969925D01*
X148143847Y-92969925D02*
X148381942Y-92969925D01*
X148381942Y-92969925D02*
X148477180Y-93017544D01*
X148477180Y-93017544D02*
X148524800Y-93065163D01*
X148524800Y-93065163D02*
X148572419Y-93160401D01*
X148572419Y-93160401D02*
X148572419Y-93398496D01*
X148572419Y-93398496D02*
X148524800Y-93493734D01*
X148524800Y-93493734D02*
X148477180Y-93541353D01*
D11*
X158619819Y-103139411D02*
X158619819Y-103710839D01*
X158619819Y-103425125D02*
X157619819Y-103425125D01*
X157619819Y-103425125D02*
X157762676Y-103520363D01*
X157762676Y-103520363D02*
X157857914Y-103615601D01*
X157857914Y-103615601D02*
X157905533Y-103710839D01*
X157715057Y-102758458D02*
X157667438Y-102710839D01*
X157667438Y-102710839D02*
X157619819Y-102615601D01*
X157619819Y-102615601D02*
X157619819Y-102377506D01*
X157619819Y-102377506D02*
X157667438Y-102282268D01*
X157667438Y-102282268D02*
X157715057Y-102234649D01*
X157715057Y-102234649D02*
X157810295Y-102187030D01*
X157810295Y-102187030D02*
X157905533Y-102187030D01*
X157905533Y-102187030D02*
X158048390Y-102234649D01*
X158048390Y-102234649D02*
X158619819Y-102806077D01*
X158619819Y-102806077D02*
X158619819Y-102187030D01*
X157953152Y-101853696D02*
X158619819Y-101615601D01*
X158619819Y-101615601D02*
X157953152Y-101377506D01*
X158715057Y-101234649D02*
X158715057Y-100472744D01*
X158096009Y-100234648D02*
X158096009Y-99901315D01*
X158619819Y-99758458D02*
X158619819Y-100234648D01*
X158619819Y-100234648D02*
X157619819Y-100234648D01*
X157619819Y-100234648D02*
X157619819Y-99758458D01*
X158619819Y-99329886D02*
X157619819Y-99329886D01*
X157619819Y-99329886D02*
X158619819Y-98758458D01*
X158619819Y-98758458D02*
X157619819Y-98758458D01*
X158238866Y-98282267D02*
X158238866Y-97520363D01*
X160738866Y-89413220D02*
X160738866Y-88651316D01*
X161119819Y-88175125D02*
X160119819Y-88175125D01*
X160596009Y-88175125D02*
X160596009Y-87603697D01*
X161119819Y-87603697D02*
X160119819Y-87603697D01*
X160119819Y-87270363D02*
X161119819Y-86937030D01*
X161119819Y-86937030D02*
X160119819Y-86603697D01*
X161215057Y-86508459D02*
X161215057Y-85746554D01*
X160596009Y-85508458D02*
X160596009Y-85175125D01*
X161119819Y-85032268D02*
X161119819Y-85508458D01*
X161119819Y-85508458D02*
X160119819Y-85508458D01*
X160119819Y-85508458D02*
X160119819Y-85032268D01*
X161119819Y-84603696D02*
X160119819Y-84603696D01*
X160119819Y-84603696D02*
X161119819Y-84032268D01*
X161119819Y-84032268D02*
X160119819Y-84032268D01*
D12*
X168260652Y-66515561D02*
X168260652Y-68515561D01*
X168260652Y-68515561D02*
X167498747Y-68515561D01*
X167498747Y-68515561D02*
X167308271Y-68420323D01*
X167308271Y-68420323D02*
X167213033Y-68325085D01*
X167213033Y-68325085D02*
X167117795Y-68134609D01*
X167117795Y-68134609D02*
X167117795Y-67848895D01*
X167117795Y-67848895D02*
X167213033Y-67658419D01*
X167213033Y-67658419D02*
X167308271Y-67563180D01*
X167308271Y-67563180D02*
X167498747Y-67467942D01*
X167498747Y-67467942D02*
X168260652Y-67467942D01*
X165974938Y-66515561D02*
X166165414Y-66610800D01*
X166165414Y-66610800D02*
X166260652Y-66706038D01*
X166260652Y-66706038D02*
X166355890Y-66896514D01*
X166355890Y-66896514D02*
X166355890Y-67467942D01*
X166355890Y-67467942D02*
X166260652Y-67658419D01*
X166260652Y-67658419D02*
X166165414Y-67753657D01*
X166165414Y-67753657D02*
X165974938Y-67848895D01*
X165974938Y-67848895D02*
X165689223Y-67848895D01*
X165689223Y-67848895D02*
X165498747Y-67753657D01*
X165498747Y-67753657D02*
X165403509Y-67658419D01*
X165403509Y-67658419D02*
X165308271Y-67467942D01*
X165308271Y-67467942D02*
X165308271Y-66896514D01*
X165308271Y-66896514D02*
X165403509Y-66706038D01*
X165403509Y-66706038D02*
X165498747Y-66610800D01*
X165498747Y-66610800D02*
X165689223Y-66515561D01*
X165689223Y-66515561D02*
X165974938Y-66515561D01*
X164641604Y-67848895D02*
X164260652Y-66515561D01*
X164260652Y-66515561D02*
X163879699Y-67467942D01*
X163879699Y-67467942D02*
X163498747Y-66515561D01*
X163498747Y-66515561D02*
X163117795Y-67848895D01*
X161593985Y-66610800D02*
X161784461Y-66515561D01*
X161784461Y-66515561D02*
X162165414Y-66515561D01*
X162165414Y-66515561D02*
X162355890Y-66610800D01*
X162355890Y-66610800D02*
X162451128Y-66801276D01*
X162451128Y-66801276D02*
X162451128Y-67563180D01*
X162451128Y-67563180D02*
X162355890Y-67753657D01*
X162355890Y-67753657D02*
X162165414Y-67848895D01*
X162165414Y-67848895D02*
X161784461Y-67848895D01*
X161784461Y-67848895D02*
X161593985Y-67753657D01*
X161593985Y-67753657D02*
X161498747Y-67563180D01*
X161498747Y-67563180D02*
X161498747Y-67372704D01*
X161498747Y-67372704D02*
X162451128Y-67182228D01*
X160641604Y-66515561D02*
X160641604Y-67848895D01*
X160641604Y-67467942D02*
X160546366Y-67658419D01*
X160546366Y-67658419D02*
X160451128Y-67753657D01*
X160451128Y-67753657D02*
X160260652Y-67848895D01*
X160260652Y-67848895D02*
X160070175Y-67848895D01*
X157974937Y-66610800D02*
X157784461Y-66515561D01*
X157784461Y-66515561D02*
X157403509Y-66515561D01*
X157403509Y-66515561D02*
X157213032Y-66610800D01*
X157213032Y-66610800D02*
X157117794Y-66801276D01*
X157117794Y-66801276D02*
X157117794Y-66896514D01*
X157117794Y-66896514D02*
X157213032Y-67086990D01*
X157213032Y-67086990D02*
X157403509Y-67182228D01*
X157403509Y-67182228D02*
X157689223Y-67182228D01*
X157689223Y-67182228D02*
X157879699Y-67277466D01*
X157879699Y-67277466D02*
X157974937Y-67467942D01*
X157974937Y-67467942D02*
X157974937Y-67563180D01*
X157974937Y-67563180D02*
X157879699Y-67753657D01*
X157879699Y-67753657D02*
X157689223Y-67848895D01*
X157689223Y-67848895D02*
X157403509Y-67848895D01*
X157403509Y-67848895D02*
X157213032Y-67753657D01*
X155403508Y-67848895D02*
X155403508Y-66515561D01*
X156260651Y-67848895D02*
X156260651Y-66801276D01*
X156260651Y-66801276D02*
X156165413Y-66610800D01*
X156165413Y-66610800D02*
X155974937Y-66515561D01*
X155974937Y-66515561D02*
X155689222Y-66515561D01*
X155689222Y-66515561D02*
X155498746Y-66610800D01*
X155498746Y-66610800D02*
X155403508Y-66706038D01*
X154451127Y-67848895D02*
X154451127Y-65848895D01*
X154451127Y-67753657D02*
X154260651Y-67848895D01*
X154260651Y-67848895D02*
X153879698Y-67848895D01*
X153879698Y-67848895D02*
X153689222Y-67753657D01*
X153689222Y-67753657D02*
X153593984Y-67658419D01*
X153593984Y-67658419D02*
X153498746Y-67467942D01*
X153498746Y-67467942D02*
X153498746Y-66896514D01*
X153498746Y-66896514D02*
X153593984Y-66706038D01*
X153593984Y-66706038D02*
X153689222Y-66610800D01*
X153689222Y-66610800D02*
X153879698Y-66515561D01*
X153879698Y-66515561D02*
X154260651Y-66515561D01*
X154260651Y-66515561D02*
X154451127Y-66610800D01*
X152641603Y-67848895D02*
X152641603Y-65848895D01*
X152641603Y-67753657D02*
X152451127Y-67848895D01*
X152451127Y-67848895D02*
X152070174Y-67848895D01*
X152070174Y-67848895D02*
X151879698Y-67753657D01*
X151879698Y-67753657D02*
X151784460Y-67658419D01*
X151784460Y-67658419D02*
X151689222Y-67467942D01*
X151689222Y-67467942D02*
X151689222Y-66896514D01*
X151689222Y-66896514D02*
X151784460Y-66706038D01*
X151784460Y-66706038D02*
X151879698Y-66610800D01*
X151879698Y-66610800D02*
X152070174Y-66515561D01*
X152070174Y-66515561D02*
X152451127Y-66515561D01*
X152451127Y-66515561D02*
X152641603Y-66610800D01*
X150546365Y-66515561D02*
X150736841Y-66610800D01*
X150736841Y-66610800D02*
X150832079Y-66801276D01*
X150832079Y-66801276D02*
X150832079Y-68515561D01*
X149974936Y-67848895D02*
X149498746Y-66515561D01*
X149022555Y-67848895D02*
X149498746Y-66515561D01*
X149498746Y-66515561D02*
X149689222Y-66039371D01*
X149689222Y-66039371D02*
X149784460Y-65944133D01*
X149784460Y-65944133D02*
X149974936Y-65848895D01*
D10*
X146327693Y-109122419D02*
X145756265Y-109122419D01*
X146041979Y-109122419D02*
X146041979Y-108122419D01*
X146041979Y-108122419D02*
X145946741Y-108265276D01*
X145946741Y-108265276D02*
X145851503Y-108360514D01*
X145851503Y-108360514D02*
X145756265Y-108408133D01*
D11*
X152667438Y-100889411D02*
X152619819Y-100984649D01*
X152619819Y-100984649D02*
X152619819Y-101127506D01*
X152619819Y-101127506D02*
X152667438Y-101270363D01*
X152667438Y-101270363D02*
X152762676Y-101365601D01*
X152762676Y-101365601D02*
X152857914Y-101413220D01*
X152857914Y-101413220D02*
X153048390Y-101460839D01*
X153048390Y-101460839D02*
X153191247Y-101460839D01*
X153191247Y-101460839D02*
X153381723Y-101413220D01*
X153381723Y-101413220D02*
X153476961Y-101365601D01*
X153476961Y-101365601D02*
X153572200Y-101270363D01*
X153572200Y-101270363D02*
X153619819Y-101127506D01*
X153619819Y-101127506D02*
X153619819Y-101032268D01*
X153619819Y-101032268D02*
X153572200Y-100889411D01*
X153572200Y-100889411D02*
X153524580Y-100841792D01*
X153524580Y-100841792D02*
X153191247Y-100841792D01*
X153191247Y-100841792D02*
X153191247Y-101032268D01*
X153619819Y-100413220D02*
X152619819Y-100413220D01*
X152619819Y-100413220D02*
X153619819Y-99841792D01*
X153619819Y-99841792D02*
X152619819Y-99841792D01*
X153619819Y-99365601D02*
X152619819Y-99365601D01*
X152619819Y-99365601D02*
X152619819Y-99127506D01*
X152619819Y-99127506D02*
X152667438Y-98984649D01*
X152667438Y-98984649D02*
X152762676Y-98889411D01*
X152762676Y-98889411D02*
X152857914Y-98841792D01*
X152857914Y-98841792D02*
X153048390Y-98794173D01*
X153048390Y-98794173D02*
X153191247Y-98794173D01*
X153191247Y-98794173D02*
X153381723Y-98841792D01*
X153381723Y-98841792D02*
X153476961Y-98889411D01*
X153476961Y-98889411D02*
X153572200Y-98984649D01*
X153572200Y-98984649D02*
X153619819Y-99127506D01*
X153619819Y-99127506D02*
X153619819Y-99365601D01*
X153238866Y-98365601D02*
X153238866Y-97603697D01*
X161119819Y-104913220D02*
X160119819Y-104913220D01*
X160119819Y-104913220D02*
X160119819Y-104532268D01*
X160119819Y-104532268D02*
X160167438Y-104437030D01*
X160167438Y-104437030D02*
X160215057Y-104389411D01*
X160215057Y-104389411D02*
X160310295Y-104341792D01*
X160310295Y-104341792D02*
X160453152Y-104341792D01*
X160453152Y-104341792D02*
X160548390Y-104389411D01*
X160548390Y-104389411D02*
X160596009Y-104437030D01*
X160596009Y-104437030D02*
X160643628Y-104532268D01*
X160643628Y-104532268D02*
X160643628Y-104913220D01*
X160119819Y-104008458D02*
X161119819Y-103770363D01*
X161119819Y-103770363D02*
X160405533Y-103579887D01*
X160405533Y-103579887D02*
X161119819Y-103389411D01*
X161119819Y-103389411D02*
X160119819Y-103151316D01*
X161119819Y-102198935D02*
X160643628Y-102532268D01*
X161119819Y-102770363D02*
X160119819Y-102770363D01*
X160119819Y-102770363D02*
X160119819Y-102389411D01*
X160119819Y-102389411D02*
X160167438Y-102294173D01*
X160167438Y-102294173D02*
X160215057Y-102246554D01*
X160215057Y-102246554D02*
X160310295Y-102198935D01*
X160310295Y-102198935D02*
X160453152Y-102198935D01*
X160453152Y-102198935D02*
X160548390Y-102246554D01*
X160548390Y-102246554D02*
X160596009Y-102294173D01*
X160596009Y-102294173D02*
X160643628Y-102389411D01*
X160643628Y-102389411D02*
X160643628Y-102770363D01*
X161215057Y-102008459D02*
X161215057Y-101246554D01*
X160119819Y-101151315D02*
X160119819Y-100579887D01*
X161119819Y-100865601D02*
X160119819Y-100865601D01*
X161119819Y-100246553D02*
X160119819Y-100246553D01*
X160119819Y-100246553D02*
X160834104Y-99913220D01*
X160834104Y-99913220D02*
X160119819Y-99579887D01*
X160119819Y-99579887D02*
X161119819Y-99579887D01*
X161119819Y-99103696D02*
X160119819Y-99103696D01*
X160119819Y-99103696D02*
X160119819Y-98722744D01*
X160119819Y-98722744D02*
X160167438Y-98627506D01*
X160167438Y-98627506D02*
X160215057Y-98579887D01*
X160215057Y-98579887D02*
X160310295Y-98532268D01*
X160310295Y-98532268D02*
X160453152Y-98532268D01*
X160453152Y-98532268D02*
X160548390Y-98579887D01*
X160548390Y-98579887D02*
X160596009Y-98627506D01*
X160596009Y-98627506D02*
X160643628Y-98722744D01*
X160643628Y-98722744D02*
X160643628Y-99103696D01*
X160738866Y-98103696D02*
X160738866Y-97341792D01*
X155738866Y-89413220D02*
X155738866Y-88651316D01*
X156119819Y-87651316D02*
X156119819Y-88222744D01*
X156119819Y-87937030D02*
X155119819Y-87937030D01*
X155119819Y-87937030D02*
X155262676Y-88032268D01*
X155262676Y-88032268D02*
X155357914Y-88127506D01*
X155357914Y-88127506D02*
X155405533Y-88222744D01*
X155215057Y-87270363D02*
X155167438Y-87222744D01*
X155167438Y-87222744D02*
X155119819Y-87127506D01*
X155119819Y-87127506D02*
X155119819Y-86889411D01*
X155119819Y-86889411D02*
X155167438Y-86794173D01*
X155167438Y-86794173D02*
X155215057Y-86746554D01*
X155215057Y-86746554D02*
X155310295Y-86698935D01*
X155310295Y-86698935D02*
X155405533Y-86698935D01*
X155405533Y-86698935D02*
X155548390Y-86746554D01*
X155548390Y-86746554D02*
X156119819Y-87317982D01*
X156119819Y-87317982D02*
X156119819Y-86698935D01*
X155453152Y-86365601D02*
X156119819Y-86127506D01*
X156119819Y-86127506D02*
X155453152Y-85889411D01*
X153836779Y-115369819D02*
X153836779Y-114369819D01*
X153836779Y-114369819D02*
X154170112Y-115084104D01*
X154170112Y-115084104D02*
X154503445Y-114369819D01*
X154503445Y-114369819D02*
X154503445Y-115369819D01*
X155122493Y-115369819D02*
X155027255Y-115322200D01*
X155027255Y-115322200D02*
X154979636Y-115274580D01*
X154979636Y-115274580D02*
X154932017Y-115179342D01*
X154932017Y-115179342D02*
X154932017Y-114893628D01*
X154932017Y-114893628D02*
X154979636Y-114798390D01*
X154979636Y-114798390D02*
X155027255Y-114750771D01*
X155027255Y-114750771D02*
X155122493Y-114703152D01*
X155122493Y-114703152D02*
X155265350Y-114703152D01*
X155265350Y-114703152D02*
X155360588Y-114750771D01*
X155360588Y-114750771D02*
X155408207Y-114798390D01*
X155408207Y-114798390D02*
X155455826Y-114893628D01*
X155455826Y-114893628D02*
X155455826Y-115179342D01*
X155455826Y-115179342D02*
X155408207Y-115274580D01*
X155408207Y-115274580D02*
X155360588Y-115322200D01*
X155360588Y-115322200D02*
X155265350Y-115369819D01*
X155265350Y-115369819D02*
X155122493Y-115369819D01*
X156027255Y-115369819D02*
X155932017Y-115322200D01*
X155932017Y-115322200D02*
X155884398Y-115226961D01*
X155884398Y-115226961D02*
X155884398Y-114369819D01*
X156789160Y-115322200D02*
X156693922Y-115369819D01*
X156693922Y-115369819D02*
X156503446Y-115369819D01*
X156503446Y-115369819D02*
X156408208Y-115322200D01*
X156408208Y-115322200D02*
X156360589Y-115226961D01*
X156360589Y-115226961D02*
X156360589Y-114846009D01*
X156360589Y-114846009D02*
X156408208Y-114750771D01*
X156408208Y-114750771D02*
X156503446Y-114703152D01*
X156503446Y-114703152D02*
X156693922Y-114703152D01*
X156693922Y-114703152D02*
X156789160Y-114750771D01*
X156789160Y-114750771D02*
X156836779Y-114846009D01*
X156836779Y-114846009D02*
X156836779Y-114941247D01*
X156836779Y-114941247D02*
X156360589Y-115036485D01*
X157170113Y-115369819D02*
X157693922Y-114703152D01*
X157170113Y-114703152D02*
X157693922Y-115369819D01*
X159312970Y-114369819D02*
X158836780Y-114369819D01*
X158836780Y-114369819D02*
X158789161Y-114846009D01*
X158789161Y-114846009D02*
X158836780Y-114798390D01*
X158836780Y-114798390D02*
X158932018Y-114750771D01*
X158932018Y-114750771D02*
X159170113Y-114750771D01*
X159170113Y-114750771D02*
X159265351Y-114798390D01*
X159265351Y-114798390D02*
X159312970Y-114846009D01*
X159312970Y-114846009D02*
X159360589Y-114941247D01*
X159360589Y-114941247D02*
X159360589Y-115179342D01*
X159360589Y-115179342D02*
X159312970Y-115274580D01*
X159312970Y-115274580D02*
X159265351Y-115322200D01*
X159265351Y-115322200D02*
X159170113Y-115369819D01*
X159170113Y-115369819D02*
X158932018Y-115369819D01*
X158932018Y-115369819D02*
X158836780Y-115322200D01*
X158836780Y-115322200D02*
X158789161Y-115274580D01*
X159741542Y-114465057D02*
X159789161Y-114417438D01*
X159789161Y-114417438D02*
X159884399Y-114369819D01*
X159884399Y-114369819D02*
X160122494Y-114369819D01*
X160122494Y-114369819D02*
X160217732Y-114417438D01*
X160217732Y-114417438D02*
X160265351Y-114465057D01*
X160265351Y-114465057D02*
X160312970Y-114560295D01*
X160312970Y-114560295D02*
X160312970Y-114655533D01*
X160312970Y-114655533D02*
X160265351Y-114798390D01*
X160265351Y-114798390D02*
X159693923Y-115369819D01*
X159693923Y-115369819D02*
X160312970Y-115369819D01*
X160884399Y-114798390D02*
X160789161Y-114750771D01*
X160789161Y-114750771D02*
X160741542Y-114703152D01*
X160741542Y-114703152D02*
X160693923Y-114607914D01*
X160693923Y-114607914D02*
X160693923Y-114560295D01*
X160693923Y-114560295D02*
X160741542Y-114465057D01*
X160741542Y-114465057D02*
X160789161Y-114417438D01*
X160789161Y-114417438D02*
X160884399Y-114369819D01*
X160884399Y-114369819D02*
X161074875Y-114369819D01*
X161074875Y-114369819D02*
X161170113Y-114417438D01*
X161170113Y-114417438D02*
X161217732Y-114465057D01*
X161217732Y-114465057D02*
X161265351Y-114560295D01*
X161265351Y-114560295D02*
X161265351Y-114607914D01*
X161265351Y-114607914D02*
X161217732Y-114703152D01*
X161217732Y-114703152D02*
X161170113Y-114750771D01*
X161170113Y-114750771D02*
X161074875Y-114798390D01*
X161074875Y-114798390D02*
X160884399Y-114798390D01*
X160884399Y-114798390D02*
X160789161Y-114846009D01*
X160789161Y-114846009D02*
X160741542Y-114893628D01*
X160741542Y-114893628D02*
X160693923Y-114988866D01*
X160693923Y-114988866D02*
X160693923Y-115179342D01*
X160693923Y-115179342D02*
X160741542Y-115274580D01*
X160741542Y-115274580D02*
X160789161Y-115322200D01*
X160789161Y-115322200D02*
X160884399Y-115369819D01*
X160884399Y-115369819D02*
X161074875Y-115369819D01*
X161074875Y-115369819D02*
X161170113Y-115322200D01*
X161170113Y-115322200D02*
X161217732Y-115274580D01*
X161217732Y-115274580D02*
X161265351Y-115179342D01*
X161265351Y-115179342D02*
X161265351Y-114988866D01*
X161265351Y-114988866D02*
X161217732Y-114893628D01*
X161217732Y-114893628D02*
X161170113Y-114846009D01*
X161170113Y-114846009D02*
X161074875Y-114798390D01*
X161884399Y-114369819D02*
X161979637Y-114369819D01*
X161979637Y-114369819D02*
X162074875Y-114417438D01*
X162074875Y-114417438D02*
X162122494Y-114465057D01*
X162122494Y-114465057D02*
X162170113Y-114560295D01*
X162170113Y-114560295D02*
X162217732Y-114750771D01*
X162217732Y-114750771D02*
X162217732Y-114988866D01*
X162217732Y-114988866D02*
X162170113Y-115179342D01*
X162170113Y-115179342D02*
X162122494Y-115274580D01*
X162122494Y-115274580D02*
X162074875Y-115322200D01*
X162074875Y-115322200D02*
X161979637Y-115369819D01*
X161979637Y-115369819D02*
X161884399Y-115369819D01*
X161884399Y-115369819D02*
X161789161Y-115322200D01*
X161789161Y-115322200D02*
X161741542Y-115274580D01*
X161741542Y-115274580D02*
X161693923Y-115179342D01*
X161693923Y-115179342D02*
X161646304Y-114988866D01*
X161646304Y-114988866D02*
X161646304Y-114750771D01*
X161646304Y-114750771D02*
X161693923Y-114560295D01*
X161693923Y-114560295D02*
X161741542Y-114465057D01*
X161741542Y-114465057D02*
X161789161Y-114417438D01*
X161789161Y-114417438D02*
X161884399Y-114369819D01*
X162551066Y-114369819D02*
X163217732Y-114369819D01*
X163217732Y-114369819D02*
X162789161Y-115369819D01*
X163598685Y-114988866D02*
X164360590Y-114988866D01*
X164741542Y-114369819D02*
X165360589Y-114369819D01*
X165360589Y-114369819D02*
X165027256Y-114750771D01*
X165027256Y-114750771D02*
X165170113Y-114750771D01*
X165170113Y-114750771D02*
X165265351Y-114798390D01*
X165265351Y-114798390D02*
X165312970Y-114846009D01*
X165312970Y-114846009D02*
X165360589Y-114941247D01*
X165360589Y-114941247D02*
X165360589Y-115179342D01*
X165360589Y-115179342D02*
X165312970Y-115274580D01*
X165312970Y-115274580D02*
X165265351Y-115322200D01*
X165265351Y-115322200D02*
X165170113Y-115369819D01*
X165170113Y-115369819D02*
X164884399Y-115369819D01*
X164884399Y-115369819D02*
X164789161Y-115322200D01*
X164789161Y-115322200D02*
X164741542Y-115274580D01*
X165979637Y-114369819D02*
X166074875Y-114369819D01*
X166074875Y-114369819D02*
X166170113Y-114417438D01*
X166170113Y-114417438D02*
X166217732Y-114465057D01*
X166217732Y-114465057D02*
X166265351Y-114560295D01*
X166265351Y-114560295D02*
X166312970Y-114750771D01*
X166312970Y-114750771D02*
X166312970Y-114988866D01*
X166312970Y-114988866D02*
X166265351Y-115179342D01*
X166265351Y-115179342D02*
X166217732Y-115274580D01*
X166217732Y-115274580D02*
X166170113Y-115322200D01*
X166170113Y-115322200D02*
X166074875Y-115369819D01*
X166074875Y-115369819D02*
X165979637Y-115369819D01*
X165979637Y-115369819D02*
X165884399Y-115322200D01*
X165884399Y-115322200D02*
X165836780Y-115274580D01*
X165836780Y-115274580D02*
X165789161Y-115179342D01*
X165789161Y-115179342D02*
X165741542Y-114988866D01*
X165741542Y-114988866D02*
X165741542Y-114750771D01*
X165741542Y-114750771D02*
X165789161Y-114560295D01*
X165789161Y-114560295D02*
X165836780Y-114465057D01*
X165836780Y-114465057D02*
X165884399Y-114417438D01*
X165884399Y-114417438D02*
X165979637Y-114369819D01*
X167265351Y-115369819D02*
X166693923Y-115369819D01*
X166979637Y-115369819D02*
X166979637Y-114369819D01*
X166979637Y-114369819D02*
X166884399Y-114512676D01*
X166884399Y-114512676D02*
X166789161Y-114607914D01*
X166789161Y-114607914D02*
X166693923Y-114655533D01*
X167884399Y-114369819D02*
X167979637Y-114369819D01*
X167979637Y-114369819D02*
X168074875Y-114417438D01*
X168074875Y-114417438D02*
X168122494Y-114465057D01*
X168122494Y-114465057D02*
X168170113Y-114560295D01*
X168170113Y-114560295D02*
X168217732Y-114750771D01*
X168217732Y-114750771D02*
X168217732Y-114988866D01*
X168217732Y-114988866D02*
X168170113Y-115179342D01*
X168170113Y-115179342D02*
X168122494Y-115274580D01*
X168122494Y-115274580D02*
X168074875Y-115322200D01*
X168074875Y-115322200D02*
X167979637Y-115369819D01*
X167979637Y-115369819D02*
X167884399Y-115369819D01*
X167884399Y-115369819D02*
X167789161Y-115322200D01*
X167789161Y-115322200D02*
X167741542Y-115274580D01*
X167741542Y-115274580D02*
X167693923Y-115179342D01*
X167693923Y-115179342D02*
X167646304Y-114988866D01*
X167646304Y-114988866D02*
X167646304Y-114750771D01*
X167646304Y-114750771D02*
X167693923Y-114560295D01*
X167693923Y-114560295D02*
X167741542Y-114465057D01*
X167741542Y-114465057D02*
X167789161Y-114417438D01*
X167789161Y-114417438D02*
X167884399Y-114369819D01*
D10*
X145208646Y-78872419D02*
X145827693Y-78872419D01*
X145827693Y-78872419D02*
X145494360Y-79253371D01*
X145494360Y-79253371D02*
X145637217Y-79253371D01*
X145637217Y-79253371D02*
X145732455Y-79300990D01*
X145732455Y-79300990D02*
X145780074Y-79348609D01*
X145780074Y-79348609D02*
X145827693Y-79443847D01*
X145827693Y-79443847D02*
X145827693Y-79681942D01*
X145827693Y-79681942D02*
X145780074Y-79777180D01*
X145780074Y-79777180D02*
X145732455Y-79824800D01*
X145732455Y-79824800D02*
X145637217Y-79872419D01*
X145637217Y-79872419D02*
X145351503Y-79872419D01*
X145351503Y-79872419D02*
X145256265Y-79824800D01*
X145256265Y-79824800D02*
X145208646Y-79777180D01*
X146446741Y-78872419D02*
X146541979Y-78872419D01*
X146541979Y-78872419D02*
X146637217Y-78920038D01*
X146637217Y-78920038D02*
X146684836Y-78967657D01*
X146684836Y-78967657D02*
X146732455Y-79062895D01*
X146732455Y-79062895D02*
X146780074Y-79253371D01*
X146780074Y-79253371D02*
X146780074Y-79491466D01*
X146780074Y-79491466D02*
X146732455Y-79681942D01*
X146732455Y-79681942D02*
X146684836Y-79777180D01*
X146684836Y-79777180D02*
X146637217Y-79824800D01*
X146637217Y-79824800D02*
X146541979Y-79872419D01*
X146541979Y-79872419D02*
X146446741Y-79872419D01*
X146446741Y-79872419D02*
X146351503Y-79824800D01*
X146351503Y-79824800D02*
X146303884Y-79777180D01*
X146303884Y-79777180D02*
X146256265Y-79681942D01*
X146256265Y-79681942D02*
X146208646Y-79491466D01*
X146208646Y-79491466D02*
X146208646Y-79253371D01*
X146208646Y-79253371D02*
X146256265Y-79062895D01*
X146256265Y-79062895D02*
X146303884Y-78967657D01*
X146303884Y-78967657D02*
X146351503Y-78920038D01*
X146351503Y-78920038D02*
X146446741Y-78872419D01*
X175427693Y-79872419D02*
X174856265Y-79872419D01*
X175141979Y-79872419D02*
X175141979Y-78872419D01*
X175141979Y-78872419D02*
X175046741Y-79015276D01*
X175046741Y-79015276D02*
X174951503Y-79110514D01*
X174951503Y-79110514D02*
X174856265Y-79158133D01*
D11*
X142417438Y-100889411D02*
X142369819Y-100984649D01*
X142369819Y-100984649D02*
X142369819Y-101127506D01*
X142369819Y-101127506D02*
X142417438Y-101270363D01*
X142417438Y-101270363D02*
X142512676Y-101365601D01*
X142512676Y-101365601D02*
X142607914Y-101413220D01*
X142607914Y-101413220D02*
X142798390Y-101460839D01*
X142798390Y-101460839D02*
X142941247Y-101460839D01*
X142941247Y-101460839D02*
X143131723Y-101413220D01*
X143131723Y-101413220D02*
X143226961Y-101365601D01*
X143226961Y-101365601D02*
X143322200Y-101270363D01*
X143322200Y-101270363D02*
X143369819Y-101127506D01*
X143369819Y-101127506D02*
X143369819Y-101032268D01*
X143369819Y-101032268D02*
X143322200Y-100889411D01*
X143322200Y-100889411D02*
X143274580Y-100841792D01*
X143274580Y-100841792D02*
X142941247Y-100841792D01*
X142941247Y-100841792D02*
X142941247Y-101032268D01*
X143369819Y-100413220D02*
X142369819Y-100413220D01*
X142369819Y-100413220D02*
X143369819Y-99841792D01*
X143369819Y-99841792D02*
X142369819Y-99841792D01*
X143369819Y-99365601D02*
X142369819Y-99365601D01*
X142369819Y-99365601D02*
X142369819Y-99127506D01*
X142369819Y-99127506D02*
X142417438Y-98984649D01*
X142417438Y-98984649D02*
X142512676Y-98889411D01*
X142512676Y-98889411D02*
X142607914Y-98841792D01*
X142607914Y-98841792D02*
X142798390Y-98794173D01*
X142798390Y-98794173D02*
X142941247Y-98794173D01*
X142941247Y-98794173D02*
X143131723Y-98841792D01*
X143131723Y-98841792D02*
X143226961Y-98889411D01*
X143226961Y-98889411D02*
X143322200Y-98984649D01*
X143322200Y-98984649D02*
X143369819Y-99127506D01*
X143369819Y-99127506D02*
X143369819Y-99365601D01*
X142988866Y-98365601D02*
X142988866Y-97603697D01*
D12*
X151882204Y-122543961D02*
X151786966Y-122639200D01*
X151786966Y-122639200D02*
X151501252Y-122734438D01*
X151501252Y-122734438D02*
X151310776Y-122734438D01*
X151310776Y-122734438D02*
X151025061Y-122639200D01*
X151025061Y-122639200D02*
X150834585Y-122448723D01*
X150834585Y-122448723D02*
X150739347Y-122258247D01*
X150739347Y-122258247D02*
X150644109Y-121877295D01*
X150644109Y-121877295D02*
X150644109Y-121591580D01*
X150644109Y-121591580D02*
X150739347Y-121210628D01*
X150739347Y-121210628D02*
X150834585Y-121020152D01*
X150834585Y-121020152D02*
X151025061Y-120829676D01*
X151025061Y-120829676D02*
X151310776Y-120734438D01*
X151310776Y-120734438D02*
X151501252Y-120734438D01*
X151501252Y-120734438D02*
X151786966Y-120829676D01*
X151786966Y-120829676D02*
X151882204Y-120924914D01*
X153025061Y-122734438D02*
X152834585Y-122639200D01*
X152834585Y-122639200D02*
X152739347Y-122543961D01*
X152739347Y-122543961D02*
X152644109Y-122353485D01*
X152644109Y-122353485D02*
X152644109Y-121782057D01*
X152644109Y-121782057D02*
X152739347Y-121591580D01*
X152739347Y-121591580D02*
X152834585Y-121496342D01*
X152834585Y-121496342D02*
X153025061Y-121401104D01*
X153025061Y-121401104D02*
X153310776Y-121401104D01*
X153310776Y-121401104D02*
X153501252Y-121496342D01*
X153501252Y-121496342D02*
X153596490Y-121591580D01*
X153596490Y-121591580D02*
X153691728Y-121782057D01*
X153691728Y-121782057D02*
X153691728Y-122353485D01*
X153691728Y-122353485D02*
X153596490Y-122543961D01*
X153596490Y-122543961D02*
X153501252Y-122639200D01*
X153501252Y-122639200D02*
X153310776Y-122734438D01*
X153310776Y-122734438D02*
X153025061Y-122734438D01*
X154548871Y-121401104D02*
X154548871Y-122734438D01*
X154548871Y-121591580D02*
X154644109Y-121496342D01*
X154644109Y-121496342D02*
X154834585Y-121401104D01*
X154834585Y-121401104D02*
X155120300Y-121401104D01*
X155120300Y-121401104D02*
X155310776Y-121496342D01*
X155310776Y-121496342D02*
X155406014Y-121686819D01*
X155406014Y-121686819D02*
X155406014Y-122734438D01*
X156072681Y-121401104D02*
X156834585Y-121401104D01*
X156358395Y-120734438D02*
X156358395Y-122448723D01*
X156358395Y-122448723D02*
X156453633Y-122639200D01*
X156453633Y-122639200D02*
X156644109Y-122734438D01*
X156644109Y-122734438D02*
X156834585Y-122734438D01*
X157501252Y-122734438D02*
X157501252Y-121401104D01*
X157501252Y-121782057D02*
X157596490Y-121591580D01*
X157596490Y-121591580D02*
X157691728Y-121496342D01*
X157691728Y-121496342D02*
X157882204Y-121401104D01*
X157882204Y-121401104D02*
X158072681Y-121401104D01*
X159025061Y-122734438D02*
X158834585Y-122639200D01*
X158834585Y-122639200D02*
X158739347Y-122543961D01*
X158739347Y-122543961D02*
X158644109Y-122353485D01*
X158644109Y-122353485D02*
X158644109Y-121782057D01*
X158644109Y-121782057D02*
X158739347Y-121591580D01*
X158739347Y-121591580D02*
X158834585Y-121496342D01*
X158834585Y-121496342D02*
X159025061Y-121401104D01*
X159025061Y-121401104D02*
X159310776Y-121401104D01*
X159310776Y-121401104D02*
X159501252Y-121496342D01*
X159501252Y-121496342D02*
X159596490Y-121591580D01*
X159596490Y-121591580D02*
X159691728Y-121782057D01*
X159691728Y-121782057D02*
X159691728Y-122353485D01*
X159691728Y-122353485D02*
X159596490Y-122543961D01*
X159596490Y-122543961D02*
X159501252Y-122639200D01*
X159501252Y-122639200D02*
X159310776Y-122734438D01*
X159310776Y-122734438D02*
X159025061Y-122734438D01*
X160834585Y-122734438D02*
X160644109Y-122639200D01*
X160644109Y-122639200D02*
X160548871Y-122448723D01*
X160548871Y-122448723D02*
X160548871Y-120734438D01*
X163120300Y-122734438D02*
X163120300Y-120734438D01*
X163120300Y-121496342D02*
X163310776Y-121401104D01*
X163310776Y-121401104D02*
X163691729Y-121401104D01*
X163691729Y-121401104D02*
X163882205Y-121496342D01*
X163882205Y-121496342D02*
X163977443Y-121591580D01*
X163977443Y-121591580D02*
X164072681Y-121782057D01*
X164072681Y-121782057D02*
X164072681Y-122353485D01*
X164072681Y-122353485D02*
X163977443Y-122543961D01*
X163977443Y-122543961D02*
X163882205Y-122639200D01*
X163882205Y-122639200D02*
X163691729Y-122734438D01*
X163691729Y-122734438D02*
X163310776Y-122734438D01*
X163310776Y-122734438D02*
X163120300Y-122639200D01*
X165215538Y-122734438D02*
X165025062Y-122639200D01*
X165025062Y-122639200D02*
X164929824Y-122543961D01*
X164929824Y-122543961D02*
X164834586Y-122353485D01*
X164834586Y-122353485D02*
X164834586Y-121782057D01*
X164834586Y-121782057D02*
X164929824Y-121591580D01*
X164929824Y-121591580D02*
X165025062Y-121496342D01*
X165025062Y-121496342D02*
X165215538Y-121401104D01*
X165215538Y-121401104D02*
X165501253Y-121401104D01*
X165501253Y-121401104D02*
X165691729Y-121496342D01*
X165691729Y-121496342D02*
X165786967Y-121591580D01*
X165786967Y-121591580D02*
X165882205Y-121782057D01*
X165882205Y-121782057D02*
X165882205Y-122353485D01*
X165882205Y-122353485D02*
X165786967Y-122543961D01*
X165786967Y-122543961D02*
X165691729Y-122639200D01*
X165691729Y-122639200D02*
X165501253Y-122734438D01*
X165501253Y-122734438D02*
X165215538Y-122734438D01*
X167596491Y-122734438D02*
X167596491Y-121686819D01*
X167596491Y-121686819D02*
X167501253Y-121496342D01*
X167501253Y-121496342D02*
X167310777Y-121401104D01*
X167310777Y-121401104D02*
X166929824Y-121401104D01*
X166929824Y-121401104D02*
X166739348Y-121496342D01*
X167596491Y-122639200D02*
X167406015Y-122734438D01*
X167406015Y-122734438D02*
X166929824Y-122734438D01*
X166929824Y-122734438D02*
X166739348Y-122639200D01*
X166739348Y-122639200D02*
X166644110Y-122448723D01*
X166644110Y-122448723D02*
X166644110Y-122258247D01*
X166644110Y-122258247D02*
X166739348Y-122067771D01*
X166739348Y-122067771D02*
X166929824Y-121972533D01*
X166929824Y-121972533D02*
X167406015Y-121972533D01*
X167406015Y-121972533D02*
X167596491Y-121877295D01*
X168548872Y-122734438D02*
X168548872Y-121401104D01*
X168548872Y-121782057D02*
X168644110Y-121591580D01*
X168644110Y-121591580D02*
X168739348Y-121496342D01*
X168739348Y-121496342D02*
X168929824Y-121401104D01*
X168929824Y-121401104D02*
X169120301Y-121401104D01*
X170644110Y-122734438D02*
X170644110Y-120734438D01*
X170644110Y-122639200D02*
X170453634Y-122734438D01*
X170453634Y-122734438D02*
X170072681Y-122734438D01*
X170072681Y-122734438D02*
X169882205Y-122639200D01*
X169882205Y-122639200D02*
X169786967Y-122543961D01*
X169786967Y-122543961D02*
X169691729Y-122353485D01*
X169691729Y-122353485D02*
X169691729Y-121782057D01*
X169691729Y-121782057D02*
X169786967Y-121591580D01*
X169786967Y-121591580D02*
X169882205Y-121496342D01*
X169882205Y-121496342D02*
X170072681Y-121401104D01*
X170072681Y-121401104D02*
X170453634Y-121401104D01*
X170453634Y-121401104D02*
X170644110Y-121496342D01*
D11*
X175988866Y-89413220D02*
X175988866Y-88651316D01*
X175369819Y-88270363D02*
X175369819Y-87651316D01*
X175369819Y-87651316D02*
X175750771Y-87984649D01*
X175750771Y-87984649D02*
X175750771Y-87841792D01*
X175750771Y-87841792D02*
X175798390Y-87746554D01*
X175798390Y-87746554D02*
X175846009Y-87698935D01*
X175846009Y-87698935D02*
X175941247Y-87651316D01*
X175941247Y-87651316D02*
X176179342Y-87651316D01*
X176179342Y-87651316D02*
X176274580Y-87698935D01*
X176274580Y-87698935D02*
X176322200Y-87746554D01*
X176322200Y-87746554D02*
X176369819Y-87841792D01*
X176369819Y-87841792D02*
X176369819Y-88127506D01*
X176369819Y-88127506D02*
X176322200Y-88222744D01*
X176322200Y-88222744D02*
X176274580Y-88270363D01*
X175703152Y-87317982D02*
X176369819Y-87079887D01*
X176369819Y-87079887D02*
X175703152Y-86841792D01*
X175369819Y-86556077D02*
X175369819Y-85937030D01*
X175369819Y-85937030D02*
X175750771Y-86270363D01*
X175750771Y-86270363D02*
X175750771Y-86127506D01*
X175750771Y-86127506D02*
X175798390Y-86032268D01*
X175798390Y-86032268D02*
X175846009Y-85984649D01*
X175846009Y-85984649D02*
X175941247Y-85937030D01*
X175941247Y-85937030D02*
X176179342Y-85937030D01*
X176179342Y-85937030D02*
X176274580Y-85984649D01*
X176274580Y-85984649D02*
X176322200Y-86032268D01*
X176322200Y-86032268D02*
X176369819Y-86127506D01*
X176369819Y-86127506D02*
X176369819Y-86413220D01*
X176369819Y-86413220D02*
X176322200Y-86508458D01*
X176322200Y-86508458D02*
X176274580Y-86556077D01*
X173488866Y-89413220D02*
X173488866Y-88651316D01*
X172917438Y-87651316D02*
X172869819Y-87746554D01*
X172869819Y-87746554D02*
X172869819Y-87889411D01*
X172869819Y-87889411D02*
X172917438Y-88032268D01*
X172917438Y-88032268D02*
X173012676Y-88127506D01*
X173012676Y-88127506D02*
X173107914Y-88175125D01*
X173107914Y-88175125D02*
X173298390Y-88222744D01*
X173298390Y-88222744D02*
X173441247Y-88222744D01*
X173441247Y-88222744D02*
X173631723Y-88175125D01*
X173631723Y-88175125D02*
X173726961Y-88127506D01*
X173726961Y-88127506D02*
X173822200Y-88032268D01*
X173822200Y-88032268D02*
X173869819Y-87889411D01*
X173869819Y-87889411D02*
X173869819Y-87794173D01*
X173869819Y-87794173D02*
X173822200Y-87651316D01*
X173822200Y-87651316D02*
X173774580Y-87603697D01*
X173774580Y-87603697D02*
X173441247Y-87603697D01*
X173441247Y-87603697D02*
X173441247Y-87794173D01*
X173869819Y-87175125D02*
X172869819Y-87175125D01*
X172869819Y-87175125D02*
X173869819Y-86603697D01*
X173869819Y-86603697D02*
X172869819Y-86603697D01*
X173869819Y-86127506D02*
X172869819Y-86127506D01*
X172869819Y-86127506D02*
X172869819Y-85889411D01*
X172869819Y-85889411D02*
X172917438Y-85746554D01*
X172917438Y-85746554D02*
X173012676Y-85651316D01*
X173012676Y-85651316D02*
X173107914Y-85603697D01*
X173107914Y-85603697D02*
X173298390Y-85556078D01*
X173298390Y-85556078D02*
X173441247Y-85556078D01*
X173441247Y-85556078D02*
X173631723Y-85603697D01*
X173631723Y-85603697D02*
X173726961Y-85651316D01*
X173726961Y-85651316D02*
X173822200Y-85746554D01*
X173822200Y-85746554D02*
X173869819Y-85889411D01*
X173869819Y-85889411D02*
X173869819Y-86127506D01*
X147988866Y-89413220D02*
X147988866Y-88651316D01*
X147703152Y-87746554D02*
X148369819Y-87746554D01*
X147322200Y-87984649D02*
X148036485Y-88222744D01*
X148036485Y-88222744D02*
X148036485Y-87603697D01*
X147369819Y-87032268D02*
X147369819Y-86937030D01*
X147369819Y-86937030D02*
X147417438Y-86841792D01*
X147417438Y-86841792D02*
X147465057Y-86794173D01*
X147465057Y-86794173D02*
X147560295Y-86746554D01*
X147560295Y-86746554D02*
X147750771Y-86698935D01*
X147750771Y-86698935D02*
X147988866Y-86698935D01*
X147988866Y-86698935D02*
X148179342Y-86746554D01*
X148179342Y-86746554D02*
X148274580Y-86794173D01*
X148274580Y-86794173D02*
X148322200Y-86841792D01*
X148322200Y-86841792D02*
X148369819Y-86937030D01*
X148369819Y-86937030D02*
X148369819Y-87032268D01*
X148369819Y-87032268D02*
X148322200Y-87127506D01*
X148322200Y-87127506D02*
X148274580Y-87175125D01*
X148274580Y-87175125D02*
X148179342Y-87222744D01*
X148179342Y-87222744D02*
X147988866Y-87270363D01*
X147988866Y-87270363D02*
X147750771Y-87270363D01*
X147750771Y-87270363D02*
X147560295Y-87222744D01*
X147560295Y-87222744D02*
X147465057Y-87175125D01*
X147465057Y-87175125D02*
X147417438Y-87127506D01*
X147417438Y-87127506D02*
X147369819Y-87032268D01*
X147703152Y-86365601D02*
X148369819Y-86127506D01*
X148369819Y-86127506D02*
X147703152Y-85889411D01*
X137880180Y-89372493D02*
X137165895Y-89372493D01*
X137165895Y-89372493D02*
X137023038Y-89324874D01*
X137023038Y-89324874D02*
X136927800Y-89229636D01*
X136927800Y-89229636D02*
X136880180Y-89086779D01*
X136880180Y-89086779D02*
X136880180Y-88991541D01*
X136880180Y-90324874D02*
X136880180Y-89848684D01*
X136880180Y-89848684D02*
X137880180Y-89848684D01*
X136975419Y-91229636D02*
X136927800Y-91182017D01*
X136927800Y-91182017D02*
X136880180Y-91039160D01*
X136880180Y-91039160D02*
X136880180Y-90943922D01*
X136880180Y-90943922D02*
X136927800Y-90801065D01*
X136927800Y-90801065D02*
X137023038Y-90705827D01*
X137023038Y-90705827D02*
X137118276Y-90658208D01*
X137118276Y-90658208D02*
X137308752Y-90610589D01*
X137308752Y-90610589D02*
X137451609Y-90610589D01*
X137451609Y-90610589D02*
X137642085Y-90658208D01*
X137642085Y-90658208D02*
X137737323Y-90705827D01*
X137737323Y-90705827D02*
X137832561Y-90801065D01*
X137832561Y-90801065D02*
X137880180Y-90943922D01*
X137880180Y-90943922D02*
X137880180Y-91039160D01*
X137880180Y-91039160D02*
X137832561Y-91182017D01*
X137832561Y-91182017D02*
X137784942Y-91229636D01*
X137880180Y-91943922D02*
X137165895Y-91943922D01*
X137165895Y-91943922D02*
X137023038Y-91896303D01*
X137023038Y-91896303D02*
X136927800Y-91801065D01*
X136927800Y-91801065D02*
X136880180Y-91658208D01*
X136880180Y-91658208D02*
X136880180Y-91562970D01*
X136880180Y-92896303D02*
X136880180Y-92420113D01*
X136880180Y-92420113D02*
X137880180Y-92420113D01*
X136975419Y-93801065D02*
X136927800Y-93753446D01*
X136927800Y-93753446D02*
X136880180Y-93610589D01*
X136880180Y-93610589D02*
X136880180Y-93515351D01*
X136880180Y-93515351D02*
X136927800Y-93372494D01*
X136927800Y-93372494D02*
X137023038Y-93277256D01*
X137023038Y-93277256D02*
X137118276Y-93229637D01*
X137118276Y-93229637D02*
X137308752Y-93182018D01*
X137308752Y-93182018D02*
X137451609Y-93182018D01*
X137451609Y-93182018D02*
X137642085Y-93229637D01*
X137642085Y-93229637D02*
X137737323Y-93277256D01*
X137737323Y-93277256D02*
X137832561Y-93372494D01*
X137832561Y-93372494D02*
X137880180Y-93515351D01*
X137880180Y-93515351D02*
X137880180Y-93610589D01*
X137880180Y-93610589D02*
X137832561Y-93753446D01*
X137832561Y-93753446D02*
X137784942Y-93801065D01*
X137880180Y-94515351D02*
X137165895Y-94515351D01*
X137165895Y-94515351D02*
X137023038Y-94467732D01*
X137023038Y-94467732D02*
X136927800Y-94372494D01*
X136927800Y-94372494D02*
X136880180Y-94229637D01*
X136880180Y-94229637D02*
X136880180Y-94134399D01*
X136880180Y-95467732D02*
X136880180Y-94991542D01*
X136880180Y-94991542D02*
X137880180Y-94991542D01*
X136975419Y-96372494D02*
X136927800Y-96324875D01*
X136927800Y-96324875D02*
X136880180Y-96182018D01*
X136880180Y-96182018D02*
X136880180Y-96086780D01*
X136880180Y-96086780D02*
X136927800Y-95943923D01*
X136927800Y-95943923D02*
X137023038Y-95848685D01*
X137023038Y-95848685D02*
X137118276Y-95801066D01*
X137118276Y-95801066D02*
X137308752Y-95753447D01*
X137308752Y-95753447D02*
X137451609Y-95753447D01*
X137451609Y-95753447D02*
X137642085Y-95801066D01*
X137642085Y-95801066D02*
X137737323Y-95848685D01*
X137737323Y-95848685D02*
X137832561Y-95943923D01*
X137832561Y-95943923D02*
X137880180Y-96086780D01*
X137880180Y-96086780D02*
X137880180Y-96182018D01*
X137880180Y-96182018D02*
X137832561Y-96324875D01*
X137832561Y-96324875D02*
X137784942Y-96372494D01*
X137880180Y-97086780D02*
X137165895Y-97086780D01*
X137165895Y-97086780D02*
X137023038Y-97039161D01*
X137023038Y-97039161D02*
X136927800Y-96943923D01*
X136927800Y-96943923D02*
X136880180Y-96801066D01*
X136880180Y-96801066D02*
X136880180Y-96705828D01*
X136880180Y-98039161D02*
X136880180Y-97562971D01*
X136880180Y-97562971D02*
X137880180Y-97562971D01*
X136975419Y-98943923D02*
X136927800Y-98896304D01*
X136927800Y-98896304D02*
X136880180Y-98753447D01*
X136880180Y-98753447D02*
X136880180Y-98658209D01*
X136880180Y-98658209D02*
X136927800Y-98515352D01*
X136927800Y-98515352D02*
X137023038Y-98420114D01*
X137023038Y-98420114D02*
X137118276Y-98372495D01*
X137118276Y-98372495D02*
X137308752Y-98324876D01*
X137308752Y-98324876D02*
X137451609Y-98324876D01*
X137451609Y-98324876D02*
X137642085Y-98372495D01*
X137642085Y-98372495D02*
X137737323Y-98420114D01*
X137737323Y-98420114D02*
X137832561Y-98515352D01*
X137832561Y-98515352D02*
X137880180Y-98658209D01*
X137880180Y-98658209D02*
X137880180Y-98753447D01*
X137880180Y-98753447D02*
X137832561Y-98896304D01*
X137832561Y-98896304D02*
X137784942Y-98943923D01*
X149917438Y-100889411D02*
X149869819Y-100984649D01*
X149869819Y-100984649D02*
X149869819Y-101127506D01*
X149869819Y-101127506D02*
X149917438Y-101270363D01*
X149917438Y-101270363D02*
X150012676Y-101365601D01*
X150012676Y-101365601D02*
X150107914Y-101413220D01*
X150107914Y-101413220D02*
X150298390Y-101460839D01*
X150298390Y-101460839D02*
X150441247Y-101460839D01*
X150441247Y-101460839D02*
X150631723Y-101413220D01*
X150631723Y-101413220D02*
X150726961Y-101365601D01*
X150726961Y-101365601D02*
X150822200Y-101270363D01*
X150822200Y-101270363D02*
X150869819Y-101127506D01*
X150869819Y-101127506D02*
X150869819Y-101032268D01*
X150869819Y-101032268D02*
X150822200Y-100889411D01*
X150822200Y-100889411D02*
X150774580Y-100841792D01*
X150774580Y-100841792D02*
X150441247Y-100841792D01*
X150441247Y-100841792D02*
X150441247Y-101032268D01*
X150869819Y-100413220D02*
X149869819Y-100413220D01*
X149869819Y-100413220D02*
X150869819Y-99841792D01*
X150869819Y-99841792D02*
X149869819Y-99841792D01*
X150869819Y-99365601D02*
X149869819Y-99365601D01*
X149869819Y-99365601D02*
X149869819Y-99127506D01*
X149869819Y-99127506D02*
X149917438Y-98984649D01*
X149917438Y-98984649D02*
X150012676Y-98889411D01*
X150012676Y-98889411D02*
X150107914Y-98841792D01*
X150107914Y-98841792D02*
X150298390Y-98794173D01*
X150298390Y-98794173D02*
X150441247Y-98794173D01*
X150441247Y-98794173D02*
X150631723Y-98841792D01*
X150631723Y-98841792D02*
X150726961Y-98889411D01*
X150726961Y-98889411D02*
X150822200Y-98984649D01*
X150822200Y-98984649D02*
X150869819Y-99127506D01*
X150869819Y-99127506D02*
X150869819Y-99365601D01*
X150488866Y-98365601D02*
X150488866Y-97603697D01*
X175349819Y-101008458D02*
X175349819Y-100389411D01*
X175349819Y-100389411D02*
X175730771Y-100722744D01*
X175730771Y-100722744D02*
X175730771Y-100579887D01*
X175730771Y-100579887D02*
X175778390Y-100484649D01*
X175778390Y-100484649D02*
X175826009Y-100437030D01*
X175826009Y-100437030D02*
X175921247Y-100389411D01*
X175921247Y-100389411D02*
X176159342Y-100389411D01*
X176159342Y-100389411D02*
X176254580Y-100437030D01*
X176254580Y-100437030D02*
X176302200Y-100484649D01*
X176302200Y-100484649D02*
X176349819Y-100579887D01*
X176349819Y-100579887D02*
X176349819Y-100865601D01*
X176349819Y-100865601D02*
X176302200Y-100960839D01*
X176302200Y-100960839D02*
X176254580Y-101008458D01*
X175683152Y-100056077D02*
X176349819Y-99817982D01*
X176349819Y-99817982D02*
X175683152Y-99579887D01*
X175349819Y-99294172D02*
X175349819Y-98675125D01*
X175349819Y-98675125D02*
X175730771Y-99008458D01*
X175730771Y-99008458D02*
X175730771Y-98865601D01*
X175730771Y-98865601D02*
X175778390Y-98770363D01*
X175778390Y-98770363D02*
X175826009Y-98722744D01*
X175826009Y-98722744D02*
X175921247Y-98675125D01*
X175921247Y-98675125D02*
X176159342Y-98675125D01*
X176159342Y-98675125D02*
X176254580Y-98722744D01*
X176254580Y-98722744D02*
X176302200Y-98770363D01*
X176302200Y-98770363D02*
X176349819Y-98865601D01*
X176349819Y-98865601D02*
X176349819Y-99151315D01*
X176349819Y-99151315D02*
X176302200Y-99246553D01*
X176302200Y-99246553D02*
X176254580Y-99294172D01*
X175968866Y-98246553D02*
X175968866Y-97484649D01*
D10*
X172872419Y-94219925D02*
X172872419Y-94696115D01*
X172872419Y-94696115D02*
X173348609Y-94743734D01*
X173348609Y-94743734D02*
X173300990Y-94696115D01*
X173300990Y-94696115D02*
X173253371Y-94600877D01*
X173253371Y-94600877D02*
X173253371Y-94362782D01*
X173253371Y-94362782D02*
X173300990Y-94267544D01*
X173300990Y-94267544D02*
X173348609Y-94219925D01*
X173348609Y-94219925D02*
X173443847Y-94172306D01*
X173443847Y-94172306D02*
X173681942Y-94172306D01*
X173681942Y-94172306D02*
X173777180Y-94219925D01*
X173777180Y-94219925D02*
X173824800Y-94267544D01*
X173824800Y-94267544D02*
X173872419Y-94362782D01*
X173872419Y-94362782D02*
X173872419Y-94600877D01*
X173872419Y-94600877D02*
X173824800Y-94696115D01*
X173824800Y-94696115D02*
X173777180Y-94743734D01*
X174208646Y-108122419D02*
X174827693Y-108122419D01*
X174827693Y-108122419D02*
X174494360Y-108503371D01*
X174494360Y-108503371D02*
X174637217Y-108503371D01*
X174637217Y-108503371D02*
X174732455Y-108550990D01*
X174732455Y-108550990D02*
X174780074Y-108598609D01*
X174780074Y-108598609D02*
X174827693Y-108693847D01*
X174827693Y-108693847D02*
X174827693Y-108931942D01*
X174827693Y-108931942D02*
X174780074Y-109027180D01*
X174780074Y-109027180D02*
X174732455Y-109074800D01*
X174732455Y-109074800D02*
X174637217Y-109122419D01*
X174637217Y-109122419D02*
X174351503Y-109122419D01*
X174351503Y-109122419D02*
X174256265Y-109074800D01*
X174256265Y-109074800D02*
X174208646Y-109027180D01*
X175446741Y-108122419D02*
X175541979Y-108122419D01*
X175541979Y-108122419D02*
X175637217Y-108170038D01*
X175637217Y-108170038D02*
X175684836Y-108217657D01*
X175684836Y-108217657D02*
X175732455Y-108312895D01*
X175732455Y-108312895D02*
X175780074Y-108503371D01*
X175780074Y-108503371D02*
X175780074Y-108741466D01*
X175780074Y-108741466D02*
X175732455Y-108931942D01*
X175732455Y-108931942D02*
X175684836Y-109027180D01*
X175684836Y-109027180D02*
X175637217Y-109074800D01*
X175637217Y-109074800D02*
X175541979Y-109122419D01*
X175541979Y-109122419D02*
X175446741Y-109122419D01*
X175446741Y-109122419D02*
X175351503Y-109074800D01*
X175351503Y-109074800D02*
X175303884Y-109027180D01*
X175303884Y-109027180D02*
X175256265Y-108931942D01*
X175256265Y-108931942D02*
X175208646Y-108741466D01*
X175208646Y-108741466D02*
X175208646Y-108503371D01*
X175208646Y-108503371D02*
X175256265Y-108312895D01*
X175256265Y-108312895D02*
X175303884Y-108217657D01*
X175303884Y-108217657D02*
X175351503Y-108170038D01*
X175351503Y-108170038D02*
X175446741Y-108122419D01*
X140122419Y-91541353D02*
X140122419Y-90922306D01*
X140122419Y-90922306D02*
X140503371Y-91255639D01*
X140503371Y-91255639D02*
X140503371Y-91112782D01*
X140503371Y-91112782D02*
X140550990Y-91017544D01*
X140550990Y-91017544D02*
X140598609Y-90969925D01*
X140598609Y-90969925D02*
X140693847Y-90922306D01*
X140693847Y-90922306D02*
X140931942Y-90922306D01*
X140931942Y-90922306D02*
X141027180Y-90969925D01*
X141027180Y-90969925D02*
X141074800Y-91017544D01*
X141074800Y-91017544D02*
X141122419Y-91112782D01*
X141122419Y-91112782D02*
X141122419Y-91398496D01*
X141122419Y-91398496D02*
X141074800Y-91493734D01*
X141074800Y-91493734D02*
X141027180Y-91541353D01*
X140122419Y-90303258D02*
X140122419Y-90208020D01*
X140122419Y-90208020D02*
X140170038Y-90112782D01*
X140170038Y-90112782D02*
X140217657Y-90065163D01*
X140217657Y-90065163D02*
X140312895Y-90017544D01*
X140312895Y-90017544D02*
X140503371Y-89969925D01*
X140503371Y-89969925D02*
X140741466Y-89969925D01*
X140741466Y-89969925D02*
X140931942Y-90017544D01*
X140931942Y-90017544D02*
X141027180Y-90065163D01*
X141027180Y-90065163D02*
X141074800Y-90112782D01*
X141074800Y-90112782D02*
X141122419Y-90208020D01*
X141122419Y-90208020D02*
X141122419Y-90303258D01*
X141122419Y-90303258D02*
X141074800Y-90398496D01*
X141074800Y-90398496D02*
X141027180Y-90446115D01*
X141027180Y-90446115D02*
X140931942Y-90493734D01*
X140931942Y-90493734D02*
X140741466Y-90541353D01*
X140741466Y-90541353D02*
X140503371Y-90541353D01*
X140503371Y-90541353D02*
X140312895Y-90493734D01*
X140312895Y-90493734D02*
X140217657Y-90446115D01*
X140217657Y-90446115D02*
X140170038Y-90398496D01*
X140170038Y-90398496D02*
X140122419Y-90303258D01*
X161122419Y-94172306D02*
X161122419Y-94743734D01*
X161122419Y-94458020D02*
X160122419Y-94458020D01*
X160122419Y-94458020D02*
X160265276Y-94553258D01*
X160265276Y-94553258D02*
X160360514Y-94648496D01*
X160360514Y-94648496D02*
X160408133Y-94743734D01*
X160122419Y-93267544D02*
X160122419Y-93743734D01*
X160122419Y-93743734D02*
X160598609Y-93791353D01*
X160598609Y-93791353D02*
X160550990Y-93743734D01*
X160550990Y-93743734D02*
X160503371Y-93648496D01*
X160503371Y-93648496D02*
X160503371Y-93410401D01*
X160503371Y-93410401D02*
X160550990Y-93315163D01*
X160550990Y-93315163D02*
X160598609Y-93267544D01*
X160598609Y-93267544D02*
X160693847Y-93219925D01*
X160693847Y-93219925D02*
X160931942Y-93219925D01*
X160931942Y-93219925D02*
X161027180Y-93267544D01*
X161027180Y-93267544D02*
X161074800Y-93315163D01*
X161074800Y-93315163D02*
X161122419Y-93410401D01*
X161122419Y-93410401D02*
X161122419Y-93648496D01*
X161122419Y-93648496D02*
X161074800Y-93743734D01*
X161074800Y-93743734D02*
X161027180Y-93791353D01*
D11*
X145488866Y-89413220D02*
X145488866Y-88651316D01*
X144917438Y-87651316D02*
X144869819Y-87746554D01*
X144869819Y-87746554D02*
X144869819Y-87889411D01*
X144869819Y-87889411D02*
X144917438Y-88032268D01*
X144917438Y-88032268D02*
X145012676Y-88127506D01*
X145012676Y-88127506D02*
X145107914Y-88175125D01*
X145107914Y-88175125D02*
X145298390Y-88222744D01*
X145298390Y-88222744D02*
X145441247Y-88222744D01*
X145441247Y-88222744D02*
X145631723Y-88175125D01*
X145631723Y-88175125D02*
X145726961Y-88127506D01*
X145726961Y-88127506D02*
X145822200Y-88032268D01*
X145822200Y-88032268D02*
X145869819Y-87889411D01*
X145869819Y-87889411D02*
X145869819Y-87794173D01*
X145869819Y-87794173D02*
X145822200Y-87651316D01*
X145822200Y-87651316D02*
X145774580Y-87603697D01*
X145774580Y-87603697D02*
X145441247Y-87603697D01*
X145441247Y-87603697D02*
X145441247Y-87794173D01*
X145869819Y-87175125D02*
X144869819Y-87175125D01*
X144869819Y-87175125D02*
X145869819Y-86603697D01*
X145869819Y-86603697D02*
X144869819Y-86603697D01*
X145869819Y-86127506D02*
X144869819Y-86127506D01*
X144869819Y-86127506D02*
X144869819Y-85889411D01*
X144869819Y-85889411D02*
X144917438Y-85746554D01*
X144917438Y-85746554D02*
X145012676Y-85651316D01*
X145012676Y-85651316D02*
X145107914Y-85603697D01*
X145107914Y-85603697D02*
X145298390Y-85556078D01*
X145298390Y-85556078D02*
X145441247Y-85556078D01*
X145441247Y-85556078D02*
X145631723Y-85603697D01*
X145631723Y-85603697D02*
X145726961Y-85651316D01*
X145726961Y-85651316D02*
X145822200Y-85746554D01*
X145822200Y-85746554D02*
X145869819Y-85889411D01*
X145869819Y-85889411D02*
X145869819Y-86127506D01*
X170988866Y-89413220D02*
X170988866Y-88651316D01*
X170417438Y-87651316D02*
X170369819Y-87746554D01*
X170369819Y-87746554D02*
X170369819Y-87889411D01*
X170369819Y-87889411D02*
X170417438Y-88032268D01*
X170417438Y-88032268D02*
X170512676Y-88127506D01*
X170512676Y-88127506D02*
X170607914Y-88175125D01*
X170607914Y-88175125D02*
X170798390Y-88222744D01*
X170798390Y-88222744D02*
X170941247Y-88222744D01*
X170941247Y-88222744D02*
X171131723Y-88175125D01*
X171131723Y-88175125D02*
X171226961Y-88127506D01*
X171226961Y-88127506D02*
X171322200Y-88032268D01*
X171322200Y-88032268D02*
X171369819Y-87889411D01*
X171369819Y-87889411D02*
X171369819Y-87794173D01*
X171369819Y-87794173D02*
X171322200Y-87651316D01*
X171322200Y-87651316D02*
X171274580Y-87603697D01*
X171274580Y-87603697D02*
X170941247Y-87603697D01*
X170941247Y-87603697D02*
X170941247Y-87794173D01*
X171369819Y-87175125D02*
X170369819Y-87175125D01*
X170369819Y-87175125D02*
X171369819Y-86603697D01*
X171369819Y-86603697D02*
X170369819Y-86603697D01*
X171369819Y-86127506D02*
X170369819Y-86127506D01*
X170369819Y-86127506D02*
X170369819Y-85889411D01*
X170369819Y-85889411D02*
X170417438Y-85746554D01*
X170417438Y-85746554D02*
X170512676Y-85651316D01*
X170512676Y-85651316D02*
X170607914Y-85603697D01*
X170607914Y-85603697D02*
X170798390Y-85556078D01*
X170798390Y-85556078D02*
X170941247Y-85556078D01*
X170941247Y-85556078D02*
X171131723Y-85603697D01*
X171131723Y-85603697D02*
X171226961Y-85651316D01*
X171226961Y-85651316D02*
X171322200Y-85746554D01*
X171322200Y-85746554D02*
X171369819Y-85889411D01*
X171369819Y-85889411D02*
X171369819Y-86127506D01*
D10*
X181122419Y-95672306D02*
X181122419Y-96243734D01*
X181122419Y-95958020D02*
X180122419Y-95958020D01*
X180122419Y-95958020D02*
X180265276Y-96053258D01*
X180265276Y-96053258D02*
X180360514Y-96148496D01*
X180360514Y-96148496D02*
X180408133Y-96243734D01*
D11*
X163619819Y-104437030D02*
X163619819Y-104913220D01*
X163619819Y-104913220D02*
X162619819Y-104913220D01*
X163334104Y-104151315D02*
X163334104Y-103675125D01*
X163619819Y-104246553D02*
X162619819Y-103913220D01*
X162619819Y-103913220D02*
X163619819Y-103579887D01*
X163572200Y-103294172D02*
X163619819Y-103151315D01*
X163619819Y-103151315D02*
X163619819Y-102913220D01*
X163619819Y-102913220D02*
X163572200Y-102817982D01*
X163572200Y-102817982D02*
X163524580Y-102770363D01*
X163524580Y-102770363D02*
X163429342Y-102722744D01*
X163429342Y-102722744D02*
X163334104Y-102722744D01*
X163334104Y-102722744D02*
X163238866Y-102770363D01*
X163238866Y-102770363D02*
X163191247Y-102817982D01*
X163191247Y-102817982D02*
X163143628Y-102913220D01*
X163143628Y-102913220D02*
X163096009Y-103103696D01*
X163096009Y-103103696D02*
X163048390Y-103198934D01*
X163048390Y-103198934D02*
X163000771Y-103246553D01*
X163000771Y-103246553D02*
X162905533Y-103294172D01*
X162905533Y-103294172D02*
X162810295Y-103294172D01*
X162810295Y-103294172D02*
X162715057Y-103246553D01*
X162715057Y-103246553D02*
X162667438Y-103198934D01*
X162667438Y-103198934D02*
X162619819Y-103103696D01*
X162619819Y-103103696D02*
X162619819Y-102865601D01*
X162619819Y-102865601D02*
X162667438Y-102722744D01*
X163715057Y-102532268D02*
X163715057Y-101770363D01*
X163619819Y-101532267D02*
X162619819Y-101532267D01*
X162619819Y-101532267D02*
X162619819Y-101151315D01*
X162619819Y-101151315D02*
X162667438Y-101056077D01*
X162667438Y-101056077D02*
X162715057Y-101008458D01*
X162715057Y-101008458D02*
X162810295Y-100960839D01*
X162810295Y-100960839D02*
X162953152Y-100960839D01*
X162953152Y-100960839D02*
X163048390Y-101008458D01*
X163048390Y-101008458D02*
X163096009Y-101056077D01*
X163096009Y-101056077D02*
X163143628Y-101151315D01*
X163143628Y-101151315D02*
X163143628Y-101532267D01*
X162619819Y-100627505D02*
X163619819Y-100389410D01*
X163619819Y-100389410D02*
X162905533Y-100198934D01*
X162905533Y-100198934D02*
X163619819Y-100008458D01*
X163619819Y-100008458D02*
X162619819Y-99770363D01*
X163619819Y-99389410D02*
X162619819Y-99389410D01*
X162619819Y-99389410D02*
X163334104Y-99056077D01*
X163334104Y-99056077D02*
X162619819Y-98722744D01*
X162619819Y-98722744D02*
X163619819Y-98722744D01*
X163238866Y-98246553D02*
X163238866Y-97484649D01*
X165738866Y-89413220D02*
X165738866Y-88651316D01*
X166119819Y-87698935D02*
X166119819Y-88175125D01*
X166119819Y-88175125D02*
X165119819Y-88175125D01*
X165834104Y-87413220D02*
X165834104Y-86937030D01*
X166119819Y-87508458D02*
X165119819Y-87175125D01*
X165119819Y-87175125D02*
X166119819Y-86841792D01*
X166072200Y-86556077D02*
X166119819Y-86413220D01*
X166119819Y-86413220D02*
X166119819Y-86175125D01*
X166119819Y-86175125D02*
X166072200Y-86079887D01*
X166072200Y-86079887D02*
X166024580Y-86032268D01*
X166024580Y-86032268D02*
X165929342Y-85984649D01*
X165929342Y-85984649D02*
X165834104Y-85984649D01*
X165834104Y-85984649D02*
X165738866Y-86032268D01*
X165738866Y-86032268D02*
X165691247Y-86079887D01*
X165691247Y-86079887D02*
X165643628Y-86175125D01*
X165643628Y-86175125D02*
X165596009Y-86365601D01*
X165596009Y-86365601D02*
X165548390Y-86460839D01*
X165548390Y-86460839D02*
X165500771Y-86508458D01*
X165500771Y-86508458D02*
X165405533Y-86556077D01*
X165405533Y-86556077D02*
X165310295Y-86556077D01*
X165310295Y-86556077D02*
X165215057Y-86508458D01*
X165215057Y-86508458D02*
X165167438Y-86460839D01*
X165167438Y-86460839D02*
X165119819Y-86365601D01*
X165119819Y-86365601D02*
X165119819Y-86127506D01*
X165119819Y-86127506D02*
X165167438Y-85984649D01*
X166215057Y-85794173D02*
X166215057Y-85032268D01*
X165119819Y-84603696D02*
X165119819Y-84413220D01*
X165119819Y-84413220D02*
X165167438Y-84317982D01*
X165167438Y-84317982D02*
X165262676Y-84222744D01*
X165262676Y-84222744D02*
X165453152Y-84175125D01*
X165453152Y-84175125D02*
X165786485Y-84175125D01*
X165786485Y-84175125D02*
X165976961Y-84222744D01*
X165976961Y-84222744D02*
X166072200Y-84317982D01*
X166072200Y-84317982D02*
X166119819Y-84413220D01*
X166119819Y-84413220D02*
X166119819Y-84603696D01*
X166119819Y-84603696D02*
X166072200Y-84698934D01*
X166072200Y-84698934D02*
X165976961Y-84794172D01*
X165976961Y-84794172D02*
X165786485Y-84841791D01*
X165786485Y-84841791D02*
X165453152Y-84841791D01*
X165453152Y-84841791D02*
X165262676Y-84794172D01*
X165262676Y-84794172D02*
X165167438Y-84698934D01*
X165167438Y-84698934D02*
X165119819Y-84603696D01*
X166119819Y-83746553D02*
X165119819Y-83746553D01*
X165119819Y-83746553D02*
X166119819Y-83175125D01*
X166119819Y-83175125D02*
X165119819Y-83175125D01*
X166149819Y-103913220D02*
X165149819Y-103913220D01*
X166149819Y-103437030D02*
X165149819Y-103437030D01*
X165149819Y-103437030D02*
X166149819Y-102865602D01*
X166149819Y-102865602D02*
X165149819Y-102865602D01*
X166245057Y-102627507D02*
X166245057Y-101865602D01*
X165626009Y-101294173D02*
X165626009Y-101627506D01*
X166149819Y-101627506D02*
X165149819Y-101627506D01*
X165149819Y-101627506D02*
X165149819Y-101151316D01*
X165245057Y-100817982D02*
X165197438Y-100770363D01*
X165197438Y-100770363D02*
X165149819Y-100675125D01*
X165149819Y-100675125D02*
X165149819Y-100437030D01*
X165149819Y-100437030D02*
X165197438Y-100341792D01*
X165197438Y-100341792D02*
X165245057Y-100294173D01*
X165245057Y-100294173D02*
X165340295Y-100246554D01*
X165340295Y-100246554D02*
X165435533Y-100246554D01*
X165435533Y-100246554D02*
X165578390Y-100294173D01*
X165578390Y-100294173D02*
X166149819Y-100865601D01*
X166149819Y-100865601D02*
X166149819Y-100246554D01*
X166245057Y-100056078D02*
X166245057Y-99294173D01*
X165149819Y-99198934D02*
X165149819Y-98627506D01*
X166149819Y-98913220D02*
X165149819Y-98913220D01*
X165768866Y-98294172D02*
X165768866Y-97532268D01*
X153238866Y-89413220D02*
X153238866Y-88651316D01*
X152667438Y-87651316D02*
X152619819Y-87746554D01*
X152619819Y-87746554D02*
X152619819Y-87889411D01*
X152619819Y-87889411D02*
X152667438Y-88032268D01*
X152667438Y-88032268D02*
X152762676Y-88127506D01*
X152762676Y-88127506D02*
X152857914Y-88175125D01*
X152857914Y-88175125D02*
X153048390Y-88222744D01*
X153048390Y-88222744D02*
X153191247Y-88222744D01*
X153191247Y-88222744D02*
X153381723Y-88175125D01*
X153381723Y-88175125D02*
X153476961Y-88127506D01*
X153476961Y-88127506D02*
X153572200Y-88032268D01*
X153572200Y-88032268D02*
X153619819Y-87889411D01*
X153619819Y-87889411D02*
X153619819Y-87794173D01*
X153619819Y-87794173D02*
X153572200Y-87651316D01*
X153572200Y-87651316D02*
X153524580Y-87603697D01*
X153524580Y-87603697D02*
X153191247Y-87603697D01*
X153191247Y-87603697D02*
X153191247Y-87794173D01*
X153619819Y-87175125D02*
X152619819Y-87175125D01*
X152619819Y-87175125D02*
X153619819Y-86603697D01*
X153619819Y-86603697D02*
X152619819Y-86603697D01*
X153619819Y-86127506D02*
X152619819Y-86127506D01*
X152619819Y-86127506D02*
X152619819Y-85889411D01*
X152619819Y-85889411D02*
X152667438Y-85746554D01*
X152667438Y-85746554D02*
X152762676Y-85651316D01*
X152762676Y-85651316D02*
X152857914Y-85603697D01*
X152857914Y-85603697D02*
X153048390Y-85556078D01*
X153048390Y-85556078D02*
X153191247Y-85556078D01*
X153191247Y-85556078D02*
X153381723Y-85603697D01*
X153381723Y-85603697D02*
X153476961Y-85651316D01*
X153476961Y-85651316D02*
X153572200Y-85746554D01*
X153572200Y-85746554D02*
X153619819Y-85889411D01*
X153619819Y-85889411D02*
X153619819Y-86127506D01*
X168869819Y-105413220D02*
X167869819Y-105413220D01*
X168869819Y-104937030D02*
X167869819Y-104937030D01*
X167869819Y-104937030D02*
X168869819Y-104365602D01*
X168869819Y-104365602D02*
X167869819Y-104365602D01*
X168965057Y-104127507D02*
X168965057Y-103365602D01*
X168346009Y-102794173D02*
X168346009Y-103127506D01*
X168869819Y-103127506D02*
X167869819Y-103127506D01*
X167869819Y-103127506D02*
X167869819Y-102651316D01*
X168965057Y-102508459D02*
X168965057Y-101746554D01*
X168869819Y-101508458D02*
X167869819Y-101508458D01*
X167869819Y-101508458D02*
X167869819Y-101127506D01*
X167869819Y-101127506D02*
X167917438Y-101032268D01*
X167917438Y-101032268D02*
X167965057Y-100984649D01*
X167965057Y-100984649D02*
X168060295Y-100937030D01*
X168060295Y-100937030D02*
X168203152Y-100937030D01*
X168203152Y-100937030D02*
X168298390Y-100984649D01*
X168298390Y-100984649D02*
X168346009Y-101032268D01*
X168346009Y-101032268D02*
X168393628Y-101127506D01*
X168393628Y-101127506D02*
X168393628Y-101508458D01*
X167869819Y-100603696D02*
X168869819Y-100365601D01*
X168869819Y-100365601D02*
X168155533Y-100175125D01*
X168155533Y-100175125D02*
X168869819Y-99984649D01*
X168869819Y-99984649D02*
X167869819Y-99746554D01*
X168869819Y-99365601D02*
X167869819Y-99365601D01*
X167869819Y-99365601D02*
X168584104Y-99032268D01*
X168584104Y-99032268D02*
X167869819Y-98698935D01*
X167869819Y-98698935D02*
X168869819Y-98698935D01*
X168488866Y-98222744D02*
X168488866Y-97460840D01*
D10*
X180217657Y-90993734D02*
X180170038Y-90946115D01*
X180170038Y-90946115D02*
X180122419Y-90850877D01*
X180122419Y-90850877D02*
X180122419Y-90612782D01*
X180122419Y-90612782D02*
X180170038Y-90517544D01*
X180170038Y-90517544D02*
X180217657Y-90469925D01*
X180217657Y-90469925D02*
X180312895Y-90422306D01*
X180312895Y-90422306D02*
X180408133Y-90422306D01*
X180408133Y-90422306D02*
X180550990Y-90469925D01*
X180550990Y-90469925D02*
X181122419Y-91041353D01*
X181122419Y-91041353D02*
X181122419Y-90422306D01*
D11*
X153936779Y-73619819D02*
X153936779Y-72619819D01*
X153936779Y-72619819D02*
X154270112Y-73334104D01*
X154270112Y-73334104D02*
X154603445Y-72619819D01*
X154603445Y-72619819D02*
X154603445Y-73619819D01*
X155222493Y-73619819D02*
X155127255Y-73572200D01*
X155127255Y-73572200D02*
X155079636Y-73524580D01*
X155079636Y-73524580D02*
X155032017Y-73429342D01*
X155032017Y-73429342D02*
X155032017Y-73143628D01*
X155032017Y-73143628D02*
X155079636Y-73048390D01*
X155079636Y-73048390D02*
X155127255Y-73000771D01*
X155127255Y-73000771D02*
X155222493Y-72953152D01*
X155222493Y-72953152D02*
X155365350Y-72953152D01*
X155365350Y-72953152D02*
X155460588Y-73000771D01*
X155460588Y-73000771D02*
X155508207Y-73048390D01*
X155508207Y-73048390D02*
X155555826Y-73143628D01*
X155555826Y-73143628D02*
X155555826Y-73429342D01*
X155555826Y-73429342D02*
X155508207Y-73524580D01*
X155508207Y-73524580D02*
X155460588Y-73572200D01*
X155460588Y-73572200D02*
X155365350Y-73619819D01*
X155365350Y-73619819D02*
X155222493Y-73619819D01*
X156127255Y-73619819D02*
X156032017Y-73572200D01*
X156032017Y-73572200D02*
X155984398Y-73476961D01*
X155984398Y-73476961D02*
X155984398Y-72619819D01*
X156889160Y-73572200D02*
X156793922Y-73619819D01*
X156793922Y-73619819D02*
X156603446Y-73619819D01*
X156603446Y-73619819D02*
X156508208Y-73572200D01*
X156508208Y-73572200D02*
X156460589Y-73476961D01*
X156460589Y-73476961D02*
X156460589Y-73096009D01*
X156460589Y-73096009D02*
X156508208Y-73000771D01*
X156508208Y-73000771D02*
X156603446Y-72953152D01*
X156603446Y-72953152D02*
X156793922Y-72953152D01*
X156793922Y-72953152D02*
X156889160Y-73000771D01*
X156889160Y-73000771D02*
X156936779Y-73096009D01*
X156936779Y-73096009D02*
X156936779Y-73191247D01*
X156936779Y-73191247D02*
X156460589Y-73286485D01*
X157270113Y-73619819D02*
X157793922Y-72953152D01*
X157270113Y-72953152D02*
X157793922Y-73619819D01*
X159412970Y-72619819D02*
X158936780Y-72619819D01*
X158936780Y-72619819D02*
X158889161Y-73096009D01*
X158889161Y-73096009D02*
X158936780Y-73048390D01*
X158936780Y-73048390D02*
X159032018Y-73000771D01*
X159032018Y-73000771D02*
X159270113Y-73000771D01*
X159270113Y-73000771D02*
X159365351Y-73048390D01*
X159365351Y-73048390D02*
X159412970Y-73096009D01*
X159412970Y-73096009D02*
X159460589Y-73191247D01*
X159460589Y-73191247D02*
X159460589Y-73429342D01*
X159460589Y-73429342D02*
X159412970Y-73524580D01*
X159412970Y-73524580D02*
X159365351Y-73572200D01*
X159365351Y-73572200D02*
X159270113Y-73619819D01*
X159270113Y-73619819D02*
X159032018Y-73619819D01*
X159032018Y-73619819D02*
X158936780Y-73572200D01*
X158936780Y-73572200D02*
X158889161Y-73524580D01*
X159841542Y-72715057D02*
X159889161Y-72667438D01*
X159889161Y-72667438D02*
X159984399Y-72619819D01*
X159984399Y-72619819D02*
X160222494Y-72619819D01*
X160222494Y-72619819D02*
X160317732Y-72667438D01*
X160317732Y-72667438D02*
X160365351Y-72715057D01*
X160365351Y-72715057D02*
X160412970Y-72810295D01*
X160412970Y-72810295D02*
X160412970Y-72905533D01*
X160412970Y-72905533D02*
X160365351Y-73048390D01*
X160365351Y-73048390D02*
X159793923Y-73619819D01*
X159793923Y-73619819D02*
X160412970Y-73619819D01*
X160984399Y-73048390D02*
X160889161Y-73000771D01*
X160889161Y-73000771D02*
X160841542Y-72953152D01*
X160841542Y-72953152D02*
X160793923Y-72857914D01*
X160793923Y-72857914D02*
X160793923Y-72810295D01*
X160793923Y-72810295D02*
X160841542Y-72715057D01*
X160841542Y-72715057D02*
X160889161Y-72667438D01*
X160889161Y-72667438D02*
X160984399Y-72619819D01*
X160984399Y-72619819D02*
X161174875Y-72619819D01*
X161174875Y-72619819D02*
X161270113Y-72667438D01*
X161270113Y-72667438D02*
X161317732Y-72715057D01*
X161317732Y-72715057D02*
X161365351Y-72810295D01*
X161365351Y-72810295D02*
X161365351Y-72857914D01*
X161365351Y-72857914D02*
X161317732Y-72953152D01*
X161317732Y-72953152D02*
X161270113Y-73000771D01*
X161270113Y-73000771D02*
X161174875Y-73048390D01*
X161174875Y-73048390D02*
X160984399Y-73048390D01*
X160984399Y-73048390D02*
X160889161Y-73096009D01*
X160889161Y-73096009D02*
X160841542Y-73143628D01*
X160841542Y-73143628D02*
X160793923Y-73238866D01*
X160793923Y-73238866D02*
X160793923Y-73429342D01*
X160793923Y-73429342D02*
X160841542Y-73524580D01*
X160841542Y-73524580D02*
X160889161Y-73572200D01*
X160889161Y-73572200D02*
X160984399Y-73619819D01*
X160984399Y-73619819D02*
X161174875Y-73619819D01*
X161174875Y-73619819D02*
X161270113Y-73572200D01*
X161270113Y-73572200D02*
X161317732Y-73524580D01*
X161317732Y-73524580D02*
X161365351Y-73429342D01*
X161365351Y-73429342D02*
X161365351Y-73238866D01*
X161365351Y-73238866D02*
X161317732Y-73143628D01*
X161317732Y-73143628D02*
X161270113Y-73096009D01*
X161270113Y-73096009D02*
X161174875Y-73048390D01*
X161984399Y-72619819D02*
X162079637Y-72619819D01*
X162079637Y-72619819D02*
X162174875Y-72667438D01*
X162174875Y-72667438D02*
X162222494Y-72715057D01*
X162222494Y-72715057D02*
X162270113Y-72810295D01*
X162270113Y-72810295D02*
X162317732Y-73000771D01*
X162317732Y-73000771D02*
X162317732Y-73238866D01*
X162317732Y-73238866D02*
X162270113Y-73429342D01*
X162270113Y-73429342D02*
X162222494Y-73524580D01*
X162222494Y-73524580D02*
X162174875Y-73572200D01*
X162174875Y-73572200D02*
X162079637Y-73619819D01*
X162079637Y-73619819D02*
X161984399Y-73619819D01*
X161984399Y-73619819D02*
X161889161Y-73572200D01*
X161889161Y-73572200D02*
X161841542Y-73524580D01*
X161841542Y-73524580D02*
X161793923Y-73429342D01*
X161793923Y-73429342D02*
X161746304Y-73238866D01*
X161746304Y-73238866D02*
X161746304Y-73000771D01*
X161746304Y-73000771D02*
X161793923Y-72810295D01*
X161793923Y-72810295D02*
X161841542Y-72715057D01*
X161841542Y-72715057D02*
X161889161Y-72667438D01*
X161889161Y-72667438D02*
X161984399Y-72619819D01*
X162651066Y-72619819D02*
X163317732Y-72619819D01*
X163317732Y-72619819D02*
X162889161Y-73619819D01*
X163698685Y-73238866D02*
X164460590Y-73238866D01*
X164841542Y-72619819D02*
X165460589Y-72619819D01*
X165460589Y-72619819D02*
X165127256Y-73000771D01*
X165127256Y-73000771D02*
X165270113Y-73000771D01*
X165270113Y-73000771D02*
X165365351Y-73048390D01*
X165365351Y-73048390D02*
X165412970Y-73096009D01*
X165412970Y-73096009D02*
X165460589Y-73191247D01*
X165460589Y-73191247D02*
X165460589Y-73429342D01*
X165460589Y-73429342D02*
X165412970Y-73524580D01*
X165412970Y-73524580D02*
X165365351Y-73572200D01*
X165365351Y-73572200D02*
X165270113Y-73619819D01*
X165270113Y-73619819D02*
X164984399Y-73619819D01*
X164984399Y-73619819D02*
X164889161Y-73572200D01*
X164889161Y-73572200D02*
X164841542Y-73524580D01*
X166079637Y-72619819D02*
X166174875Y-72619819D01*
X166174875Y-72619819D02*
X166270113Y-72667438D01*
X166270113Y-72667438D02*
X166317732Y-72715057D01*
X166317732Y-72715057D02*
X166365351Y-72810295D01*
X166365351Y-72810295D02*
X166412970Y-73000771D01*
X166412970Y-73000771D02*
X166412970Y-73238866D01*
X166412970Y-73238866D02*
X166365351Y-73429342D01*
X166365351Y-73429342D02*
X166317732Y-73524580D01*
X166317732Y-73524580D02*
X166270113Y-73572200D01*
X166270113Y-73572200D02*
X166174875Y-73619819D01*
X166174875Y-73619819D02*
X166079637Y-73619819D01*
X166079637Y-73619819D02*
X165984399Y-73572200D01*
X165984399Y-73572200D02*
X165936780Y-73524580D01*
X165936780Y-73524580D02*
X165889161Y-73429342D01*
X165889161Y-73429342D02*
X165841542Y-73238866D01*
X165841542Y-73238866D02*
X165841542Y-73000771D01*
X165841542Y-73000771D02*
X165889161Y-72810295D01*
X165889161Y-72810295D02*
X165936780Y-72715057D01*
X165936780Y-72715057D02*
X165984399Y-72667438D01*
X165984399Y-72667438D02*
X166079637Y-72619819D01*
X167365351Y-73619819D02*
X166793923Y-73619819D01*
X167079637Y-73619819D02*
X167079637Y-72619819D01*
X167079637Y-72619819D02*
X166984399Y-72762676D01*
X166984399Y-72762676D02*
X166889161Y-72857914D01*
X166889161Y-72857914D02*
X166793923Y-72905533D01*
X167984399Y-72619819D02*
X168079637Y-72619819D01*
X168079637Y-72619819D02*
X168174875Y-72667438D01*
X168174875Y-72667438D02*
X168222494Y-72715057D01*
X168222494Y-72715057D02*
X168270113Y-72810295D01*
X168270113Y-72810295D02*
X168317732Y-73000771D01*
X168317732Y-73000771D02*
X168317732Y-73238866D01*
X168317732Y-73238866D02*
X168270113Y-73429342D01*
X168270113Y-73429342D02*
X168222494Y-73524580D01*
X168222494Y-73524580D02*
X168174875Y-73572200D01*
X168174875Y-73572200D02*
X168079637Y-73619819D01*
X168079637Y-73619819D02*
X167984399Y-73619819D01*
X167984399Y-73619819D02*
X167889161Y-73572200D01*
X167889161Y-73572200D02*
X167841542Y-73524580D01*
X167841542Y-73524580D02*
X167793923Y-73429342D01*
X167793923Y-73429342D02*
X167746304Y-73238866D01*
X167746304Y-73238866D02*
X167746304Y-73000771D01*
X167746304Y-73000771D02*
X167793923Y-72810295D01*
X167793923Y-72810295D02*
X167841542Y-72715057D01*
X167841542Y-72715057D02*
X167889161Y-72667438D01*
X167889161Y-72667438D02*
X167984399Y-72619819D01*
X178488866Y-89413220D02*
X178488866Y-88651316D01*
X178869819Y-88175125D02*
X177869819Y-88175125D01*
X178346009Y-88175125D02*
X178346009Y-87603697D01*
X178869819Y-87603697D02*
X177869819Y-87603697D01*
X177869819Y-87270363D02*
X178869819Y-86937030D01*
X178869819Y-86937030D02*
X177869819Y-86603697D01*
X178965057Y-86508459D02*
X178965057Y-85746554D01*
X177869819Y-85651315D02*
X178869819Y-85317982D01*
X178869819Y-85317982D02*
X177869819Y-84984649D01*
X168488866Y-89413220D02*
X168488866Y-88651316D01*
X168869819Y-88175125D02*
X167869819Y-88175125D01*
X168869819Y-87698935D02*
X167869819Y-87698935D01*
X167869819Y-87698935D02*
X168869819Y-87127507D01*
X168869819Y-87127507D02*
X167869819Y-87127507D01*
X168965057Y-86889412D02*
X168965057Y-86127507D01*
X168346009Y-85556078D02*
X168346009Y-85889411D01*
X168869819Y-85889411D02*
X167869819Y-85889411D01*
X167869819Y-85889411D02*
X167869819Y-85413221D01*
X168869819Y-84508459D02*
X168869819Y-85079887D01*
X168869819Y-84794173D02*
X167869819Y-84794173D01*
X167869819Y-84794173D02*
X168012676Y-84889411D01*
X168012676Y-84889411D02*
X168107914Y-84984649D01*
X168107914Y-84984649D02*
X168155533Y-85079887D01*
X168965057Y-84317983D02*
X168965057Y-83556078D01*
X167869819Y-83460839D02*
X167869819Y-82889411D01*
X168869819Y-83175125D02*
X167869819Y-83175125D01*
D10*
X168872419Y-93172306D02*
X168872419Y-93743734D01*
X168872419Y-93458020D02*
X167872419Y-93458020D01*
X167872419Y-93458020D02*
X168015276Y-93553258D01*
X168015276Y-93553258D02*
X168110514Y-93648496D01*
X168110514Y-93648496D02*
X168158133Y-93743734D01*
X167872419Y-92553258D02*
X167872419Y-92458020D01*
X167872419Y-92458020D02*
X167920038Y-92362782D01*
X167920038Y-92362782D02*
X167967657Y-92315163D01*
X167967657Y-92315163D02*
X168062895Y-92267544D01*
X168062895Y-92267544D02*
X168253371Y-92219925D01*
X168253371Y-92219925D02*
X168491466Y-92219925D01*
X168491466Y-92219925D02*
X168681942Y-92267544D01*
X168681942Y-92267544D02*
X168777180Y-92315163D01*
X168777180Y-92315163D02*
X168824800Y-92362782D01*
X168824800Y-92362782D02*
X168872419Y-92458020D01*
X168872419Y-92458020D02*
X168872419Y-92553258D01*
X168872419Y-92553258D02*
X168824800Y-92648496D01*
X168824800Y-92648496D02*
X168777180Y-92696115D01*
X168777180Y-92696115D02*
X168681942Y-92743734D01*
X168681942Y-92743734D02*
X168491466Y-92791353D01*
X168491466Y-92791353D02*
X168253371Y-92791353D01*
X168253371Y-92791353D02*
X168062895Y-92743734D01*
X168062895Y-92743734D02*
X167967657Y-92696115D01*
X167967657Y-92696115D02*
X167920038Y-92648496D01*
X167920038Y-92648496D02*
X167872419Y-92553258D01*
D11*
X172869819Y-101008458D02*
X172869819Y-100389411D01*
X172869819Y-100389411D02*
X173250771Y-100722744D01*
X173250771Y-100722744D02*
X173250771Y-100579887D01*
X173250771Y-100579887D02*
X173298390Y-100484649D01*
X173298390Y-100484649D02*
X173346009Y-100437030D01*
X173346009Y-100437030D02*
X173441247Y-100389411D01*
X173441247Y-100389411D02*
X173679342Y-100389411D01*
X173679342Y-100389411D02*
X173774580Y-100437030D01*
X173774580Y-100437030D02*
X173822200Y-100484649D01*
X173822200Y-100484649D02*
X173869819Y-100579887D01*
X173869819Y-100579887D02*
X173869819Y-100865601D01*
X173869819Y-100865601D02*
X173822200Y-100960839D01*
X173822200Y-100960839D02*
X173774580Y-101008458D01*
X173203152Y-100056077D02*
X173869819Y-99817982D01*
X173869819Y-99817982D02*
X173203152Y-99579887D01*
X172869819Y-99294172D02*
X172869819Y-98675125D01*
X172869819Y-98675125D02*
X173250771Y-99008458D01*
X173250771Y-99008458D02*
X173250771Y-98865601D01*
X173250771Y-98865601D02*
X173298390Y-98770363D01*
X173298390Y-98770363D02*
X173346009Y-98722744D01*
X173346009Y-98722744D02*
X173441247Y-98675125D01*
X173441247Y-98675125D02*
X173679342Y-98675125D01*
X173679342Y-98675125D02*
X173774580Y-98722744D01*
X173774580Y-98722744D02*
X173822200Y-98770363D01*
X173822200Y-98770363D02*
X173869819Y-98865601D01*
X173869819Y-98865601D02*
X173869819Y-99151315D01*
X173869819Y-99151315D02*
X173822200Y-99246553D01*
X173822200Y-99246553D02*
X173774580Y-99294172D01*
X173488866Y-98246553D02*
X173488866Y-97484649D01*
X150488866Y-89413220D02*
X150488866Y-88651316D01*
X150203152Y-87746554D02*
X150869819Y-87746554D01*
X149822200Y-87984649D02*
X150536485Y-88222744D01*
X150536485Y-88222744D02*
X150536485Y-87603697D01*
X149869819Y-87032268D02*
X149869819Y-86937030D01*
X149869819Y-86937030D02*
X149917438Y-86841792D01*
X149917438Y-86841792D02*
X149965057Y-86794173D01*
X149965057Y-86794173D02*
X150060295Y-86746554D01*
X150060295Y-86746554D02*
X150250771Y-86698935D01*
X150250771Y-86698935D02*
X150488866Y-86698935D01*
X150488866Y-86698935D02*
X150679342Y-86746554D01*
X150679342Y-86746554D02*
X150774580Y-86794173D01*
X150774580Y-86794173D02*
X150822200Y-86841792D01*
X150822200Y-86841792D02*
X150869819Y-86937030D01*
X150869819Y-86937030D02*
X150869819Y-87032268D01*
X150869819Y-87032268D02*
X150822200Y-87127506D01*
X150822200Y-87127506D02*
X150774580Y-87175125D01*
X150774580Y-87175125D02*
X150679342Y-87222744D01*
X150679342Y-87222744D02*
X150488866Y-87270363D01*
X150488866Y-87270363D02*
X150250771Y-87270363D01*
X150250771Y-87270363D02*
X150060295Y-87222744D01*
X150060295Y-87222744D02*
X149965057Y-87175125D01*
X149965057Y-87175125D02*
X149917438Y-87127506D01*
X149917438Y-87127506D02*
X149869819Y-87032268D01*
X150203152Y-86365601D02*
X150869819Y-86127506D01*
X150869819Y-86127506D02*
X150203152Y-85889411D01*
X150965057Y-85746554D02*
X150965057Y-84984649D01*
X150346009Y-84746553D02*
X150346009Y-84413220D01*
X150869819Y-84270363D02*
X150869819Y-84746553D01*
X150869819Y-84746553D02*
X149869819Y-84746553D01*
X149869819Y-84746553D02*
X149869819Y-84270363D01*
X150869819Y-83841791D02*
X149869819Y-83841791D01*
X149869819Y-83841791D02*
X150869819Y-83270363D01*
X150869819Y-83270363D02*
X149869819Y-83270363D01*
X156119819Y-100389411D02*
X156119819Y-100960839D01*
X156119819Y-100675125D02*
X155119819Y-100675125D01*
X155119819Y-100675125D02*
X155262676Y-100770363D01*
X155262676Y-100770363D02*
X155357914Y-100865601D01*
X155357914Y-100865601D02*
X155405533Y-100960839D01*
X155215057Y-100008458D02*
X155167438Y-99960839D01*
X155167438Y-99960839D02*
X155119819Y-99865601D01*
X155119819Y-99865601D02*
X155119819Y-99627506D01*
X155119819Y-99627506D02*
X155167438Y-99532268D01*
X155167438Y-99532268D02*
X155215057Y-99484649D01*
X155215057Y-99484649D02*
X155310295Y-99437030D01*
X155310295Y-99437030D02*
X155405533Y-99437030D01*
X155405533Y-99437030D02*
X155548390Y-99484649D01*
X155548390Y-99484649D02*
X156119819Y-100056077D01*
X156119819Y-100056077D02*
X156119819Y-99437030D01*
X155453152Y-99103696D02*
X156119819Y-98865601D01*
X156119819Y-98865601D02*
X155453152Y-98627506D01*
X155738866Y-98246553D02*
X155738866Y-97484649D01*
X147683152Y-100484649D02*
X148349819Y-100484649D01*
X147302200Y-100722744D02*
X148016485Y-100960839D01*
X148016485Y-100960839D02*
X148016485Y-100341792D01*
X147349819Y-99770363D02*
X147349819Y-99675125D01*
X147349819Y-99675125D02*
X147397438Y-99579887D01*
X147397438Y-99579887D02*
X147445057Y-99532268D01*
X147445057Y-99532268D02*
X147540295Y-99484649D01*
X147540295Y-99484649D02*
X147730771Y-99437030D01*
X147730771Y-99437030D02*
X147968866Y-99437030D01*
X147968866Y-99437030D02*
X148159342Y-99484649D01*
X148159342Y-99484649D02*
X148254580Y-99532268D01*
X148254580Y-99532268D02*
X148302200Y-99579887D01*
X148302200Y-99579887D02*
X148349819Y-99675125D01*
X148349819Y-99675125D02*
X148349819Y-99770363D01*
X148349819Y-99770363D02*
X148302200Y-99865601D01*
X148302200Y-99865601D02*
X148254580Y-99913220D01*
X148254580Y-99913220D02*
X148159342Y-99960839D01*
X148159342Y-99960839D02*
X147968866Y-100008458D01*
X147968866Y-100008458D02*
X147730771Y-100008458D01*
X147730771Y-100008458D02*
X147540295Y-99960839D01*
X147540295Y-99960839D02*
X147445057Y-99913220D01*
X147445057Y-99913220D02*
X147397438Y-99865601D01*
X147397438Y-99865601D02*
X147349819Y-99770363D01*
X147683152Y-99103696D02*
X148349819Y-98865601D01*
X148349819Y-98865601D02*
X147683152Y-98627506D01*
X147968866Y-98246553D02*
X147968866Y-97484649D01*
X183880057Y-107258458D02*
X183808628Y-107401316D01*
X183808628Y-107401316D02*
X183808628Y-107615601D01*
X183808628Y-107615601D02*
X183880057Y-107829887D01*
X183880057Y-107829887D02*
X184022914Y-107972744D01*
X184022914Y-107972744D02*
X184165771Y-108044173D01*
X184165771Y-108044173D02*
X184451485Y-108115601D01*
X184451485Y-108115601D02*
X184665771Y-108115601D01*
X184665771Y-108115601D02*
X184951485Y-108044173D01*
X184951485Y-108044173D02*
X185094342Y-107972744D01*
X185094342Y-107972744D02*
X185237200Y-107829887D01*
X185237200Y-107829887D02*
X185308628Y-107615601D01*
X185308628Y-107615601D02*
X185308628Y-107472744D01*
X185308628Y-107472744D02*
X185237200Y-107258458D01*
X185237200Y-107258458D02*
X185165771Y-107187030D01*
X185165771Y-107187030D02*
X184665771Y-107187030D01*
X184665771Y-107187030D02*
X184665771Y-107472744D01*
X185308628Y-106329887D02*
X185237200Y-106472744D01*
X185237200Y-106472744D02*
X185094342Y-106544173D01*
X185094342Y-106544173D02*
X183808628Y-106544173D01*
X185308628Y-105544173D02*
X185237200Y-105687030D01*
X185237200Y-105687030D02*
X185165771Y-105758459D01*
X185165771Y-105758459D02*
X185022914Y-105829887D01*
X185022914Y-105829887D02*
X184594342Y-105829887D01*
X184594342Y-105829887D02*
X184451485Y-105758459D01*
X184451485Y-105758459D02*
X184380057Y-105687030D01*
X184380057Y-105687030D02*
X184308628Y-105544173D01*
X184308628Y-105544173D02*
X184308628Y-105329887D01*
X184308628Y-105329887D02*
X184380057Y-105187030D01*
X184380057Y-105187030D02*
X184451485Y-105115602D01*
X184451485Y-105115602D02*
X184594342Y-105044173D01*
X184594342Y-105044173D02*
X185022914Y-105044173D01*
X185022914Y-105044173D02*
X185165771Y-105115602D01*
X185165771Y-105115602D02*
X185237200Y-105187030D01*
X185237200Y-105187030D02*
X185308628Y-105329887D01*
X185308628Y-105329887D02*
X185308628Y-105544173D01*
X184308628Y-104544173D02*
X185308628Y-104258459D01*
X185308628Y-104258459D02*
X184594342Y-103972744D01*
X184594342Y-103972744D02*
X185308628Y-103687030D01*
X185308628Y-103687030D02*
X184308628Y-103401316D01*
X184308628Y-103044172D02*
X184308628Y-102472744D01*
X185308628Y-102829887D02*
X184022914Y-102829887D01*
X184022914Y-102829887D02*
X183880057Y-102758458D01*
X183880057Y-102758458D02*
X183808628Y-102615601D01*
X183808628Y-102615601D02*
X183808628Y-102472744D01*
X185308628Y-101758458D02*
X185237200Y-101901315D01*
X185237200Y-101901315D02*
X185165771Y-101972744D01*
X185165771Y-101972744D02*
X185022914Y-102044172D01*
X185022914Y-102044172D02*
X184594342Y-102044172D01*
X184594342Y-102044172D02*
X184451485Y-101972744D01*
X184451485Y-101972744D02*
X184380057Y-101901315D01*
X184380057Y-101901315D02*
X184308628Y-101758458D01*
X184308628Y-101758458D02*
X184308628Y-101544172D01*
X184308628Y-101544172D02*
X184380057Y-101401315D01*
X184380057Y-101401315D02*
X184451485Y-101329887D01*
X184451485Y-101329887D02*
X184594342Y-101258458D01*
X184594342Y-101258458D02*
X185022914Y-101258458D01*
X185022914Y-101258458D02*
X185165771Y-101329887D01*
X185165771Y-101329887D02*
X185237200Y-101401315D01*
X185237200Y-101401315D02*
X185308628Y-101544172D01*
X185308628Y-101544172D02*
X185308628Y-101758458D01*
X185308628Y-100615601D02*
X184308628Y-100615601D01*
X184594342Y-100615601D02*
X184451485Y-100544172D01*
X184451485Y-100544172D02*
X184380057Y-100472744D01*
X184380057Y-100472744D02*
X184308628Y-100329886D01*
X184308628Y-100329886D02*
X184308628Y-100187029D01*
X184308628Y-99044173D02*
X185522914Y-99044173D01*
X185522914Y-99044173D02*
X185665771Y-99115601D01*
X185665771Y-99115601D02*
X185737200Y-99187030D01*
X185737200Y-99187030D02*
X185808628Y-99329887D01*
X185808628Y-99329887D02*
X185808628Y-99544173D01*
X185808628Y-99544173D02*
X185737200Y-99687030D01*
X185237200Y-99044173D02*
X185308628Y-99187030D01*
X185308628Y-99187030D02*
X185308628Y-99472744D01*
X185308628Y-99472744D02*
X185237200Y-99615601D01*
X185237200Y-99615601D02*
X185165771Y-99687030D01*
X185165771Y-99687030D02*
X185022914Y-99758458D01*
X185022914Y-99758458D02*
X184594342Y-99758458D01*
X184594342Y-99758458D02*
X184451485Y-99687030D01*
X184451485Y-99687030D02*
X184380057Y-99615601D01*
X184380057Y-99615601D02*
X184308628Y-99472744D01*
X184308628Y-99472744D02*
X184308628Y-99187030D01*
X184308628Y-99187030D02*
X184380057Y-99044173D01*
X185237200Y-97758458D02*
X185308628Y-97901315D01*
X185308628Y-97901315D02*
X185308628Y-98187030D01*
X185308628Y-98187030D02*
X185237200Y-98329887D01*
X185237200Y-98329887D02*
X185094342Y-98401315D01*
X185094342Y-98401315D02*
X184522914Y-98401315D01*
X184522914Y-98401315D02*
X184380057Y-98329887D01*
X184380057Y-98329887D02*
X184308628Y-98187030D01*
X184308628Y-98187030D02*
X184308628Y-97901315D01*
X184308628Y-97901315D02*
X184380057Y-97758458D01*
X184380057Y-97758458D02*
X184522914Y-97687030D01*
X184522914Y-97687030D02*
X184665771Y-97687030D01*
X184665771Y-97687030D02*
X184808628Y-98401315D01*
X185308628Y-95901316D02*
X183808628Y-95901316D01*
X183808628Y-95901316D02*
X183808628Y-95329887D01*
X183808628Y-95329887D02*
X183880057Y-95187030D01*
X183880057Y-95187030D02*
X183951485Y-95115601D01*
X183951485Y-95115601D02*
X184094342Y-95044173D01*
X184094342Y-95044173D02*
X184308628Y-95044173D01*
X184308628Y-95044173D02*
X184451485Y-95115601D01*
X184451485Y-95115601D02*
X184522914Y-95187030D01*
X184522914Y-95187030D02*
X184594342Y-95329887D01*
X184594342Y-95329887D02*
X184594342Y-95901316D01*
X185237200Y-94472744D02*
X185308628Y-94258459D01*
X185308628Y-94258459D02*
X185308628Y-93901316D01*
X185308628Y-93901316D02*
X185237200Y-93758459D01*
X185237200Y-93758459D02*
X185165771Y-93687030D01*
X185165771Y-93687030D02*
X185022914Y-93615601D01*
X185022914Y-93615601D02*
X184880057Y-93615601D01*
X184880057Y-93615601D02*
X184737200Y-93687030D01*
X184737200Y-93687030D02*
X184665771Y-93758459D01*
X184665771Y-93758459D02*
X184594342Y-93901316D01*
X184594342Y-93901316D02*
X184522914Y-94187030D01*
X184522914Y-94187030D02*
X184451485Y-94329887D01*
X184451485Y-94329887D02*
X184380057Y-94401316D01*
X184380057Y-94401316D02*
X184237200Y-94472744D01*
X184237200Y-94472744D02*
X184094342Y-94472744D01*
X184094342Y-94472744D02*
X183951485Y-94401316D01*
X183951485Y-94401316D02*
X183880057Y-94329887D01*
X183880057Y-94329887D02*
X183808628Y-94187030D01*
X183808628Y-94187030D02*
X183808628Y-93829887D01*
X183808628Y-93829887D02*
X183880057Y-93615601D01*
X183808628Y-92972745D02*
X185022914Y-92972745D01*
X185022914Y-92972745D02*
X185165771Y-92901316D01*
X185165771Y-92901316D02*
X185237200Y-92829888D01*
X185237200Y-92829888D02*
X185308628Y-92687030D01*
X185308628Y-92687030D02*
X185308628Y-92401316D01*
X185308628Y-92401316D02*
X185237200Y-92258459D01*
X185237200Y-92258459D02*
X185165771Y-92187030D01*
X185165771Y-92187030D02*
X185022914Y-92115602D01*
X185022914Y-92115602D02*
X183808628Y-92115602D01*
X185308628Y-90258459D02*
X183808628Y-90258459D01*
X184380057Y-90258459D02*
X184308628Y-90115602D01*
X184308628Y-90115602D02*
X184308628Y-89829887D01*
X184308628Y-89829887D02*
X184380057Y-89687030D01*
X184380057Y-89687030D02*
X184451485Y-89615602D01*
X184451485Y-89615602D02*
X184594342Y-89544173D01*
X184594342Y-89544173D02*
X185022914Y-89544173D01*
X185022914Y-89544173D02*
X185165771Y-89615602D01*
X185165771Y-89615602D02*
X185237200Y-89687030D01*
X185237200Y-89687030D02*
X185308628Y-89829887D01*
X185308628Y-89829887D02*
X185308628Y-90115602D01*
X185308628Y-90115602D02*
X185237200Y-90258459D01*
X185308628Y-88901316D02*
X184308628Y-88901316D01*
X184594342Y-88901316D02*
X184451485Y-88829887D01*
X184451485Y-88829887D02*
X184380057Y-88758459D01*
X184380057Y-88758459D02*
X184308628Y-88615601D01*
X184308628Y-88615601D02*
X184308628Y-88472744D01*
X185237200Y-87401316D02*
X185308628Y-87544173D01*
X185308628Y-87544173D02*
X185308628Y-87829888D01*
X185308628Y-87829888D02*
X185237200Y-87972745D01*
X185237200Y-87972745D02*
X185094342Y-88044173D01*
X185094342Y-88044173D02*
X184522914Y-88044173D01*
X184522914Y-88044173D02*
X184380057Y-87972745D01*
X184380057Y-87972745D02*
X184308628Y-87829888D01*
X184308628Y-87829888D02*
X184308628Y-87544173D01*
X184308628Y-87544173D02*
X184380057Y-87401316D01*
X184380057Y-87401316D02*
X184522914Y-87329888D01*
X184522914Y-87329888D02*
X184665771Y-87329888D01*
X184665771Y-87329888D02*
X184808628Y-88044173D01*
X185308628Y-86044174D02*
X184522914Y-86044174D01*
X184522914Y-86044174D02*
X184380057Y-86115602D01*
X184380057Y-86115602D02*
X184308628Y-86258459D01*
X184308628Y-86258459D02*
X184308628Y-86544174D01*
X184308628Y-86544174D02*
X184380057Y-86687031D01*
X185237200Y-86044174D02*
X185308628Y-86187031D01*
X185308628Y-86187031D02*
X185308628Y-86544174D01*
X185308628Y-86544174D02*
X185237200Y-86687031D01*
X185237200Y-86687031D02*
X185094342Y-86758459D01*
X185094342Y-86758459D02*
X184951485Y-86758459D01*
X184951485Y-86758459D02*
X184808628Y-86687031D01*
X184808628Y-86687031D02*
X184737200Y-86544174D01*
X184737200Y-86544174D02*
X184737200Y-86187031D01*
X184737200Y-86187031D02*
X184665771Y-86044174D01*
X185308628Y-85329888D02*
X183808628Y-85329888D01*
X184737200Y-85187031D02*
X185308628Y-84758459D01*
X184308628Y-84758459D02*
X184880057Y-85329888D01*
X185308628Y-83901316D02*
X185237200Y-84044173D01*
X185237200Y-84044173D02*
X185165771Y-84115602D01*
X185165771Y-84115602D02*
X185022914Y-84187030D01*
X185022914Y-84187030D02*
X184594342Y-84187030D01*
X184594342Y-84187030D02*
X184451485Y-84115602D01*
X184451485Y-84115602D02*
X184380057Y-84044173D01*
X184380057Y-84044173D02*
X184308628Y-83901316D01*
X184308628Y-83901316D02*
X184308628Y-83687030D01*
X184308628Y-83687030D02*
X184380057Y-83544173D01*
X184380057Y-83544173D02*
X184451485Y-83472745D01*
X184451485Y-83472745D02*
X184594342Y-83401316D01*
X184594342Y-83401316D02*
X185022914Y-83401316D01*
X185022914Y-83401316D02*
X185165771Y-83472745D01*
X185165771Y-83472745D02*
X185237200Y-83544173D01*
X185237200Y-83544173D02*
X185308628Y-83687030D01*
X185308628Y-83687030D02*
X185308628Y-83901316D01*
X184308628Y-82115602D02*
X185308628Y-82115602D01*
X184308628Y-82758459D02*
X185094342Y-82758459D01*
X185094342Y-82758459D02*
X185237200Y-82687030D01*
X185237200Y-82687030D02*
X185308628Y-82544173D01*
X185308628Y-82544173D02*
X185308628Y-82329887D01*
X185308628Y-82329887D02*
X185237200Y-82187030D01*
X185237200Y-82187030D02*
X185165771Y-82115602D01*
X184308628Y-81615601D02*
X184308628Y-81044173D01*
X183808628Y-81401316D02*
X185094342Y-81401316D01*
X185094342Y-81401316D02*
X185237200Y-81329887D01*
X185237200Y-81329887D02*
X185308628Y-81187030D01*
X185308628Y-81187030D02*
X185308628Y-81044173D01*
X142988866Y-89413220D02*
X142988866Y-88651316D01*
X142417438Y-87651316D02*
X142369819Y-87746554D01*
X142369819Y-87746554D02*
X142369819Y-87889411D01*
X142369819Y-87889411D02*
X142417438Y-88032268D01*
X142417438Y-88032268D02*
X142512676Y-88127506D01*
X142512676Y-88127506D02*
X142607914Y-88175125D01*
X142607914Y-88175125D02*
X142798390Y-88222744D01*
X142798390Y-88222744D02*
X142941247Y-88222744D01*
X142941247Y-88222744D02*
X143131723Y-88175125D01*
X143131723Y-88175125D02*
X143226961Y-88127506D01*
X143226961Y-88127506D02*
X143322200Y-88032268D01*
X143322200Y-88032268D02*
X143369819Y-87889411D01*
X143369819Y-87889411D02*
X143369819Y-87794173D01*
X143369819Y-87794173D02*
X143322200Y-87651316D01*
X143322200Y-87651316D02*
X143274580Y-87603697D01*
X143274580Y-87603697D02*
X142941247Y-87603697D01*
X142941247Y-87603697D02*
X142941247Y-87794173D01*
X143369819Y-87175125D02*
X142369819Y-87175125D01*
X142369819Y-87175125D02*
X143369819Y-86603697D01*
X143369819Y-86603697D02*
X142369819Y-86603697D01*
X143369819Y-86127506D02*
X142369819Y-86127506D01*
X142369819Y-86127506D02*
X142369819Y-85889411D01*
X142369819Y-85889411D02*
X142417438Y-85746554D01*
X142417438Y-85746554D02*
X142512676Y-85651316D01*
X142512676Y-85651316D02*
X142607914Y-85603697D01*
X142607914Y-85603697D02*
X142798390Y-85556078D01*
X142798390Y-85556078D02*
X142941247Y-85556078D01*
X142941247Y-85556078D02*
X143131723Y-85603697D01*
X143131723Y-85603697D02*
X143226961Y-85651316D01*
X143226961Y-85651316D02*
X143322200Y-85746554D01*
X143322200Y-85746554D02*
X143369819Y-85889411D01*
X143369819Y-85889411D02*
X143369819Y-86127506D01*
D10*
X155217657Y-93743734D02*
X155170038Y-93696115D01*
X155170038Y-93696115D02*
X155122419Y-93600877D01*
X155122419Y-93600877D02*
X155122419Y-93362782D01*
X155122419Y-93362782D02*
X155170038Y-93267544D01*
X155170038Y-93267544D02*
X155217657Y-93219925D01*
X155217657Y-93219925D02*
X155312895Y-93172306D01*
X155312895Y-93172306D02*
X155408133Y-93172306D01*
X155408133Y-93172306D02*
X155550990Y-93219925D01*
X155550990Y-93219925D02*
X156122419Y-93791353D01*
X156122419Y-93791353D02*
X156122419Y-93172306D01*
X155122419Y-92553258D02*
X155122419Y-92458020D01*
X155122419Y-92458020D02*
X155170038Y-92362782D01*
X155170038Y-92362782D02*
X155217657Y-92315163D01*
X155217657Y-92315163D02*
X155312895Y-92267544D01*
X155312895Y-92267544D02*
X155503371Y-92219925D01*
X155503371Y-92219925D02*
X155741466Y-92219925D01*
X155741466Y-92219925D02*
X155931942Y-92267544D01*
X155931942Y-92267544D02*
X156027180Y-92315163D01*
X156027180Y-92315163D02*
X156074800Y-92362782D01*
X156074800Y-92362782D02*
X156122419Y-92458020D01*
X156122419Y-92458020D02*
X156122419Y-92553258D01*
X156122419Y-92553258D02*
X156074800Y-92648496D01*
X156074800Y-92648496D02*
X156027180Y-92696115D01*
X156027180Y-92696115D02*
X155931942Y-92743734D01*
X155931942Y-92743734D02*
X155741466Y-92791353D01*
X155741466Y-92791353D02*
X155503371Y-92791353D01*
X155503371Y-92791353D02*
X155312895Y-92743734D01*
X155312895Y-92743734D02*
X155217657Y-92696115D01*
X155217657Y-92696115D02*
X155170038Y-92648496D01*
X155170038Y-92648496D02*
X155122419Y-92553258D01*
D11*
X170397438Y-100739411D02*
X170349819Y-100834649D01*
X170349819Y-100834649D02*
X170349819Y-100977506D01*
X170349819Y-100977506D02*
X170397438Y-101120363D01*
X170397438Y-101120363D02*
X170492676Y-101215601D01*
X170492676Y-101215601D02*
X170587914Y-101263220D01*
X170587914Y-101263220D02*
X170778390Y-101310839D01*
X170778390Y-101310839D02*
X170921247Y-101310839D01*
X170921247Y-101310839D02*
X171111723Y-101263220D01*
X171111723Y-101263220D02*
X171206961Y-101215601D01*
X171206961Y-101215601D02*
X171302200Y-101120363D01*
X171302200Y-101120363D02*
X171349819Y-100977506D01*
X171349819Y-100977506D02*
X171349819Y-100882268D01*
X171349819Y-100882268D02*
X171302200Y-100739411D01*
X171302200Y-100739411D02*
X171254580Y-100691792D01*
X171254580Y-100691792D02*
X170921247Y-100691792D01*
X170921247Y-100691792D02*
X170921247Y-100882268D01*
X171349819Y-100263220D02*
X170349819Y-100263220D01*
X170349819Y-100263220D02*
X171349819Y-99691792D01*
X171349819Y-99691792D02*
X170349819Y-99691792D01*
X171349819Y-99215601D02*
X170349819Y-99215601D01*
X170349819Y-99215601D02*
X170349819Y-98977506D01*
X170349819Y-98977506D02*
X170397438Y-98834649D01*
X170397438Y-98834649D02*
X170492676Y-98739411D01*
X170492676Y-98739411D02*
X170587914Y-98691792D01*
X170587914Y-98691792D02*
X170778390Y-98644173D01*
X170778390Y-98644173D02*
X170921247Y-98644173D01*
X170921247Y-98644173D02*
X171111723Y-98691792D01*
X171111723Y-98691792D02*
X171206961Y-98739411D01*
X171206961Y-98739411D02*
X171302200Y-98834649D01*
X171302200Y-98834649D02*
X171349819Y-98977506D01*
X171349819Y-98977506D02*
X171349819Y-99215601D01*
X170968866Y-98215601D02*
X170968866Y-97453697D01*
X145203152Y-100484649D02*
X145869819Y-100484649D01*
X144822200Y-100722744D02*
X145536485Y-100960839D01*
X145536485Y-100960839D02*
X145536485Y-100341792D01*
X144869819Y-99770363D02*
X144869819Y-99675125D01*
X144869819Y-99675125D02*
X144917438Y-99579887D01*
X144917438Y-99579887D02*
X144965057Y-99532268D01*
X144965057Y-99532268D02*
X145060295Y-99484649D01*
X145060295Y-99484649D02*
X145250771Y-99437030D01*
X145250771Y-99437030D02*
X145488866Y-99437030D01*
X145488866Y-99437030D02*
X145679342Y-99484649D01*
X145679342Y-99484649D02*
X145774580Y-99532268D01*
X145774580Y-99532268D02*
X145822200Y-99579887D01*
X145822200Y-99579887D02*
X145869819Y-99675125D01*
X145869819Y-99675125D02*
X145869819Y-99770363D01*
X145869819Y-99770363D02*
X145822200Y-99865601D01*
X145822200Y-99865601D02*
X145774580Y-99913220D01*
X145774580Y-99913220D02*
X145679342Y-99960839D01*
X145679342Y-99960839D02*
X145488866Y-100008458D01*
X145488866Y-100008458D02*
X145250771Y-100008458D01*
X145250771Y-100008458D02*
X145060295Y-99960839D01*
X145060295Y-99960839D02*
X144965057Y-99913220D01*
X144965057Y-99913220D02*
X144917438Y-99865601D01*
X144917438Y-99865601D02*
X144869819Y-99770363D01*
X145203152Y-99103696D02*
X145869819Y-98865601D01*
X145869819Y-98865601D02*
X145203152Y-98627506D01*
X145488866Y-98246553D02*
X145488866Y-97484649D01*
X178869819Y-101413220D02*
X177869819Y-101413220D01*
X178346009Y-101413220D02*
X178346009Y-100841792D01*
X178869819Y-100841792D02*
X177869819Y-100841792D01*
X177869819Y-100508458D02*
X178869819Y-100175125D01*
X178869819Y-100175125D02*
X177869819Y-99841792D01*
X178965057Y-99746554D02*
X178965057Y-98984649D01*
X178869819Y-98746553D02*
X177869819Y-98746553D01*
X178488866Y-98270363D02*
X178488866Y-97508459D01*
X163238866Y-89413220D02*
X163238866Y-88651316D01*
X163619819Y-88175125D02*
X162619819Y-88175125D01*
X163096009Y-88175125D02*
X163096009Y-87603697D01*
X163619819Y-87603697D02*
X162619819Y-87603697D01*
X162619819Y-87270363D02*
X163619819Y-86937030D01*
X163619819Y-86937030D02*
X162619819Y-86603697D01*
X163715057Y-86508459D02*
X163715057Y-85746554D01*
X162619819Y-85317982D02*
X162619819Y-85127506D01*
X162619819Y-85127506D02*
X162667438Y-85032268D01*
X162667438Y-85032268D02*
X162762676Y-84937030D01*
X162762676Y-84937030D02*
X162953152Y-84889411D01*
X162953152Y-84889411D02*
X163286485Y-84889411D01*
X163286485Y-84889411D02*
X163476961Y-84937030D01*
X163476961Y-84937030D02*
X163572200Y-85032268D01*
X163572200Y-85032268D02*
X163619819Y-85127506D01*
X163619819Y-85127506D02*
X163619819Y-85317982D01*
X163619819Y-85317982D02*
X163572200Y-85413220D01*
X163572200Y-85413220D02*
X163476961Y-85508458D01*
X163476961Y-85508458D02*
X163286485Y-85556077D01*
X163286485Y-85556077D02*
X162953152Y-85556077D01*
X162953152Y-85556077D02*
X162762676Y-85508458D01*
X162762676Y-85508458D02*
X162667438Y-85413220D01*
X162667438Y-85413220D02*
X162619819Y-85317982D01*
X163619819Y-84460839D02*
X162619819Y-84460839D01*
X163619819Y-83889411D02*
X163048390Y-84317982D01*
X162619819Y-83889411D02*
X163191247Y-84460839D01*
X158238866Y-89413220D02*
X158238866Y-88651316D01*
X158619819Y-87651316D02*
X158619819Y-88222744D01*
X158619819Y-87937030D02*
X157619819Y-87937030D01*
X157619819Y-87937030D02*
X157762676Y-88032268D01*
X157762676Y-88032268D02*
X157857914Y-88127506D01*
X157857914Y-88127506D02*
X157905533Y-88222744D01*
X157715057Y-87270363D02*
X157667438Y-87222744D01*
X157667438Y-87222744D02*
X157619819Y-87127506D01*
X157619819Y-87127506D02*
X157619819Y-86889411D01*
X157619819Y-86889411D02*
X157667438Y-86794173D01*
X157667438Y-86794173D02*
X157715057Y-86746554D01*
X157715057Y-86746554D02*
X157810295Y-86698935D01*
X157810295Y-86698935D02*
X157905533Y-86698935D01*
X157905533Y-86698935D02*
X158048390Y-86746554D01*
X158048390Y-86746554D02*
X158619819Y-87317982D01*
X158619819Y-87317982D02*
X158619819Y-86698935D01*
X157953152Y-86365601D02*
X158619819Y-86127506D01*
X158619819Y-86127506D02*
X157953152Y-85889411D01*
D13*
%TO.C,J2*%
X177270000Y-89420000D02*
X141650000Y-89420000D01*
X177270000Y-89420000D02*
X177270000Y-92080000D01*
X141650000Y-89420000D02*
X141650000Y-92080000D01*
X179870000Y-90750000D02*
X179870000Y-92080000D01*
X179870000Y-92080000D02*
X178540000Y-92080000D01*
X177270000Y-92080000D02*
X141650000Y-92080000D01*
%TO.C,J3*%
X144210000Y-97580000D02*
X179830000Y-97580000D01*
X144210000Y-97580000D02*
X144210000Y-94920000D01*
X179830000Y-97580000D02*
X179830000Y-94920000D01*
X141610000Y-96250000D02*
X141610000Y-94920000D01*
X141610000Y-94920000D02*
X142940000Y-94920000D01*
X144210000Y-94920000D02*
X179830000Y-94920000D01*
%TO.C,R9*%
X167772936Y-108485000D02*
X168227064Y-108485000D01*
X167772936Y-107015000D02*
X168227064Y-107015000D01*
%TO.C,R6*%
X158985000Y-81977064D02*
X158985000Y-81522936D01*
X157515000Y-81977064D02*
X157515000Y-81522936D01*
%TO.C,R8*%
X170522936Y-81765000D02*
X170977064Y-81765000D01*
X170522936Y-83235000D02*
X170977064Y-83235000D01*
D10*
%TO.C,J4*%
X143400000Y-112500000D02*
X143400000Y-112500000D01*
X143500000Y-112500000D02*
X143500000Y-112500000D01*
D14*
X144000000Y-110330000D02*
X144000000Y-117030000D01*
X144000000Y-117030000D02*
X177000000Y-117030000D01*
X144975000Y-110330000D02*
X144000000Y-110330000D01*
X144975000Y-112230000D02*
X144975000Y-110330000D01*
X176025000Y-110330000D02*
X176025000Y-112230000D01*
X177000000Y-110330000D02*
X176025000Y-110330000D01*
X177000000Y-117030000D02*
X177000000Y-110330000D01*
D10*
X143400000Y-112500000D02*
G75*
G02*
X143500000Y-112500000I50000J0D01*
G01*
X143500000Y-112500000D02*
G75*
G02*
X143400000Y-112500000I-50000J0D01*
G01*
D13*
%TO.C,D1*%
X176960000Y-84475000D02*
X176960000Y-81615000D01*
X176960000Y-81615000D02*
X175040000Y-81615000D01*
X175040000Y-81615000D02*
X175040000Y-84475000D01*
%TO.C,R3*%
X155227064Y-81235000D02*
X154772936Y-81235000D01*
X155227064Y-79765000D02*
X154772936Y-79765000D01*
%TO.C,D6*%
X161710000Y-82750000D02*
X161710000Y-79890000D01*
X161710000Y-79890000D02*
X159790000Y-79890000D01*
X159790000Y-79890000D02*
X159790000Y-82750000D01*
%TO.C,D8*%
X166710000Y-82250000D02*
X166710000Y-79390000D01*
X166710000Y-79390000D02*
X164790000Y-79390000D01*
X164790000Y-79390000D02*
X164790000Y-82250000D01*
%TO.C,D7*%
X164210000Y-82750000D02*
X164210000Y-79890000D01*
X164210000Y-79890000D02*
X162290000Y-79890000D01*
X162290000Y-79890000D02*
X162290000Y-82750000D01*
D14*
%TO.C,J1*%
X144000000Y-71220000D02*
X144000000Y-77920000D01*
X144000000Y-77920000D02*
X144975000Y-77920000D01*
X144975000Y-77920000D02*
X144975000Y-76020000D01*
X176025000Y-76020000D02*
X176025000Y-77920000D01*
X176025000Y-77920000D02*
X177000000Y-77920000D01*
X177000000Y-71220000D02*
X144000000Y-71220000D01*
X177000000Y-77920000D02*
X177000000Y-71220000D01*
D10*
X177500000Y-75750000D02*
X177500000Y-75750000D01*
X177600000Y-75750000D02*
X177600000Y-75750000D01*
X177500000Y-75750000D02*
G75*
G02*
X177600000Y-75750000I50000J0D01*
G01*
X177600000Y-75750000D02*
G75*
G02*
X177500000Y-75750000I-50000J0D01*
G01*
D13*
%TO.C,D2*%
X156710000Y-84500000D02*
X156710000Y-81640000D01*
X156710000Y-81640000D02*
X154790000Y-81640000D01*
X154790000Y-81640000D02*
X154790000Y-84500000D01*
%TO.C,D3*%
X159210000Y-107835000D02*
X159210000Y-104975000D01*
X157290000Y-107835000D02*
X159210000Y-107835000D01*
X157290000Y-104975000D02*
X157290000Y-107835000D01*
%TO.C,R4*%
X144977064Y-79765000D02*
X144522936Y-79765000D01*
X144977064Y-81235000D02*
X144522936Y-81235000D01*
%TO.C,R1*%
X175227064Y-79765000D02*
X174772936Y-79765000D01*
X175227064Y-81235000D02*
X174772936Y-81235000D01*
%TO.C,R7*%
X170522936Y-81235000D02*
X170977064Y-81235000D01*
X170522936Y-79765000D02*
X170977064Y-79765000D01*
%TO.C,D4*%
X151460000Y-82250000D02*
X151460000Y-79390000D01*
X151460000Y-79390000D02*
X149540000Y-79390000D01*
X149540000Y-79390000D02*
X149540000Y-82250000D01*
%TO.C,D9*%
X164210000Y-108835000D02*
X164210000Y-105975000D01*
X162290000Y-108835000D02*
X164210000Y-108835000D01*
X162290000Y-105975000D02*
X162290000Y-108835000D01*
%TO.C,R5*%
X144977064Y-83235000D02*
X144522936Y-83235000D01*
X144977064Y-81765000D02*
X144522936Y-81765000D01*
%TO.C,D5*%
X148960000Y-84500000D02*
X148960000Y-81640000D01*
X148960000Y-81640000D02*
X147040000Y-81640000D01*
X147040000Y-81640000D02*
X147040000Y-84500000D01*
%TO.C,R2*%
X154227064Y-106265000D02*
X153772936Y-106265000D01*
X154227064Y-107735000D02*
X153772936Y-107735000D01*
%TD*%
M02*
