  0
SECTION
  2
HEADER
  9
$ANGBASE
  50
0.0
  9
$ANGDIR
  70
1
  9
$MEASUREMENT
  70
1
  0
ENDSEC
  0
SECTION
  2
TABLES
  0
TABLE
  2
LTYPE
  70
4
  0
LTYPE
  5
40F
  2
CONTINUOUS
  70
0
  3
Solid line
  72
65
  73
0
  40
0.0
  0
LTYPE
  5
410
  2
DASHDOT
 70
0
  3
Dash Dot ____ _ ____ _
 72
65
 73
4
 40
2.0
 49
1.25
 49
-0.25
 49
0.25
 49
-0.25
  0
LTYPE
  5
411
  2
DASHED
 70
0
  3
Dashed __ __ __ __ __
 72
65
 73
2
 40
0.75
 49
0.5
 49
-0.25
  0
LTYPE
  5
43B
  2
DOTTED
 70
0
  3
Dotted .  .  .  .
 72
65
 73
2
 40
0.2
 49
0.0
 49
-0.2
  0
ENDTAB
  0
TABLE
  2
STYLE
  70
4
  0
STYLE
  2
KICAD
  70
0
  40
0
  41
1
  42
1
  50
0
  71
0
  3
isocp.shx
  0
STYLE
  2
KICADB
  70
0
  40
0
  41
1
  42
1
  50
0
  71
0
  3
isocp.shx
  0
STYLE
  2
KICADI
  70
0
  40
0
  41
1
  42
1
  50
15
  71
0
  3
isocp.shx
  0
STYLE
  2
KICADBI
  70
0
  40
0
  41
1
  42
1
  50
15
  71
0
  3
isocp.shx
  0
ENDTAB
  0
TABLE
  2
LAYER
  70
1
  0
LAYER
  2
BLACK
  70
0
  62
7
  6
CONTINUOUS
  0
ENDTAB
  0
ENDSEC
  0
SECTION
  2
ENTITIES
0
LINE
8
BLACK
6
CONTINUOUS
10
135.
20
-67.5
11
187.5
21
-67.5
0
LINE
8
BLACK
6
CONTINUOUS
10
187.5
20
-67.5
11
187.5
21
-110.
0
LINE
8
BLACK
6
CONTINUOUS
10
187.5
20
-110.
11
135.
21
-110.
0
LINE
8
BLACK
6
CONTINUOUS
10
135.
20
-110.
11
135.
21
-67.5
0
LINE
8
BLACK
6
CONTINUOUS
10
157.5499999999999829
20
-92.8499999999999943
11
157.8499999999999943
21
-93.1499999999999915
0
LINE
8
BLACK
6
CONTINUOUS
10
157.8499999999999943
20
-92.8499999999999943
11
157.5499999999999829
21
-93.1499999999999915
0
LINE
8
BLACK
6
CONTINUOUS
10
160.0900000000000034
20
-94.8599999999999994
11
160.3899999999999864
21
-95.1599999999999966
0
LINE
8
BLACK
6
CONTINUOUS
10
160.3899999999999864
20
-94.8599999999999994
11
160.0900000000000034
21
-95.1599999999999966
0
LINE
8
BLACK
6
CONTINUOUS
10
162.5999999999999943
20
-97.5999999999999943
11
162.9000000000000057
21
-97.8999999999999915
0
LINE
8
BLACK
6
CONTINUOUS
10
162.9000000000000057
20
-97.5999999999999943
11
162.5999999999999943
21
-97.8999999999999915
0
LINE
8
BLACK
6
CONTINUOUS
10
165.1699999999999875
20
-95.1700000000000017
11
165.4699999999999989
21
-95.4699999999999989
0
LINE
8
BLACK
6
CONTINUOUS
10
165.4699999999999989
20
-95.1700000000000017
11
165.1699999999999875
21
-95.4699999999999989
0
LINE
8
BLACK
6
CONTINUOUS
10
167.5999999999999943
20
-92.8499999999999943
11
167.9000000000000057
21
-93.1499999999999915
0
LINE
8
BLACK
6
CONTINUOUS
10
167.9000000000000057
20
-92.8499999999999943
11
167.5999999999999943
21
-93.1499999999999915
0
CIRCLE
8
BLACK
10
146.
20
-79.5
40
0.35
0
CIRCLE
8
BLACK
10
147.
20
-77.5
40
0.35
0
CIRCLE
8
BLACK
10
148.
20
-79.5
40
0.35
0
CIRCLE
8
BLACK
10
149.
20
-77.5
40
0.35
0
CIRCLE
8
BLACK
10
150.
20
-79.5
40
0.35
0
CIRCLE
8
BLACK
10
151.
20
-77.5
40
0.35
0
CIRCLE
8
BLACK
10
152.
20
-79.5
40
0.35
0
CIRCLE
8
BLACK
10
153.
20
-77.5
40
0.35
0
CIRCLE
8
BLACK
10
154.
20
-79.5
40
0.35
0
CIRCLE
8
BLACK
10
155.
20
-77.5
40
0.35
0
CIRCLE
8
BLACK
10
156.
20
-79.5
40
0.35
0
CIRCLE
8
BLACK
10
157.
20
-77.5
40
0.35
0
CIRCLE
8
BLACK
10
158.
20
-79.5
40
0.35
0
CIRCLE
8
BLACK
10
159.
20
-77.5
40
0.35
0
CIRCLE
8
BLACK
10
160.
20
-79.5
40
0.35
0
CIRCLE
8
BLACK
10
161.
20
-77.5
40
0.35
0
CIRCLE
8
BLACK
10
162.
20
-79.5
40
0.35
0
CIRCLE
8
BLACK
10
163.
20
-77.5
40
0.35
0
CIRCLE
8
BLACK
10
164.
20
-79.5
40
0.35
0
CIRCLE
8
BLACK
10
165.
20
-77.5
40
0.35
0
CIRCLE
8
BLACK
10
166.
20
-79.5
40
0.35
0
CIRCLE
8
BLACK
10
167.
20
-77.5
40
0.35
0
CIRCLE
8
BLACK
10
168.
20
-79.5
40
0.35
0
CIRCLE
8
BLACK
10
169.
20
-77.5
40
0.35
0
CIRCLE
8
BLACK
10
170.
20
-79.5
40
0.35
0
CIRCLE
8
BLACK
10
171.
20
-77.5
40
0.35
0
CIRCLE
8
BLACK
10
172.
20
-79.5
40
0.35
0
CIRCLE
8
BLACK
10
173.
20
-77.5
40
0.35
0
CIRCLE
8
BLACK
10
174.
20
-79.5
40
0.35
0
CIRCLE
8
BLACK
10
175.
20
-77.5
40
0.35
0
LINE
8
BLACK
6
CONTINUOUS
10
142.4199999999999875
20
-89.5
11
142.4199999999999875
21
-90.5
0
LINE
8
BLACK
6
CONTINUOUS
10
141.9199999999999875
20
-90.
11
142.9199999999999875
21
-90.
0
LINE
8
BLACK
6
CONTINUOUS
10
142.4599999999999795
20
-99.75
11
142.4599999999999795
21
-100.75
0
LINE
8
BLACK
6
CONTINUOUS
10
141.9599999999999795
20
-100.25
11
142.9599999999999795
21
-100.25
0
LINE
8
BLACK
6
CONTINUOUS
10
144.9599999999999795
20
-89.5
11
144.9599999999999795
21
-90.5
0
LINE
8
BLACK
6
CONTINUOUS
10
144.4599999999999795
20
-90.
11
145.4599999999999795
21
-90.
0
LINE
8
BLACK
6
CONTINUOUS
10
145.
20
-99.75
11
145.
21
-100.75
0
LINE
8
BLACK
6
CONTINUOUS
10
144.5
20
-100.25
11
145.5
21
-100.25
0
LINE
8
BLACK
6
CONTINUOUS
10
147.5
20
-89.5
11
147.5
21
-90.5
0
LINE
8
BLACK
6
CONTINUOUS
10
147.
20
-90.
11
148.
21
-90.
0
LINE
8
BLACK
6
CONTINUOUS
10
147.539999999999992
20
-99.75
11
147.539999999999992
21
-100.75
0
LINE
8
BLACK
6
CONTINUOUS
10
147.039999999999992
20
-100.25
11
148.039999999999992
21
-100.25
0
LINE
8
BLACK
6
CONTINUOUS
10
150.039999999999992
20
-89.5
11
150.039999999999992
21
-90.5
0
LINE
8
BLACK
6
CONTINUOUS
10
149.539999999999992
20
-90.
11
150.539999999999992
21
-90.
0
LINE
8
BLACK
6
CONTINUOUS
10
150.0799999999999841
20
-99.75
11
150.0799999999999841
21
-100.75
0
LINE
8
BLACK
6
CONTINUOUS
10
149.5799999999999841
20
-100.25
11
150.5799999999999841
21
-100.25
0
LINE
8
BLACK
6
CONTINUOUS
10
152.5799999999999841
20
-89.5
11
152.5799999999999841
21
-90.5
0
LINE
8
BLACK
6
CONTINUOUS
10
152.0799999999999841
20
-90.
11
153.0799999999999841
21
-90.
0
LINE
8
BLACK
6
CONTINUOUS
10
152.6200000000000045
20
-99.75
11
152.6200000000000045
21
-100.75
0
LINE
8
BLACK
6
CONTINUOUS
10
152.1200000000000045
20
-100.25
11
153.1200000000000045
21
-100.25
0
LINE
8
BLACK
6
CONTINUOUS
10
155.1200000000000045
20
-89.5
11
155.1200000000000045
21
-90.5
0
LINE
8
BLACK
6
CONTINUOUS
10
154.6200000000000045
20
-90.
11
155.6200000000000045
21
-90.
0
LINE
8
BLACK
6
CONTINUOUS
10
155.1599999999999966
20
-99.75
11
155.1599999999999966
21
-100.75
0
LINE
8
BLACK
6
CONTINUOUS
10
154.6599999999999966
20
-100.25
11
155.6599999999999966
21
-100.25
0
LINE
8
BLACK
6
CONTINUOUS
10
157.6599999999999966
20
-89.5
11
157.6599999999999966
21
-90.5
0
LINE
8
BLACK
6
CONTINUOUS
10
157.1599999999999966
20
-90.
11
158.1599999999999966
21
-90.
0
LINE
8
BLACK
6
CONTINUOUS
10
157.6999999999999886
20
-99.75
11
157.6999999999999886
21
-100.75
0
LINE
8
BLACK
6
CONTINUOUS
10
157.1999999999999886
20
-100.25
11
158.1999999999999886
21
-100.25
0
LINE
8
BLACK
6
CONTINUOUS
10
160.1999999999999886
20
-89.5
11
160.1999999999999886
21
-90.5
0
LINE
8
BLACK
6
CONTINUOUS
10
159.6999999999999886
20
-90.
11
160.6999999999999886
21
-90.
0
LINE
8
BLACK
6
CONTINUOUS
10
160.2399999999999807
20
-99.75
11
160.2399999999999807
21
-100.75
0
LINE
8
BLACK
6
CONTINUOUS
10
159.7399999999999807
20
-100.25
11
160.7399999999999807
21
-100.25
0
LINE
8
BLACK
6
CONTINUOUS
10
162.7399999999999807
20
-89.5
11
162.7399999999999807
21
-90.5
0
LINE
8
BLACK
6
CONTINUOUS
10
162.2399999999999807
20
-90.
11
163.2399999999999807
21
-90.
0
LINE
8
BLACK
6
CONTINUOUS
10
162.7800000000000011
20
-99.75
11
162.7800000000000011
21
-100.75
0
LINE
8
BLACK
6
CONTINUOUS
10
162.2800000000000011
20
-100.25
11
163.2800000000000011
21
-100.25
0
LINE
8
BLACK
6
CONTINUOUS
10
165.2800000000000011
20
-89.5
11
165.2800000000000011
21
-90.5
0
LINE
8
BLACK
6
CONTINUOUS
10
164.7800000000000011
20
-90.
11
165.7800000000000011
21
-90.
0
LINE
8
BLACK
6
CONTINUOUS
10
165.3199999999999932
20
-99.75
11
165.3199999999999932
21
-100.75
0
LINE
8
BLACK
6
CONTINUOUS
10
164.8199999999999932
20
-100.25
11
165.8199999999999932
21
-100.25
0
LINE
8
BLACK
6
CONTINUOUS
10
167.8199999999999932
20
-89.5
11
167.8199999999999932
21
-90.5
0
LINE
8
BLACK
6
CONTINUOUS
10
167.3199999999999932
20
-90.
11
168.3199999999999932
21
-90.
0
LINE
8
BLACK
6
CONTINUOUS
10
167.8599999999999852
20
-99.75
11
167.8599999999999852
21
-100.75
0
LINE
8
BLACK
6
CONTINUOUS
10
167.3599999999999852
20
-100.25
11
168.3599999999999852
21
-100.25
0
LINE
8
BLACK
6
CONTINUOUS
10
170.3599999999999852
20
-89.5
11
170.3599999999999852
21
-90.5
0
LINE
8
BLACK
6
CONTINUOUS
10
169.8599999999999852
20
-90.
11
170.8599999999999852
21
-90.
0
LINE
8
BLACK
6
CONTINUOUS
10
170.4000000000000057
20
-99.75
11
170.4000000000000057
21
-100.75
0
LINE
8
BLACK
6
CONTINUOUS
10
169.9000000000000057
20
-100.25
11
170.9000000000000057
21
-100.25
0
LINE
8
BLACK
6
CONTINUOUS
10
172.9000000000000057
20
-89.5
11
172.9000000000000057
21
-90.5
0
LINE
8
BLACK
6
CONTINUOUS
10
172.4000000000000057
20
-90.
11
173.4000000000000057
21
-90.
0
LINE
8
BLACK
6
CONTINUOUS
10
172.9399999999999977
20
-99.75
11
172.9399999999999977
21
-100.75
0
LINE
8
BLACK
6
CONTINUOUS
10
172.4399999999999977
20
-100.25
11
173.4399999999999977
21
-100.25
0
LINE
8
BLACK
6
CONTINUOUS
10
175.4399999999999977
20
-89.5
11
175.4399999999999977
21
-90.5
0
LINE
8
BLACK
6
CONTINUOUS
10
174.9399999999999977
20
-90.
11
175.9399999999999977
21
-90.
0
LINE
8
BLACK
6
CONTINUOUS
10
175.4799999999999898
20
-99.75
11
175.4799999999999898
21
-100.75
0
LINE
8
BLACK
6
CONTINUOUS
10
174.9799999999999898
20
-100.25
11
175.9799999999999898
21
-100.25
0
LINE
8
BLACK
6
CONTINUOUS
10
177.9799999999999898
20
-89.5
11
177.9799999999999898
21
-90.5
0
LINE
8
BLACK
6
CONTINUOUS
10
177.4799999999999898
20
-90.
11
178.4799999999999898
21
-90.
0
LINE
8
BLACK
6
CONTINUOUS
10
178.0199999999999818
20
-99.75
11
178.0199999999999818
21
-100.75
0
LINE
8
BLACK
6
CONTINUOUS
10
177.5199999999999818
20
-100.25
11
178.5199999999999818
21
-100.25
0
LINE
8
BLACK
6
CONTINUOUS
10
139.6313820000000021
20
-72.6313820000000021
11
139.6313820000000021
21
-70.3686179999999979
0
LINE
8
BLACK
6
CONTINUOUS
10
139.6313820000000021
20
-70.3686179999999979
11
137.3686179999999979
21
-70.3686179999999979
0
LINE
8
BLACK
6
CONTINUOUS
10
137.3686179999999979
20
-70.3686179999999979
11
137.3686179999999979
21
-72.6313820000000021
0
LINE
8
BLACK
6
CONTINUOUS
10
137.3686179999999979
20
-72.6313820000000021
11
139.6313820000000021
21
-72.6313820000000021
0
LINE
8
BLACK
6
CONTINUOUS
10
139.6313820000000021
20
-107.3813820000000021
11
139.6313820000000021
21
-105.1186179999999979
0
LINE
8
BLACK
6
CONTINUOUS
10
139.6313820000000021
20
-105.1186179999999979
11
137.3686179999999979
21
-105.1186179999999979
0
LINE
8
BLACK
6
CONTINUOUS
10
137.3686179999999979
20
-105.1186179999999979
11
137.3686179999999979
21
-107.3813820000000021
0
LINE
8
BLACK
6
CONTINUOUS
10
137.3686179999999979
20
-107.3813820000000021
11
139.6313820000000021
21
-107.3813820000000021
0
LINE
8
BLACK
6
CONTINUOUS
10
184.8813820000000021
20
-72.6313820000000021
11
184.8813820000000021
21
-70.3686179999999979
0
LINE
8
BLACK
6
CONTINUOUS
10
184.8813820000000021
20
-70.3686179999999979
11
182.6186179999999979
21
-70.3686179999999979
0
LINE
8
BLACK
6
CONTINUOUS
10
182.6186179999999979
20
-70.3686179999999979
11
182.6186179999999979
21
-72.6313820000000021
0
LINE
8
BLACK
6
CONTINUOUS
10
182.6186179999999979
20
-72.6313820000000021
11
184.8813820000000021
21
-72.6313820000000021
0
LINE
8
BLACK
6
CONTINUOUS
10
185.1313820000000021
20
-107.3813820000000021
11
185.1313820000000021
21
-105.1186179999999979
0
LINE
8
BLACK
6
CONTINUOUS
10
185.1313820000000021
20
-105.1186179999999979
11
182.8686179999999979
21
-105.1186179999999979
0
LINE
8
BLACK
6
CONTINUOUS
10
182.8686179999999979
20
-105.1186179999999979
11
182.8686179999999979
21
-107.3813820000000021
0
LINE
8
BLACK
6
CONTINUOUS
10
182.8686179999999979
20
-107.3813820000000021
11
185.1313820000000021
21
-107.3813820000000021
0
LINE
8
BLACK
6
CONTINUOUS
10
137.5827679999999873
20
-113.1398379999999975
11
137.5827679999999873
21
-111.1398379999999975
0
LINE
8
BLACK
6
CONTINUOUS
10
137.5827679999999873
20
-111.1398379999999975
11
138.0589579999999899
21
-111.1398379999999975
0
LINE
8
BLACK
6
CONTINUOUS
10
138.0589579999999899
20
-111.1398379999999975
11
138.3446730000000002
21
-111.2350759999999923
0
LINE
8
BLACK
6
CONTINUOUS
10
138.3446730000000002
20
-111.2350759999999923
11
138.5351489999999899
21
-111.4255519999999962
0
LINE
8
BLACK
6
CONTINUOUS
10
138.5351489999999899
20
-111.4255519999999962
11
138.6303869999999847
21
-111.616028
0
LINE
8
BLACK
6
CONTINUOUS
10
138.6303869999999847
20
-111.616028
11
138.7256249999999795
21
-111.9969799999999935
0
LINE
8
BLACK
6
CONTINUOUS
10
138.7256249999999795
20
-111.9969799999999935
11
138.7256249999999795
21
-112.2826949999999897
0
LINE
8
BLACK
6
CONTINUOUS
10
138.7256249999999795
20
-112.2826949999999897
11
138.6303869999999847
21
-112.6636469999999974
0
LINE
8
BLACK
6
CONTINUOUS
10
138.6303869999999847
20
-112.6636469999999974
11
138.5351489999999899
21
-112.8541230000000013
0
LINE
8
BLACK
6
CONTINUOUS
10
138.5351489999999899
20
-112.8541230000000013
11
138.3446730000000002
21
-113.0445999999999884
0
LINE
8
BLACK
6
CONTINUOUS
10
138.3446730000000002
20
-113.0445999999999884
11
138.0589579999999899
21
-113.1398379999999975
0
LINE
8
BLACK
6
CONTINUOUS
10
138.0589579999999899
20
-113.1398379999999975
11
137.5827679999999873
21
-113.1398379999999975
0
LINE
8
BLACK
6
CONTINUOUS
10
139.5827679999999873
20
-113.1398379999999975
11
139.5827679999999873
21
-111.8065039999999897
0
LINE
8
BLACK
6
CONTINUOUS
10
139.5827679999999873
20
-112.1874569999999949
11
139.6780059999999821
21
-111.9969799999999935
0
LINE
8
BLACK
6
CONTINUOUS
10
139.6780059999999821
20
-111.9969799999999935
11
139.7732440000000054
21
-111.9017419999999987
0
LINE
8
BLACK
6
CONTINUOUS
10
139.7732440000000054
20
-111.9017419999999987
11
139.963719999999995
21
-111.8065039999999897
0
LINE
8
BLACK
6
CONTINUOUS
10
139.963719999999995
20
-111.8065039999999897
11
140.1541969999999822
21
-111.8065039999999897
0
LINE
8
BLACK
6
CONTINUOUS
10
140.8208630000000028
20
-113.1398379999999975
11
140.8208630000000028
21
-111.8065039999999897
0
LINE
8
BLACK
6
CONTINUOUS
10
140.8208630000000028
20
-111.1398379999999975
11
140.7256249999999795
21
-111.2350759999999923
0
LINE
8
BLACK
6
CONTINUOUS
10
140.7256249999999795
20
-111.2350759999999923
11
140.8208630000000028
21
-111.3303140000000013
0
LINE
8
BLACK
6
CONTINUOUS
10
140.8208630000000028
20
-111.3303140000000013
11
140.9161009999999976
21
-111.2350759999999923
0
LINE
8
BLACK
6
CONTINUOUS
10
140.9161009999999976
20
-111.2350759999999923
11
140.8208630000000028
21
-111.1398379999999975
0
LINE
8
BLACK
6
CONTINUOUS
10
140.8208630000000028
20
-111.1398379999999975
11
140.8208630000000028
21
-111.3303140000000013
0
LINE
8
BLACK
6
CONTINUOUS
10
142.0589579999999899
20
-113.1398379999999975
11
141.8684820000000002
21
-113.0445999999999884
0
LINE
8
BLACK
6
CONTINUOUS
10
141.8684820000000002
20
-113.0445999999999884
11
141.7732440000000054
21
-112.8541230000000013
0
LINE
8
BLACK
6
CONTINUOUS
10
141.7732440000000054
20
-112.8541230000000013
11
141.7732440000000054
21
-111.1398379999999975
0
LINE
8
BLACK
6
CONTINUOUS
10
143.1065769999999873
20
-113.1398379999999975
11
142.9161009999999976
21
-113.0445999999999884
0
LINE
8
BLACK
6
CONTINUOUS
10
142.9161009999999976
20
-113.0445999999999884
11
142.8208630000000028
21
-112.8541230000000013
0
LINE
8
BLACK
6
CONTINUOUS
10
142.8208630000000028
20
-112.8541230000000013
11
142.8208630000000028
21
-111.1398379999999975
0
LINE
8
BLACK
6
CONTINUOUS
10
145.3922919999999976
20
-113.1398379999999975
11
145.3922919999999976
21
-111.1398379999999975
0
LINE
8
BLACK
6
CONTINUOUS
10
145.3922919999999976
20
-111.1398379999999975
11
146.0589589999999873
21
-112.5684089999999884
0
LINE
8
BLACK
6
CONTINUOUS
10
146.0589589999999873
20
-112.5684089999999884
11
146.7256249999999795
21
-111.1398379999999975
0
LINE
8
BLACK
6
CONTINUOUS
10
146.7256249999999795
20
-111.1398379999999975
11
146.7256249999999795
21
-113.1398379999999975
0
LINE
8
BLACK
6
CONTINUOUS
10
148.5351489999999899
20
-113.1398379999999975
11
148.5351489999999899
21
-112.0922190000000001
0
LINE
8
BLACK
6
CONTINUOUS
10
148.5351489999999899
20
-112.0922190000000001
11
148.4399109999999951
21
-111.9017419999999987
0
LINE
8
BLACK
6
CONTINUOUS
10
148.4399109999999951
20
-111.9017419999999987
11
148.2494350000000054
21
-111.8065039999999897
0
LINE
8
BLACK
6
CONTINUOUS
10
148.2494350000000054
20
-111.8065039999999897
11
147.8684820000000002
21
-111.8065039999999897
0
LINE
8
BLACK
6
CONTINUOUS
10
147.8684820000000002
20
-111.8065039999999897
11
147.6780059999999821
21
-111.9017419999999987
0
LINE
8
BLACK
6
CONTINUOUS
10
148.5351489999999899
20
-113.0445999999999884
11
148.3446730000000002
21
-113.1398379999999975
0
LINE
8
BLACK
6
CONTINUOUS
10
148.3446730000000002
20
-113.1398379999999975
11
147.8684820000000002
21
-113.1398379999999975
0
LINE
8
BLACK
6
CONTINUOUS
10
147.8684820000000002
20
-113.1398379999999975
11
147.6780059999999821
21
-113.0445999999999884
0
LINE
8
BLACK
6
CONTINUOUS
10
147.6780059999999821
20
-113.0445999999999884
11
147.5827679999999873
21
-112.8541230000000013
0
LINE
8
BLACK
6
CONTINUOUS
10
147.5827679999999873
20
-112.8541230000000013
11
147.5827679999999873
21
-112.6636469999999974
0
LINE
8
BLACK
6
CONTINUOUS
10
147.5827679999999873
20
-112.6636469999999974
11
147.6780059999999821
21
-112.4731709999999936
0
LINE
8
BLACK
6
CONTINUOUS
10
147.6780059999999821
20
-112.4731709999999936
11
147.8684820000000002
21
-112.3779329999999987
0
LINE
8
BLACK
6
CONTINUOUS
10
147.8684820000000002
20
-112.3779329999999987
11
148.3446730000000002
21
-112.3779329999999987
0
LINE
8
BLACK
6
CONTINUOUS
10
148.3446730000000002
20
-112.3779329999999987
11
148.5351489999999899
21
-112.2826949999999897
0
LINE
8
BLACK
6
CONTINUOUS
10
149.4875299999999925
20
-111.8065039999999897
11
149.4875299999999925
21
-113.8065039999999897
0
LINE
8
BLACK
6
CONTINUOUS
10
149.4875299999999925
20
-111.9017419999999987
11
149.6780059999999821
21
-111.8065039999999897
0
LINE
8
BLACK
6
CONTINUOUS
10
149.6780059999999821
20
-111.8065039999999897
11
150.0589589999999873
21
-111.8065039999999897
0
LINE
8
BLACK
6
CONTINUOUS
10
150.0589589999999873
20
-111.8065039999999897
11
150.2494350000000054
21
-111.9017419999999987
0
LINE
8
BLACK
6
CONTINUOUS
10
150.2494350000000054
20
-111.9017419999999987
11
150.3446730000000002
21
-111.9969799999999935
0
LINE
8
BLACK
6
CONTINUOUS
10
150.3446730000000002
20
-111.9969799999999935
11
150.4399109999999951
21
-112.1874569999999949
0
LINE
8
BLACK
6
CONTINUOUS
10
150.4399109999999951
20
-112.1874569999999949
11
150.4399109999999951
21
-112.7588849999999923
0
LINE
8
BLACK
6
CONTINUOUS
10
150.4399109999999951
20
-112.7588849999999923
11
150.3446730000000002
21
-112.9493609999999961
0
LINE
8
BLACK
6
CONTINUOUS
10
150.3446730000000002
20
-112.9493609999999961
11
150.2494350000000054
21
-113.0445999999999884
0
LINE
8
BLACK
6
CONTINUOUS
10
150.2494350000000054
20
-113.0445999999999884
11
150.0589589999999873
21
-113.1398379999999975
0
LINE
8
BLACK
6
CONTINUOUS
10
150.0589589999999873
20
-113.1398379999999975
11
149.6780059999999821
21
-113.1398379999999975
0
LINE
8
BLACK
6
CONTINUOUS
10
149.6780059999999821
20
-113.1398379999999975
11
149.4875299999999925
21
-113.0445999999999884
0
LINE
8
BLACK
6
CONTINUOUS
10
151.2970540000000028
20
-112.9493609999999961
11
151.3922919999999976
21
-113.0445999999999884
0
LINE
8
BLACK
6
CONTINUOUS
10
151.3922919999999976
20
-113.0445999999999884
11
151.2970540000000028
21
-113.1398379999999975
0
LINE
8
BLACK
6
CONTINUOUS
10
151.2970540000000028
20
-113.1398379999999975
11
151.2018159999999796
21
-113.0445999999999884
0
LINE
8
BLACK
6
CONTINUOUS
10
151.2018159999999796
20
-113.0445999999999884
11
151.2970540000000028
21
-112.9493609999999961
0
LINE
8
BLACK
6
CONTINUOUS
10
151.2970540000000028
20
-112.9493609999999961
11
151.2970540000000028
21
-113.1398379999999975
0
LINE
8
BLACK
6
CONTINUOUS
10
151.2970540000000028
20
-111.9017419999999987
11
151.3922919999999976
21
-111.9969799999999935
0
LINE
8
BLACK
6
CONTINUOUS
10
151.3922919999999976
20
-111.9969799999999935
11
151.2970540000000028
21
-112.0922190000000001
0
LINE
8
BLACK
6
CONTINUOUS
10
151.2970540000000028
20
-112.0922190000000001
11
151.2018159999999796
21
-111.9969799999999935
0
LINE
8
BLACK
6
CONTINUOUS
10
151.2018159999999796
20
-111.9969799999999935
11
151.2970540000000028
21
-111.9017419999999987
0
LINE
8
BLACK
6
CONTINUOUS
10
151.2970540000000028
20
-111.9017419999999987
11
151.2970540000000028
21
-112.0922190000000001
0
LINE
8
BLACK
6
CONTINUOUS
10
134.6749999999999829
20
-116.2749999999999915
11
134.9749999999999943
21
-116.5749999999999886
0
LINE
8
BLACK
6
CONTINUOUS
10
134.9749999999999943
20
-116.2749999999999915
11
134.6749999999999829
21
-116.5749999999999886
0
LINE
8
BLACK
6
CONTINUOUS
10
137.963719999999995
20
-115.3398380000000003
11
138.1541969999999822
21
-115.3398380000000003
0
LINE
8
BLACK
6
CONTINUOUS
10
138.1541969999999822
20
-115.3398380000000003
11
138.3446730000000002
21
-115.4350759999999951
0
LINE
8
BLACK
6
CONTINUOUS
10
138.3446730000000002
20
-115.4350759999999951
11
138.4399109999999951
21
-115.53031399999999
0
LINE
8
BLACK
6
CONTINUOUS
10
138.4399109999999951
20
-115.53031399999999
11
138.5351489999999899
21
-115.7207899999999938
0
LINE
8
BLACK
6
CONTINUOUS
10
138.5351489999999899
20
-115.7207899999999938
11
138.6303869999999847
21
-116.1017420000000016
0
LINE
8
BLACK
6
CONTINUOUS
10
138.6303869999999847
20
-116.1017420000000016
11
138.6303869999999847
21
-116.5779330000000016
0
LINE
8
BLACK
6
CONTINUOUS
10
138.6303869999999847
20
-116.5779330000000016
11
138.5351489999999899
21
-116.9588849999999951
0
LINE
8
BLACK
6
CONTINUOUS
10
138.5351489999999899
20
-116.9588849999999951
11
138.4399109999999951
21
-117.149360999999999
0
LINE
8
BLACK
6
CONTINUOUS
10
138.4399109999999951
20
-117.149360999999999
11
138.3446730000000002
21
-117.2445999999999913
0
LINE
8
BLACK
6
CONTINUOUS
10
138.3446730000000002
20
-117.2445999999999913
11
138.1541969999999822
21
-117.3398380000000003
0
LINE
8
BLACK
6
CONTINUOUS
10
138.1541969999999822
20
-117.3398380000000003
11
137.963719999999995
21
-117.3398380000000003
0
LINE
8
BLACK
6
CONTINUOUS
10
137.963719999999995
20
-117.3398380000000003
11
137.7732440000000054
21
-117.2445999999999913
0
LINE
8
BLACK
6
CONTINUOUS
10
137.7732440000000054
20
-117.2445999999999913
11
137.6780059999999821
21
-117.149360999999999
0
LINE
8
BLACK
6
CONTINUOUS
10
137.6780059999999821
20
-117.149360999999999
11
137.5827679999999873
21
-116.9588849999999951
0
LINE
8
BLACK
6
CONTINUOUS
10
137.5827679999999873
20
-116.9588849999999951
11
137.4875299999999925
21
-116.5779330000000016
0
LINE
8
BLACK
6
CONTINUOUS
10
137.4875299999999925
20
-116.5779330000000016
11
137.4875299999999925
21
-116.1017420000000016
0
LINE
8
BLACK
6
CONTINUOUS
10
137.4875299999999925
20
-116.1017420000000016
11
137.5827679999999873
21
-115.7207899999999938
0
LINE
8
BLACK
6
CONTINUOUS
10
137.5827679999999873
20
-115.7207899999999938
11
137.6780059999999821
21
-115.53031399999999
0
LINE
8
BLACK
6
CONTINUOUS
10
137.6780059999999821
20
-115.53031399999999
11
137.7732440000000054
21
-115.4350759999999951
0
LINE
8
BLACK
6
CONTINUOUS
10
137.7732440000000054
20
-115.4350759999999951
11
137.963719999999995
21
-115.3398380000000003
0
LINE
8
BLACK
6
CONTINUOUS
10
139.4875299999999925
20
-117.149360999999999
11
139.5827679999999873
21
-117.2445999999999913
0
LINE
8
BLACK
6
CONTINUOUS
10
139.5827679999999873
20
-117.2445999999999913
11
139.4875299999999925
21
-117.3398380000000003
0
LINE
8
BLACK
6
CONTINUOUS
10
139.4875299999999925
20
-117.3398380000000003
11
139.3922919999999976
21
-117.2445999999999913
0
LINE
8
BLACK
6
CONTINUOUS
10
139.3922919999999976
20
-117.2445999999999913
11
139.4875299999999925
21
-117.149360999999999
0
LINE
8
BLACK
6
CONTINUOUS
10
139.4875299999999925
20
-117.149360999999999
11
139.4875299999999925
21
-117.3398380000000003
0
LINE
8
BLACK
6
CONTINUOUS
10
140.2494350000000054
20
-115.3398380000000003
11
141.4875299999999925
21
-115.3398380000000003
0
LINE
8
BLACK
6
CONTINUOUS
10
141.4875299999999925
20
-115.3398380000000003
11
140.8208630000000028
21
-116.1017420000000016
0
LINE
8
BLACK
6
CONTINUOUS
10
140.8208630000000028
20
-116.1017420000000016
11
141.1065779999999847
21
-116.1017420000000016
0
LINE
8
BLACK
6
CONTINUOUS
10
141.1065779999999847
20
-116.1017420000000016
11
141.2970540000000028
21
-116.1969799999999964
0
LINE
8
BLACK
6
CONTINUOUS
10
141.2970540000000028
20
-116.1969799999999964
11
141.3922919999999976
21
-116.2922189999999887
0
LINE
8
BLACK
6
CONTINUOUS
10
141.3922919999999976
20
-116.2922189999999887
11
141.4875299999999925
21
-116.4826949999999925
0
LINE
8
BLACK
6
CONTINUOUS
10
141.4875299999999925
20
-116.4826949999999925
11
141.4875299999999925
21
-116.9588849999999951
0
LINE
8
BLACK
6
CONTINUOUS
10
141.4875299999999925
20
-116.9588849999999951
11
141.3922919999999976
21
-117.149360999999999
0
LINE
8
BLACK
6
CONTINUOUS
10
141.3922919999999976
20
-117.149360999999999
11
141.2970540000000028
21
-117.2445999999999913
0
LINE
8
BLACK
6
CONTINUOUS
10
141.2970540000000028
20
-117.2445999999999913
11
141.1065779999999847
21
-117.3398380000000003
0
LINE
8
BLACK
6
CONTINUOUS
10
141.1065779999999847
20
-117.3398380000000003
11
140.5351489999999899
21
-117.3398380000000003
0
LINE
8
BLACK
6
CONTINUOUS
10
140.5351489999999899
20
-117.3398380000000003
11
140.3446730000000002
21
-117.2445999999999913
0
LINE
8
BLACK
6
CONTINUOUS
10
140.3446730000000002
20
-117.2445999999999913
11
140.2494350000000054
21
-117.149360999999999
0
LINE
8
BLACK
6
CONTINUOUS
10
142.7256249999999795
20
-115.3398380000000003
11
142.9161019999999951
21
-115.3398380000000003
0
LINE
8
BLACK
6
CONTINUOUS
10
142.9161019999999951
20
-115.3398380000000003
11
143.1065779999999847
21
-115.4350759999999951
0
LINE
8
BLACK
6
CONTINUOUS
10
143.1065779999999847
20
-115.4350759999999951
11
143.2018159999999796
21
-115.53031399999999
0
LINE
8
BLACK
6
CONTINUOUS
10
143.2018159999999796
20
-115.53031399999999
11
143.2970540000000028
21
-115.7207899999999938
0
LINE
8
BLACK
6
CONTINUOUS
10
143.2970540000000028
20
-115.7207899999999938
11
143.3922919999999976
21
-116.1017420000000016
0
LINE
8
BLACK
6
CONTINUOUS
10
143.3922919999999976
20
-116.1017420000000016
11
143.3922919999999976
21
-116.5779330000000016
0
LINE
8
BLACK
6
CONTINUOUS
10
143.3922919999999976
20
-116.5779330000000016
11
143.2970540000000028
21
-116.9588849999999951
0
LINE
8
BLACK
6
CONTINUOUS
10
143.2970540000000028
20
-116.9588849999999951
11
143.2018159999999796
21
-117.149360999999999
0
LINE
8
BLACK
6
CONTINUOUS
10
143.2018159999999796
20
-117.149360999999999
11
143.1065779999999847
21
-117.2445999999999913
0
LINE
8
BLACK
6
CONTINUOUS
10
143.1065779999999847
20
-117.2445999999999913
11
142.9161019999999951
21
-117.3398380000000003
0
LINE
8
BLACK
6
CONTINUOUS
10
142.9161019999999951
20
-117.3398380000000003
11
142.7256249999999795
21
-117.3398380000000003
0
LINE
8
BLACK
6
CONTINUOUS
10
142.7256249999999795
20
-117.3398380000000003
11
142.5351489999999899
21
-117.2445999999999913
0
LINE
8
BLACK
6
CONTINUOUS
10
142.5351489999999899
20
-117.2445999999999913
11
142.4399109999999951
21
-117.149360999999999
0
LINE
8
BLACK
6
CONTINUOUS
10
142.4399109999999951
20
-117.149360999999999
11
142.3446730000000002
21
-116.9588849999999951
0
LINE
8
BLACK
6
CONTINUOUS
10
142.3446730000000002
20
-116.9588849999999951
11
142.2494350000000054
21
-116.5779330000000016
0
LINE
8
BLACK
6
CONTINUOUS
10
142.2494350000000054
20
-116.5779330000000016
11
142.2494350000000054
21
-116.1017420000000016
0
LINE
8
BLACK
6
CONTINUOUS
10
142.2494350000000054
20
-116.1017420000000016
11
142.3446730000000002
21
-115.7207899999999938
0
LINE
8
BLACK
6
CONTINUOUS
10
142.3446730000000002
20
-115.7207899999999938
11
142.4399109999999951
21
-115.53031399999999
0
LINE
8
BLACK
6
CONTINUOUS
10
142.4399109999999951
20
-115.53031399999999
11
142.5351489999999899
21
-115.4350759999999951
0
LINE
8
BLACK
6
CONTINUOUS
10
142.5351489999999899
20
-115.4350759999999951
11
142.7256249999999795
21
-115.3398380000000003
0
LINE
8
BLACK
6
CONTINUOUS
10
144.6303869999999847
20
-115.3398380000000003
11
144.8208640000000003
21
-115.3398380000000003
0
LINE
8
BLACK
6
CONTINUOUS
10
144.8208640000000003
20
-115.3398380000000003
11
145.0113399999999899
21
-115.4350759999999951
0
LINE
8
BLACK
6
CONTINUOUS
10
145.0113399999999899
20
-115.4350759999999951
11
145.1065779999999847
21
-115.53031399999999
0
LINE
8
BLACK
6
CONTINUOUS
10
145.1065779999999847
20
-115.53031399999999
11
145.2018159999999796
21
-115.7207899999999938
0
LINE
8
BLACK
6
CONTINUOUS
10
145.2018159999999796
20
-115.7207899999999938
11
145.2970540000000028
21
-116.1017420000000016
0
LINE
8
BLACK
6
CONTINUOUS
10
145.2970540000000028
20
-116.1017420000000016
11
145.2970540000000028
21
-116.5779330000000016
0
LINE
8
BLACK
6
CONTINUOUS
10
145.2970540000000028
20
-116.5779330000000016
11
145.2018159999999796
21
-116.9588849999999951
0
LINE
8
BLACK
6
CONTINUOUS
10
145.2018159999999796
20
-116.9588849999999951
11
145.1065779999999847
21
-117.149360999999999
0
LINE
8
BLACK
6
CONTINUOUS
10
145.1065779999999847
20
-117.149360999999999
11
145.0113399999999899
21
-117.2445999999999913
0
LINE
8
BLACK
6
CONTINUOUS
10
145.0113399999999899
20
-117.2445999999999913
11
144.8208640000000003
21
-117.3398380000000003
0
LINE
8
BLACK
6
CONTINUOUS
10
144.8208640000000003
20
-117.3398380000000003
11
144.6303869999999847
21
-117.3398380000000003
0
LINE
8
BLACK
6
CONTINUOUS
10
144.6303869999999847
20
-117.3398380000000003
11
144.4399109999999951
21
-117.2445999999999913
0
LINE
8
BLACK
6
CONTINUOUS
10
144.4399109999999951
20
-117.2445999999999913
11
144.3446730000000002
21
-117.149360999999999
0
LINE
8
BLACK
6
CONTINUOUS
10
144.3446730000000002
20
-117.149360999999999
11
144.2494350000000054
21
-116.9588849999999951
0
LINE
8
BLACK
6
CONTINUOUS
10
144.2494350000000054
20
-116.9588849999999951
11
144.1541969999999822
21
-116.5779330000000016
0
LINE
8
BLACK
6
CONTINUOUS
10
144.1541969999999822
20
-116.5779330000000016
11
144.1541969999999822
21
-116.1017420000000016
0
LINE
8
BLACK
6
CONTINUOUS
10
144.1541969999999822
20
-116.1017420000000016
11
144.2494350000000054
21
-115.7207899999999938
0
LINE
8
BLACK
6
CONTINUOUS
10
144.2494350000000054
20
-115.7207899999999938
11
144.3446730000000002
21
-115.53031399999999
0
LINE
8
BLACK
6
CONTINUOUS
10
144.3446730000000002
20
-115.53031399999999
11
144.4399109999999951
21
-115.4350759999999951
0
LINE
8
BLACK
6
CONTINUOUS
10
144.4399109999999951
20
-115.4350759999999951
11
144.6303869999999847
21
-115.3398380000000003
0
LINE
8
BLACK
6
CONTINUOUS
10
146.1541969999999822
20
-117.3398380000000003
11
146.1541969999999822
21
-116.0065039999999925
0
LINE
8
BLACK
6
CONTINUOUS
10
146.1541969999999822
20
-116.1969799999999964
11
146.2494350000000054
21
-116.1017420000000016
0
LINE
8
BLACK
6
CONTINUOUS
10
146.2494350000000054
20
-116.1017420000000016
11
146.4399109999999951
21
-116.0065039999999925
0
LINE
8
BLACK
6
CONTINUOUS
10
146.4399109999999951
20
-116.0065039999999925
11
146.7256260000000054
21
-116.0065039999999925
0
LINE
8
BLACK
6
CONTINUOUS
10
146.7256260000000054
20
-116.0065039999999925
11
146.9161019999999951
21
-116.1017420000000016
0
LINE
8
BLACK
6
CONTINUOUS
10
146.9161019999999951
20
-116.1017420000000016
11
147.0113399999999899
21
-116.2922189999999887
0
LINE
8
BLACK
6
CONTINUOUS
10
147.0113399999999899
20
-116.2922189999999887
11
147.0113399999999899
21
-117.3398380000000003
0
LINE
8
BLACK
6
CONTINUOUS
10
147.0113399999999899
20
-116.2922189999999887
11
147.1065779999999847
21
-116.1017420000000016
0
LINE
8
BLACK
6
CONTINUOUS
10
147.1065779999999847
20
-116.1017420000000016
11
147.2970540000000028
21
-116.0065039999999925
0
LINE
8
BLACK
6
CONTINUOUS
10
147.2970540000000028
20
-116.0065039999999925
11
147.5827679999999873
21
-116.0065039999999925
0
LINE
8
BLACK
6
CONTINUOUS
10
147.5827679999999873
20
-116.0065039999999925
11
147.7732450000000028
21
-116.1017420000000016
0
LINE
8
BLACK
6
CONTINUOUS
10
147.7732450000000028
20
-116.1017420000000016
11
147.8684829999999977
21
-116.2922189999999887
0
LINE
8
BLACK
6
CONTINUOUS
10
147.8684829999999977
20
-116.2922189999999887
11
147.8684829999999977
21
-117.3398380000000003
0
LINE
8
BLACK
6
CONTINUOUS
10
148.8208640000000003
20
-117.3398380000000003
11
148.8208640000000003
21
-116.0065039999999925
0
LINE
8
BLACK
6
CONTINUOUS
10
148.8208640000000003
20
-116.1969799999999964
11
148.9161019999999951
21
-116.1017420000000016
0
LINE
8
BLACK
6
CONTINUOUS
10
148.9161019999999951
20
-116.1017420000000016
11
149.1065779999999847
21
-116.0065039999999925
0
LINE
8
BLACK
6
CONTINUOUS
10
149.1065779999999847
20
-116.0065039999999925
11
149.3922929999999951
21
-116.0065039999999925
0
LINE
8
BLACK
6
CONTINUOUS
10
149.3922929999999951
20
-116.0065039999999925
11
149.5827689999999848
21
-116.1017420000000016
0
LINE
8
BLACK
6
CONTINUOUS
10
149.5827689999999848
20
-116.1017420000000016
11
149.6780069999999796
21
-116.2922189999999887
0
LINE
8
BLACK
6
CONTINUOUS
10
149.6780069999999796
20
-116.2922189999999887
11
149.6780069999999796
21
-117.3398380000000003
0
LINE
8
BLACK
6
CONTINUOUS
10
149.6780069999999796
20
-116.2922189999999887
11
149.7732450000000028
21
-116.1017420000000016
0
LINE
8
BLACK
6
CONTINUOUS
10
149.7732450000000028
20
-116.1017420000000016
11
149.9637209999999925
21
-116.0065039999999925
0
LINE
8
BLACK
6
CONTINUOUS
10
149.9637209999999925
20
-116.0065039999999925
11
150.2494350000000054
21
-116.0065039999999925
0
LINE
8
BLACK
6
CONTINUOUS
10
150.2494350000000054
20
-116.0065039999999925
11
150.4399119999999925
21
-116.1017420000000016
0
LINE
8
BLACK
6
CONTINUOUS
10
150.4399119999999925
20
-116.1017420000000016
11
150.5351499999999874
21
-116.2922189999999887
0
LINE
8
BLACK
6
CONTINUOUS
10
150.5351499999999874
20
-116.2922189999999887
11
150.5351499999999874
21
-117.3398380000000003
0
LINE
8
BLACK
6
CONTINUOUS
10
154.4399119999999925
20
-115.2445999999999913
11
152.7256270000000029
21
-117.8160279999999887
0
LINE
8
BLACK
6
CONTINUOUS
10
157.0113409999999874
20
-115.3398380000000003
11
157.2018180000000029
21
-115.3398380000000003
0
LINE
8
BLACK
6
CONTINUOUS
10
157.2018180000000029
20
-115.3398380000000003
11
157.3922939999999926
21
-115.4350759999999951
0
LINE
8
BLACK
6
CONTINUOUS
10
157.3922939999999926
20
-115.4350759999999951
11
157.4875319999999874
21
-115.53031399999999
0
LINE
8
BLACK
6
CONTINUOUS
10
157.4875319999999874
20
-115.53031399999999
11
157.5827699999999822
21
-115.7207899999999938
0
LINE
8
BLACK
6
CONTINUOUS
10
157.5827699999999822
20
-115.7207899999999938
11
157.6780080000000055
21
-116.1017420000000016
0
LINE
8
BLACK
6
CONTINUOUS
10
157.6780080000000055
20
-116.1017420000000016
11
157.6780080000000055
21
-116.5779330000000016
0
LINE
8
BLACK
6
CONTINUOUS
10
157.6780080000000055
20
-116.5779330000000016
11
157.5827699999999822
21
-116.9588849999999951
0
LINE
8
BLACK
6
CONTINUOUS
10
157.5827699999999822
20
-116.9588849999999951
11
157.4875319999999874
21
-117.149360999999999
0
LINE
8
BLACK
6
CONTINUOUS
10
157.4875319999999874
20
-117.149360999999999
11
157.3922939999999926
21
-117.2445999999999913
0
LINE
8
BLACK
6
CONTINUOUS
10
157.3922939999999926
20
-117.2445999999999913
11
157.2018180000000029
21
-117.3398380000000003
0
LINE
8
BLACK
6
CONTINUOUS
10
157.2018180000000029
20
-117.3398380000000003
11
157.0113409999999874
21
-117.3398380000000003
0
LINE
8
BLACK
6
CONTINUOUS
10
157.0113409999999874
20
-117.3398380000000003
11
156.8208649999999977
21
-117.2445999999999913
0
LINE
8
BLACK
6
CONTINUOUS
10
156.8208649999999977
20
-117.2445999999999913
11
156.7256270000000029
21
-117.149360999999999
0
LINE
8
BLACK
6
CONTINUOUS
10
156.7256270000000029
20
-117.149360999999999
11
156.6303889999999797
21
-116.9588849999999951
0
LINE
8
BLACK
6
CONTINUOUS
10
156.6303889999999797
20
-116.9588849999999951
11
156.5351509999999848
21
-116.5779330000000016
0
LINE
8
BLACK
6
CONTINUOUS
10
156.5351509999999848
20
-116.5779330000000016
11
156.5351509999999848
21
-116.1017420000000016
0
LINE
8
BLACK
6
CONTINUOUS
10
156.5351509999999848
20
-116.1017420000000016
11
156.6303889999999797
21
-115.7207899999999938
0
LINE
8
BLACK
6
CONTINUOUS
10
156.6303889999999797
20
-115.7207899999999938
11
156.7256270000000029
21
-115.53031399999999
0
LINE
8
BLACK
6
CONTINUOUS
10
156.7256270000000029
20
-115.53031399999999
11
156.8208649999999977
21
-115.4350759999999951
0
LINE
8
BLACK
6
CONTINUOUS
10
156.8208649999999977
20
-115.4350759999999951
11
157.0113409999999874
21
-115.3398380000000003
0
LINE
8
BLACK
6
CONTINUOUS
10
158.5351509999999848
20
-117.149360999999999
11
158.6303889999999797
21
-117.2445999999999913
0
LINE
8
BLACK
6
CONTINUOUS
10
158.6303889999999797
20
-117.2445999999999913
11
158.5351509999999848
21
-117.3398380000000003
0
LINE
8
BLACK
6
CONTINUOUS
10
158.5351509999999848
20
-117.3398380000000003
11
158.43991299999999
21
-117.2445999999999913
0
LINE
8
BLACK
6
CONTINUOUS
10
158.43991299999999
20
-117.2445999999999913
11
158.5351509999999848
21
-117.149360999999999
0
LINE
8
BLACK
6
CONTINUOUS
10
158.5351509999999848
20
-117.149360999999999
11
158.5351509999999848
21
-117.3398380000000003
0
LINE
8
BLACK
6
CONTINUOUS
10
159.8684839999999951
20
-115.3398380000000003
11
160.0589609999999823
21
-115.3398380000000003
0
LINE
8
BLACK
6
CONTINUOUS
10
160.0589609999999823
20
-115.3398380000000003
11
160.2494370000000004
21
-115.4350759999999951
0
LINE
8
BLACK
6
CONTINUOUS
10
160.2494370000000004
20
-115.4350759999999951
11
160.3446749999999952
21
-115.53031399999999
0
LINE
8
BLACK
6
CONTINUOUS
10
160.3446749999999952
20
-115.53031399999999
11
160.43991299999999
21
-115.7207899999999938
0
LINE
8
BLACK
6
CONTINUOUS
10
160.43991299999999
20
-115.7207899999999938
11
160.5351509999999848
21
-116.1017420000000016
0
LINE
8
BLACK
6
CONTINUOUS
10
160.5351509999999848
20
-116.1017420000000016
11
160.5351509999999848
21
-116.5779330000000016
0
LINE
8
BLACK
6
CONTINUOUS
10
160.5351509999999848
20
-116.5779330000000016
11
160.43991299999999
21
-116.9588849999999951
0
LINE
8
BLACK
6
CONTINUOUS
10
160.43991299999999
20
-116.9588849999999951
11
160.3446749999999952
21
-117.149360999999999
0
LINE
8
BLACK
6
CONTINUOUS
10
160.3446749999999952
20
-117.149360999999999
11
160.2494370000000004
21
-117.2445999999999913
0
LINE
8
BLACK
6
CONTINUOUS
10
160.2494370000000004
20
-117.2445999999999913
11
160.0589609999999823
21
-117.3398380000000003
0
LINE
8
BLACK
6
CONTINUOUS
10
160.0589609999999823
20
-117.3398380000000003
11
159.8684839999999951
21
-117.3398380000000003
0
LINE
8
BLACK
6
CONTINUOUS
10
159.8684839999999951
20
-117.3398380000000003
11
159.6780080000000055
21
-117.2445999999999913
0
LINE
8
BLACK
6
CONTINUOUS
10
159.6780080000000055
20
-117.2445999999999913
11
159.5827699999999822
21
-117.149360999999999
0
LINE
8
BLACK
6
CONTINUOUS
10
159.5827699999999822
20
-117.149360999999999
11
159.4875319999999874
21
-116.9588849999999951
0
LINE
8
BLACK
6
CONTINUOUS
10
159.4875319999999874
20
-116.9588849999999951
11
159.3922939999999926
21
-116.5779330000000016
0
LINE
8
BLACK
6
CONTINUOUS
10
159.3922939999999926
20
-116.5779330000000016
11
159.3922939999999926
21
-116.1017420000000016
0
LINE
8
BLACK
6
CONTINUOUS
10
159.3922939999999926
20
-116.1017420000000016
11
159.4875319999999874
21
-115.7207899999999938
0
LINE
8
BLACK
6
CONTINUOUS
10
159.4875319999999874
20
-115.7207899999999938
11
159.5827699999999822
21
-115.53031399999999
0
LINE
8
BLACK
6
CONTINUOUS
10
159.5827699999999822
20
-115.53031399999999
11
159.6780080000000055
21
-115.4350759999999951
0
LINE
8
BLACK
6
CONTINUOUS
10
159.6780080000000055
20
-115.4350759999999951
11
159.8684839999999951
21
-115.3398380000000003
0
LINE
8
BLACK
6
CONTINUOUS
10
162.43991299999999
20
-117.3398380000000003
11
161.2970559999999978
21
-117.3398380000000003
0
LINE
8
BLACK
6
CONTINUOUS
10
161.8684839999999951
20
-117.3398380000000003
11
161.8684839999999951
21
-115.3398380000000003
0
LINE
8
BLACK
6
CONTINUOUS
10
161.8684839999999951
20
-115.3398380000000003
11
161.6780080000000055
21
-115.625551999999999
0
LINE
8
BLACK
6
CONTINUOUS
10
161.6780080000000055
20
-115.625551999999999
11
161.4875319999999874
21
-115.8160279999999887
0
LINE
8
BLACK
6
CONTINUOUS
10
161.4875319999999874
20
-115.8160279999999887
11
161.2970559999999978
21
-115.9112659999999977
0
LINE
8
BLACK
6
CONTINUOUS
10
164.3446749999999952
20
-117.3398380000000003
11
163.2018180000000029
21
-117.3398380000000003
0
LINE
8
BLACK
6
CONTINUOUS
10
163.7732460000000003
20
-117.3398380000000003
11
163.7732460000000003
21
-115.3398380000000003
0
LINE
8
BLACK
6
CONTINUOUS
10
163.7732460000000003
20
-115.3398380000000003
11
163.5827699999999822
21
-115.625551999999999
0
LINE
8
BLACK
6
CONTINUOUS
10
163.5827699999999822
20
-115.625551999999999
11
163.3922939999999926
21
-115.8160279999999887
0
LINE
8
BLACK
6
CONTINUOUS
10
163.3922939999999926
20
-115.8160279999999887
11
163.2018180000000029
21
-115.9112659999999977
0
LINE
8
BLACK
6
CONTINUOUS
10
165.4875319999999874
20
-116.1969799999999964
11
165.2970559999999978
21
-116.1017420000000016
0
LINE
8
BLACK
6
CONTINUOUS
10
165.2970559999999978
20
-116.1017420000000016
11
165.2018180000000029
21
-116.0065039999999925
0
LINE
8
BLACK
6
CONTINUOUS
10
165.2018180000000029
20
-116.0065039999999925
11
165.1065799999999797
21
-115.8160279999999887
0
LINE
8
BLACK
6
CONTINUOUS
10
165.1065799999999797
20
-115.8160279999999887
11
165.1065799999999797
21
-115.7207899999999938
0
LINE
8
BLACK
6
CONTINUOUS
10
165.1065799999999797
20
-115.7207899999999938
11
165.2018180000000029
21
-115.53031399999999
0
LINE
8
BLACK
6
CONTINUOUS
10
165.2018180000000029
20
-115.53031399999999
11
165.2970559999999978
21
-115.4350759999999951
0
LINE
8
BLACK
6
CONTINUOUS
10
165.2970559999999978
20
-115.4350759999999951
11
165.4875319999999874
21
-115.3398380000000003
0
LINE
8
BLACK
6
CONTINUOUS
10
165.4875319999999874
20
-115.3398380000000003
11
165.8684849999999926
21
-115.3398380000000003
0
LINE
8
BLACK
6
CONTINUOUS
10
165.8684849999999926
20
-115.3398380000000003
11
166.0589609999999823
21
-115.4350759999999951
0
LINE
8
BLACK
6
CONTINUOUS
10
166.0589609999999823
20
-115.4350759999999951
11
166.1541990000000055
21
-115.53031399999999
0
LINE
8
BLACK
6
CONTINUOUS
10
166.1541990000000055
20
-115.53031399999999
11
166.2494370000000004
21
-115.7207899999999938
0
LINE
8
BLACK
6
CONTINUOUS
10
166.2494370000000004
20
-115.7207899999999938
11
166.2494370000000004
21
-115.8160279999999887
0
LINE
8
BLACK
6
CONTINUOUS
10
166.2494370000000004
20
-115.8160279999999887
11
166.1541990000000055
21
-116.0065039999999925
0
LINE
8
BLACK
6
CONTINUOUS
10
166.1541990000000055
20
-116.0065039999999925
11
166.0589609999999823
21
-116.1017420000000016
0
LINE
8
BLACK
6
CONTINUOUS
10
166.0589609999999823
20
-116.1017420000000016
11
165.8684849999999926
21
-116.1969799999999964
0
LINE
8
BLACK
6
CONTINUOUS
10
165.8684849999999926
20
-116.1969799999999964
11
165.4875319999999874
21
-116.1969799999999964
0
LINE
8
BLACK
6
CONTINUOUS
10
165.4875319999999874
20
-116.1969799999999964
11
165.2970559999999978
21
-116.2922189999999887
0
LINE
8
BLACK
6
CONTINUOUS
10
165.2970559999999978
20
-116.2922189999999887
11
165.2018180000000029
21
-116.3874569999999977
0
LINE
8
BLACK
6
CONTINUOUS
10
165.2018180000000029
20
-116.3874569999999977
11
165.1065799999999797
21
-116.5779330000000016
0
LINE
8
BLACK
6
CONTINUOUS
10
165.1065799999999797
20
-116.5779330000000016
11
165.1065799999999797
21
-116.9588849999999951
0
LINE
8
BLACK
6
CONTINUOUS
10
165.1065799999999797
20
-116.9588849999999951
11
165.2018180000000029
21
-117.149360999999999
0
LINE
8
BLACK
6
CONTINUOUS
10
165.2018180000000029
20
-117.149360999999999
11
165.2970559999999978
21
-117.2445999999999913
0
LINE
8
BLACK
6
CONTINUOUS
10
165.2970559999999978
20
-117.2445999999999913
11
165.4875319999999874
21
-117.3398380000000003
0
LINE
8
BLACK
6
CONTINUOUS
10
165.4875319999999874
20
-117.3398380000000003
11
165.8684849999999926
21
-117.3398380000000003
0
LINE
8
BLACK
6
CONTINUOUS
10
165.8684849999999926
20
-117.3398380000000003
11
166.0589609999999823
21
-117.2445999999999913
0
LINE
8
BLACK
6
CONTINUOUS
10
166.0589609999999823
20
-117.2445999999999913
11
166.1541990000000055
21
-117.149360999999999
0
LINE
8
BLACK
6
CONTINUOUS
10
166.1541990000000055
20
-117.149360999999999
11
166.2494370000000004
21
-116.9588849999999951
0
LINE
8
BLACK
6
CONTINUOUS
10
166.2494370000000004
20
-116.9588849999999951
11
166.2494370000000004
21
-116.5779330000000016
0
LINE
8
BLACK
6
CONTINUOUS
10
166.2494370000000004
20
-116.5779330000000016
11
166.1541990000000055
21
-116.3874569999999977
0
LINE
8
BLACK
6
CONTINUOUS
10
166.1541990000000055
20
-116.3874569999999977
11
166.0589609999999823
21
-116.2922189999999887
0
LINE
8
BLACK
6
CONTINUOUS
10
166.0589609999999823
20
-116.2922189999999887
11
165.8684849999999926
21
-116.1969799999999964
0
LINE
8
BLACK
6
CONTINUOUS
10
167.0113419999999849
20
-115.3398380000000003
11
167.0113419999999849
21
-115.7207899999999938
0
LINE
8
BLACK
6
CONTINUOUS
10
167.7732469999999978
20
-115.3398380000000003
11
167.7732469999999978
21
-115.7207899999999938
0
LINE
8
BLACK
6
CONTINUOUS
10
170.7256289999999979
20
-118.1017420000000016
11
170.6303900000000056
21
-118.0065039999999925
0
LINE
8
BLACK
6
CONTINUOUS
10
170.6303900000000056
20
-118.0065039999999925
11
170.4399139999999875
21
-117.7207899999999938
0
LINE
8
BLACK
6
CONTINUOUS
10
170.4399139999999875
20
-117.7207899999999938
11
170.3446759999999927
21
-117.53031399999999
0
LINE
8
BLACK
6
CONTINUOUS
10
170.3446759999999927
20
-117.53031399999999
11
170.2494379999999978
21
-117.2445999999999913
0
LINE
8
BLACK
6
CONTINUOUS
10
170.2494379999999978
20
-117.2445999999999913
11
170.154200000000003
21
-116.7684089999999912
0
LINE
8
BLACK
6
CONTINUOUS
10
170.154200000000003
20
-116.7684089999999912
11
170.154200000000003
21
-116.3874569999999977
0
LINE
8
BLACK
6
CONTINUOUS
10
170.154200000000003
20
-116.3874569999999977
11
170.2494379999999978
21
-115.9112659999999977
0
LINE
8
BLACK
6
CONTINUOUS
10
170.2494379999999978
20
-115.9112659999999977
11
170.3446759999999927
21
-115.625551999999999
0
LINE
8
BLACK
6
CONTINUOUS
10
170.3446759999999927
20
-115.625551999999999
11
170.4399139999999875
21
-115.4350759999999951
0
LINE
8
BLACK
6
CONTINUOUS
10
170.4399139999999875
20
-115.4350759999999951
11
170.6303900000000056
21
-115.149360999999999
0
LINE
8
BLACK
6
CONTINUOUS
10
170.6303900000000056
20
-115.149360999999999
11
170.7256289999999979
21
-115.0541229999999899
0
LINE
8
BLACK
6
CONTINUOUS
10
172.4399139999999875
20
-115.3398380000000003
11
171.4875329999999849
21
-115.3398380000000003
0
LINE
8
BLACK
6
CONTINUOUS
10
171.4875329999999849
20
-115.3398380000000003
11
171.3922949999999901
21
-116.2922189999999887
0
LINE
8
BLACK
6
CONTINUOUS
10
171.3922949999999901
20
-116.2922189999999887
11
171.4875329999999849
21
-116.1969799999999964
0
LINE
8
BLACK
6
CONTINUOUS
10
171.4875329999999849
20
-116.1969799999999964
11
171.678009000000003
21
-116.1017420000000016
0
LINE
8
BLACK
6
CONTINUOUS
10
171.678009000000003
20
-116.1017420000000016
11
172.154200000000003
21
-116.1017420000000016
0
LINE
8
BLACK
6
CONTINUOUS
10
172.154200000000003
20
-116.1017420000000016
11
172.3446759999999927
21
-116.1969799999999964
0
LINE
8
BLACK
6
CONTINUOUS
10
172.3446759999999927
20
-116.1969799999999964
11
172.4399139999999875
21
-116.2922189999999887
0
LINE
8
BLACK
6
CONTINUOUS
10
172.4399139999999875
20
-116.2922189999999887
11
172.5351519999999823
21
-116.4826949999999925
0
LINE
8
BLACK
6
CONTINUOUS
10
172.5351519999999823
20
-116.4826949999999925
11
172.5351519999999823
21
-116.9588849999999951
0
LINE
8
BLACK
6
CONTINUOUS
10
172.5351519999999823
20
-116.9588849999999951
11
172.4399139999999875
21
-117.149360999999999
0
LINE
8
BLACK
6
CONTINUOUS
10
172.4399139999999875
20
-117.149360999999999
11
172.3446759999999927
21
-117.2445999999999913
0
LINE
8
BLACK
6
CONTINUOUS
10
172.3446759999999927
20
-117.2445999999999913
11
172.154200000000003
21
-117.3398380000000003
0
LINE
8
BLACK
6
CONTINUOUS
10
172.154200000000003
20
-117.3398380000000003
11
171.678009000000003
21
-117.3398380000000003
0
LINE
8
BLACK
6
CONTINUOUS
10
171.678009000000003
20
-117.3398380000000003
11
171.4875329999999849
21
-117.2445999999999913
0
LINE
8
BLACK
6
CONTINUOUS
10
171.4875329999999849
20
-117.2445999999999913
11
171.3922949999999901
21
-117.149360999999999
0
LINE
8
BLACK
6
CONTINUOUS
10
174.9161049999999875
20
-117.3398380000000003
11
174.9161049999999875
21
-115.3398380000000003
0
LINE
8
BLACK
6
CONTINUOUS
10
175.7732479999999953
20
-117.3398380000000003
11
175.7732479999999953
21
-116.2922189999999887
0
LINE
8
BLACK
6
CONTINUOUS
10
175.7732479999999953
20
-116.2922189999999887
11
175.6780100000000004
21
-116.1017420000000016
0
LINE
8
BLACK
6
CONTINUOUS
10
175.6780100000000004
20
-116.1017420000000016
11
175.4875339999999824
21
-116.0065039999999925
0
LINE
8
BLACK
6
CONTINUOUS
10
175.4875339999999824
20
-116.0065039999999925
11
175.2018190000000004
21
-116.0065039999999925
0
LINE
8
BLACK
6
CONTINUOUS
10
175.2018190000000004
20
-116.0065039999999925
11
175.0113429999999823
21
-116.1017420000000016
0
LINE
8
BLACK
6
CONTINUOUS
10
175.0113429999999823
20
-116.1017420000000016
11
174.9161049999999875
21
-116.1969799999999964
0
LINE
8
BLACK
6
CONTINUOUS
10
177.0113429999999823
20
-117.3398380000000003
11
176.8208669999999927
21
-117.2445999999999913
0
LINE
8
BLACK
6
CONTINUOUS
10
176.8208669999999927
20
-117.2445999999999913
11
176.7256289999999979
21
-117.149360999999999
0
LINE
8
BLACK
6
CONTINUOUS
10
176.7256289999999979
20
-117.149360999999999
11
176.630391000000003
21
-116.9588849999999951
0
LINE
8
BLACK
6
CONTINUOUS
10
176.630391000000003
20
-116.9588849999999951
11
176.630391000000003
21
-116.3874569999999977
0
LINE
8
BLACK
6
CONTINUOUS
10
176.630391000000003
20
-116.3874569999999977
11
176.7256289999999979
21
-116.1969799999999964
0
LINE
8
BLACK
6
CONTINUOUS
10
176.7256289999999979
20
-116.1969799999999964
11
176.8208669999999927
21
-116.1017420000000016
0
LINE
8
BLACK
6
CONTINUOUS
10
176.8208669999999927
20
-116.1017420000000016
11
177.0113429999999823
21
-116.0065039999999925
0
LINE
8
BLACK
6
CONTINUOUS
10
177.0113429999999823
20
-116.0065039999999925
11
177.2970579999999927
21
-116.0065039999999925
0
LINE
8
BLACK
6
CONTINUOUS
10
177.2970579999999927
20
-116.0065039999999925
11
177.4875339999999824
21
-116.1017420000000016
0
LINE
8
BLACK
6
CONTINUOUS
10
177.4875339999999824
20
-116.1017420000000016
11
177.5827720000000056
21
-116.1969799999999964
0
LINE
8
BLACK
6
CONTINUOUS
10
177.5827720000000056
20
-116.1969799999999964
11
177.6780100000000004
21
-116.3874569999999977
0
LINE
8
BLACK
6
CONTINUOUS
10
177.6780100000000004
20
-116.3874569999999977
11
177.6780100000000004
21
-116.9588849999999951
0
LINE
8
BLACK
6
CONTINUOUS
10
177.6780100000000004
20
-116.9588849999999951
11
177.5827720000000056
21
-117.149360999999999
0
LINE
8
BLACK
6
CONTINUOUS
10
177.5827720000000056
20
-117.149360999999999
11
177.4875339999999824
21
-117.2445999999999913
0
LINE
8
BLACK
6
CONTINUOUS
10
177.4875339999999824
20
-117.2445999999999913
11
177.2970579999999927
21
-117.3398380000000003
0
LINE
8
BLACK
6
CONTINUOUS
10
177.2970579999999927
20
-117.3398380000000003
11
177.0113429999999823
21
-117.3398380000000003
0
LINE
8
BLACK
6
CONTINUOUS
10
178.8208669999999927
20
-117.3398380000000003
11
178.630391000000003
21
-117.2445999999999913
0
LINE
8
BLACK
6
CONTINUOUS
10
178.630391000000003
20
-117.2445999999999913
11
178.5351529999999798
21
-117.0541229999999899
0
LINE
8
BLACK
6
CONTINUOUS
10
178.5351529999999798
20
-117.0541229999999899
11
178.5351529999999798
21
-115.3398380000000003
0
LINE
8
BLACK
6
CONTINUOUS
10
180.3446769999999901
20
-117.2445999999999913
11
180.1542010000000005
21
-117.3398380000000003
0
LINE
8
BLACK
6
CONTINUOUS
10
180.1542010000000005
20
-117.3398380000000003
11
179.7732479999999953
21
-117.3398380000000003
0
LINE
8
BLACK
6
CONTINUOUS
10
179.7732479999999953
20
-117.3398380000000003
11
179.5827720000000056
21
-117.2445999999999913
0
LINE
8
BLACK
6
CONTINUOUS
10
179.5827720000000056
20
-117.2445999999999913
11
179.4875339999999824
21
-117.0541229999999899
0
LINE
8
BLACK
6
CONTINUOUS
10
179.4875339999999824
20
-117.0541229999999899
11
179.4875339999999824
21
-116.2922189999999887
0
LINE
8
BLACK
6
CONTINUOUS
10
179.4875339999999824
20
-116.2922189999999887
11
179.5827720000000056
21
-116.1017420000000016
0
LINE
8
BLACK
6
CONTINUOUS
10
179.5827720000000056
20
-116.1017420000000016
11
179.7732479999999953
21
-116.0065039999999925
0
LINE
8
BLACK
6
CONTINUOUS
10
179.7732479999999953
20
-116.0065039999999925
11
180.1542010000000005
21
-116.0065039999999925
0
LINE
8
BLACK
6
CONTINUOUS
10
180.1542010000000005
20
-116.0065039999999925
11
180.3446769999999901
21
-116.1017420000000016
0
LINE
8
BLACK
6
CONTINUOUS
10
180.3446769999999901
20
-116.1017420000000016
11
180.439914999999985
21
-116.2922189999999887
0
LINE
8
BLACK
6
CONTINUOUS
10
180.439914999999985
20
-116.2922189999999887
11
180.439914999999985
21
-116.4826949999999925
0
LINE
8
BLACK
6
CONTINUOUS
10
180.439914999999985
20
-116.4826949999999925
11
179.4875339999999824
21
-116.6731709999999964
0
LINE
8
BLACK
6
CONTINUOUS
10
181.2018199999999979
20
-117.2445999999999913
11
181.3922959999999875
21
-117.3398380000000003
0
LINE
8
BLACK
6
CONTINUOUS
10
181.3922959999999875
20
-117.3398380000000003
11
181.7732479999999953
21
-117.3398380000000003
0
LINE
8
BLACK
6
CONTINUOUS
10
181.7732479999999953
20
-117.3398380000000003
11
181.9637249999999824
21
-117.2445999999999913
0
LINE
8
BLACK
6
CONTINUOUS
10
181.9637249999999824
20
-117.2445999999999913
11
182.0589630000000056
21
-117.0541229999999899
0
LINE
8
BLACK
6
CONTINUOUS
10
182.0589630000000056
20
-117.0541229999999899
11
182.0589630000000056
21
-116.9588849999999951
0
LINE
8
BLACK
6
CONTINUOUS
10
182.0589630000000056
20
-116.9588849999999951
11
181.9637249999999824
21
-116.7684089999999912
0
LINE
8
BLACK
6
CONTINUOUS
10
181.9637249999999824
20
-116.7684089999999912
11
181.7732479999999953
21
-116.6731709999999964
0
LINE
8
BLACK
6
CONTINUOUS
10
181.7732479999999953
20
-116.6731709999999964
11
181.4875339999999824
21
-116.6731709999999964
0
LINE
8
BLACK
6
CONTINUOUS
10
181.4875339999999824
20
-116.6731709999999964
11
181.2970579999999927
21
-116.5779330000000016
0
LINE
8
BLACK
6
CONTINUOUS
10
181.2970579999999927
20
-116.5779330000000016
11
181.2018199999999979
21
-116.3874569999999977
0
LINE
8
BLACK
6
CONTINUOUS
10
181.2018199999999979
20
-116.3874569999999977
11
181.2018199999999979
21
-116.2922189999999887
0
LINE
8
BLACK
6
CONTINUOUS
10
181.2018199999999979
20
-116.2922189999999887
11
181.2970579999999927
21
-116.1017420000000016
0
LINE
8
BLACK
6
CONTINUOUS
10
181.2970579999999927
20
-116.1017420000000016
11
181.4875339999999824
21
-116.0065039999999925
0
LINE
8
BLACK
6
CONTINUOUS
10
181.4875339999999824
20
-116.0065039999999925
11
181.7732479999999953
21
-116.0065039999999925
0
LINE
8
BLACK
6
CONTINUOUS
10
181.7732479999999953
20
-116.0065039999999925
11
181.9637249999999824
21
-116.1017420000000016
0
LINE
8
BLACK
6
CONTINUOUS
10
182.7256299999999953
20
-118.1017420000000016
11
182.8208679999999902
21
-118.0065039999999925
0
LINE
8
BLACK
6
CONTINUOUS
10
182.8208679999999902
20
-118.0065039999999925
11
183.0113439999999798
21
-117.7207899999999938
0
LINE
8
BLACK
6
CONTINUOUS
10
183.0113439999999798
20
-117.7207899999999938
11
183.1065820000000031
21
-117.53031399999999
0
LINE
8
BLACK
6
CONTINUOUS
10
183.1065820000000031
20
-117.53031399999999
11
183.2018199999999979
21
-117.2445999999999913
0
LINE
8
BLACK
6
CONTINUOUS
10
183.2018199999999979
20
-117.2445999999999913
11
183.2970579999999927
21
-116.7684089999999912
0
LINE
8
BLACK
6
CONTINUOUS
10
183.2970579999999927
20
-116.7684089999999912
11
183.2970579999999927
21
-116.3874569999999977
0
LINE
8
BLACK
6
CONTINUOUS
10
183.2970579999999927
20
-116.3874569999999977
11
183.2018199999999979
21
-115.9112659999999977
0
LINE
8
BLACK
6
CONTINUOUS
10
183.2018199999999979
20
-115.9112659999999977
11
183.1065820000000031
21
-115.625551999999999
0
LINE
8
BLACK
6
CONTINUOUS
10
183.1065820000000031
20
-115.625551999999999
11
183.0113439999999798
21
-115.4350759999999951
0
LINE
8
BLACK
6
CONTINUOUS
10
183.0113439999999798
20
-115.4350759999999951
11
182.8208679999999902
21
-115.149360999999999
0
LINE
8
BLACK
6
CONTINUOUS
10
182.8208679999999902
20
-115.149360999999999
11
182.7256299999999953
21
-115.0541229999999899
0
CIRCLE
8
BLACK
10
134.625
20
-119.0649999999999977
40
0.35
0
LINE
8
BLACK
6
CONTINUOUS
10
137.963719999999995
20
-117.9798380000000009
11
138.1541969999999822
21
-117.9798380000000009
0
LINE
8
BLACK
6
CONTINUOUS
10
138.1541969999999822
20
-117.9798380000000009
11
138.3446730000000002
21
-118.0750759999999957
0
LINE
8
BLACK
6
CONTINUOUS
10
138.3446730000000002
20
-118.0750759999999957
11
138.4399109999999951
21
-118.1703139999999905
0
LINE
8
BLACK
6
CONTINUOUS
10
138.4399109999999951
20
-118.1703139999999905
11
138.5351489999999899
21
-118.3607899999999944
0
LINE
8
BLACK
6
CONTINUOUS
10
138.5351489999999899
20
-118.3607899999999944
11
138.6303869999999847
21
-118.7417419999999879
0
LINE
8
BLACK
6
CONTINUOUS
10
138.6303869999999847
20
-118.7417419999999879
11
138.6303869999999847
21
-119.2179329999999879
0
LINE
8
BLACK
6
CONTINUOUS
10
138.6303869999999847
20
-119.2179329999999879
11
138.5351489999999899
21
-119.5988849999999957
0
LINE
8
BLACK
6
CONTINUOUS
10
138.5351489999999899
20
-119.5988849999999957
11
138.4399109999999951
21
-119.7893609999999995
0
LINE
8
BLACK
6
CONTINUOUS
10
138.4399109999999951
20
-119.7893609999999995
11
138.3446730000000002
21
-119.8845999999999918
0
LINE
8
BLACK
6
CONTINUOUS
10
138.3446730000000002
20
-119.8845999999999918
11
138.1541969999999822
21
-119.9798380000000009
0
LINE
8
BLACK
6
CONTINUOUS
10
138.1541969999999822
20
-119.9798380000000009
11
137.963719999999995
21
-119.9798380000000009
0
LINE
8
BLACK
6
CONTINUOUS
10
137.963719999999995
20
-119.9798380000000009
11
137.7732440000000054
21
-119.8845999999999918
0
LINE
8
BLACK
6
CONTINUOUS
10
137.7732440000000054
20
-119.8845999999999918
11
137.6780059999999821
21
-119.7893609999999995
0
LINE
8
BLACK
6
CONTINUOUS
10
137.6780059999999821
20
-119.7893609999999995
11
137.5827679999999873
21
-119.5988849999999957
0
LINE
8
BLACK
6
CONTINUOUS
10
137.5827679999999873
20
-119.5988849999999957
11
137.4875299999999925
21
-119.2179329999999879
0
LINE
8
BLACK
6
CONTINUOUS
10
137.4875299999999925
20
-119.2179329999999879
11
137.4875299999999925
21
-118.7417419999999879
0
LINE
8
BLACK
6
CONTINUOUS
10
137.4875299999999925
20
-118.7417419999999879
11
137.5827679999999873
21
-118.3607899999999944
0
LINE
8
BLACK
6
CONTINUOUS
10
137.5827679999999873
20
-118.3607899999999944
11
137.6780059999999821
21
-118.1703139999999905
0
LINE
8
BLACK
6
CONTINUOUS
10
137.6780059999999821
20
-118.1703139999999905
11
137.7732440000000054
21
-118.0750759999999957
0
LINE
8
BLACK
6
CONTINUOUS
10
137.7732440000000054
20
-118.0750759999999957
11
137.963719999999995
21
-117.9798380000000009
0
LINE
8
BLACK
6
CONTINUOUS
10
139.4875299999999925
20
-119.7893609999999995
11
139.5827679999999873
21
-119.8845999999999918
0
LINE
8
BLACK
6
CONTINUOUS
10
139.5827679999999873
20
-119.8845999999999918
11
139.4875299999999925
21
-119.9798380000000009
0
LINE
8
BLACK
6
CONTINUOUS
10
139.4875299999999925
20
-119.9798380000000009
11
139.3922919999999976
21
-119.8845999999999918
0
LINE
8
BLACK
6
CONTINUOUS
10
139.3922919999999976
20
-119.8845999999999918
11
139.4875299999999925
21
-119.7893609999999995
0
LINE
8
BLACK
6
CONTINUOUS
10
139.4875299999999925
20
-119.7893609999999995
11
139.4875299999999925
21
-119.9798380000000009
0
LINE
8
BLACK
6
CONTINUOUS
10
140.2494350000000054
20
-117.9798380000000009
11
141.5827679999999873
21
-117.9798380000000009
0
LINE
8
BLACK
6
CONTINUOUS
10
141.5827679999999873
20
-117.9798380000000009
11
140.7256249999999795
21
-119.9798380000000009
0
LINE
8
BLACK
6
CONTINUOUS
10
142.7256249999999795
20
-117.9798380000000009
11
142.9161019999999951
21
-117.9798380000000009
0
LINE
8
BLACK
6
CONTINUOUS
10
142.9161019999999951
20
-117.9798380000000009
11
143.1065779999999847
21
-118.0750759999999957
0
LINE
8
BLACK
6
CONTINUOUS
10
143.1065779999999847
20
-118.0750759999999957
11
143.2018159999999796
21
-118.1703139999999905
0
LINE
8
BLACK
6
CONTINUOUS
10
143.2018159999999796
20
-118.1703139999999905
11
143.2970540000000028
21
-118.3607899999999944
0
LINE
8
BLACK
6
CONTINUOUS
10
143.2970540000000028
20
-118.3607899999999944
11
143.3922919999999976
21
-118.7417419999999879
0
LINE
8
BLACK
6
CONTINUOUS
10
143.3922919999999976
20
-118.7417419999999879
11
143.3922919999999976
21
-119.2179329999999879
0
LINE
8
BLACK
6
CONTINUOUS
10
143.3922919999999976
20
-119.2179329999999879
11
143.2970540000000028
21
-119.5988849999999957
0
LINE
8
BLACK
6
CONTINUOUS
10
143.2970540000000028
20
-119.5988849999999957
11
143.2018159999999796
21
-119.7893609999999995
0
LINE
8
BLACK
6
CONTINUOUS
10
143.2018159999999796
20
-119.7893609999999995
11
143.1065779999999847
21
-119.8845999999999918
0
LINE
8
BLACK
6
CONTINUOUS
10
143.1065779999999847
20
-119.8845999999999918
11
142.9161019999999951
21
-119.9798380000000009
0
LINE
8
BLACK
6
CONTINUOUS
10
142.9161019999999951
20
-119.9798380000000009
11
142.7256249999999795
21
-119.9798380000000009
0
LINE
8
BLACK
6
CONTINUOUS
10
142.7256249999999795
20
-119.9798380000000009
11
142.5351489999999899
21
-119.8845999999999918
0
LINE
8
BLACK
6
CONTINUOUS
10
142.5351489999999899
20
-119.8845999999999918
11
142.4399109999999951
21
-119.7893609999999995
0
LINE
8
BLACK
6
CONTINUOUS
10
142.4399109999999951
20
-119.7893609999999995
11
142.3446730000000002
21
-119.5988849999999957
0
LINE
8
BLACK
6
CONTINUOUS
10
142.3446730000000002
20
-119.5988849999999957
11
142.2494350000000054
21
-119.2179329999999879
0
LINE
8
BLACK
6
CONTINUOUS
10
142.2494350000000054
20
-119.2179329999999879
11
142.2494350000000054
21
-118.7417419999999879
0
LINE
8
BLACK
6
CONTINUOUS
10
142.2494350000000054
20
-118.7417419999999879
11
142.3446730000000002
21
-118.3607899999999944
0
LINE
8
BLACK
6
CONTINUOUS
10
142.3446730000000002
20
-118.3607899999999944
11
142.4399109999999951
21
-118.1703139999999905
0
LINE
8
BLACK
6
CONTINUOUS
10
142.4399109999999951
20
-118.1703139999999905
11
142.5351489999999899
21
-118.0750759999999957
0
LINE
8
BLACK
6
CONTINUOUS
10
142.5351489999999899
20
-118.0750759999999957
11
142.7256249999999795
21
-117.9798380000000009
0
LINE
8
BLACK
6
CONTINUOUS
10
144.6303869999999847
20
-117.9798380000000009
11
144.8208640000000003
21
-117.9798380000000009
0
LINE
8
BLACK
6
CONTINUOUS
10
144.8208640000000003
20
-117.9798380000000009
11
145.0113399999999899
21
-118.0750759999999957
0
LINE
8
BLACK
6
CONTINUOUS
10
145.0113399999999899
20
-118.0750759999999957
11
145.1065779999999847
21
-118.1703139999999905
0
LINE
8
BLACK
6
CONTINUOUS
10
145.1065779999999847
20
-118.1703139999999905
11
145.2018159999999796
21
-118.3607899999999944
0
LINE
8
BLACK
6
CONTINUOUS
10
145.2018159999999796
20
-118.3607899999999944
11
145.2970540000000028
21
-118.7417419999999879
0
LINE
8
BLACK
6
CONTINUOUS
10
145.2970540000000028
20
-118.7417419999999879
11
145.2970540000000028
21
-119.2179329999999879
0
LINE
8
BLACK
6
CONTINUOUS
10
145.2970540000000028
20
-119.2179329999999879
11
145.2018159999999796
21
-119.5988849999999957
0
LINE
8
BLACK
6
CONTINUOUS
10
145.2018159999999796
20
-119.5988849999999957
11
145.1065779999999847
21
-119.7893609999999995
0
LINE
8
BLACK
6
CONTINUOUS
10
145.1065779999999847
20
-119.7893609999999995
11
145.0113399999999899
21
-119.8845999999999918
0
LINE
8
BLACK
6
CONTINUOUS
10
145.0113399999999899
20
-119.8845999999999918
11
144.8208640000000003
21
-119.9798380000000009
0
LINE
8
BLACK
6
CONTINUOUS
10
144.8208640000000003
20
-119.9798380000000009
11
144.6303869999999847
21
-119.9798380000000009
0
LINE
8
BLACK
6
CONTINUOUS
10
144.6303869999999847
20
-119.9798380000000009
11
144.4399109999999951
21
-119.8845999999999918
0
LINE
8
BLACK
6
CONTINUOUS
10
144.4399109999999951
20
-119.8845999999999918
11
144.3446730000000002
21
-119.7893609999999995
0
LINE
8
BLACK
6
CONTINUOUS
10
144.3446730000000002
20
-119.7893609999999995
11
144.2494350000000054
21
-119.5988849999999957
0
LINE
8
BLACK
6
CONTINUOUS
10
144.2494350000000054
20
-119.5988849999999957
11
144.1541969999999822
21
-119.2179329999999879
0
LINE
8
BLACK
6
CONTINUOUS
10
144.1541969999999822
20
-119.2179329999999879
11
144.1541969999999822
21
-118.7417419999999879
0
LINE
8
BLACK
6
CONTINUOUS
10
144.1541969999999822
20
-118.7417419999999879
11
144.2494350000000054
21
-118.3607899999999944
0
LINE
8
BLACK
6
CONTINUOUS
10
144.2494350000000054
20
-118.3607899999999944
11
144.3446730000000002
21
-118.1703139999999905
0
LINE
8
BLACK
6
CONTINUOUS
10
144.3446730000000002
20
-118.1703139999999905
11
144.4399109999999951
21
-118.0750759999999957
0
LINE
8
BLACK
6
CONTINUOUS
10
144.4399109999999951
20
-118.0750759999999957
11
144.6303869999999847
21
-117.9798380000000009
0
LINE
8
BLACK
6
CONTINUOUS
10
146.1541969999999822
20
-119.9798380000000009
11
146.1541969999999822
21
-118.6465039999999931
0
LINE
8
BLACK
6
CONTINUOUS
10
146.1541969999999822
20
-118.8369799999999969
11
146.2494350000000054
21
-118.7417419999999879
0
LINE
8
BLACK
6
CONTINUOUS
10
146.2494350000000054
20
-118.7417419999999879
11
146.4399109999999951
21
-118.6465039999999931
0
LINE
8
BLACK
6
CONTINUOUS
10
146.4399109999999951
20
-118.6465039999999931
11
146.7256260000000054
21
-118.6465039999999931
0
LINE
8
BLACK
6
CONTINUOUS
10
146.7256260000000054
20
-118.6465039999999931
11
146.9161019999999951
21
-118.7417419999999879
0
LINE
8
BLACK
6
CONTINUOUS
10
146.9161019999999951
20
-118.7417419999999879
11
147.0113399999999899
21
-118.9322189999999893
0
LINE
8
BLACK
6
CONTINUOUS
10
147.0113399999999899
20
-118.9322189999999893
11
147.0113399999999899
21
-119.9798380000000009
0
LINE
8
BLACK
6
CONTINUOUS
10
147.0113399999999899
20
-118.9322189999999893
11
147.1065779999999847
21
-118.7417419999999879
0
LINE
8
BLACK
6
CONTINUOUS
10
147.1065779999999847
20
-118.7417419999999879
11
147.2970540000000028
21
-118.6465039999999931
0
LINE
8
BLACK
6
CONTINUOUS
10
147.2970540000000028
20
-118.6465039999999931
11
147.5827679999999873
21
-118.6465039999999931
0
LINE
8
BLACK
6
CONTINUOUS
10
147.5827679999999873
20
-118.6465039999999931
11
147.7732450000000028
21
-118.7417419999999879
0
LINE
8
BLACK
6
CONTINUOUS
10
147.7732450000000028
20
-118.7417419999999879
11
147.8684829999999977
21
-118.9322189999999893
0
LINE
8
BLACK
6
CONTINUOUS
10
147.8684829999999977
20
-118.9322189999999893
11
147.8684829999999977
21
-119.9798380000000009
0
LINE
8
BLACK
6
CONTINUOUS
10
148.8208640000000003
20
-119.9798380000000009
11
148.8208640000000003
21
-118.6465039999999931
0
LINE
8
BLACK
6
CONTINUOUS
10
148.8208640000000003
20
-118.8369799999999969
11
148.9161019999999951
21
-118.7417419999999879
0
LINE
8
BLACK
6
CONTINUOUS
10
148.9161019999999951
20
-118.7417419999999879
11
149.1065779999999847
21
-118.6465039999999931
0
LINE
8
BLACK
6
CONTINUOUS
10
149.1065779999999847
20
-118.6465039999999931
11
149.3922929999999951
21
-118.6465039999999931
0
LINE
8
BLACK
6
CONTINUOUS
10
149.3922929999999951
20
-118.6465039999999931
11
149.5827689999999848
21
-118.7417419999999879
0
LINE
8
BLACK
6
CONTINUOUS
10
149.5827689999999848
20
-118.7417419999999879
11
149.6780069999999796
21
-118.9322189999999893
0
LINE
8
BLACK
6
CONTINUOUS
10
149.6780069999999796
20
-118.9322189999999893
11
149.6780069999999796
21
-119.9798380000000009
0
LINE
8
BLACK
6
CONTINUOUS
10
149.6780069999999796
20
-118.9322189999999893
11
149.7732450000000028
21
-118.7417419999999879
0
LINE
8
BLACK
6
CONTINUOUS
10
149.7732450000000028
20
-118.7417419999999879
11
149.9637209999999925
21
-118.6465039999999931
0
LINE
8
BLACK
6
CONTINUOUS
10
149.9637209999999925
20
-118.6465039999999931
11
150.2494350000000054
21
-118.6465039999999931
0
LINE
8
BLACK
6
CONTINUOUS
10
150.2494350000000054
20
-118.6465039999999931
11
150.4399119999999925
21
-118.7417419999999879
0
LINE
8
BLACK
6
CONTINUOUS
10
150.4399119999999925
20
-118.7417419999999879
11
150.5351499999999874
21
-118.9322189999999893
0
LINE
8
BLACK
6
CONTINUOUS
10
150.5351499999999874
20
-118.9322189999999893
11
150.5351499999999874
21
-119.9798380000000009
0
LINE
8
BLACK
6
CONTINUOUS
10
154.4399119999999925
20
-117.8845999999999918
11
152.7256270000000029
21
-120.4560279999999892
0
LINE
8
BLACK
6
CONTINUOUS
10
157.0113409999999874
20
-117.9798380000000009
11
157.2018180000000029
21
-117.9798380000000009
0
LINE
8
BLACK
6
CONTINUOUS
10
157.2018180000000029
20
-117.9798380000000009
11
157.3922939999999926
21
-118.0750759999999957
0
LINE
8
BLACK
6
CONTINUOUS
10
157.3922939999999926
20
-118.0750759999999957
11
157.4875319999999874
21
-118.1703139999999905
0
LINE
8
BLACK
6
CONTINUOUS
10
157.4875319999999874
20
-118.1703139999999905
11
157.5827699999999822
21
-118.3607899999999944
0
LINE
8
BLACK
6
CONTINUOUS
10
157.5827699999999822
20
-118.3607899999999944
11
157.6780080000000055
21
-118.7417419999999879
0
LINE
8
BLACK
6
CONTINUOUS
10
157.6780080000000055
20
-118.7417419999999879
11
157.6780080000000055
21
-119.2179329999999879
0
LINE
8
BLACK
6
CONTINUOUS
10
157.6780080000000055
20
-119.2179329999999879
11
157.5827699999999822
21
-119.5988849999999957
0
LINE
8
BLACK
6
CONTINUOUS
10
157.5827699999999822
20
-119.5988849999999957
11
157.4875319999999874
21
-119.7893609999999995
0
LINE
8
BLACK
6
CONTINUOUS
10
157.4875319999999874
20
-119.7893609999999995
11
157.3922939999999926
21
-119.8845999999999918
0
LINE
8
BLACK
6
CONTINUOUS
10
157.3922939999999926
20
-119.8845999999999918
11
157.2018180000000029
21
-119.9798380000000009
0
LINE
8
BLACK
6
CONTINUOUS
10
157.2018180000000029
20
-119.9798380000000009
11
157.0113409999999874
21
-119.9798380000000009
0
LINE
8
BLACK
6
CONTINUOUS
10
157.0113409999999874
20
-119.9798380000000009
11
156.8208649999999977
21
-119.8845999999999918
0
LINE
8
BLACK
6
CONTINUOUS
10
156.8208649999999977
20
-119.8845999999999918
11
156.7256270000000029
21
-119.7893609999999995
0
LINE
8
BLACK
6
CONTINUOUS
10
156.7256270000000029
20
-119.7893609999999995
11
156.6303889999999797
21
-119.5988849999999957
0
LINE
8
BLACK
6
CONTINUOUS
10
156.6303889999999797
20
-119.5988849999999957
11
156.5351509999999848
21
-119.2179329999999879
0
LINE
8
BLACK
6
CONTINUOUS
10
156.5351509999999848
20
-119.2179329999999879
11
156.5351509999999848
21
-118.7417419999999879
0
LINE
8
BLACK
6
CONTINUOUS
10
156.5351509999999848
20
-118.7417419999999879
11
156.6303889999999797
21
-118.3607899999999944
0
LINE
8
BLACK
6
CONTINUOUS
10
156.6303889999999797
20
-118.3607899999999944
11
156.7256270000000029
21
-118.1703139999999905
0
LINE
8
BLACK
6
CONTINUOUS
10
156.7256270000000029
20
-118.1703139999999905
11
156.8208649999999977
21
-118.0750759999999957
0
LINE
8
BLACK
6
CONTINUOUS
10
156.8208649999999977
20
-118.0750759999999957
11
157.0113409999999874
21
-117.9798380000000009
0
LINE
8
BLACK
6
CONTINUOUS
10
158.5351509999999848
20
-119.7893609999999995
11
158.6303889999999797
21
-119.8845999999999918
0
LINE
8
BLACK
6
CONTINUOUS
10
158.6303889999999797
20
-119.8845999999999918
11
158.5351509999999848
21
-119.9798380000000009
0
LINE
8
BLACK
6
CONTINUOUS
10
158.5351509999999848
20
-119.9798380000000009
11
158.43991299999999
21
-119.8845999999999918
0
LINE
8
BLACK
6
CONTINUOUS
10
158.43991299999999
20
-119.8845999999999918
11
158.5351509999999848
21
-119.7893609999999995
0
LINE
8
BLACK
6
CONTINUOUS
10
158.5351509999999848
20
-119.7893609999999995
11
158.5351509999999848
21
-119.9798380000000009
0
LINE
8
BLACK
6
CONTINUOUS
10
159.8684839999999951
20
-117.9798380000000009
11
160.0589609999999823
21
-117.9798380000000009
0
LINE
8
BLACK
6
CONTINUOUS
10
160.0589609999999823
20
-117.9798380000000009
11
160.2494370000000004
21
-118.0750759999999957
0
LINE
8
BLACK
6
CONTINUOUS
10
160.2494370000000004
20
-118.0750759999999957
11
160.3446749999999952
21
-118.1703139999999905
0
LINE
8
BLACK
6
CONTINUOUS
10
160.3446749999999952
20
-118.1703139999999905
11
160.43991299999999
21
-118.3607899999999944
0
LINE
8
BLACK
6
CONTINUOUS
10
160.43991299999999
20
-118.3607899999999944
11
160.5351509999999848
21
-118.7417419999999879
0
LINE
8
BLACK
6
CONTINUOUS
10
160.5351509999999848
20
-118.7417419999999879
11
160.5351509999999848
21
-119.2179329999999879
0
LINE
8
BLACK
6
CONTINUOUS
10
160.5351509999999848
20
-119.2179329999999879
11
160.43991299999999
21
-119.5988849999999957
0
LINE
8
BLACK
6
CONTINUOUS
10
160.43991299999999
20
-119.5988849999999957
11
160.3446749999999952
21
-119.7893609999999995
0
LINE
8
BLACK
6
CONTINUOUS
10
160.3446749999999952
20
-119.7893609999999995
11
160.2494370000000004
21
-119.8845999999999918
0
LINE
8
BLACK
6
CONTINUOUS
10
160.2494370000000004
20
-119.8845999999999918
11
160.0589609999999823
21
-119.9798380000000009
0
LINE
8
BLACK
6
CONTINUOUS
10
160.0589609999999823
20
-119.9798380000000009
11
159.8684839999999951
21
-119.9798380000000009
0
LINE
8
BLACK
6
CONTINUOUS
10
159.8684839999999951
20
-119.9798380000000009
11
159.6780080000000055
21
-119.8845999999999918
0
LINE
8
BLACK
6
CONTINUOUS
10
159.6780080000000055
20
-119.8845999999999918
11
159.5827699999999822
21
-119.7893609999999995
0
LINE
8
BLACK
6
CONTINUOUS
10
159.5827699999999822
20
-119.7893609999999995
11
159.4875319999999874
21
-119.5988849999999957
0
LINE
8
BLACK
6
CONTINUOUS
10
159.4875319999999874
20
-119.5988849999999957
11
159.3922939999999926
21
-119.2179329999999879
0
LINE
8
BLACK
6
CONTINUOUS
10
159.3922939999999926
20
-119.2179329999999879
11
159.3922939999999926
21
-118.7417419999999879
0
LINE
8
BLACK
6
CONTINUOUS
10
159.3922939999999926
20
-118.7417419999999879
11
159.4875319999999874
21
-118.3607899999999944
0
LINE
8
BLACK
6
CONTINUOUS
10
159.4875319999999874
20
-118.3607899999999944
11
159.5827699999999822
21
-118.1703139999999905
0
LINE
8
BLACK
6
CONTINUOUS
10
159.5827699999999822
20
-118.1703139999999905
11
159.6780080000000055
21
-118.0750759999999957
0
LINE
8
BLACK
6
CONTINUOUS
10
159.6780080000000055
20
-118.0750759999999957
11
159.8684839999999951
21
-117.9798380000000009
0
LINE
8
BLACK
6
CONTINUOUS
10
161.2970559999999978
20
-118.1703139999999905
11
161.3922939999999926
21
-118.0750759999999957
0
LINE
8
BLACK
6
CONTINUOUS
10
161.3922939999999926
20
-118.0750759999999957
11
161.5827699999999822
21
-117.9798380000000009
0
LINE
8
BLACK
6
CONTINUOUS
10
161.5827699999999822
20
-117.9798380000000009
11
162.0589609999999823
21
-117.9798380000000009
0
LINE
8
BLACK
6
CONTINUOUS
10
162.0589609999999823
20
-117.9798380000000009
11
162.2494370000000004
21
-118.0750759999999957
0
LINE
8
BLACK
6
CONTINUOUS
10
162.2494370000000004
20
-118.0750759999999957
11
162.3446749999999952
21
-118.1703139999999905
0
LINE
8
BLACK
6
CONTINUOUS
10
162.3446749999999952
20
-118.1703139999999905
11
162.43991299999999
21
-118.3607899999999944
0
LINE
8
BLACK
6
CONTINUOUS
10
162.43991299999999
20
-118.3607899999999944
11
162.43991299999999
21
-118.5512659999999983
0
LINE
8
BLACK
6
CONTINUOUS
10
162.43991299999999
20
-118.5512659999999983
11
162.3446749999999952
21
-118.8369799999999969
0
LINE
8
BLACK
6
CONTINUOUS
10
162.3446749999999952
20
-118.8369799999999969
11
161.2018180000000029
21
-119.9798380000000009
0
LINE
8
BLACK
6
CONTINUOUS
10
161.2018180000000029
20
-119.9798380000000009
11
162.43991299999999
21
-119.9798380000000009
0
LINE
8
BLACK
6
CONTINUOUS
10
163.1065799999999797
20
-117.9798380000000009
11
164.43991299999999
21
-117.9798380000000009
0
LINE
8
BLACK
6
CONTINUOUS
10
164.43991299999999
20
-117.9798380000000009
11
163.5827699999999822
21
-119.9798380000000009
0
LINE
8
BLACK
6
CONTINUOUS
10
166.0589609999999823
20
-117.9798380000000009
11
165.6780080000000055
21
-117.9798380000000009
0
LINE
8
BLACK
6
CONTINUOUS
10
165.6780080000000055
20
-117.9798380000000009
11
165.4875319999999874
21
-118.0750759999999957
0
LINE
8
BLACK
6
CONTINUOUS
10
165.4875319999999874
20
-118.0750759999999957
11
165.3922939999999926
21
-118.1703139999999905
0
LINE
8
BLACK
6
CONTINUOUS
10
165.3922939999999926
20
-118.1703139999999905
11
165.2018180000000029
21
-118.4560279999999892
0
LINE
8
BLACK
6
CONTINUOUS
10
165.2018180000000029
20
-118.4560279999999892
11
165.1065799999999797
21
-118.8369799999999969
0
LINE
8
BLACK
6
CONTINUOUS
10
165.1065799999999797
20
-118.8369799999999969
11
165.1065799999999797
21
-119.5988849999999957
0
LINE
8
BLACK
6
CONTINUOUS
10
165.1065799999999797
20
-119.5988849999999957
11
165.2018180000000029
21
-119.7893609999999995
0
LINE
8
BLACK
6
CONTINUOUS
10
165.2018180000000029
20
-119.7893609999999995
11
165.2970559999999978
21
-119.8845999999999918
0
LINE
8
BLACK
6
CONTINUOUS
10
165.2970559999999978
20
-119.8845999999999918
11
165.4875319999999874
21
-119.9798380000000009
0
LINE
8
BLACK
6
CONTINUOUS
10
165.4875319999999874
20
-119.9798380000000009
11
165.8684849999999926
21
-119.9798380000000009
0
LINE
8
BLACK
6
CONTINUOUS
10
165.8684849999999926
20
-119.9798380000000009
11
166.0589609999999823
21
-119.8845999999999918
0
LINE
8
BLACK
6
CONTINUOUS
10
166.0589609999999823
20
-119.8845999999999918
11
166.1541990000000055
21
-119.7893609999999995
0
LINE
8
BLACK
6
CONTINUOUS
10
166.1541990000000055
20
-119.7893609999999995
11
166.2494370000000004
21
-119.5988849999999957
0
LINE
8
BLACK
6
CONTINUOUS
10
166.2494370000000004
20
-119.5988849999999957
11
166.2494370000000004
21
-119.1226949999999931
0
LINE
8
BLACK
6
CONTINUOUS
10
166.2494370000000004
20
-119.1226949999999931
11
166.1541990000000055
21
-118.9322189999999893
0
LINE
8
BLACK
6
CONTINUOUS
10
166.1541990000000055
20
-118.9322189999999893
11
166.0589609999999823
21
-118.8369799999999969
0
LINE
8
BLACK
6
CONTINUOUS
10
166.0589609999999823
20
-118.8369799999999969
11
165.8684849999999926
21
-118.7417419999999879
0
LINE
8
BLACK
6
CONTINUOUS
10
165.8684849999999926
20
-118.7417419999999879
11
165.4875319999999874
21
-118.7417419999999879
0
LINE
8
BLACK
6
CONTINUOUS
10
165.4875319999999874
20
-118.7417419999999879
11
165.2970559999999978
21
-118.8369799999999969
0
LINE
8
BLACK
6
CONTINUOUS
10
165.2970559999999978
20
-118.8369799999999969
11
165.2018180000000029
21
-118.9322189999999893
0
LINE
8
BLACK
6
CONTINUOUS
10
165.2018180000000029
20
-118.9322189999999893
11
165.1065799999999797
21
-119.1226949999999931
0
LINE
8
BLACK
6
CONTINUOUS
10
167.0113419999999849
20
-117.9798380000000009
11
167.0113419999999849
21
-118.3607899999999944
0
LINE
8
BLACK
6
CONTINUOUS
10
167.7732469999999978
20
-117.9798380000000009
11
167.7732469999999978
21
-118.3607899999999944
0
LINE
8
BLACK
6
CONTINUOUS
10
170.7256289999999979
20
-120.7417419999999879
11
170.6303900000000056
21
-120.6465039999999931
0
LINE
8
BLACK
6
CONTINUOUS
10
170.6303900000000056
20
-120.6465039999999931
11
170.4399139999999875
21
-120.3607899999999944
0
LINE
8
BLACK
6
CONTINUOUS
10
170.4399139999999875
20
-120.3607899999999944
11
170.3446759999999927
21
-120.1703139999999905
0
LINE
8
BLACK
6
CONTINUOUS
10
170.3446759999999927
20
-120.1703139999999905
11
170.2494379999999978
21
-119.8845999999999918
0
LINE
8
BLACK
6
CONTINUOUS
10
170.2494379999999978
20
-119.8845999999999918
11
170.154200000000003
21
-119.4084089999999918
0
LINE
8
BLACK
6
CONTINUOUS
10
170.154200000000003
20
-119.4084089999999918
11
170.154200000000003
21
-119.0274569999999983
0
LINE
8
BLACK
6
CONTINUOUS
10
170.154200000000003
20
-119.0274569999999983
11
170.2494379999999978
21
-118.5512659999999983
0
LINE
8
BLACK
6
CONTINUOUS
10
170.2494379999999978
20
-118.5512659999999983
11
170.3446759999999927
21
-118.2655519999999996
0
LINE
8
BLACK
6
CONTINUOUS
10
170.3446759999999927
20
-118.2655519999999996
11
170.4399139999999875
21
-118.0750759999999957
0
LINE
8
BLACK
6
CONTINUOUS
10
170.4399139999999875
20
-118.0750759999999957
11
170.6303900000000056
21
-117.7893609999999995
0
LINE
8
BLACK
6
CONTINUOUS
10
170.6303900000000056
20
-117.7893609999999995
11
170.7256289999999979
21
-117.6941229999999905
0
LINE
8
BLACK
6
CONTINUOUS
10
171.2970569999999952
20
-117.9798380000000009
11
172.5351519999999823
21
-117.9798380000000009
0
LINE
8
BLACK
6
CONTINUOUS
10
172.5351519999999823
20
-117.9798380000000009
11
171.8684849999999926
21
-118.7417419999999879
0
LINE
8
BLACK
6
CONTINUOUS
10
171.8684849999999926
20
-118.7417419999999879
11
172.154200000000003
21
-118.7417419999999879
0
LINE
8
BLACK
6
CONTINUOUS
10
172.154200000000003
20
-118.7417419999999879
11
172.3446759999999927
21
-118.8369799999999969
0
LINE
8
BLACK
6
CONTINUOUS
10
172.3446759999999927
20
-118.8369799999999969
11
172.4399139999999875
21
-118.9322189999999893
0
LINE
8
BLACK
6
CONTINUOUS
10
172.4399139999999875
20
-118.9322189999999893
11
172.5351519999999823
21
-119.1226949999999931
0
LINE
8
BLACK
6
CONTINUOUS
10
172.5351519999999823
20
-119.1226949999999931
11
172.5351519999999823
21
-119.5988849999999957
0
LINE
8
BLACK
6
CONTINUOUS
10
172.5351519999999823
20
-119.5988849999999957
11
172.4399139999999875
21
-119.7893609999999995
0
LINE
8
BLACK
6
CONTINUOUS
10
172.4399139999999875
20
-119.7893609999999995
11
172.3446759999999927
21
-119.8845999999999918
0
LINE
8
BLACK
6
CONTINUOUS
10
172.3446759999999927
20
-119.8845999999999918
11
172.154200000000003
21
-119.9798380000000009
0
LINE
8
BLACK
6
CONTINUOUS
10
172.154200000000003
20
-119.9798380000000009
11
171.5827709999999797
21
-119.9798380000000009
0
LINE
8
BLACK
6
CONTINUOUS
10
171.5827709999999797
20
-119.9798380000000009
11
171.3922949999999901
21
-119.8845999999999918
0
LINE
8
BLACK
6
CONTINUOUS
10
171.3922949999999901
20
-119.8845999999999918
11
171.2970569999999952
21
-119.7893609999999995
0
LINE
8
BLACK
6
CONTINUOUS
10
173.7732469999999978
20
-117.9798380000000009
11
173.9637239999999849
21
-117.9798380000000009
0
LINE
8
BLACK
6
CONTINUOUS
10
173.9637239999999849
20
-117.9798380000000009
11
174.154200000000003
21
-118.0750759999999957
0
LINE
8
BLACK
6
CONTINUOUS
10
174.154200000000003
20
-118.0750759999999957
11
174.2494379999999978
21
-118.1703139999999905
0
LINE
8
BLACK
6
CONTINUOUS
10
174.2494379999999978
20
-118.1703139999999905
11
174.3446759999999927
21
-118.3607899999999944
0
LINE
8
BLACK
6
CONTINUOUS
10
174.3446759999999927
20
-118.3607899999999944
11
174.4399139999999875
21
-118.7417419999999879
0
LINE
8
BLACK
6
CONTINUOUS
10
174.4399139999999875
20
-118.7417419999999879
11
174.4399139999999875
21
-119.2179329999999879
0
LINE
8
BLACK
6
CONTINUOUS
10
174.4399139999999875
20
-119.2179329999999879
11
174.3446759999999927
21
-119.5988849999999957
0
LINE
8
BLACK
6
CONTINUOUS
10
174.3446759999999927
20
-119.5988849999999957
11
174.2494379999999978
21
-119.7893609999999995
0
LINE
8
BLACK
6
CONTINUOUS
10
174.2494379999999978
20
-119.7893609999999995
11
174.154200000000003
21
-119.8845999999999918
0
LINE
8
BLACK
6
CONTINUOUS
10
174.154200000000003
20
-119.8845999999999918
11
173.9637239999999849
21
-119.9798380000000009
0
LINE
8
BLACK
6
CONTINUOUS
10
173.9637239999999849
20
-119.9798380000000009
11
173.7732469999999978
21
-119.9798380000000009
0
LINE
8
BLACK
6
CONTINUOUS
10
173.7732469999999978
20
-119.9798380000000009
11
173.5827709999999797
21
-119.8845999999999918
0
LINE
8
BLACK
6
CONTINUOUS
10
173.5827709999999797
20
-119.8845999999999918
11
173.4875329999999849
21
-119.7893609999999995
0
LINE
8
BLACK
6
CONTINUOUS
10
173.4875329999999849
20
-119.7893609999999995
11
173.3922949999999901
21
-119.5988849999999957
0
LINE
8
BLACK
6
CONTINUOUS
10
173.3922949999999901
20
-119.5988849999999957
11
173.2970569999999952
21
-119.2179329999999879
0
LINE
8
BLACK
6
CONTINUOUS
10
173.2970569999999952
20
-119.2179329999999879
11
173.2970569999999952
21
-118.7417419999999879
0
LINE
8
BLACK
6
CONTINUOUS
10
173.2970569999999952
20
-118.7417419999999879
11
173.3922949999999901
21
-118.3607899999999944
0
LINE
8
BLACK
6
CONTINUOUS
10
173.3922949999999901
20
-118.3607899999999944
11
173.4875329999999849
21
-118.1703139999999905
0
LINE
8
BLACK
6
CONTINUOUS
10
173.4875329999999849
20
-118.1703139999999905
11
173.5827709999999797
21
-118.0750759999999957
0
LINE
8
BLACK
6
CONTINUOUS
10
173.5827709999999797
20
-118.0750759999999957
11
173.7732469999999978
21
-117.9798380000000009
0
LINE
8
BLACK
6
CONTINUOUS
10
176.8208669999999927
20
-119.9798380000000009
11
176.8208669999999927
21
-117.9798380000000009
0
LINE
8
BLACK
6
CONTINUOUS
10
177.6780100000000004
20
-119.9798380000000009
11
177.6780100000000004
21
-118.9322189999999893
0
LINE
8
BLACK
6
CONTINUOUS
10
177.6780100000000004
20
-118.9322189999999893
11
177.5827720000000056
21
-118.7417419999999879
0
LINE
8
BLACK
6
CONTINUOUS
10
177.5827720000000056
20
-118.7417419999999879
11
177.3922959999999875
21
-118.6465039999999931
0
LINE
8
BLACK
6
CONTINUOUS
10
177.3922959999999875
20
-118.6465039999999931
11
177.1065810000000056
21
-118.6465039999999931
0
LINE
8
BLACK
6
CONTINUOUS
10
177.1065810000000056
20
-118.6465039999999931
11
176.9161049999999875
21
-118.7417419999999879
0
LINE
8
BLACK
6
CONTINUOUS
10
176.9161049999999875
20
-118.7417419999999879
11
176.8208669999999927
21
-118.8369799999999969
0
LINE
8
BLACK
6
CONTINUOUS
10
178.9161049999999875
20
-119.9798380000000009
11
178.7256289999999979
21
-119.8845999999999918
0
LINE
8
BLACK
6
CONTINUOUS
10
178.7256289999999979
20
-119.8845999999999918
11
178.630391000000003
21
-119.7893609999999995
0
LINE
8
BLACK
6
CONTINUOUS
10
178.630391000000003
20
-119.7893609999999995
11
178.5351529999999798
21
-119.5988849999999957
0
LINE
8
BLACK
6
CONTINUOUS
10
178.5351529999999798
20
-119.5988849999999957
11
178.5351529999999798
21
-119.0274569999999983
0
LINE
8
BLACK
6
CONTINUOUS
10
178.5351529999999798
20
-119.0274569999999983
11
178.630391000000003
21
-118.8369799999999969
0
LINE
8
BLACK
6
CONTINUOUS
10
178.630391000000003
20
-118.8369799999999969
11
178.7256289999999979
21
-118.7417419999999879
0
LINE
8
BLACK
6
CONTINUOUS
10
178.7256289999999979
20
-118.7417419999999879
11
178.9161049999999875
21
-118.6465039999999931
0
LINE
8
BLACK
6
CONTINUOUS
10
178.9161049999999875
20
-118.6465039999999931
11
179.2018199999999979
21
-118.6465039999999931
0
LINE
8
BLACK
6
CONTINUOUS
10
179.2018199999999979
20
-118.6465039999999931
11
179.3922959999999875
21
-118.7417419999999879
0
LINE
8
BLACK
6
CONTINUOUS
10
179.3922959999999875
20
-118.7417419999999879
11
179.4875339999999824
21
-118.8369799999999969
0
LINE
8
BLACK
6
CONTINUOUS
10
179.4875339999999824
20
-118.8369799999999969
11
179.5827720000000056
21
-119.0274569999999983
0
LINE
8
BLACK
6
CONTINUOUS
10
179.5827720000000056
20
-119.0274569999999983
11
179.5827720000000056
21
-119.5988849999999957
0
LINE
8
BLACK
6
CONTINUOUS
10
179.5827720000000056
20
-119.5988849999999957
11
179.4875339999999824
21
-119.7893609999999995
0
LINE
8
BLACK
6
CONTINUOUS
10
179.4875339999999824
20
-119.7893609999999995
11
179.3922959999999875
21
-119.8845999999999918
0
LINE
8
BLACK
6
CONTINUOUS
10
179.3922959999999875
20
-119.8845999999999918
11
179.2018199999999979
21
-119.9798380000000009
0
LINE
8
BLACK
6
CONTINUOUS
10
179.2018199999999979
20
-119.9798380000000009
11
178.9161049999999875
21
-119.9798380000000009
0
LINE
8
BLACK
6
CONTINUOUS
10
180.7256289999999979
20
-119.9798380000000009
11
180.5351529999999798
21
-119.8845999999999918
0
LINE
8
BLACK
6
CONTINUOUS
10
180.5351529999999798
20
-119.8845999999999918
11
180.439914999999985
21
-119.6941229999999905
0
LINE
8
BLACK
6
CONTINUOUS
10
180.439914999999985
20
-119.6941229999999905
11
180.439914999999985
21
-117.9798380000000009
0
LINE
8
BLACK
6
CONTINUOUS
10
182.2494389999999953
20
-119.8845999999999918
11
182.0589630000000056
21
-119.9798380000000009
0
LINE
8
BLACK
6
CONTINUOUS
10
182.0589630000000056
20
-119.9798380000000009
11
181.6780100000000004
21
-119.9798380000000009
0
LINE
8
BLACK
6
CONTINUOUS
10
181.6780100000000004
20
-119.9798380000000009
11
181.4875339999999824
21
-119.8845999999999918
0
LINE
8
BLACK
6
CONTINUOUS
10
181.4875339999999824
20
-119.8845999999999918
11
181.3922959999999875
21
-119.6941229999999905
0
LINE
8
BLACK
6
CONTINUOUS
10
181.3922959999999875
20
-119.6941229999999905
11
181.3922959999999875
21
-118.9322189999999893
0
LINE
8
BLACK
6
CONTINUOUS
10
181.3922959999999875
20
-118.9322189999999893
11
181.4875339999999824
21
-118.7417419999999879
0
LINE
8
BLACK
6
CONTINUOUS
10
181.4875339999999824
20
-118.7417419999999879
11
181.6780100000000004
21
-118.6465039999999931
0
LINE
8
BLACK
6
CONTINUOUS
10
181.6780100000000004
20
-118.6465039999999931
11
182.0589630000000056
21
-118.6465039999999931
0
LINE
8
BLACK
6
CONTINUOUS
10
182.0589630000000056
20
-118.6465039999999931
11
182.2494389999999953
21
-118.7417419999999879
0
LINE
8
BLACK
6
CONTINUOUS
10
182.2494389999999953
20
-118.7417419999999879
11
182.3446769999999901
21
-118.9322189999999893
0
LINE
8
BLACK
6
CONTINUOUS
10
182.3446769999999901
20
-118.9322189999999893
11
182.3446769999999901
21
-119.1226949999999931
0
LINE
8
BLACK
6
CONTINUOUS
10
182.3446769999999901
20
-119.1226949999999931
11
181.3922959999999875
21
-119.313170999999997
0
LINE
8
BLACK
6
CONTINUOUS
10
183.1065820000000031
20
-119.8845999999999918
11
183.2970579999999927
21
-119.9798380000000009
0
LINE
8
BLACK
6
CONTINUOUS
10
183.2970579999999927
20
-119.9798380000000009
11
183.6780100000000004
21
-119.9798380000000009
0
LINE
8
BLACK
6
CONTINUOUS
10
183.6780100000000004
20
-119.9798380000000009
11
183.8684869999999876
21
-119.8845999999999918
0
LINE
8
BLACK
6
CONTINUOUS
10
183.8684869999999876
20
-119.8845999999999918
11
183.9637249999999824
21
-119.6941229999999905
0
LINE
8
BLACK
6
CONTINUOUS
10
183.9637249999999824
20
-119.6941229999999905
11
183.9637249999999824
21
-119.5988849999999957
0
LINE
8
BLACK
6
CONTINUOUS
10
183.9637249999999824
20
-119.5988849999999957
11
183.8684869999999876
21
-119.4084089999999918
0
LINE
8
BLACK
6
CONTINUOUS
10
183.8684869999999876
20
-119.4084089999999918
11
183.6780100000000004
21
-119.313170999999997
0
LINE
8
BLACK
6
CONTINUOUS
10
183.6780100000000004
20
-119.313170999999997
11
183.3922959999999875
21
-119.313170999999997
0
LINE
8
BLACK
6
CONTINUOUS
10
183.3922959999999875
20
-119.313170999999997
11
183.2018199999999979
21
-119.2179329999999879
0
LINE
8
BLACK
6
CONTINUOUS
10
183.2018199999999979
20
-119.2179329999999879
11
183.1065820000000031
21
-119.0274569999999983
0
LINE
8
BLACK
6
CONTINUOUS
10
183.1065820000000031
20
-119.0274569999999983
11
183.1065820000000031
21
-118.9322189999999893
0
LINE
8
BLACK
6
CONTINUOUS
10
183.1065820000000031
20
-118.9322189999999893
11
183.2018199999999979
21
-118.7417419999999879
0
LINE
8
BLACK
6
CONTINUOUS
10
183.2018199999999979
20
-118.7417419999999879
11
183.3922959999999875
21
-118.6465039999999931
0
LINE
8
BLACK
6
CONTINUOUS
10
183.3922959999999875
20
-118.6465039999999931
11
183.6780100000000004
21
-118.6465039999999931
0
LINE
8
BLACK
6
CONTINUOUS
10
183.6780100000000004
20
-118.6465039999999931
11
183.8684869999999876
21
-118.7417419999999879
0
LINE
8
BLACK
6
CONTINUOUS
10
184.6303920000000005
20
-120.7417419999999879
11
184.7256299999999953
21
-120.6465039999999931
0
LINE
8
BLACK
6
CONTINUOUS
10
184.7256299999999953
20
-120.6465039999999931
11
184.916105999999985
21
-120.3607899999999944
0
LINE
8
BLACK
6
CONTINUOUS
10
184.916105999999985
20
-120.3607899999999944
11
185.0113439999999798
21
-120.1703139999999905
0
LINE
8
BLACK
6
CONTINUOUS
10
185.0113439999999798
20
-120.1703139999999905
11
185.1065820000000031
21
-119.8845999999999918
0
LINE
8
BLACK
6
CONTINUOUS
10
185.1065820000000031
20
-119.8845999999999918
11
185.2018199999999979
21
-119.4084089999999918
0
LINE
8
BLACK
6
CONTINUOUS
10
185.2018199999999979
20
-119.4084089999999918
11
185.2018199999999979
21
-119.0274569999999983
0
LINE
8
BLACK
6
CONTINUOUS
10
185.2018199999999979
20
-119.0274569999999983
11
185.1065820000000031
21
-118.5512659999999983
0
LINE
8
BLACK
6
CONTINUOUS
10
185.1065820000000031
20
-118.5512659999999983
11
185.0113439999999798
21
-118.2655519999999996
0
LINE
8
BLACK
6
CONTINUOUS
10
185.0113439999999798
20
-118.2655519999999996
11
184.916105999999985
21
-118.0750759999999957
0
LINE
8
BLACK
6
CONTINUOUS
10
184.916105999999985
20
-118.0750759999999957
11
184.7256299999999953
21
-117.7893609999999995
0
LINE
8
BLACK
6
CONTINUOUS
10
184.7256299999999953
20
-117.7893609999999995
11
184.6303920000000005
21
-117.6941229999999905
0
LINE
8
BLACK
6
CONTINUOUS
10
134.4749999999999943
20
-121.2049999999999983
11
134.4749999999999943
21
-122.2049999999999983
0
LINE
8
BLACK
6
CONTINUOUS
10
133.9749999999999943
20
-121.7049999999999983
11
134.9749999999999943
21
-121.7049999999999983
0
LINE
8
BLACK
6
CONTINUOUS
10
138.6303869999999847
20
-122.6198380000000014
11
137.4875299999999925
21
-122.6198380000000014
0
LINE
8
BLACK
6
CONTINUOUS
10
138.0589579999999899
20
-122.6198380000000014
11
138.0589579999999899
21
-120.6198380000000014
0
LINE
8
BLACK
6
CONTINUOUS
10
138.0589579999999899
20
-120.6198380000000014
11
137.8684820000000002
21
-120.9055520000000001
0
LINE
8
BLACK
6
CONTINUOUS
10
137.8684820000000002
20
-120.9055520000000001
11
137.6780059999999821
21
-121.0960279999999898
0
LINE
8
BLACK
6
CONTINUOUS
10
137.6780059999999821
20
-121.0960279999999898
11
137.4875299999999925
21
-121.1912659999999988
0
LINE
8
BLACK
6
CONTINUOUS
10
139.4875299999999925
20
-122.4293610000000001
11
139.5827679999999873
21
-122.5245999999999924
0
LINE
8
BLACK
6
CONTINUOUS
10
139.5827679999999873
20
-122.5245999999999924
11
139.4875299999999925
21
-122.6198380000000014
0
LINE
8
BLACK
6
CONTINUOUS
10
139.4875299999999925
20
-122.6198380000000014
11
139.3922919999999976
21
-122.5245999999999924
0
LINE
8
BLACK
6
CONTINUOUS
10
139.3922919999999976
20
-122.5245999999999924
11
139.4875299999999925
21
-122.4293610000000001
0
LINE
8
BLACK
6
CONTINUOUS
10
139.4875299999999925
20
-122.4293610000000001
11
139.4875299999999925
21
-122.6198380000000014
0
LINE
8
BLACK
6
CONTINUOUS
10
140.8208630000000028
20
-120.6198380000000014
11
141.0113399999999899
21
-120.6198380000000014
0
LINE
8
BLACK
6
CONTINUOUS
10
141.0113399999999899
20
-120.6198380000000014
11
141.2018159999999796
21
-120.7150759999999963
0
LINE
8
BLACK
6
CONTINUOUS
10
141.2018159999999796
20
-120.7150759999999963
11
141.2970540000000028
21
-120.8103139999999911
0
LINE
8
BLACK
6
CONTINUOUS
10
141.2970540000000028
20
-120.8103139999999911
11
141.3922919999999976
21
-121.000789999999995
0
LINE
8
BLACK
6
CONTINUOUS
10
141.3922919999999976
20
-121.000789999999995
11
141.4875299999999925
21
-121.3817419999999885
0
LINE
8
BLACK
6
CONTINUOUS
10
141.4875299999999925
20
-121.3817419999999885
11
141.4875299999999925
21
-121.8579329999999885
0
LINE
8
BLACK
6
CONTINUOUS
10
141.4875299999999925
20
-121.8579329999999885
11
141.3922919999999976
21
-122.2388849999999962
0
LINE
8
BLACK
6
CONTINUOUS
10
141.3922919999999976
20
-122.2388849999999962
11
141.2970540000000028
21
-122.4293610000000001
0
LINE
8
BLACK
6
CONTINUOUS
10
141.2970540000000028
20
-122.4293610000000001
11
141.2018159999999796
21
-122.5245999999999924
0
LINE
8
BLACK
6
CONTINUOUS
10
141.2018159999999796
20
-122.5245999999999924
11
141.0113399999999899
21
-122.6198380000000014
0
LINE
8
BLACK
6
CONTINUOUS
10
141.0113399999999899
20
-122.6198380000000014
11
140.8208630000000028
21
-122.6198380000000014
0
LINE
8
BLACK
6
CONTINUOUS
10
140.8208630000000028
20
-122.6198380000000014
11
140.6303869999999847
21
-122.5245999999999924
0
LINE
8
BLACK
6
CONTINUOUS
10
140.6303869999999847
20
-122.5245999999999924
11
140.5351489999999899
21
-122.4293610000000001
0
LINE
8
BLACK
6
CONTINUOUS
10
140.5351489999999899
20
-122.4293610000000001
11
140.4399109999999951
21
-122.2388849999999962
0
LINE
8
BLACK
6
CONTINUOUS
10
140.4399109999999951
20
-122.2388849999999962
11
140.3446730000000002
21
-121.8579329999999885
0
LINE
8
BLACK
6
CONTINUOUS
10
140.3446730000000002
20
-121.8579329999999885
11
140.3446730000000002
21
-121.3817419999999885
0
LINE
8
BLACK
6
CONTINUOUS
10
140.3446730000000002
20
-121.3817419999999885
11
140.4399109999999951
21
-121.000789999999995
0
LINE
8
BLACK
6
CONTINUOUS
10
140.4399109999999951
20
-121.000789999999995
11
140.5351489999999899
21
-120.8103139999999911
0
LINE
8
BLACK
6
CONTINUOUS
10
140.5351489999999899
20
-120.8103139999999911
11
140.6303869999999847
21
-120.7150759999999963
0
LINE
8
BLACK
6
CONTINUOUS
10
140.6303869999999847
20
-120.7150759999999963
11
140.8208630000000028
21
-120.6198380000000014
0
LINE
8
BLACK
6
CONTINUOUS
10
142.7256249999999795
20
-120.6198380000000014
11
142.9161019999999951
21
-120.6198380000000014
0
LINE
8
BLACK
6
CONTINUOUS
10
142.9161019999999951
20
-120.6198380000000014
11
143.1065779999999847
21
-120.7150759999999963
0
LINE
8
BLACK
6
CONTINUOUS
10
143.1065779999999847
20
-120.7150759999999963
11
143.2018159999999796
21
-120.8103139999999911
0
LINE
8
BLACK
6
CONTINUOUS
10
143.2018159999999796
20
-120.8103139999999911
11
143.2970540000000028
21
-121.000789999999995
0
LINE
8
BLACK
6
CONTINUOUS
10
143.2970540000000028
20
-121.000789999999995
11
143.3922919999999976
21
-121.3817419999999885
0
LINE
8
BLACK
6
CONTINUOUS
10
143.3922919999999976
20
-121.3817419999999885
11
143.3922919999999976
21
-121.8579329999999885
0
LINE
8
BLACK
6
CONTINUOUS
10
143.3922919999999976
20
-121.8579329999999885
11
143.2970540000000028
21
-122.2388849999999962
0
LINE
8
BLACK
6
CONTINUOUS
10
143.2970540000000028
20
-122.2388849999999962
11
143.2018159999999796
21
-122.4293610000000001
0
LINE
8
BLACK
6
CONTINUOUS
10
143.2018159999999796
20
-122.4293610000000001
11
143.1065779999999847
21
-122.5245999999999924
0
LINE
8
BLACK
6
CONTINUOUS
10
143.1065779999999847
20
-122.5245999999999924
11
142.9161019999999951
21
-122.6198380000000014
0
LINE
8
BLACK
6
CONTINUOUS
10
142.9161019999999951
20
-122.6198380000000014
11
142.7256249999999795
21
-122.6198380000000014
0
LINE
8
BLACK
6
CONTINUOUS
10
142.7256249999999795
20
-122.6198380000000014
11
142.5351489999999899
21
-122.5245999999999924
0
LINE
8
BLACK
6
CONTINUOUS
10
142.5351489999999899
20
-122.5245999999999924
11
142.4399109999999951
21
-122.4293610000000001
0
LINE
8
BLACK
6
CONTINUOUS
10
142.4399109999999951
20
-122.4293610000000001
11
142.3446730000000002
21
-122.2388849999999962
0
LINE
8
BLACK
6
CONTINUOUS
10
142.3446730000000002
20
-122.2388849999999962
11
142.2494350000000054
21
-121.8579329999999885
0
LINE
8
BLACK
6
CONTINUOUS
10
142.2494350000000054
20
-121.8579329999999885
11
142.2494350000000054
21
-121.3817419999999885
0
LINE
8
BLACK
6
CONTINUOUS
10
142.2494350000000054
20
-121.3817419999999885
11
142.3446730000000002
21
-121.000789999999995
0
LINE
8
BLACK
6
CONTINUOUS
10
142.3446730000000002
20
-121.000789999999995
11
142.4399109999999951
21
-120.8103139999999911
0
LINE
8
BLACK
6
CONTINUOUS
10
142.4399109999999951
20
-120.8103139999999911
11
142.5351489999999899
21
-120.7150759999999963
0
LINE
8
BLACK
6
CONTINUOUS
10
142.5351489999999899
20
-120.7150759999999963
11
142.7256249999999795
21
-120.6198380000000014
0
LINE
8
BLACK
6
CONTINUOUS
10
144.6303869999999847
20
-120.6198380000000014
11
144.8208640000000003
21
-120.6198380000000014
0
LINE
8
BLACK
6
CONTINUOUS
10
144.8208640000000003
20
-120.6198380000000014
11
145.0113399999999899
21
-120.7150759999999963
0
LINE
8
BLACK
6
CONTINUOUS
10
145.0113399999999899
20
-120.7150759999999963
11
145.1065779999999847
21
-120.8103139999999911
0
LINE
8
BLACK
6
CONTINUOUS
10
145.1065779999999847
20
-120.8103139999999911
11
145.2018159999999796
21
-121.000789999999995
0
LINE
8
BLACK
6
CONTINUOUS
10
145.2018159999999796
20
-121.000789999999995
11
145.2970540000000028
21
-121.3817419999999885
0
LINE
8
BLACK
6
CONTINUOUS
10
145.2970540000000028
20
-121.3817419999999885
11
145.2970540000000028
21
-121.8579329999999885
0
LINE
8
BLACK
6
CONTINUOUS
10
145.2970540000000028
20
-121.8579329999999885
11
145.2018159999999796
21
-122.2388849999999962
0
LINE
8
BLACK
6
CONTINUOUS
10
145.2018159999999796
20
-122.2388849999999962
11
145.1065779999999847
21
-122.4293610000000001
0
LINE
8
BLACK
6
CONTINUOUS
10
145.1065779999999847
20
-122.4293610000000001
11
145.0113399999999899
21
-122.5245999999999924
0
LINE
8
BLACK
6
CONTINUOUS
10
145.0113399999999899
20
-122.5245999999999924
11
144.8208640000000003
21
-122.6198380000000014
0
LINE
8
BLACK
6
CONTINUOUS
10
144.8208640000000003
20
-122.6198380000000014
11
144.6303869999999847
21
-122.6198380000000014
0
LINE
8
BLACK
6
CONTINUOUS
10
144.6303869999999847
20
-122.6198380000000014
11
144.4399109999999951
21
-122.5245999999999924
0
LINE
8
BLACK
6
CONTINUOUS
10
144.4399109999999951
20
-122.5245999999999924
11
144.3446730000000002
21
-122.4293610000000001
0
LINE
8
BLACK
6
CONTINUOUS
10
144.3446730000000002
20
-122.4293610000000001
11
144.2494350000000054
21
-122.2388849999999962
0
LINE
8
BLACK
6
CONTINUOUS
10
144.2494350000000054
20
-122.2388849999999962
11
144.1541969999999822
21
-121.8579329999999885
0
LINE
8
BLACK
6
CONTINUOUS
10
144.1541969999999822
20
-121.8579329999999885
11
144.1541969999999822
21
-121.3817419999999885
0
LINE
8
BLACK
6
CONTINUOUS
10
144.1541969999999822
20
-121.3817419999999885
11
144.2494350000000054
21
-121.000789999999995
0
LINE
8
BLACK
6
CONTINUOUS
10
144.2494350000000054
20
-121.000789999999995
11
144.3446730000000002
21
-120.8103139999999911
0
LINE
8
BLACK
6
CONTINUOUS
10
144.3446730000000002
20
-120.8103139999999911
11
144.4399109999999951
21
-120.7150759999999963
0
LINE
8
BLACK
6
CONTINUOUS
10
144.4399109999999951
20
-120.7150759999999963
11
144.6303869999999847
21
-120.6198380000000014
0
LINE
8
BLACK
6
CONTINUOUS
10
146.1541969999999822
20
-122.6198380000000014
11
146.1541969999999822
21
-121.2865039999999937
0
LINE
8
BLACK
6
CONTINUOUS
10
146.1541969999999822
20
-121.4769799999999975
11
146.2494350000000054
21
-121.3817419999999885
0
LINE
8
BLACK
6
CONTINUOUS
10
146.2494350000000054
20
-121.3817419999999885
11
146.4399109999999951
21
-121.2865039999999937
0
LINE
8
BLACK
6
CONTINUOUS
10
146.4399109999999951
20
-121.2865039999999937
11
146.7256260000000054
21
-121.2865039999999937
0
LINE
8
BLACK
6
CONTINUOUS
10
146.7256260000000054
20
-121.2865039999999937
11
146.9161019999999951
21
-121.3817419999999885
0
LINE
8
BLACK
6
CONTINUOUS
10
146.9161019999999951
20
-121.3817419999999885
11
147.0113399999999899
21
-121.5722189999999898
0
LINE
8
BLACK
6
CONTINUOUS
10
147.0113399999999899
20
-121.5722189999999898
11
147.0113399999999899
21
-122.6198380000000014
0
LINE
8
BLACK
6
CONTINUOUS
10
147.0113399999999899
20
-121.5722189999999898
11
147.1065779999999847
21
-121.3817419999999885
0
LINE
8
BLACK
6
CONTINUOUS
10
147.1065779999999847
20
-121.3817419999999885
11
147.2970540000000028
21
-121.2865039999999937
0
LINE
8
BLACK
6
CONTINUOUS
10
147.2970540000000028
20
-121.2865039999999937
11
147.5827679999999873
21
-121.2865039999999937
0
LINE
8
BLACK
6
CONTINUOUS
10
147.5827679999999873
20
-121.2865039999999937
11
147.7732450000000028
21
-121.3817419999999885
0
LINE
8
BLACK
6
CONTINUOUS
10
147.7732450000000028
20
-121.3817419999999885
11
147.8684829999999977
21
-121.5722189999999898
0
LINE
8
BLACK
6
CONTINUOUS
10
147.8684829999999977
20
-121.5722189999999898
11
147.8684829999999977
21
-122.6198380000000014
0
LINE
8
BLACK
6
CONTINUOUS
10
148.8208640000000003
20
-122.6198380000000014
11
148.8208640000000003
21
-121.2865039999999937
0
LINE
8
BLACK
6
CONTINUOUS
10
148.8208640000000003
20
-121.4769799999999975
11
148.9161019999999951
21
-121.3817419999999885
0
LINE
8
BLACK
6
CONTINUOUS
10
148.9161019999999951
20
-121.3817419999999885
11
149.1065779999999847
21
-121.2865039999999937
0
LINE
8
BLACK
6
CONTINUOUS
10
149.1065779999999847
20
-121.2865039999999937
11
149.3922929999999951
21
-121.2865039999999937
0
LINE
8
BLACK
6
CONTINUOUS
10
149.3922929999999951
20
-121.2865039999999937
11
149.5827689999999848
21
-121.3817419999999885
0
LINE
8
BLACK
6
CONTINUOUS
10
149.5827689999999848
20
-121.3817419999999885
11
149.6780069999999796
21
-121.5722189999999898
0
LINE
8
BLACK
6
CONTINUOUS
10
149.6780069999999796
20
-121.5722189999999898
11
149.6780069999999796
21
-122.6198380000000014
0
LINE
8
BLACK
6
CONTINUOUS
10
149.6780069999999796
20
-121.5722189999999898
11
149.7732450000000028
21
-121.3817419999999885
0
LINE
8
BLACK
6
CONTINUOUS
10
149.7732450000000028
20
-121.3817419999999885
11
149.9637209999999925
21
-121.2865039999999937
0
LINE
8
BLACK
6
CONTINUOUS
10
149.9637209999999925
20
-121.2865039999999937
11
150.2494350000000054
21
-121.2865039999999937
0
LINE
8
BLACK
6
CONTINUOUS
10
150.2494350000000054
20
-121.2865039999999937
11
150.4399119999999925
21
-121.3817419999999885
0
LINE
8
BLACK
6
CONTINUOUS
10
150.4399119999999925
20
-121.3817419999999885
11
150.5351499999999874
21
-121.5722189999999898
0
LINE
8
BLACK
6
CONTINUOUS
10
150.5351499999999874
20
-121.5722189999999898
11
150.5351499999999874
21
-122.6198380000000014
0
LINE
8
BLACK
6
CONTINUOUS
10
154.4399119999999925
20
-120.5245999999999924
11
152.7256270000000029
21
-123.0960279999999898
0
LINE
8
BLACK
6
CONTINUOUS
10
157.0113409999999874
20
-120.6198380000000014
11
157.2018180000000029
21
-120.6198380000000014
0
LINE
8
BLACK
6
CONTINUOUS
10
157.2018180000000029
20
-120.6198380000000014
11
157.3922939999999926
21
-120.7150759999999963
0
LINE
8
BLACK
6
CONTINUOUS
10
157.3922939999999926
20
-120.7150759999999963
11
157.4875319999999874
21
-120.8103139999999911
0
LINE
8
BLACK
6
CONTINUOUS
10
157.4875319999999874
20
-120.8103139999999911
11
157.5827699999999822
21
-121.000789999999995
0
LINE
8
BLACK
6
CONTINUOUS
10
157.5827699999999822
20
-121.000789999999995
11
157.6780080000000055
21
-121.3817419999999885
0
LINE
8
BLACK
6
CONTINUOUS
10
157.6780080000000055
20
-121.3817419999999885
11
157.6780080000000055
21
-121.8579329999999885
0
LINE
8
BLACK
6
CONTINUOUS
10
157.6780080000000055
20
-121.8579329999999885
11
157.5827699999999822
21
-122.2388849999999962
0
LINE
8
BLACK
6
CONTINUOUS
10
157.5827699999999822
20
-122.2388849999999962
11
157.4875319999999874
21
-122.4293610000000001
0
LINE
8
BLACK
6
CONTINUOUS
10
157.4875319999999874
20
-122.4293610000000001
11
157.3922939999999926
21
-122.5245999999999924
0
LINE
8
BLACK
6
CONTINUOUS
10
157.3922939999999926
20
-122.5245999999999924
11
157.2018180000000029
21
-122.6198380000000014
0
LINE
8
BLACK
6
CONTINUOUS
10
157.2018180000000029
20
-122.6198380000000014
11
157.0113409999999874
21
-122.6198380000000014
0
LINE
8
BLACK
6
CONTINUOUS
10
157.0113409999999874
20
-122.6198380000000014
11
156.8208649999999977
21
-122.5245999999999924
0
LINE
8
BLACK
6
CONTINUOUS
10
156.8208649999999977
20
-122.5245999999999924
11
156.7256270000000029
21
-122.4293610000000001
0
LINE
8
BLACK
6
CONTINUOUS
10
156.7256270000000029
20
-122.4293610000000001
11
156.6303889999999797
21
-122.2388849999999962
0
LINE
8
BLACK
6
CONTINUOUS
10
156.6303889999999797
20
-122.2388849999999962
11
156.5351509999999848
21
-121.8579329999999885
0
LINE
8
BLACK
6
CONTINUOUS
10
156.5351509999999848
20
-121.8579329999999885
11
156.5351509999999848
21
-121.3817419999999885
0
LINE
8
BLACK
6
CONTINUOUS
10
156.5351509999999848
20
-121.3817419999999885
11
156.6303889999999797
21
-121.000789999999995
0
LINE
8
BLACK
6
CONTINUOUS
10
156.6303889999999797
20
-121.000789999999995
11
156.7256270000000029
21
-120.8103139999999911
0
LINE
8
BLACK
6
CONTINUOUS
10
156.7256270000000029
20
-120.8103139999999911
11
156.8208649999999977
21
-120.7150759999999963
0
LINE
8
BLACK
6
CONTINUOUS
10
156.8208649999999977
20
-120.7150759999999963
11
157.0113409999999874
21
-120.6198380000000014
0
LINE
8
BLACK
6
CONTINUOUS
10
158.5351509999999848
20
-122.4293610000000001
11
158.6303889999999797
21
-122.5245999999999924
0
LINE
8
BLACK
6
CONTINUOUS
10
158.6303889999999797
20
-122.5245999999999924
11
158.5351509999999848
21
-122.6198380000000014
0
LINE
8
BLACK
6
CONTINUOUS
10
158.5351509999999848
20
-122.6198380000000014
11
158.43991299999999
21
-122.5245999999999924
0
LINE
8
BLACK
6
CONTINUOUS
10
158.43991299999999
20
-122.5245999999999924
11
158.5351509999999848
21
-122.4293610000000001
0
LINE
8
BLACK
6
CONTINUOUS
10
158.5351509999999848
20
-122.4293610000000001
11
158.5351509999999848
21
-122.6198380000000014
0
LINE
8
BLACK
6
CONTINUOUS
10
159.8684839999999951
20
-120.6198380000000014
11
160.0589609999999823
21
-120.6198380000000014
0
LINE
8
BLACK
6
CONTINUOUS
10
160.0589609999999823
20
-120.6198380000000014
11
160.2494370000000004
21
-120.7150759999999963
0
LINE
8
BLACK
6
CONTINUOUS
10
160.2494370000000004
20
-120.7150759999999963
11
160.3446749999999952
21
-120.8103139999999911
0
LINE
8
BLACK
6
CONTINUOUS
10
160.3446749999999952
20
-120.8103139999999911
11
160.43991299999999
21
-121.000789999999995
0
LINE
8
BLACK
6
CONTINUOUS
10
160.43991299999999
20
-121.000789999999995
11
160.5351509999999848
21
-121.3817419999999885
0
LINE
8
BLACK
6
CONTINUOUS
10
160.5351509999999848
20
-121.3817419999999885
11
160.5351509999999848
21
-121.8579329999999885
0
LINE
8
BLACK
6
CONTINUOUS
10
160.5351509999999848
20
-121.8579329999999885
11
160.43991299999999
21
-122.2388849999999962
0
LINE
8
BLACK
6
CONTINUOUS
10
160.43991299999999
20
-122.2388849999999962
11
160.3446749999999952
21
-122.4293610000000001
0
LINE
8
BLACK
6
CONTINUOUS
10
160.3446749999999952
20
-122.4293610000000001
11
160.2494370000000004
21
-122.5245999999999924
0
LINE
8
BLACK
6
CONTINUOUS
10
160.2494370000000004
20
-122.5245999999999924
11
160.0589609999999823
21
-122.6198380000000014
0
LINE
8
BLACK
6
CONTINUOUS
10
160.0589609999999823
20
-122.6198380000000014
11
159.8684839999999951
21
-122.6198380000000014
0
LINE
8
BLACK
6
CONTINUOUS
10
159.8684839999999951
20
-122.6198380000000014
11
159.6780080000000055
21
-122.5245999999999924
0
LINE
8
BLACK
6
CONTINUOUS
10
159.6780080000000055
20
-122.5245999999999924
11
159.5827699999999822
21
-122.4293610000000001
0
LINE
8
BLACK
6
CONTINUOUS
10
159.5827699999999822
20
-122.4293610000000001
11
159.4875319999999874
21
-122.2388849999999962
0
LINE
8
BLACK
6
CONTINUOUS
10
159.4875319999999874
20
-122.2388849999999962
11
159.3922939999999926
21
-121.8579329999999885
0
LINE
8
BLACK
6
CONTINUOUS
10
159.3922939999999926
20
-121.8579329999999885
11
159.3922939999999926
21
-121.3817419999999885
0
LINE
8
BLACK
6
CONTINUOUS
10
159.3922939999999926
20
-121.3817419999999885
11
159.4875319999999874
21
-121.000789999999995
0
LINE
8
BLACK
6
CONTINUOUS
10
159.4875319999999874
20
-121.000789999999995
11
159.5827699999999822
21
-120.8103139999999911
0
LINE
8
BLACK
6
CONTINUOUS
10
159.5827699999999822
20
-120.8103139999999911
11
159.6780080000000055
21
-120.7150759999999963
0
LINE
8
BLACK
6
CONTINUOUS
10
159.6780080000000055
20
-120.7150759999999963
11
159.8684839999999951
21
-120.6198380000000014
0
LINE
8
BLACK
6
CONTINUOUS
10
161.2018180000000029
20
-120.6198380000000014
11
162.43991299999999
21
-120.6198380000000014
0
LINE
8
BLACK
6
CONTINUOUS
10
162.43991299999999
20
-120.6198380000000014
11
161.7732460000000003
21
-121.3817419999999885
0
LINE
8
BLACK
6
CONTINUOUS
10
161.7732460000000003
20
-121.3817419999999885
11
162.0589609999999823
21
-121.3817419999999885
0
LINE
8
BLACK
6
CONTINUOUS
10
162.0589609999999823
20
-121.3817419999999885
11
162.2494370000000004
21
-121.4769799999999975
0
LINE
8
BLACK
6
CONTINUOUS
10
162.2494370000000004
20
-121.4769799999999975
11
162.3446749999999952
21
-121.5722189999999898
0
LINE
8
BLACK
6
CONTINUOUS
10
162.3446749999999952
20
-121.5722189999999898
11
162.43991299999999
21
-121.7626949999999937
0
LINE
8
BLACK
6
CONTINUOUS
10
162.43991299999999
20
-121.7626949999999937
11
162.43991299999999
21
-122.2388849999999962
0
LINE
8
BLACK
6
CONTINUOUS
10
162.43991299999999
20
-122.2388849999999962
11
162.3446749999999952
21
-122.4293610000000001
0
LINE
8
BLACK
6
CONTINUOUS
10
162.3446749999999952
20
-122.4293610000000001
11
162.2494370000000004
21
-122.5245999999999924
0
LINE
8
BLACK
6
CONTINUOUS
10
162.2494370000000004
20
-122.5245999999999924
11
162.0589609999999823
21
-122.6198380000000014
0
LINE
8
BLACK
6
CONTINUOUS
10
162.0589609999999823
20
-122.6198380000000014
11
161.4875319999999874
21
-122.6198380000000014
0
LINE
8
BLACK
6
CONTINUOUS
10
161.4875319999999874
20
-122.6198380000000014
11
161.2970559999999978
21
-122.5245999999999924
0
LINE
8
BLACK
6
CONTINUOUS
10
161.2970559999999978
20
-122.5245999999999924
11
161.2018180000000029
21
-122.4293610000000001
0
LINE
8
BLACK
6
CONTINUOUS
10
163.3922939999999926
20
-122.6198380000000014
11
163.7732460000000003
21
-122.6198380000000014
0
LINE
8
BLACK
6
CONTINUOUS
10
163.7732460000000003
20
-122.6198380000000014
11
163.9637229999999875
21
-122.5245999999999924
0
LINE
8
BLACK
6
CONTINUOUS
10
163.9637229999999875
20
-122.5245999999999924
11
164.0589609999999823
21
-122.4293610000000001
0
LINE
8
BLACK
6
CONTINUOUS
10
164.0589609999999823
20
-122.4293610000000001
11
164.2494370000000004
21
-122.1436470000000014
0
LINE
8
BLACK
6
CONTINUOUS
10
164.2494370000000004
20
-122.1436470000000014
11
164.3446749999999952
21
-121.7626949999999937
0
LINE
8
BLACK
6
CONTINUOUS
10
164.3446749999999952
20
-121.7626949999999937
11
164.3446749999999952
21
-121.000789999999995
0
LINE
8
BLACK
6
CONTINUOUS
10
164.3446749999999952
20
-121.000789999999995
11
164.2494370000000004
21
-120.8103139999999911
0
LINE
8
BLACK
6
CONTINUOUS
10
164.2494370000000004
20
-120.8103139999999911
11
164.1541990000000055
21
-120.7150759999999963
0
LINE
8
BLACK
6
CONTINUOUS
10
164.1541990000000055
20
-120.7150759999999963
11
163.9637229999999875
21
-120.6198380000000014
0
LINE
8
BLACK
6
CONTINUOUS
10
163.9637229999999875
20
-120.6198380000000014
11
163.5827699999999822
21
-120.6198380000000014
0
LINE
8
BLACK
6
CONTINUOUS
10
163.5827699999999822
20
-120.6198380000000014
11
163.3922939999999926
21
-120.7150759999999963
0
LINE
8
BLACK
6
CONTINUOUS
10
163.3922939999999926
20
-120.7150759999999963
11
163.2970559999999978
21
-120.8103139999999911
0
LINE
8
BLACK
6
CONTINUOUS
10
163.2970559999999978
20
-120.8103139999999911
11
163.2018180000000029
21
-121.000789999999995
0
LINE
8
BLACK
6
CONTINUOUS
10
163.2018180000000029
20
-121.000789999999995
11
163.2018180000000029
21
-121.4769799999999975
0
LINE
8
BLACK
6
CONTINUOUS
10
163.2018180000000029
20
-121.4769799999999975
11
163.2970559999999978
21
-121.6674569999999989
0
LINE
8
BLACK
6
CONTINUOUS
10
163.2970559999999978
20
-121.6674569999999989
11
163.3922939999999926
21
-121.7626949999999937
0
LINE
8
BLACK
6
CONTINUOUS
10
163.3922939999999926
20
-121.7626949999999937
11
163.5827699999999822
21
-121.8579329999999885
0
LINE
8
BLACK
6
CONTINUOUS
10
163.5827699999999822
20
-121.8579329999999885
11
163.9637229999999875
21
-121.8579329999999885
0
LINE
8
BLACK
6
CONTINUOUS
10
163.9637229999999875
20
-121.8579329999999885
11
164.1541990000000055
21
-121.7626949999999937
0
LINE
8
BLACK
6
CONTINUOUS
10
164.1541990000000055
20
-121.7626949999999937
11
164.2494370000000004
21
-121.6674569999999989
0
LINE
8
BLACK
6
CONTINUOUS
10
164.2494370000000004
20
-121.6674569999999989
11
164.3446749999999952
21
-121.4769799999999975
0
LINE
8
BLACK
6
CONTINUOUS
10
166.0589609999999823
20
-121.2865039999999937
11
166.0589609999999823
21
-122.6198380000000014
0
LINE
8
BLACK
6
CONTINUOUS
10
165.5827699999999822
20
-120.5245999999999924
11
165.1065799999999797
21
-121.9531709999999975
0
LINE
8
BLACK
6
CONTINUOUS
10
165.1065799999999797
20
-121.9531709999999975
11
166.3446749999999952
21
-121.9531709999999975
0
LINE
8
BLACK
6
CONTINUOUS
10
167.0113419999999849
20
-120.6198380000000014
11
167.0113419999999849
21
-121.000789999999995
0
LINE
8
BLACK
6
CONTINUOUS
10
167.7732469999999978
20
-120.6198380000000014
11
167.7732469999999978
21
-121.000789999999995
0
LINE
8
BLACK
6
CONTINUOUS
10
170.7256289999999979
20
-123.3817419999999885
11
170.6303900000000056
21
-123.2865039999999937
0
LINE
8
BLACK
6
CONTINUOUS
10
170.6303900000000056
20
-123.2865039999999937
11
170.4399139999999875
21
-123.000789999999995
0
LINE
8
BLACK
6
CONTINUOUS
10
170.4399139999999875
20
-123.000789999999995
11
170.3446759999999927
21
-122.8103139999999911
0
LINE
8
BLACK
6
CONTINUOUS
10
170.3446759999999927
20
-122.8103139999999911
11
170.2494379999999978
21
-122.5245999999999924
0
LINE
8
BLACK
6
CONTINUOUS
10
170.2494379999999978
20
-122.5245999999999924
11
170.154200000000003
21
-122.0484089999999924
0
LINE
8
BLACK
6
CONTINUOUS
10
170.154200000000003
20
-122.0484089999999924
11
170.154200000000003
21
-121.6674569999999989
0
LINE
8
BLACK
6
CONTINUOUS
10
170.154200000000003
20
-121.6674569999999989
11
170.2494379999999978
21
-121.1912659999999988
0
LINE
8
BLACK
6
CONTINUOUS
10
170.2494379999999978
20
-121.1912659999999988
11
170.3446759999999927
21
-120.9055520000000001
0
LINE
8
BLACK
6
CONTINUOUS
10
170.3446759999999927
20
-120.9055520000000001
11
170.4399139999999875
21
-120.7150759999999963
0
LINE
8
BLACK
6
CONTINUOUS
10
170.4399139999999875
20
-120.7150759999999963
11
170.6303900000000056
21
-120.4293610000000001
0
LINE
8
BLACK
6
CONTINUOUS
10
170.6303900000000056
20
-120.4293610000000001
11
170.7256289999999979
21
-120.3341229999999911
0
LINE
8
BLACK
6
CONTINUOUS
10
171.2970569999999952
20
-120.6198380000000014
11
172.5351519999999823
21
-120.6198380000000014
0
LINE
8
BLACK
6
CONTINUOUS
10
172.5351519999999823
20
-120.6198380000000014
11
171.8684849999999926
21
-121.3817419999999885
0
LINE
8
BLACK
6
CONTINUOUS
10
171.8684849999999926
20
-121.3817419999999885
11
172.154200000000003
21
-121.3817419999999885
0
LINE
8
BLACK
6
CONTINUOUS
10
172.154200000000003
20
-121.3817419999999885
11
172.3446759999999927
21
-121.4769799999999975
0
LINE
8
BLACK
6
CONTINUOUS
10
172.3446759999999927
20
-121.4769799999999975
11
172.4399139999999875
21
-121.5722189999999898
0
LINE
8
BLACK
6
CONTINUOUS
10
172.4399139999999875
20
-121.5722189999999898
11
172.5351519999999823
21
-121.7626949999999937
0
LINE
8
BLACK
6
CONTINUOUS
10
172.5351519999999823
20
-121.7626949999999937
11
172.5351519999999823
21
-122.2388849999999962
0
LINE
8
BLACK
6
CONTINUOUS
10
172.5351519999999823
20
-122.2388849999999962
11
172.4399139999999875
21
-122.4293610000000001
0
LINE
8
BLACK
6
CONTINUOUS
10
172.4399139999999875
20
-122.4293610000000001
11
172.3446759999999927
21
-122.5245999999999924
0
LINE
8
BLACK
6
CONTINUOUS
10
172.3446759999999927
20
-122.5245999999999924
11
172.154200000000003
21
-122.6198380000000014
0
LINE
8
BLACK
6
CONTINUOUS
10
172.154200000000003
20
-122.6198380000000014
11
171.5827709999999797
21
-122.6198380000000014
0
LINE
8
BLACK
6
CONTINUOUS
10
171.5827709999999797
20
-122.6198380000000014
11
171.3922949999999901
21
-122.5245999999999924
0
LINE
8
BLACK
6
CONTINUOUS
10
171.3922949999999901
20
-122.5245999999999924
11
171.2970569999999952
21
-122.4293610000000001
0
LINE
8
BLACK
6
CONTINUOUS
10
173.7732469999999978
20
-120.6198380000000014
11
173.9637239999999849
21
-120.6198380000000014
0
LINE
8
BLACK
6
CONTINUOUS
10
173.9637239999999849
20
-120.6198380000000014
11
174.154200000000003
21
-120.7150759999999963
0
LINE
8
BLACK
6
CONTINUOUS
10
174.154200000000003
20
-120.7150759999999963
11
174.2494379999999978
21
-120.8103139999999911
0
LINE
8
BLACK
6
CONTINUOUS
10
174.2494379999999978
20
-120.8103139999999911
11
174.3446759999999927
21
-121.000789999999995
0
LINE
8
BLACK
6
CONTINUOUS
10
174.3446759999999927
20
-121.000789999999995
11
174.4399139999999875
21
-121.3817419999999885
0
LINE
8
BLACK
6
CONTINUOUS
10
174.4399139999999875
20
-121.3817419999999885
11
174.4399139999999875
21
-121.8579329999999885
0
LINE
8
BLACK
6
CONTINUOUS
10
174.4399139999999875
20
-121.8579329999999885
11
174.3446759999999927
21
-122.2388849999999962
0
LINE
8
BLACK
6
CONTINUOUS
10
174.3446759999999927
20
-122.2388849999999962
11
174.2494379999999978
21
-122.4293610000000001
0
LINE
8
BLACK
6
CONTINUOUS
10
174.2494379999999978
20
-122.4293610000000001
11
174.154200000000003
21
-122.5245999999999924
0
LINE
8
BLACK
6
CONTINUOUS
10
174.154200000000003
20
-122.5245999999999924
11
173.9637239999999849
21
-122.6198380000000014
0
LINE
8
BLACK
6
CONTINUOUS
10
173.9637239999999849
20
-122.6198380000000014
11
173.7732469999999978
21
-122.6198380000000014
0
LINE
8
BLACK
6
CONTINUOUS
10
173.7732469999999978
20
-122.6198380000000014
11
173.5827709999999797
21
-122.5245999999999924
0
LINE
8
BLACK
6
CONTINUOUS
10
173.5827709999999797
20
-122.5245999999999924
11
173.4875329999999849
21
-122.4293610000000001
0
LINE
8
BLACK
6
CONTINUOUS
10
173.4875329999999849
20
-122.4293610000000001
11
173.3922949999999901
21
-122.2388849999999962
0
LINE
8
BLACK
6
CONTINUOUS
10
173.3922949999999901
20
-122.2388849999999962
11
173.2970569999999952
21
-121.8579329999999885
0
LINE
8
BLACK
6
CONTINUOUS
10
173.2970569999999952
20
-121.8579329999999885
11
173.2970569999999952
21
-121.3817419999999885
0
LINE
8
BLACK
6
CONTINUOUS
10
173.2970569999999952
20
-121.3817419999999885
11
173.3922949999999901
21
-121.000789999999995
0
LINE
8
BLACK
6
CONTINUOUS
10
173.3922949999999901
20
-121.000789999999995
11
173.4875329999999849
21
-120.8103139999999911
0
LINE
8
BLACK
6
CONTINUOUS
10
173.4875329999999849
20
-120.8103139999999911
11
173.5827709999999797
21
-120.7150759999999963
0
LINE
8
BLACK
6
CONTINUOUS
10
173.5827709999999797
20
-120.7150759999999963
11
173.7732469999999978
21
-120.6198380000000014
0
LINE
8
BLACK
6
CONTINUOUS
10
176.8208669999999927
20
-122.6198380000000014
11
176.8208669999999927
21
-120.6198380000000014
0
LINE
8
BLACK
6
CONTINUOUS
10
177.6780100000000004
20
-122.6198380000000014
11
177.6780100000000004
21
-121.5722189999999898
0
LINE
8
BLACK
6
CONTINUOUS
10
177.6780100000000004
20
-121.5722189999999898
11
177.5827720000000056
21
-121.3817419999999885
0
LINE
8
BLACK
6
CONTINUOUS
10
177.5827720000000056
20
-121.3817419999999885
11
177.3922959999999875
21
-121.2865039999999937
0
LINE
8
BLACK
6
CONTINUOUS
10
177.3922959999999875
20
-121.2865039999999937
11
177.1065810000000056
21
-121.2865039999999937
0
LINE
8
BLACK
6
CONTINUOUS
10
177.1065810000000056
20
-121.2865039999999937
11
176.9161049999999875
21
-121.3817419999999885
0
LINE
8
BLACK
6
CONTINUOUS
10
176.9161049999999875
20
-121.3817419999999885
11
176.8208669999999927
21
-121.4769799999999975
0
LINE
8
BLACK
6
CONTINUOUS
10
178.9161049999999875
20
-122.6198380000000014
11
178.7256289999999979
21
-122.5245999999999924
0
LINE
8
BLACK
6
CONTINUOUS
10
178.7256289999999979
20
-122.5245999999999924
11
178.630391000000003
21
-122.4293610000000001
0
LINE
8
BLACK
6
CONTINUOUS
10
178.630391000000003
20
-122.4293610000000001
11
178.5351529999999798
21
-122.2388849999999962
0
LINE
8
BLACK
6
CONTINUOUS
10
178.5351529999999798
20
-122.2388849999999962
11
178.5351529999999798
21
-121.6674569999999989
0
LINE
8
BLACK
6
CONTINUOUS
10
178.5351529999999798
20
-121.6674569999999989
11
178.630391000000003
21
-121.4769799999999975
0
LINE
8
BLACK
6
CONTINUOUS
10
178.630391000000003
20
-121.4769799999999975
11
178.7256289999999979
21
-121.3817419999999885
0
LINE
8
BLACK
6
CONTINUOUS
10
178.7256289999999979
20
-121.3817419999999885
11
178.9161049999999875
21
-121.2865039999999937
0
LINE
8
BLACK
6
CONTINUOUS
10
178.9161049999999875
20
-121.2865039999999937
11
179.2018199999999979
21
-121.2865039999999937
0
LINE
8
BLACK
6
CONTINUOUS
10
179.2018199999999979
20
-121.2865039999999937
11
179.3922959999999875
21
-121.3817419999999885
0
LINE
8
BLACK
6
CONTINUOUS
10
179.3922959999999875
20
-121.3817419999999885
11
179.4875339999999824
21
-121.4769799999999975
0
LINE
8
BLACK
6
CONTINUOUS
10
179.4875339999999824
20
-121.4769799999999975
11
179.5827720000000056
21
-121.6674569999999989
0
LINE
8
BLACK
6
CONTINUOUS
10
179.5827720000000056
20
-121.6674569999999989
11
179.5827720000000056
21
-122.2388849999999962
0
LINE
8
BLACK
6
CONTINUOUS
10
179.5827720000000056
20
-122.2388849999999962
11
179.4875339999999824
21
-122.4293610000000001
0
LINE
8
BLACK
6
CONTINUOUS
10
179.4875339999999824
20
-122.4293610000000001
11
179.3922959999999875
21
-122.5245999999999924
0
LINE
8
BLACK
6
CONTINUOUS
10
179.3922959999999875
20
-122.5245999999999924
11
179.2018199999999979
21
-122.6198380000000014
0
LINE
8
BLACK
6
CONTINUOUS
10
179.2018199999999979
20
-122.6198380000000014
11
178.9161049999999875
21
-122.6198380000000014
0
LINE
8
BLACK
6
CONTINUOUS
10
180.7256289999999979
20
-122.6198380000000014
11
180.5351529999999798
21
-122.5245999999999924
0
LINE
8
BLACK
6
CONTINUOUS
10
180.5351529999999798
20
-122.5245999999999924
11
180.439914999999985
21
-122.3341229999999911
0
LINE
8
BLACK
6
CONTINUOUS
10
180.439914999999985
20
-122.3341229999999911
11
180.439914999999985
21
-120.6198380000000014
0
LINE
8
BLACK
6
CONTINUOUS
10
182.2494389999999953
20
-122.5245999999999924
11
182.0589630000000056
21
-122.6198380000000014
0
LINE
8
BLACK
6
CONTINUOUS
10
182.0589630000000056
20
-122.6198380000000014
11
181.6780100000000004
21
-122.6198380000000014
0
LINE
8
BLACK
6
CONTINUOUS
10
181.6780100000000004
20
-122.6198380000000014
11
181.4875339999999824
21
-122.5245999999999924
0
LINE
8
BLACK
6
CONTINUOUS
10
181.4875339999999824
20
-122.5245999999999924
11
181.3922959999999875
21
-122.3341229999999911
0
LINE
8
BLACK
6
CONTINUOUS
10
181.3922959999999875
20
-122.3341229999999911
11
181.3922959999999875
21
-121.5722189999999898
0
LINE
8
BLACK
6
CONTINUOUS
10
181.3922959999999875
20
-121.5722189999999898
11
181.4875339999999824
21
-121.3817419999999885
0
LINE
8
BLACK
6
CONTINUOUS
10
181.4875339999999824
20
-121.3817419999999885
11
181.6780100000000004
21
-121.2865039999999937
0
LINE
8
BLACK
6
CONTINUOUS
10
181.6780100000000004
20
-121.2865039999999937
11
182.0589630000000056
21
-121.2865039999999937
0
LINE
8
BLACK
6
CONTINUOUS
10
182.0589630000000056
20
-121.2865039999999937
11
182.2494389999999953
21
-121.3817419999999885
0
LINE
8
BLACK
6
CONTINUOUS
10
182.2494389999999953
20
-121.3817419999999885
11
182.3446769999999901
21
-121.5722189999999898
0
LINE
8
BLACK
6
CONTINUOUS
10
182.3446769999999901
20
-121.5722189999999898
11
182.3446769999999901
21
-121.7626949999999937
0
LINE
8
BLACK
6
CONTINUOUS
10
182.3446769999999901
20
-121.7626949999999937
11
181.3922959999999875
21
-121.9531709999999975
0
LINE
8
BLACK
6
CONTINUOUS
10
183.1065820000000031
20
-122.5245999999999924
11
183.2970579999999927
21
-122.6198380000000014
0
LINE
8
BLACK
6
CONTINUOUS
10
183.2970579999999927
20
-122.6198380000000014
11
183.6780100000000004
21
-122.6198380000000014
0
LINE
8
BLACK
6
CONTINUOUS
10
183.6780100000000004
20
-122.6198380000000014
11
183.8684869999999876
21
-122.5245999999999924
0
LINE
8
BLACK
6
CONTINUOUS
10
183.8684869999999876
20
-122.5245999999999924
11
183.9637249999999824
21
-122.3341229999999911
0
LINE
8
BLACK
6
CONTINUOUS
10
183.9637249999999824
20
-122.3341229999999911
11
183.9637249999999824
21
-122.2388849999999962
0
LINE
8
BLACK
6
CONTINUOUS
10
183.9637249999999824
20
-122.2388849999999962
11
183.8684869999999876
21
-122.0484089999999924
0
LINE
8
BLACK
6
CONTINUOUS
10
183.8684869999999876
20
-122.0484089999999924
11
183.6780100000000004
21
-121.9531709999999975
0
LINE
8
BLACK
6
CONTINUOUS
10
183.6780100000000004
20
-121.9531709999999975
11
183.3922959999999875
21
-121.9531709999999975
0
LINE
8
BLACK
6
CONTINUOUS
10
183.3922959999999875
20
-121.9531709999999975
11
183.2018199999999979
21
-121.8579329999999885
0
LINE
8
BLACK
6
CONTINUOUS
10
183.2018199999999979
20
-121.8579329999999885
11
183.1065820000000031
21
-121.6674569999999989
0
LINE
8
BLACK
6
CONTINUOUS
10
183.1065820000000031
20
-121.6674569999999989
11
183.1065820000000031
21
-121.5722189999999898
0
LINE
8
BLACK
6
CONTINUOUS
10
183.1065820000000031
20
-121.5722189999999898
11
183.2018199999999979
21
-121.3817419999999885
0
LINE
8
BLACK
6
CONTINUOUS
10
183.2018199999999979
20
-121.3817419999999885
11
183.3922959999999875
21
-121.2865039999999937
0
LINE
8
BLACK
6
CONTINUOUS
10
183.3922959999999875
20
-121.2865039999999937
11
183.6780100000000004
21
-121.2865039999999937
0
LINE
8
BLACK
6
CONTINUOUS
10
183.6780100000000004
20
-121.2865039999999937
11
183.8684869999999876
21
-121.3817419999999885
0
LINE
8
BLACK
6
CONTINUOUS
10
184.6303920000000005
20
-123.3817419999999885
11
184.7256299999999953
21
-123.2865039999999937
0
LINE
8
BLACK
6
CONTINUOUS
10
184.7256299999999953
20
-123.2865039999999937
11
184.916105999999985
21
-123.000789999999995
0
LINE
8
BLACK
6
CONTINUOUS
10
184.916105999999985
20
-123.000789999999995
11
185.0113439999999798
21
-122.8103139999999911
0
LINE
8
BLACK
6
CONTINUOUS
10
185.0113439999999798
20
-122.8103139999999911
11
185.1065820000000031
21
-122.5245999999999924
0
LINE
8
BLACK
6
CONTINUOUS
10
185.1065820000000031
20
-122.5245999999999924
11
185.2018199999999979
21
-122.0484089999999924
0
LINE
8
BLACK
6
CONTINUOUS
10
185.2018199999999979
20
-122.0484089999999924
11
185.2018199999999979
21
-121.6674569999999989
0
LINE
8
BLACK
6
CONTINUOUS
10
185.2018199999999979
20
-121.6674569999999989
11
185.1065820000000031
21
-121.1912659999999988
0
LINE
8
BLACK
6
CONTINUOUS
10
185.1065820000000031
20
-121.1912659999999988
11
185.0113439999999798
21
-120.9055520000000001
0
LINE
8
BLACK
6
CONTINUOUS
10
185.0113439999999798
20
-120.9055520000000001
11
184.916105999999985
21
-120.7150759999999963
0
LINE
8
BLACK
6
CONTINUOUS
10
184.916105999999985
20
-120.7150759999999963
11
184.7256299999999953
21
-120.4293610000000001
0
LINE
8
BLACK
6
CONTINUOUS
10
184.7256299999999953
20
-120.4293610000000001
11
184.6303920000000005
21
-120.3341229999999911
0
LINE
8
BLACK
6
CONTINUOUS
10
134.6821139999999843
20
-125.0521139999999889
11
134.6821139999999843
21
-123.6378859999999946
0
LINE
8
BLACK
6
CONTINUOUS
10
134.6821139999999843
20
-123.6378859999999946
11
133.2678860000000043
21
-123.6378859999999946
0
LINE
8
BLACK
6
CONTINUOUS
10
133.2678860000000043
20
-123.6378859999999946
11
133.2678860000000043
21
-125.0521139999999889
0
LINE
8
BLACK
6
CONTINUOUS
10
133.2678860000000043
20
-125.0521139999999889
11
134.6821139999999843
21
-125.0521139999999889
0
LINE
8
BLACK
6
CONTINUOUS
10
137.3922919999999976
20
-123.2598379999999878
11
138.6303869999999847
21
-123.2598379999999878
0
LINE
8
BLACK
6
CONTINUOUS
10
138.6303869999999847
20
-123.2598379999999878
11
137.963719999999995
21
-124.021741999999989
0
LINE
8
BLACK
6
CONTINUOUS
10
137.963719999999995
20
-124.021741999999989
11
138.2494350000000054
21
-124.021741999999989
0
LINE
8
BLACK
6
CONTINUOUS
10
138.2494350000000054
20
-124.021741999999989
11
138.4399109999999951
21
-124.1169799999999981
0
LINE
8
BLACK
6
CONTINUOUS
10
138.4399109999999951
20
-124.1169799999999981
11
138.5351489999999899
21
-124.2122189999999904
0
LINE
8
BLACK
6
CONTINUOUS
10
138.5351489999999899
20
-124.2122189999999904
11
138.6303869999999847
21
-124.4026949999999943
0
LINE
8
BLACK
6
CONTINUOUS
10
138.6303869999999847
20
-124.4026949999999943
11
138.6303869999999847
21
-124.8788849999999968
0
LINE
8
BLACK
6
CONTINUOUS
10
138.6303869999999847
20
-124.8788849999999968
11
138.5351489999999899
21
-125.0693610000000007
0
LINE
8
BLACK
6
CONTINUOUS
10
138.5351489999999899
20
-125.0693610000000007
11
138.4399109999999951
21
-125.164599999999993
0
LINE
8
BLACK
6
CONTINUOUS
10
138.4399109999999951
20
-125.164599999999993
11
138.2494350000000054
21
-125.2598379999999878
0
LINE
8
BLACK
6
CONTINUOUS
10
138.2494350000000054
20
-125.2598379999999878
11
137.6780059999999821
21
-125.2598379999999878
0
LINE
8
BLACK
6
CONTINUOUS
10
137.6780059999999821
20
-125.2598379999999878
11
137.4875299999999925
21
-125.164599999999993
0
LINE
8
BLACK
6
CONTINUOUS
10
137.4875299999999925
20
-125.164599999999993
11
137.3922919999999976
21
-125.0693610000000007
0
LINE
8
BLACK
6
CONTINUOUS
10
139.4875299999999925
20
-125.0693610000000007
11
139.5827679999999873
21
-125.164599999999993
0
LINE
8
BLACK
6
CONTINUOUS
10
139.5827679999999873
20
-125.164599999999993
11
139.4875299999999925
21
-125.2598379999999878
0
LINE
8
BLACK
6
CONTINUOUS
10
139.4875299999999925
20
-125.2598379999999878
11
139.3922919999999976
21
-125.164599999999993
0
LINE
8
BLACK
6
CONTINUOUS
10
139.3922919999999976
20
-125.164599999999993
11
139.4875299999999925
21
-125.0693610000000007
0
LINE
8
BLACK
6
CONTINUOUS
10
139.4875299999999925
20
-125.0693610000000007
11
139.4875299999999925
21
-125.2598379999999878
0
LINE
8
BLACK
6
CONTINUOUS
10
140.3446730000000002
20
-123.4503139999999917
11
140.4399109999999951
21
-123.3550759999999968
0
LINE
8
BLACK
6
CONTINUOUS
10
140.4399109999999951
20
-123.3550759999999968
11
140.6303869999999847
21
-123.2598379999999878
0
LINE
8
BLACK
6
CONTINUOUS
10
140.6303869999999847
20
-123.2598379999999878
11
141.1065779999999847
21
-123.2598379999999878
0
LINE
8
BLACK
6
CONTINUOUS
10
141.1065779999999847
20
-123.2598379999999878
11
141.2970540000000028
21
-123.3550759999999968
0
LINE
8
BLACK
6
CONTINUOUS
10
141.2970540000000028
20
-123.3550759999999968
11
141.3922919999999976
21
-123.4503139999999917
0
LINE
8
BLACK
6
CONTINUOUS
10
141.3922919999999976
20
-123.4503139999999917
11
141.4875299999999925
21
-123.6407899999999955
0
LINE
8
BLACK
6
CONTINUOUS
10
141.4875299999999925
20
-123.6407899999999955
11
141.4875299999999925
21
-123.8312659999999994
0
LINE
8
BLACK
6
CONTINUOUS
10
141.4875299999999925
20
-123.8312659999999994
11
141.3922919999999976
21
-124.1169799999999981
0
LINE
8
BLACK
6
CONTINUOUS
10
141.3922919999999976
20
-124.1169799999999981
11
140.2494350000000054
21
-125.2598379999999878
0
LINE
8
BLACK
6
CONTINUOUS
10
140.2494350000000054
20
-125.2598379999999878
11
141.4875299999999925
21
-125.2598379999999878
0
LINE
8
BLACK
6
CONTINUOUS
10
142.7256249999999795
20
-123.2598379999999878
11
142.9161019999999951
21
-123.2598379999999878
0
LINE
8
BLACK
6
CONTINUOUS
10
142.9161019999999951
20
-123.2598379999999878
11
143.1065779999999847
21
-123.3550759999999968
0
LINE
8
BLACK
6
CONTINUOUS
10
143.1065779999999847
20
-123.3550759999999968
11
143.2018159999999796
21
-123.4503139999999917
0
LINE
8
BLACK
6
CONTINUOUS
10
143.2018159999999796
20
-123.4503139999999917
11
143.2970540000000028
21
-123.6407899999999955
0
LINE
8
BLACK
6
CONTINUOUS
10
143.2970540000000028
20
-123.6407899999999955
11
143.3922919999999976
21
-124.021741999999989
0
LINE
8
BLACK
6
CONTINUOUS
10
143.3922919999999976
20
-124.021741999999989
11
143.3922919999999976
21
-124.4979329999999891
0
LINE
8
BLACK
6
CONTINUOUS
10
143.3922919999999976
20
-124.4979329999999891
11
143.2970540000000028
21
-124.8788849999999968
0
LINE
8
BLACK
6
CONTINUOUS
10
143.2970540000000028
20
-124.8788849999999968
11
143.2018159999999796
21
-125.0693610000000007
0
LINE
8
BLACK
6
CONTINUOUS
10
143.2018159999999796
20
-125.0693610000000007
11
143.1065779999999847
21
-125.164599999999993
0
LINE
8
BLACK
6
CONTINUOUS
10
143.1065779999999847
20
-125.164599999999993
11
142.9161019999999951
21
-125.2598379999999878
0
LINE
8
BLACK
6
CONTINUOUS
10
142.9161019999999951
20
-125.2598379999999878
11
142.7256249999999795
21
-125.2598379999999878
0
LINE
8
BLACK
6
CONTINUOUS
10
142.7256249999999795
20
-125.2598379999999878
11
142.5351489999999899
21
-125.164599999999993
0
LINE
8
BLACK
6
CONTINUOUS
10
142.5351489999999899
20
-125.164599999999993
11
142.4399109999999951
21
-125.0693610000000007
0
LINE
8
BLACK
6
CONTINUOUS
10
142.4399109999999951
20
-125.0693610000000007
11
142.3446730000000002
21
-124.8788849999999968
0
LINE
8
BLACK
6
CONTINUOUS
10
142.3446730000000002
20
-124.8788849999999968
11
142.2494350000000054
21
-124.4979329999999891
0
LINE
8
BLACK
6
CONTINUOUS
10
142.2494350000000054
20
-124.4979329999999891
11
142.2494350000000054
21
-124.021741999999989
0
LINE
8
BLACK
6
CONTINUOUS
10
142.2494350000000054
20
-124.021741999999989
11
142.3446730000000002
21
-123.6407899999999955
0
LINE
8
BLACK
6
CONTINUOUS
10
142.3446730000000002
20
-123.6407899999999955
11
142.4399109999999951
21
-123.4503139999999917
0
LINE
8
BLACK
6
CONTINUOUS
10
142.4399109999999951
20
-123.4503139999999917
11
142.5351489999999899
21
-123.3550759999999968
0
LINE
8
BLACK
6
CONTINUOUS
10
142.5351489999999899
20
-123.3550759999999968
11
142.7256249999999795
21
-123.2598379999999878
0
LINE
8
BLACK
6
CONTINUOUS
10
144.6303869999999847
20
-123.2598379999999878
11
144.8208640000000003
21
-123.2598379999999878
0
LINE
8
BLACK
6
CONTINUOUS
10
144.8208640000000003
20
-123.2598379999999878
11
145.0113399999999899
21
-123.3550759999999968
0
LINE
8
BLACK
6
CONTINUOUS
10
145.0113399999999899
20
-123.3550759999999968
11
145.1065779999999847
21
-123.4503139999999917
0
LINE
8
BLACK
6
CONTINUOUS
10
145.1065779999999847
20
-123.4503139999999917
11
145.2018159999999796
21
-123.6407899999999955
0
LINE
8
BLACK
6
CONTINUOUS
10
145.2018159999999796
20
-123.6407899999999955
11
145.2970540000000028
21
-124.021741999999989
0
LINE
8
BLACK
6
CONTINUOUS
10
145.2970540000000028
20
-124.021741999999989
11
145.2970540000000028
21
-124.4979329999999891
0
LINE
8
BLACK
6
CONTINUOUS
10
145.2970540000000028
20
-124.4979329999999891
11
145.2018159999999796
21
-124.8788849999999968
0
LINE
8
BLACK
6
CONTINUOUS
10
145.2018159999999796
20
-124.8788849999999968
11
145.1065779999999847
21
-125.0693610000000007
0
LINE
8
BLACK
6
CONTINUOUS
10
145.1065779999999847
20
-125.0693610000000007
11
145.0113399999999899
21
-125.164599999999993
0
LINE
8
BLACK
6
CONTINUOUS
10
145.0113399999999899
20
-125.164599999999993
11
144.8208640000000003
21
-125.2598379999999878
0
LINE
8
BLACK
6
CONTINUOUS
10
144.8208640000000003
20
-125.2598379999999878
11
144.6303869999999847
21
-125.2598379999999878
0
LINE
8
BLACK
6
CONTINUOUS
10
144.6303869999999847
20
-125.2598379999999878
11
144.4399109999999951
21
-125.164599999999993
0
LINE
8
BLACK
6
CONTINUOUS
10
144.4399109999999951
20
-125.164599999999993
11
144.3446730000000002
21
-125.0693610000000007
0
LINE
8
BLACK
6
CONTINUOUS
10
144.3446730000000002
20
-125.0693610000000007
11
144.2494350000000054
21
-124.8788849999999968
0
LINE
8
BLACK
6
CONTINUOUS
10
144.2494350000000054
20
-124.8788849999999968
11
144.1541969999999822
21
-124.4979329999999891
0
LINE
8
BLACK
6
CONTINUOUS
10
144.1541969999999822
20
-124.4979329999999891
11
144.1541969999999822
21
-124.021741999999989
0
LINE
8
BLACK
6
CONTINUOUS
10
144.1541969999999822
20
-124.021741999999989
11
144.2494350000000054
21
-123.6407899999999955
0
LINE
8
BLACK
6
CONTINUOUS
10
144.2494350000000054
20
-123.6407899999999955
11
144.3446730000000002
21
-123.4503139999999917
0
LINE
8
BLACK
6
CONTINUOUS
10
144.3446730000000002
20
-123.4503139999999917
11
144.4399109999999951
21
-123.3550759999999968
0
LINE
8
BLACK
6
CONTINUOUS
10
144.4399109999999951
20
-123.3550759999999968
11
144.6303869999999847
21
-123.2598379999999878
0
LINE
8
BLACK
6
CONTINUOUS
10
146.1541969999999822
20
-125.2598379999999878
11
146.1541969999999822
21
-123.9265039999999942
0
LINE
8
BLACK
6
CONTINUOUS
10
146.1541969999999822
20
-124.1169799999999981
11
146.2494350000000054
21
-124.021741999999989
0
LINE
8
BLACK
6
CONTINUOUS
10
146.2494350000000054
20
-124.021741999999989
11
146.4399109999999951
21
-123.9265039999999942
0
LINE
8
BLACK
6
CONTINUOUS
10
146.4399109999999951
20
-123.9265039999999942
11
146.7256260000000054
21
-123.9265039999999942
0
LINE
8
BLACK
6
CONTINUOUS
10
146.7256260000000054
20
-123.9265039999999942
11
146.9161019999999951
21
-124.021741999999989
0
LINE
8
BLACK
6
CONTINUOUS
10
146.9161019999999951
20
-124.021741999999989
11
147.0113399999999899
21
-124.2122189999999904
0
LINE
8
BLACK
6
CONTINUOUS
10
147.0113399999999899
20
-124.2122189999999904
11
147.0113399999999899
21
-125.2598379999999878
0
LINE
8
BLACK
6
CONTINUOUS
10
147.0113399999999899
20
-124.2122189999999904
11
147.1065779999999847
21
-124.021741999999989
0
LINE
8
BLACK
6
CONTINUOUS
10
147.1065779999999847
20
-124.021741999999989
11
147.2970540000000028
21
-123.9265039999999942
0
LINE
8
BLACK
6
CONTINUOUS
10
147.2970540000000028
20
-123.9265039999999942
11
147.5827679999999873
21
-123.9265039999999942
0
LINE
8
BLACK
6
CONTINUOUS
10
147.5827679999999873
20
-123.9265039999999942
11
147.7732450000000028
21
-124.021741999999989
0
LINE
8
BLACK
6
CONTINUOUS
10
147.7732450000000028
20
-124.021741999999989
11
147.8684829999999977
21
-124.2122189999999904
0
LINE
8
BLACK
6
CONTINUOUS
10
147.8684829999999977
20
-124.2122189999999904
11
147.8684829999999977
21
-125.2598379999999878
0
LINE
8
BLACK
6
CONTINUOUS
10
148.8208640000000003
20
-125.2598379999999878
11
148.8208640000000003
21
-123.9265039999999942
0
LINE
8
BLACK
6
CONTINUOUS
10
148.8208640000000003
20
-124.1169799999999981
11
148.9161019999999951
21
-124.021741999999989
0
LINE
8
BLACK
6
CONTINUOUS
10
148.9161019999999951
20
-124.021741999999989
11
149.1065779999999847
21
-123.9265039999999942
0
LINE
8
BLACK
6
CONTINUOUS
10
149.1065779999999847
20
-123.9265039999999942
11
149.3922929999999951
21
-123.9265039999999942
0
LINE
8
BLACK
6
CONTINUOUS
10
149.3922929999999951
20
-123.9265039999999942
11
149.5827689999999848
21
-124.021741999999989
0
LINE
8
BLACK
6
CONTINUOUS
10
149.5827689999999848
20
-124.021741999999989
11
149.6780069999999796
21
-124.2122189999999904
0
LINE
8
BLACK
6
CONTINUOUS
10
149.6780069999999796
20
-124.2122189999999904
11
149.6780069999999796
21
-125.2598379999999878
0
LINE
8
BLACK
6
CONTINUOUS
10
149.6780069999999796
20
-124.2122189999999904
11
149.7732450000000028
21
-124.021741999999989
0
LINE
8
BLACK
6
CONTINUOUS
10
149.7732450000000028
20
-124.021741999999989
11
149.9637209999999925
21
-123.9265039999999942
0
LINE
8
BLACK
6
CONTINUOUS
10
149.9637209999999925
20
-123.9265039999999942
11
150.2494350000000054
21
-123.9265039999999942
0
LINE
8
BLACK
6
CONTINUOUS
10
150.2494350000000054
20
-123.9265039999999942
11
150.4399119999999925
21
-124.021741999999989
0
LINE
8
BLACK
6
CONTINUOUS
10
150.4399119999999925
20
-124.021741999999989
11
150.5351499999999874
21
-124.2122189999999904
0
LINE
8
BLACK
6
CONTINUOUS
10
150.5351499999999874
20
-124.2122189999999904
11
150.5351499999999874
21
-125.2598379999999878
0
LINE
8
BLACK
6
CONTINUOUS
10
154.4399119999999925
20
-123.164599999999993
11
152.7256270000000029
21
-125.7360279999999904
0
LINE
8
BLACK
6
CONTINUOUS
10
157.0113409999999874
20
-123.2598379999999878
11
157.2018180000000029
21
-123.2598379999999878
0
LINE
8
BLACK
6
CONTINUOUS
10
157.2018180000000029
20
-123.2598379999999878
11
157.3922939999999926
21
-123.3550759999999968
0
LINE
8
BLACK
6
CONTINUOUS
10
157.3922939999999926
20
-123.3550759999999968
11
157.4875319999999874
21
-123.4503139999999917
0
LINE
8
BLACK
6
CONTINUOUS
10
157.4875319999999874
20
-123.4503139999999917
11
157.5827699999999822
21
-123.6407899999999955
0
LINE
8
BLACK
6
CONTINUOUS
10
157.5827699999999822
20
-123.6407899999999955
11
157.6780080000000055
21
-124.021741999999989
0
LINE
8
BLACK
6
CONTINUOUS
10
157.6780080000000055
20
-124.021741999999989
11
157.6780080000000055
21
-124.4979329999999891
0
LINE
8
BLACK
6
CONTINUOUS
10
157.6780080000000055
20
-124.4979329999999891
11
157.5827699999999822
21
-124.8788849999999968
0
LINE
8
BLACK
6
CONTINUOUS
10
157.5827699999999822
20
-124.8788849999999968
11
157.4875319999999874
21
-125.0693610000000007
0
LINE
8
BLACK
6
CONTINUOUS
10
157.4875319999999874
20
-125.0693610000000007
11
157.3922939999999926
21
-125.164599999999993
0
LINE
8
BLACK
6
CONTINUOUS
10
157.3922939999999926
20
-125.164599999999993
11
157.2018180000000029
21
-125.2598379999999878
0
LINE
8
BLACK
6
CONTINUOUS
10
157.2018180000000029
20
-125.2598379999999878
11
157.0113409999999874
21
-125.2598379999999878
0
LINE
8
BLACK
6
CONTINUOUS
10
157.0113409999999874
20
-125.2598379999999878
11
156.8208649999999977
21
-125.164599999999993
0
LINE
8
BLACK
6
CONTINUOUS
10
156.8208649999999977
20
-125.164599999999993
11
156.7256270000000029
21
-125.0693610000000007
0
LINE
8
BLACK
6
CONTINUOUS
10
156.7256270000000029
20
-125.0693610000000007
11
156.6303889999999797
21
-124.8788849999999968
0
LINE
8
BLACK
6
CONTINUOUS
10
156.6303889999999797
20
-124.8788849999999968
11
156.5351509999999848
21
-124.4979329999999891
0
LINE
8
BLACK
6
CONTINUOUS
10
156.5351509999999848
20
-124.4979329999999891
11
156.5351509999999848
21
-124.021741999999989
0
LINE
8
BLACK
6
CONTINUOUS
10
156.5351509999999848
20
-124.021741999999989
11
156.6303889999999797
21
-123.6407899999999955
0
LINE
8
BLACK
6
CONTINUOUS
10
156.6303889999999797
20
-123.6407899999999955
11
156.7256270000000029
21
-123.4503139999999917
0
LINE
8
BLACK
6
CONTINUOUS
10
156.7256270000000029
20
-123.4503139999999917
11
156.8208649999999977
21
-123.3550759999999968
0
LINE
8
BLACK
6
CONTINUOUS
10
156.8208649999999977
20
-123.3550759999999968
11
157.0113409999999874
21
-123.2598379999999878
0
LINE
8
BLACK
6
CONTINUOUS
10
158.5351509999999848
20
-125.0693610000000007
11
158.6303889999999797
21
-125.164599999999993
0
LINE
8
BLACK
6
CONTINUOUS
10
158.6303889999999797
20
-125.164599999999993
11
158.5351509999999848
21
-125.2598379999999878
0
LINE
8
BLACK
6
CONTINUOUS
10
158.5351509999999848
20
-125.2598379999999878
11
158.43991299999999
21
-125.164599999999993
0
LINE
8
BLACK
6
CONTINUOUS
10
158.43991299999999
20
-125.164599999999993
11
158.5351509999999848
21
-125.0693610000000007
0
LINE
8
BLACK
6
CONTINUOUS
10
158.5351509999999848
20
-125.0693610000000007
11
158.5351509999999848
21
-125.2598379999999878
0
LINE
8
BLACK
6
CONTINUOUS
10
160.5351509999999848
20
-125.2598379999999878
11
159.3922939999999926
21
-125.2598379999999878
0
LINE
8
BLACK
6
CONTINUOUS
10
159.96372199999999
20
-125.2598379999999878
11
159.96372199999999
21
-123.2598379999999878
0
LINE
8
BLACK
6
CONTINUOUS
10
159.96372199999999
20
-123.2598379999999878
11
159.7732460000000003
21
-123.5455520000000007
0
LINE
8
BLACK
6
CONTINUOUS
10
159.7732460000000003
20
-123.5455520000000007
11
159.5827699999999822
21
-123.7360279999999904
0
LINE
8
BLACK
6
CONTINUOUS
10
159.5827699999999822
20
-123.7360279999999904
11
159.3922939999999926
21
-123.8312659999999994
0
LINE
8
BLACK
6
CONTINUOUS
10
161.2970559999999978
20
-123.4503139999999917
11
161.3922939999999926
21
-123.3550759999999968
0
LINE
8
BLACK
6
CONTINUOUS
10
161.3922939999999926
20
-123.3550759999999968
11
161.5827699999999822
21
-123.2598379999999878
0
LINE
8
BLACK
6
CONTINUOUS
10
161.5827699999999822
20
-123.2598379999999878
11
162.0589609999999823
21
-123.2598379999999878
0
LINE
8
BLACK
6
CONTINUOUS
10
162.0589609999999823
20
-123.2598379999999878
11
162.2494370000000004
21
-123.3550759999999968
0
LINE
8
BLACK
6
CONTINUOUS
10
162.2494370000000004
20
-123.3550759999999968
11
162.3446749999999952
21
-123.4503139999999917
0
LINE
8
BLACK
6
CONTINUOUS
10
162.3446749999999952
20
-123.4503139999999917
11
162.43991299999999
21
-123.6407899999999955
0
LINE
8
BLACK
6
CONTINUOUS
10
162.43991299999999
20
-123.6407899999999955
11
162.43991299999999
21
-123.8312659999999994
0
LINE
8
BLACK
6
CONTINUOUS
10
162.43991299999999
20
-123.8312659999999994
11
162.3446749999999952
21
-124.1169799999999981
0
LINE
8
BLACK
6
CONTINUOUS
10
162.3446749999999952
20
-124.1169799999999981
11
161.2018180000000029
21
-125.2598379999999878
0
LINE
8
BLACK
6
CONTINUOUS
10
161.2018180000000029
20
-125.2598379999999878
11
162.43991299999999
21
-125.2598379999999878
0
LINE
8
BLACK
6
CONTINUOUS
10
164.1541990000000055
20
-123.2598379999999878
11
163.7732460000000003
21
-123.2598379999999878
0
LINE
8
BLACK
6
CONTINUOUS
10
163.7732460000000003
20
-123.2598379999999878
11
163.5827699999999822
21
-123.3550759999999968
0
LINE
8
BLACK
6
CONTINUOUS
10
163.5827699999999822
20
-123.3550759999999968
11
163.4875319999999874
21
-123.4503139999999917
0
LINE
8
BLACK
6
CONTINUOUS
10
163.4875319999999874
20
-123.4503139999999917
11
163.2970559999999978
21
-123.7360279999999904
0
LINE
8
BLACK
6
CONTINUOUS
10
163.2970559999999978
20
-123.7360279999999904
11
163.2018180000000029
21
-124.1169799999999981
0
LINE
8
BLACK
6
CONTINUOUS
10
163.2018180000000029
20
-124.1169799999999981
11
163.2018180000000029
21
-124.8788849999999968
0
LINE
8
BLACK
6
CONTINUOUS
10
163.2018180000000029
20
-124.8788849999999968
11
163.2970559999999978
21
-125.0693610000000007
0
LINE
8
BLACK
6
CONTINUOUS
10
163.2970559999999978
20
-125.0693610000000007
11
163.3922939999999926
21
-125.164599999999993
0
LINE
8
BLACK
6
CONTINUOUS
10
163.3922939999999926
20
-125.164599999999993
11
163.5827699999999822
21
-125.2598379999999878
0
LINE
8
BLACK
6
CONTINUOUS
10
163.5827699999999822
20
-125.2598379999999878
11
163.9637229999999875
21
-125.2598379999999878
0
LINE
8
BLACK
6
CONTINUOUS
10
163.9637229999999875
20
-125.2598379999999878
11
164.1541990000000055
21
-125.164599999999993
0
LINE
8
BLACK
6
CONTINUOUS
10
164.1541990000000055
20
-125.164599999999993
11
164.2494370000000004
21
-125.0693610000000007
0
LINE
8
BLACK
6
CONTINUOUS
10
164.2494370000000004
20
-125.0693610000000007
11
164.3446749999999952
21
-124.8788849999999968
0
LINE
8
BLACK
6
CONTINUOUS
10
164.3446749999999952
20
-124.8788849999999968
11
164.3446749999999952
21
-124.4026949999999943
0
LINE
8
BLACK
6
CONTINUOUS
10
164.3446749999999952
20
-124.4026949999999943
11
164.2494370000000004
21
-124.2122189999999904
0
LINE
8
BLACK
6
CONTINUOUS
10
164.2494370000000004
20
-124.2122189999999904
11
164.1541990000000055
21
-124.1169799999999981
0
LINE
8
BLACK
6
CONTINUOUS
10
164.1541990000000055
20
-124.1169799999999981
11
163.9637229999999875
21
-124.021741999999989
0
LINE
8
BLACK
6
CONTINUOUS
10
163.9637229999999875
20
-124.021741999999989
11
163.5827699999999822
21
-124.021741999999989
0
LINE
8
BLACK
6
CONTINUOUS
10
163.5827699999999822
20
-124.021741999999989
11
163.3922939999999926
21
-124.1169799999999981
0
LINE
8
BLACK
6
CONTINUOUS
10
163.3922939999999926
20
-124.1169799999999981
11
163.2970559999999978
21
-124.2122189999999904
0
LINE
8
BLACK
6
CONTINUOUS
10
163.2970559999999978
20
-124.2122189999999904
11
163.2018180000000029
21
-124.4026949999999943
0
LINE
8
BLACK
6
CONTINUOUS
10
165.5827699999999822
20
-123.2598379999999878
11
165.7732469999999978
21
-123.2598379999999878
0
LINE
8
BLACK
6
CONTINUOUS
10
165.7732469999999978
20
-123.2598379999999878
11
165.9637229999999875
21
-123.3550759999999968
0
LINE
8
BLACK
6
CONTINUOUS
10
165.9637229999999875
20
-123.3550759999999968
11
166.0589609999999823
21
-123.4503139999999917
0
LINE
8
BLACK
6
CONTINUOUS
10
166.0589609999999823
20
-123.4503139999999917
11
166.1541990000000055
21
-123.6407899999999955
0
LINE
8
BLACK
6
CONTINUOUS
10
166.1541990000000055
20
-123.6407899999999955
11
166.2494370000000004
21
-124.021741999999989
0
LINE
8
BLACK
6
CONTINUOUS
10
166.2494370000000004
20
-124.021741999999989
11
166.2494370000000004
21
-124.4979329999999891
0
LINE
8
BLACK
6
CONTINUOUS
10
166.2494370000000004
20
-124.4979329999999891
11
166.1541990000000055
21
-124.8788849999999968
0
LINE
8
BLACK
6
CONTINUOUS
10
166.1541990000000055
20
-124.8788849999999968
11
166.0589609999999823
21
-125.0693610000000007
0
LINE
8
BLACK
6
CONTINUOUS
10
166.0589609999999823
20
-125.0693610000000007
11
165.9637229999999875
21
-125.164599999999993
0
LINE
8
BLACK
6
CONTINUOUS
10
165.9637229999999875
20
-125.164599999999993
11
165.7732469999999978
21
-125.2598379999999878
0
LINE
8
BLACK
6
CONTINUOUS
10
165.7732469999999978
20
-125.2598379999999878
11
165.5827699999999822
21
-125.2598379999999878
0
LINE
8
BLACK
6
CONTINUOUS
10
165.5827699999999822
20
-125.2598379999999878
11
165.3922939999999926
21
-125.164599999999993
0
LINE
8
BLACK
6
CONTINUOUS
10
165.3922939999999926
20
-125.164599999999993
11
165.2970559999999978
21
-125.0693610000000007
0
LINE
8
BLACK
6
CONTINUOUS
10
165.2970559999999978
20
-125.0693610000000007
11
165.2018180000000029
21
-124.8788849999999968
0
LINE
8
BLACK
6
CONTINUOUS
10
165.2018180000000029
20
-124.8788849999999968
11
165.1065799999999797
21
-124.4979329999999891
0
LINE
8
BLACK
6
CONTINUOUS
10
165.1065799999999797
20
-124.4979329999999891
11
165.1065799999999797
21
-124.021741999999989
0
LINE
8
BLACK
6
CONTINUOUS
10
165.1065799999999797
20
-124.021741999999989
11
165.2018180000000029
21
-123.6407899999999955
0
LINE
8
BLACK
6
CONTINUOUS
10
165.2018180000000029
20
-123.6407899999999955
11
165.2970559999999978
21
-123.4503139999999917
0
LINE
8
BLACK
6
CONTINUOUS
10
165.2970559999999978
20
-123.4503139999999917
11
165.3922939999999926
21
-123.3550759999999968
0
LINE
8
BLACK
6
CONTINUOUS
10
165.3922939999999926
20
-123.3550759999999968
11
165.5827699999999822
21
-123.2598379999999878
0
LINE
8
BLACK
6
CONTINUOUS
10
167.0113419999999849
20
-123.2598379999999878
11
167.0113419999999849
21
-123.6407899999999955
0
LINE
8
BLACK
6
CONTINUOUS
10
167.7732469999999978
20
-123.2598379999999878
11
167.7732469999999978
21
-123.6407899999999955
0
LINE
8
BLACK
6
CONTINUOUS
10
170.7256289999999979
20
-126.021741999999989
11
170.6303900000000056
21
-125.9265039999999942
0
LINE
8
BLACK
6
CONTINUOUS
10
170.6303900000000056
20
-125.9265039999999942
11
170.4399139999999875
21
-125.6407899999999955
0
LINE
8
BLACK
6
CONTINUOUS
10
170.4399139999999875
20
-125.6407899999999955
11
170.3446759999999927
21
-125.4503139999999917
0
LINE
8
BLACK
6
CONTINUOUS
10
170.3446759999999927
20
-125.4503139999999917
11
170.2494379999999978
21
-125.164599999999993
0
LINE
8
BLACK
6
CONTINUOUS
10
170.2494379999999978
20
-125.164599999999993
11
170.154200000000003
21
-124.6884089999999929
0
LINE
8
BLACK
6
CONTINUOUS
10
170.154200000000003
20
-124.6884089999999929
11
170.154200000000003
21
-124.3074569999999994
0
LINE
8
BLACK
6
CONTINUOUS
10
170.154200000000003
20
-124.3074569999999994
11
170.2494379999999978
21
-123.8312659999999994
0
LINE
8
BLACK
6
CONTINUOUS
10
170.2494379999999978
20
-123.8312659999999994
11
170.3446759999999927
21
-123.5455520000000007
0
LINE
8
BLACK
6
CONTINUOUS
10
170.3446759999999927
20
-123.5455520000000007
11
170.4399139999999875
21
-123.3550759999999968
0
LINE
8
BLACK
6
CONTINUOUS
10
170.4399139999999875
20
-123.3550759999999968
11
170.6303900000000056
21
-123.0693610000000007
0
LINE
8
BLACK
6
CONTINUOUS
10
170.6303900000000056
20
-123.0693610000000007
11
170.7256289999999979
21
-122.9741229999999916
0
LINE
8
BLACK
6
CONTINUOUS
10
172.3446759999999927
20
-123.9265039999999942
11
172.3446759999999927
21
-125.2598379999999878
0
LINE
8
BLACK
6
CONTINUOUS
10
171.8684849999999926
20
-123.164599999999993
11
171.3922949999999901
21
-124.5931709999999981
0
LINE
8
BLACK
6
CONTINUOUS
10
171.3922949999999901
20
-124.5931709999999981
11
172.6303900000000056
21
-124.5931709999999981
0
LINE
8
BLACK
6
CONTINUOUS
10
174.9161049999999875
20
-125.2598379999999878
11
174.9161049999999875
21
-123.2598379999999878
0
LINE
8
BLACK
6
CONTINUOUS
10
175.7732479999999953
20
-125.2598379999999878
11
175.7732479999999953
21
-124.2122189999999904
0
LINE
8
BLACK
6
CONTINUOUS
10
175.7732479999999953
20
-124.2122189999999904
11
175.6780100000000004
21
-124.021741999999989
0
LINE
8
BLACK
6
CONTINUOUS
10
175.6780100000000004
20
-124.021741999999989
11
175.4875339999999824
21
-123.9265039999999942
0
LINE
8
BLACK
6
CONTINUOUS
10
175.4875339999999824
20
-123.9265039999999942
11
175.2018190000000004
21
-123.9265039999999942
0
LINE
8
BLACK
6
CONTINUOUS
10
175.2018190000000004
20
-123.9265039999999942
11
175.0113429999999823
21
-124.021741999999989
0
LINE
8
BLACK
6
CONTINUOUS
10
175.0113429999999823
20
-124.021741999999989
11
174.9161049999999875
21
-124.1169799999999981
0
LINE
8
BLACK
6
CONTINUOUS
10
177.0113429999999823
20
-125.2598379999999878
11
176.8208669999999927
21
-125.164599999999993
0
LINE
8
BLACK
6
CONTINUOUS
10
176.8208669999999927
20
-125.164599999999993
11
176.7256289999999979
21
-125.0693610000000007
0
LINE
8
BLACK
6
CONTINUOUS
10
176.7256289999999979
20
-125.0693610000000007
11
176.630391000000003
21
-124.8788849999999968
0
LINE
8
BLACK
6
CONTINUOUS
10
176.630391000000003
20
-124.8788849999999968
11
176.630391000000003
21
-124.3074569999999994
0
LINE
8
BLACK
6
CONTINUOUS
10
176.630391000000003
20
-124.3074569999999994
11
176.7256289999999979
21
-124.1169799999999981
0
LINE
8
BLACK
6
CONTINUOUS
10
176.7256289999999979
20
-124.1169799999999981
11
176.8208669999999927
21
-124.021741999999989
0
LINE
8
BLACK
6
CONTINUOUS
10
176.8208669999999927
20
-124.021741999999989
11
177.0113429999999823
21
-123.9265039999999942
0
LINE
8
BLACK
6
CONTINUOUS
10
177.0113429999999823
20
-123.9265039999999942
11
177.2970579999999927
21
-123.9265039999999942
0
LINE
8
BLACK
6
CONTINUOUS
10
177.2970579999999927
20
-123.9265039999999942
11
177.4875339999999824
21
-124.021741999999989
0
LINE
8
BLACK
6
CONTINUOUS
10
177.4875339999999824
20
-124.021741999999989
11
177.5827720000000056
21
-124.1169799999999981
0
LINE
8
BLACK
6
CONTINUOUS
10
177.5827720000000056
20
-124.1169799999999981
11
177.6780100000000004
21
-124.3074569999999994
0
LINE
8
BLACK
6
CONTINUOUS
10
177.6780100000000004
20
-124.3074569999999994
11
177.6780100000000004
21
-124.8788849999999968
0
LINE
8
BLACK
6
CONTINUOUS
10
177.6780100000000004
20
-124.8788849999999968
11
177.5827720000000056
21
-125.0693610000000007
0
LINE
8
BLACK
6
CONTINUOUS
10
177.5827720000000056
20
-125.0693610000000007
11
177.4875339999999824
21
-125.164599999999993
0
LINE
8
BLACK
6
CONTINUOUS
10
177.4875339999999824
20
-125.164599999999993
11
177.2970579999999927
21
-125.2598379999999878
0
LINE
8
BLACK
6
CONTINUOUS
10
177.2970579999999927
20
-125.2598379999999878
11
177.0113429999999823
21
-125.2598379999999878
0
LINE
8
BLACK
6
CONTINUOUS
10
178.8208669999999927
20
-125.2598379999999878
11
178.630391000000003
21
-125.164599999999993
0
LINE
8
BLACK
6
CONTINUOUS
10
178.630391000000003
20
-125.164599999999993
11
178.5351529999999798
21
-124.9741229999999916
0
LINE
8
BLACK
6
CONTINUOUS
10
178.5351529999999798
20
-124.9741229999999916
11
178.5351529999999798
21
-123.2598379999999878
0
LINE
8
BLACK
6
CONTINUOUS
10
180.3446769999999901
20
-125.164599999999993
11
180.1542010000000005
21
-125.2598379999999878
0
LINE
8
BLACK
6
CONTINUOUS
10
180.1542010000000005
20
-125.2598379999999878
11
179.7732479999999953
21
-125.2598379999999878
0
LINE
8
BLACK
6
CONTINUOUS
10
179.7732479999999953
20
-125.2598379999999878
11
179.5827720000000056
21
-125.164599999999993
0
LINE
8
BLACK
6
CONTINUOUS
10
179.5827720000000056
20
-125.164599999999993
11
179.4875339999999824
21
-124.9741229999999916
0
LINE
8
BLACK
6
CONTINUOUS
10
179.4875339999999824
20
-124.9741229999999916
11
179.4875339999999824
21
-124.2122189999999904
0
LINE
8
BLACK
6
CONTINUOUS
10
179.4875339999999824
20
-124.2122189999999904
11
179.5827720000000056
21
-124.021741999999989
0
LINE
8
BLACK
6
CONTINUOUS
10
179.5827720000000056
20
-124.021741999999989
11
179.7732479999999953
21
-123.9265039999999942
0
LINE
8
BLACK
6
CONTINUOUS
10
179.7732479999999953
20
-123.9265039999999942
11
180.1542010000000005
21
-123.9265039999999942
0
LINE
8
BLACK
6
CONTINUOUS
10
180.1542010000000005
20
-123.9265039999999942
11
180.3446769999999901
21
-124.021741999999989
0
LINE
8
BLACK
6
CONTINUOUS
10
180.3446769999999901
20
-124.021741999999989
11
180.439914999999985
21
-124.2122189999999904
0
LINE
8
BLACK
6
CONTINUOUS
10
180.439914999999985
20
-124.2122189999999904
11
180.439914999999985
21
-124.4026949999999943
0
LINE
8
BLACK
6
CONTINUOUS
10
180.439914999999985
20
-124.4026949999999943
11
179.4875339999999824
21
-124.5931709999999981
0
LINE
8
BLACK
6
CONTINUOUS
10
181.2018199999999979
20
-125.164599999999993
11
181.3922959999999875
21
-125.2598379999999878
0
LINE
8
BLACK
6
CONTINUOUS
10
181.3922959999999875
20
-125.2598379999999878
11
181.7732479999999953
21
-125.2598379999999878
0
LINE
8
BLACK
6
CONTINUOUS
10
181.7732479999999953
20
-125.2598379999999878
11
181.9637249999999824
21
-125.164599999999993
0
LINE
8
BLACK
6
CONTINUOUS
10
181.9637249999999824
20
-125.164599999999993
11
182.0589630000000056
21
-124.9741229999999916
0
LINE
8
BLACK
6
CONTINUOUS
10
182.0589630000000056
20
-124.9741229999999916
11
182.0589630000000056
21
-124.8788849999999968
0
LINE
8
BLACK
6
CONTINUOUS
10
182.0589630000000056
20
-124.8788849999999968
11
181.9637249999999824
21
-124.6884089999999929
0
LINE
8
BLACK
6
CONTINUOUS
10
181.9637249999999824
20
-124.6884089999999929
11
181.7732479999999953
21
-124.5931709999999981
0
LINE
8
BLACK
6
CONTINUOUS
10
181.7732479999999953
20
-124.5931709999999981
11
181.4875339999999824
21
-124.5931709999999981
0
LINE
8
BLACK
6
CONTINUOUS
10
181.4875339999999824
20
-124.5931709999999981
11
181.2970579999999927
21
-124.4979329999999891
0
LINE
8
BLACK
6
CONTINUOUS
10
181.2970579999999927
20
-124.4979329999999891
11
181.2018199999999979
21
-124.3074569999999994
0
LINE
8
BLACK
6
CONTINUOUS
10
181.2018199999999979
20
-124.3074569999999994
11
181.2018199999999979
21
-124.2122189999999904
0
LINE
8
BLACK
6
CONTINUOUS
10
181.2018199999999979
20
-124.2122189999999904
11
181.2970579999999927
21
-124.021741999999989
0
LINE
8
BLACK
6
CONTINUOUS
10
181.2970579999999927
20
-124.021741999999989
11
181.4875339999999824
21
-123.9265039999999942
0
LINE
8
BLACK
6
CONTINUOUS
10
181.4875339999999824
20
-123.9265039999999942
11
181.7732479999999953
21
-123.9265039999999942
0
LINE
8
BLACK
6
CONTINUOUS
10
181.7732479999999953
20
-123.9265039999999942
11
181.9637249999999824
21
-124.021741999999989
0
LINE
8
BLACK
6
CONTINUOUS
10
182.7256299999999953
20
-126.021741999999989
11
182.8208679999999902
21
-125.9265039999999942
0
LINE
8
BLACK
6
CONTINUOUS
10
182.8208679999999902
20
-125.9265039999999942
11
183.0113439999999798
21
-125.6407899999999955
0
LINE
8
BLACK
6
CONTINUOUS
10
183.0113439999999798
20
-125.6407899999999955
11
183.1065820000000031
21
-125.4503139999999917
0
LINE
8
BLACK
6
CONTINUOUS
10
183.1065820000000031
20
-125.4503139999999917
11
183.2018199999999979
21
-125.164599999999993
0
LINE
8
BLACK
6
CONTINUOUS
10
183.2018199999999979
20
-125.164599999999993
11
183.2970579999999927
21
-124.6884089999999929
0
LINE
8
BLACK
6
CONTINUOUS
10
183.2970579999999927
20
-124.6884089999999929
11
183.2970579999999927
21
-124.3074569999999994
0
LINE
8
BLACK
6
CONTINUOUS
10
183.2970579999999927
20
-124.3074569999999994
11
183.2018199999999979
21
-123.8312659999999994
0
LINE
8
BLACK
6
CONTINUOUS
10
183.2018199999999979
20
-123.8312659999999994
11
183.1065820000000031
21
-123.5455520000000007
0
LINE
8
BLACK
6
CONTINUOUS
10
183.1065820000000031
20
-123.5455520000000007
11
183.0113439999999798
21
-123.3550759999999968
0
LINE
8
BLACK
6
CONTINUOUS
10
183.0113439999999798
20
-123.3550759999999968
11
182.8208679999999902
21
-123.0693610000000007
0
LINE
8
BLACK
6
CONTINUOUS
10
182.8208679999999902
20
-123.0693610000000007
11
182.7256299999999953
21
-122.9741229999999916
  0
ENDSEC
  0
EOF
