%TF.GenerationSoftware,KiCad,Pcbnew,8.0.9-8.0.9-0~ubuntu20.04.1*%
%TF.CreationDate,2025-08-05T19:54:57+10:00*%
%TF.ProjectId,glowforge-psu-breakout,676c6f77-666f-4726-9765-2d7073752d62,rev?*%
%TF.SameCoordinates,Original*%
%TF.FileFunction,Copper,L2,Bot*%
%TF.FilePolarity,Positive*%
%FSLAX46Y46*%
G04 Gerber Fmt 4.6, Leading zero omitted, Abs format (unit mm)*
G04 Created by KiCad (PCBNEW 8.0.9-8.0.9-0~ubuntu20.04.1) date 2025-08-05 19:54:57*
%MOMM*%
%LPD*%
G01*
G04 APERTURE LIST*
%TA.AperFunction,ComponentPad*%
%ADD10R,1.700000X1.700000*%
%TD*%
%TA.AperFunction,ComponentPad*%
%ADD11O,1.700000X1.700000*%
%TD*%
%TA.AperFunction,ComponentPad*%
%ADD12C,3.600000*%
%TD*%
%TA.AperFunction,ConnectorPad*%
%ADD13C,5.600000*%
%TD*%
%TA.AperFunction,ComponentPad*%
%ADD14R,1.200000X1.200000*%
%TD*%
%TA.AperFunction,ComponentPad*%
%ADD15C,1.200000*%
%TD*%
%TA.AperFunction,Conductor*%
%ADD16C,0.500000*%
%TD*%
%TA.AperFunction,Conductor*%
%ADD17C,0.200000*%
%TD*%
G04 APERTURE END LIST*
D10*
%TO.P,J2,1,Pin_1*%
%TO.N,/HV_V*%
X178540000Y-90750000D03*
D11*
%TO.P,J2,2,Pin_2*%
%TO.N,+3V3*%
X176000000Y-90750000D03*
%TO.P,J2,3,Pin_3*%
%TO.N,GND*%
X173460000Y-90750000D03*
%TO.P,J2,4,Pin_4*%
X170920000Y-90750000D03*
%TO.P,J2,5,Pin_5*%
%TO.N,/INTAKE_FAN1_TACH*%
X168380000Y-90750000D03*
%TO.P,J2,6,Pin_6*%
%TO.N,/LASER_ON*%
X165840000Y-90750000D03*
%TO.P,J2,7,Pin_7*%
%TO.N,/HV_OK*%
X163300000Y-90750000D03*
%TO.P,J2,8,Pin_8*%
%TO.N,/HV_ENABLE*%
X160760000Y-90750000D03*
%TO.P,J2,9,Pin_9*%
%TO.N,+12V*%
X158220000Y-90750000D03*
%TO.P,J2,10,Pin_10*%
X155680000Y-90750000D03*
%TO.P,J2,11,Pin_11*%
%TO.N,GND*%
X153140000Y-90750000D03*
%TO.P,J2,12,Pin_12*%
%TO.N,/40VDC_ENABLE*%
X150600000Y-90750000D03*
%TO.P,J2,13,Pin_13*%
%TO.N,+40V*%
X148060000Y-90750000D03*
%TO.P,J2,14,Pin_14*%
%TO.N,GND*%
X145520000Y-90750000D03*
%TO.P,J2,15,Pin_15*%
X142980000Y-90750000D03*
%TD*%
D10*
%TO.P,J3,1,Pin_1*%
%TO.N,GND*%
X142940000Y-96250000D03*
D11*
%TO.P,J3,2,Pin_2*%
%TO.N,+40V*%
X145480000Y-96250000D03*
%TO.P,J3,3,Pin_3*%
X148020000Y-96250000D03*
%TO.P,J3,4,Pin_4*%
%TO.N,GND*%
X150560000Y-96250000D03*
%TO.P,J3,5,Pin_5*%
X153100000Y-96250000D03*
%TO.P,J3,6,Pin_6*%
%TO.N,+12V*%
X155640000Y-96250000D03*
%TO.P,J3,7,Pin_7*%
%TO.N,/12VDC_ENABLE*%
X158180000Y-96250000D03*
%TO.P,J3,8,Pin_8*%
%TO.N,/PWR_TEMP*%
X160720000Y-96250000D03*
%TO.P,J3,9,Pin_9*%
%TO.N,/LASER_PWM*%
X163260000Y-96250000D03*
%TO.P,J3,10,Pin_10*%
%TO.N,/INTAKE_FAN2_TACH*%
X165800000Y-96250000D03*
%TO.P,J3,11,Pin_11*%
%TO.N,/INTAKE_FANS_PWM*%
X168340000Y-96250000D03*
%TO.P,J3,12,Pin_12*%
%TO.N,GND*%
X170880000Y-96250000D03*
%TO.P,J3,13,Pin_13*%
%TO.N,+3V3*%
X173420000Y-96250000D03*
%TO.P,J3,14,Pin_14*%
X175960000Y-96250000D03*
%TO.P,J3,15,Pin_15*%
%TO.N,/HV_I*%
X178500000Y-96250000D03*
%TD*%
D12*
%TO.P,H3,1,1*%
%TO.N,GND*%
X138500000Y-121000000D03*
D13*
X138500000Y-121000000D03*
%TD*%
D12*
%TO.P,H4,1,1*%
%TO.N,GND*%
X183750000Y-121000000D03*
D13*
X183750000Y-121000000D03*
%TD*%
D14*
%TO.P,J4,1,1*%
%TO.N,GND*%
X146000000Y-112500000D03*
D15*
%TO.P,J4,2,2*%
X147000000Y-110500000D03*
%TO.P,J4,3,3*%
X148000000Y-112500000D03*
%TO.P,J4,4,4*%
%TO.N,+40V*%
X149000000Y-110500000D03*
%TO.P,J4,5,5*%
X150000000Y-112500000D03*
%TO.P,J4,6,6*%
X151000000Y-110500000D03*
%TO.P,J4,7,7*%
%TO.N,/40VDC_ENABLE*%
X152000000Y-112500000D03*
%TO.P,J4,8,8*%
%TO.N,GND*%
X153000000Y-110500000D03*
%TO.P,J4,9,9*%
X154000000Y-112500000D03*
%TO.P,J4,10,10*%
X155000000Y-110500000D03*
%TO.P,J4,11,11*%
%TO.N,+12V*%
X156000000Y-112500000D03*
%TO.P,J4,12,12*%
X157000000Y-110500000D03*
%TO.P,J4,13,13*%
X158000000Y-112500000D03*
%TO.P,J4,14,14*%
%TO.N,/12VDC_ENABLE*%
X159000000Y-110500000D03*
%TO.P,J4,15,15*%
%TO.N,/HV_ENABLE*%
X160000000Y-112500000D03*
%TO.P,J4,16,16*%
%TO.N,/PWR_TEMP*%
X161000000Y-110500000D03*
%TO.P,J4,17,17*%
%TO.N,/HV_OK*%
X162000000Y-112500000D03*
%TO.P,J4,18,18*%
%TO.N,/LASER_PWM*%
X163000000Y-110500000D03*
%TO.P,J4,19,19*%
%TO.N,/LASER_ON*%
X164000000Y-112500000D03*
%TO.P,J4,20,20*%
%TO.N,/INTAKE_FAN2_TACH*%
X165000000Y-110500000D03*
%TO.P,J4,21,21*%
%TO.N,/INTAKE_FAN1_TACH*%
X166000000Y-112500000D03*
%TO.P,J4,22,22*%
%TO.N,/INTAKE_FANS_PWM*%
X167000000Y-110500000D03*
%TO.P,J4,23,23*%
%TO.N,GND*%
X168000000Y-112500000D03*
%TO.P,J4,24,24*%
X169000000Y-110500000D03*
%TO.P,J4,25,25*%
X170000000Y-112500000D03*
%TO.P,J4,26,26*%
%TO.N,+3V3*%
X171000000Y-110500000D03*
%TO.P,J4,27,27*%
X172000000Y-112500000D03*
%TO.P,J4,28,28*%
X173000000Y-110500000D03*
%TO.P,J4,29,29*%
%TO.N,/HV_V*%
X174000000Y-112500000D03*
%TO.P,J4,30,30*%
%TO.N,/HV_I*%
X175000000Y-110500000D03*
%TD*%
D12*
%TO.P,H2,1,1*%
%TO.N,GND*%
X138500000Y-67500000D03*
D13*
X138500000Y-67500000D03*
%TD*%
D14*
%TO.P,J1,1,1*%
%TO.N,/HV_I*%
X175000000Y-75750000D03*
D15*
%TO.P,J1,2,2*%
%TO.N,/HV_V*%
X174000000Y-77750000D03*
%TO.P,J1,3,3*%
%TO.N,+3V3*%
X173000000Y-75750000D03*
%TO.P,J1,4,4*%
X172000000Y-77750000D03*
%TO.P,J1,5,5*%
X171000000Y-75750000D03*
%TO.P,J1,6,6*%
%TO.N,GND*%
X170000000Y-77750000D03*
%TO.P,J1,7,7*%
X169000000Y-75750000D03*
%TO.P,J1,8,8*%
X168000000Y-77750000D03*
%TO.P,J1,9,9*%
%TO.N,/INTAKE_FANS_PWM*%
X167000000Y-75750000D03*
%TO.P,J1,10,10*%
%TO.N,/INTAKE_FAN1_TACH*%
X166000000Y-77750000D03*
%TO.P,J1,11,11*%
%TO.N,/INTAKE_FAN2_TACH*%
X165000000Y-75750000D03*
%TO.P,J1,12,12*%
%TO.N,/LASER_ON*%
X164000000Y-77750000D03*
%TO.P,J1,13,13*%
%TO.N,/LASER_PWM*%
X163000000Y-75750000D03*
%TO.P,J1,14,14*%
%TO.N,/HV_OK*%
X162000000Y-77750000D03*
%TO.P,J1,15,15*%
%TO.N,/PWR_TEMP*%
X161000000Y-75750000D03*
%TO.P,J1,16,16*%
%TO.N,/HV_ENABLE*%
X160000000Y-77750000D03*
%TO.P,J1,17,17*%
%TO.N,/12VDC_ENABLE*%
X159000000Y-75750000D03*
%TO.P,J1,18,18*%
%TO.N,+12V*%
X158000000Y-77750000D03*
%TO.P,J1,19,19*%
X157000000Y-75750000D03*
%TO.P,J1,20,20*%
X156000000Y-77750000D03*
%TO.P,J1,21,21*%
%TO.N,GND*%
X155000000Y-75750000D03*
%TO.P,J1,22,22*%
X154000000Y-77750000D03*
%TO.P,J1,23,23*%
X153000000Y-75750000D03*
%TO.P,J1,24,24*%
%TO.N,/40VDC_ENABLE*%
X152000000Y-77750000D03*
%TO.P,J1,25,25*%
%TO.N,+40V*%
X151000000Y-75750000D03*
%TO.P,J1,26,26*%
X150000000Y-77750000D03*
%TO.P,J1,27,27*%
X149000000Y-75750000D03*
%TO.P,J1,28,28*%
%TO.N,GND*%
X148000000Y-77750000D03*
%TO.P,J1,29,29*%
X147000000Y-75750000D03*
%TO.P,J1,30,30*%
X146000000Y-77750000D03*
%TD*%
D12*
%TO.P,H1,1,1*%
%TO.N,GND*%
X183750000Y-67500000D03*
D13*
X183750000Y-67500000D03*
%TD*%
D16*
%TO.N,GND*%
X154000000Y-77750000D02*
X154000000Y-83250000D01*
X154000000Y-83250000D02*
X153140000Y-84110000D01*
X153140000Y-84110000D02*
X153140000Y-90750000D01*
%TO.N,+12V*%
X156000000Y-77750000D02*
X156000000Y-90430000D01*
X156000000Y-90430000D02*
X155680000Y-90750000D01*
%TO.N,+40V*%
X150000000Y-77750000D02*
X150000000Y-82250000D01*
X150000000Y-82250000D02*
X148060000Y-84190000D01*
X148060000Y-84190000D02*
X148060000Y-90750000D01*
%TO.N,GND*%
X142980000Y-90750000D02*
X145520000Y-90750000D01*
%TO.N,+3V3*%
X172000000Y-77750000D02*
X172000000Y-81750000D01*
X172000000Y-81750000D02*
X176000000Y-85750000D01*
X176000000Y-85750000D02*
X176000000Y-90750000D01*
%TO.N,GND*%
X170000000Y-77750000D02*
X170000000Y-83000000D01*
X170920000Y-83920000D02*
X170920000Y-90750000D01*
X170000000Y-83000000D02*
X170920000Y-83920000D01*
D17*
%TO.N,/INTAKE_FANS_PWM*%
X167000000Y-75750000D02*
X167000000Y-82500000D01*
X169530000Y-85030000D02*
X169530000Y-95060000D01*
X167000000Y-82500000D02*
X169530000Y-85030000D01*
X169530000Y-95060000D02*
X168340000Y-96250000D01*
%TO.N,/INTAKE_FAN1_TACH*%
X166000000Y-77750000D02*
X166000000Y-82500000D01*
X166000000Y-82500000D02*
X168380000Y-84880000D01*
X168380000Y-84880000D02*
X168380000Y-90750000D01*
%TO.N,/INTAKE_FAN2_TACH*%
X165000000Y-75750000D02*
X165000000Y-82500000D01*
X165000000Y-82500000D02*
X167000000Y-84500000D01*
X167000000Y-84500000D02*
X167000000Y-93000000D01*
X167000000Y-93000000D02*
X165800000Y-94200000D01*
X165800000Y-94200000D02*
X165800000Y-96250000D01*
%TO.N,/LASER_ON*%
X164000000Y-77750000D02*
X164000000Y-82500000D01*
X164000000Y-82500000D02*
X165840000Y-84340000D01*
X165840000Y-84340000D02*
X165840000Y-90750000D01*
%TO.N,/LASER_PWM*%
X163000000Y-75750000D02*
X163000000Y-82750000D01*
X163000000Y-82750000D02*
X164450000Y-84200000D01*
X164450000Y-84200000D02*
X164450000Y-93050000D01*
X164450000Y-93050000D02*
X163260000Y-94240000D01*
X163260000Y-94240000D02*
X163260000Y-96250000D01*
%TO.N,/PWR_TEMP*%
X161000000Y-75750000D02*
X161000000Y-83000000D01*
X162000000Y-92750000D02*
X160720000Y-94030000D01*
X161000000Y-83000000D02*
X162000000Y-84000000D01*
X160720000Y-94030000D02*
X160720000Y-96250000D01*
X162000000Y-84000000D02*
X162000000Y-92750000D01*
%TO.N,/HV_OK*%
X162000000Y-77750000D02*
X162000000Y-83000000D01*
X162000000Y-83000000D02*
X163300000Y-84300000D01*
X163300000Y-84300000D02*
X163300000Y-90750000D01*
%TO.N,/HV_ENABLE*%
X160000000Y-77750000D02*
X160000000Y-83250000D01*
X160000000Y-83250000D02*
X160760000Y-84010000D01*
X160760000Y-84010000D02*
X160760000Y-90750000D01*
%TO.N,/12VDC_ENABLE*%
X159000000Y-75750000D02*
X159000000Y-83500000D01*
X159000000Y-83500000D02*
X159500000Y-84000000D01*
X159500000Y-84000000D02*
X159500000Y-92500000D01*
X159500000Y-92500000D02*
X158180000Y-93820000D01*
X158180000Y-93820000D02*
X158180000Y-96250000D01*
%TO.N,/40VDC_ENABLE*%
X152000000Y-77750000D02*
X152000000Y-83000000D01*
X152000000Y-83000000D02*
X150600000Y-84400000D01*
X150600000Y-84400000D02*
X150600000Y-90750000D01*
%TO.N,/INTAKE_FAN1_TACH*%
X167190000Y-102310000D02*
X166000000Y-103500000D01*
X168380000Y-93060000D02*
X167190000Y-94250000D01*
X168380000Y-90750000D02*
X168380000Y-93060000D01*
D16*
%TO.N,GND*%
X170880000Y-90790000D02*
X170920000Y-90750000D01*
X170880000Y-96250000D02*
X170880000Y-90790000D01*
D17*
%TO.N,/HV_OK*%
X162000000Y-94000000D02*
X163300000Y-92700000D01*
%TO.N,/LASER_ON*%
X164410000Y-109590000D02*
X164410000Y-94090000D01*
%TO.N,/40VDC_ENABLE*%
X152000000Y-107500000D02*
X152000000Y-112500000D01*
%TO.N,/HV_V*%
X180500000Y-106848528D02*
X180500000Y-92710000D01*
D16*
%TO.N,GND*%
X142980000Y-80770000D02*
X146000000Y-77750000D01*
%TO.N,+3V3*%
X176000000Y-96210000D02*
X175960000Y-96250000D01*
%TO.N,+40V*%
X148060000Y-90750000D02*
X148060000Y-96210000D01*
D17*
%TO.N,/HV_V*%
X174000000Y-112500000D02*
X174848528Y-112500000D01*
X174848528Y-112500000D02*
X180500000Y-106848528D01*
%TO.N,/INTAKE_FAN1_TACH*%
X167190000Y-94250000D02*
X167190000Y-102310000D01*
X166000000Y-103500000D02*
X166000000Y-112500000D01*
%TO.N,/HV_ENABLE*%
X160000000Y-105250000D02*
X160000000Y-112500000D01*
%TO.N,/HV_V*%
X180500000Y-92710000D02*
X178540000Y-90750000D01*
%TO.N,/LASER_ON*%
X164000000Y-112500000D02*
X164000000Y-110000000D01*
D16*
%TO.N,GND*%
X142980000Y-90750000D02*
X142980000Y-96210000D01*
%TO.N,+3V3*%
X176000000Y-90750000D02*
X176000000Y-96210000D01*
%TO.N,GND*%
X153140000Y-90750000D02*
X153140000Y-96210000D01*
D17*
%TO.N,/40VDC_ENABLE*%
X150600000Y-90750000D02*
X149410000Y-91940000D01*
X149410000Y-91940000D02*
X149410000Y-104910000D01*
D16*
%TO.N,GND*%
X153140000Y-96210000D02*
X153100000Y-96250000D01*
D17*
%TO.N,/LASER_ON*%
X164000000Y-110000000D02*
X164410000Y-109590000D01*
X164410000Y-94090000D02*
X165840000Y-92660000D01*
X165840000Y-92660000D02*
X165840000Y-90750000D01*
%TO.N,/HV_OK*%
X162000000Y-112500000D02*
X162000000Y-94000000D01*
X163300000Y-92700000D02*
X163300000Y-90750000D01*
%TO.N,/HV_ENABLE*%
X160760000Y-90750000D02*
X160760000Y-92740000D01*
X160760000Y-92740000D02*
X159500000Y-94000000D01*
X159500000Y-94000000D02*
X159500000Y-104750000D01*
X159500000Y-104750000D02*
X160000000Y-105250000D01*
D16*
%TO.N,+12V*%
X155680000Y-90750000D02*
X155680000Y-96210000D01*
X155680000Y-96210000D02*
X155640000Y-96250000D01*
%TO.N,+40V*%
X148060000Y-96210000D02*
X148020000Y-96250000D01*
D17*
%TO.N,/40VDC_ENABLE*%
X149410000Y-104910000D02*
X152000000Y-107500000D01*
D16*
%TO.N,GND*%
X142980000Y-90750000D02*
X142980000Y-80770000D01*
X142980000Y-96210000D02*
X142940000Y-96250000D01*
D17*
%TO.N,/12VDC_ENABLE*%
X159000000Y-105500000D02*
X159000000Y-110500000D01*
%TO.N,/PWR_TEMP*%
X161000000Y-96530000D02*
X160720000Y-96250000D01*
%TO.N,/12VDC_ENABLE*%
X158180000Y-104680000D02*
X159000000Y-105500000D01*
X158180000Y-96250000D02*
X158180000Y-104680000D01*
D16*
%TO.N,GND*%
X150560000Y-104310000D02*
X153000000Y-106750000D01*
X153000000Y-106750000D02*
X153000000Y-110500000D01*
%TO.N,+40V*%
X149000000Y-106750000D02*
X149000000Y-110500000D01*
%TO.N,GND*%
X145000000Y-112500000D02*
X146000000Y-112500000D01*
%TO.N,+40V*%
X148020000Y-96250000D02*
X148020000Y-105770000D01*
%TO.N,+12V*%
X155640000Y-104640000D02*
X157000000Y-106000000D01*
%TO.N,GND*%
X142940000Y-96250000D02*
X142940000Y-110440000D01*
X170880000Y-103620000D02*
X169000000Y-105500000D01*
%TO.N,+40V*%
X148020000Y-96250000D02*
X145480000Y-96250000D01*
%TO.N,+12V*%
X155640000Y-96250000D02*
X155640000Y-104640000D01*
%TO.N,GND*%
X153100000Y-96250000D02*
X150560000Y-96250000D01*
D17*
%TO.N,/INTAKE_FANS_PWM*%
X167000000Y-104000000D02*
X168340000Y-102660000D01*
X167000000Y-110500000D02*
X167000000Y-104000000D01*
D16*
%TO.N,+3V3*%
X175960000Y-96250000D02*
X173420000Y-96250000D01*
%TO.N,GND*%
X169000000Y-105500000D02*
X169000000Y-110500000D01*
%TO.N,+40V*%
X148020000Y-105770000D02*
X149000000Y-106750000D01*
%TO.N,+3V3*%
X173000000Y-96670000D02*
X173420000Y-96250000D01*
%TO.N,GND*%
X170880000Y-96250000D02*
X170880000Y-103620000D01*
X142940000Y-110440000D02*
X145000000Y-112500000D01*
D17*
%TO.N,/LASER_PWM*%
X163000000Y-96510000D02*
X163260000Y-96250000D01*
%TO.N,/HV_I*%
X177390000Y-78140000D02*
X177390000Y-95140000D01*
D16*
%TO.N,+12V*%
X157000000Y-106000000D02*
X157000000Y-110500000D01*
%TO.N,GND*%
X150560000Y-96250000D02*
X150560000Y-104310000D01*
D17*
%TO.N,/PWR_TEMP*%
X161000000Y-110500000D02*
X161000000Y-96530000D01*
%TO.N,/LASER_PWM*%
X163000000Y-110500000D02*
X163000000Y-96510000D01*
%TO.N,/INTAKE_FAN2_TACH*%
X165250000Y-96800000D02*
X165800000Y-96250000D01*
X165000000Y-110500000D02*
X165250000Y-110250000D01*
X165250000Y-110250000D02*
X165250000Y-96800000D01*
%TO.N,/INTAKE_FANS_PWM*%
X168340000Y-102660000D02*
X168340000Y-96250000D01*
D16*
%TO.N,+3V3*%
X173000000Y-110500000D02*
X173000000Y-96670000D01*
D17*
%TO.N,/HV_I*%
X175000000Y-110500000D02*
X178500000Y-107000000D01*
X178500000Y-107000000D02*
X178500000Y-96250000D01*
X175000000Y-75750000D02*
X177390000Y-78140000D01*
X177390000Y-95140000D02*
X178500000Y-96250000D01*
D16*
%TO.N,GND*%
X169000000Y-110500000D02*
X169000000Y-111500000D01*
X154000000Y-112500000D02*
X154000000Y-111500000D01*
X153000000Y-74750000D02*
X152250000Y-74000000D01*
X147000000Y-74750000D02*
X147000000Y-75750000D01*
X169000000Y-111500000D02*
X170000000Y-112500000D01*
X153000000Y-75750000D02*
X153000000Y-74750000D01*
X152250000Y-74000000D02*
X147750000Y-74000000D01*
X154000000Y-111500000D02*
X153000000Y-110500000D01*
X154000000Y-111500000D02*
X155000000Y-110500000D01*
X147750000Y-74000000D02*
X147000000Y-74750000D01*
X147000000Y-111500000D02*
X148000000Y-112500000D01*
X147000000Y-111500000D02*
X146000000Y-112500000D01*
X169000000Y-111500000D02*
X168000000Y-112500000D01*
X147000000Y-110500000D02*
X147000000Y-111500000D01*
%TO.N,+40V*%
X150000000Y-112500000D02*
X150000000Y-111500000D01*
X150000000Y-111500000D02*
X149000000Y-110500000D01*
X150000000Y-111500000D02*
X151000000Y-110500000D01*
%TO.N,+12V*%
X157000000Y-110500000D02*
X157000000Y-111500000D01*
X157000000Y-111500000D02*
X156000000Y-112500000D01*
X157000000Y-111500000D02*
X158000000Y-112500000D01*
%TO.N,+3V3*%
X172000000Y-111500000D02*
X171000000Y-110500000D01*
X172000000Y-111500000D02*
X173000000Y-110500000D01*
X172000000Y-112500000D02*
X172000000Y-111500000D01*
%TD*%
M02*
