M48
; DRILL file {KiCad 8.0.9-8.0.9-0~ubuntu20.04.1} date 2025-08-05T19:55:04+1000
; FORMAT={-:-/ absolute / metric / decimal}
; #@! TF.CreationDate,2025-08-05T19:55:04+10:00
; #@! TF.GenerationSoftware,Kicad,Pcbnew,8.0.9-8.0.9-0~ubuntu20.04.1
; #@! TF.FileFunction,Plated,1,2,PTH
FMAT,2
METRIC
; #@! TA.AperFunction,Plated,PTH,ComponentDrill
T1C0.700
; #@! TA.AperFunction,Plated,PTH,ComponentDrill
T2C1.000
; #@! TA.AperFunction,Plated,PTH,ComponentDrill
T3C3.200
%
G90
G05
T1
X146.0Y-77.75
X146.0Y-112.5
X147.0Y-75.75
X147.0Y-110.5
X148.0Y-77.75
X148.0Y-112.5
X149.0Y-75.75
X149.0Y-110.5
X150.0Y-77.75
X150.0Y-112.5
X151.0Y-75.75
X151.0Y-110.5
X152.0Y-77.75
X152.0Y-112.5
X153.0Y-75.75
X153.0Y-110.5
X154.0Y-77.75
X154.0Y-112.5
X155.0Y-75.75
X155.0Y-110.5
X156.0Y-77.75
X156.0Y-112.5
X157.0Y-75.75
X157.0Y-110.5
X158.0Y-77.75
X158.0Y-112.5
X159.0Y-75.75
X159.0Y-110.5
X160.0Y-77.75
X160.0Y-112.5
X161.0Y-75.75
X161.0Y-110.5
X162.0Y-77.75
X162.0Y-112.5
X163.0Y-75.75
X163.0Y-110.5
X164.0Y-77.75
X164.0Y-112.5
X165.0Y-75.75
X165.0Y-110.5
X166.0Y-77.75
X166.0Y-112.5
X167.0Y-75.75
X167.0Y-110.5
X168.0Y-77.75
X168.0Y-112.5
X169.0Y-75.75
X169.0Y-110.5
X170.0Y-77.75
X170.0Y-112.5
X171.0Y-75.75
X171.0Y-110.5
X172.0Y-77.75
X172.0Y-112.5
X173.0Y-75.75
X173.0Y-110.5
X174.0Y-77.75
X174.0Y-112.5
X175.0Y-75.75
X175.0Y-110.5
T2
X142.94Y-96.25
X142.98Y-90.75
X145.48Y-96.25
X145.52Y-90.75
X148.02Y-96.25
X148.06Y-90.75
X150.56Y-96.25
X150.6Y-90.75
X153.1Y-96.25
X153.14Y-90.75
X155.64Y-96.25
X155.68Y-90.75
X158.18Y-96.25
X158.22Y-90.75
X160.72Y-96.25
X160.76Y-90.75
X163.26Y-96.25
X163.3Y-90.75
X165.8Y-96.25
X165.84Y-90.75
X168.34Y-96.25
X168.38Y-90.75
X170.88Y-96.25
X170.92Y-90.75
X173.42Y-96.25
X173.46Y-90.75
X175.96Y-96.25
X176.0Y-90.75
X178.5Y-96.25
X178.54Y-90.75
T3
X138.5Y-67.5
X138.5Y-121.0
X183.75Y-67.5
X183.75Y-121.0
M30
