%TF.GenerationSoftware,KiCad,Pcbnew,8.0.9-8.0.9-0~ubuntu20.04.1*%
%TF.CreationDate,2025-08-05T19:54:57+10:00*%
%TF.ProjectId,glowforge-psu-breakout,676c6f77-666f-4726-9765-2d7073752d62,rev?*%
%TF.SameCoordinates,Original*%
%TF.FileFunction,Soldermask,Bot*%
%TF.FilePolarity,Negative*%
%FSLAX46Y46*%
G04 Gerber Fmt 4.6, Leading zero omitted, Abs format (unit mm)*
G04 Created by KiCad (PCBNEW 8.0.9-8.0.9-0~ubuntu20.04.1) date 2025-08-05 19:54:57*
%MOMM*%
%LPD*%
G01*
G04 APERTURE LIST*
%ADD10R,1.700000X1.700000*%
%ADD11O,1.700000X1.700000*%
%ADD12C,3.600000*%
%ADD13C,5.600000*%
%ADD14R,1.200000X1.200000*%
%ADD15C,1.200000*%
G04 APERTURE END LIST*
D10*
%TO.C,J2*%
X178540000Y-90750000D03*
D11*
X176000000Y-90750000D03*
X173460000Y-90750000D03*
X170920000Y-90750000D03*
X168380000Y-90750000D03*
X165840000Y-90750000D03*
X163300000Y-90750000D03*
X160760000Y-90750000D03*
X158220000Y-90750000D03*
X155680000Y-90750000D03*
X153140000Y-90750000D03*
X150600000Y-90750000D03*
X148060000Y-90750000D03*
X145520000Y-90750000D03*
X142980000Y-90750000D03*
%TD*%
D10*
%TO.C,J3*%
X142940000Y-96250000D03*
D11*
X145480000Y-96250000D03*
X148020000Y-96250000D03*
X150560000Y-96250000D03*
X153100000Y-96250000D03*
X155640000Y-96250000D03*
X158180000Y-96250000D03*
X160720000Y-96250000D03*
X163260000Y-96250000D03*
X165800000Y-96250000D03*
X168340000Y-96250000D03*
X170880000Y-96250000D03*
X173420000Y-96250000D03*
X175960000Y-96250000D03*
X178500000Y-96250000D03*
%TD*%
D12*
%TO.C,H3*%
X138500000Y-121000000D03*
D13*
X138500000Y-121000000D03*
%TD*%
D12*
%TO.C,H4*%
X183750000Y-121000000D03*
D13*
X183750000Y-121000000D03*
%TD*%
D14*
%TO.C,J4*%
X146000000Y-112500000D03*
D15*
X147000000Y-110500000D03*
X148000000Y-112500000D03*
X149000000Y-110500000D03*
X150000000Y-112500000D03*
X151000000Y-110500000D03*
X152000000Y-112500000D03*
X153000000Y-110500000D03*
X154000000Y-112500000D03*
X155000000Y-110500000D03*
X156000000Y-112500000D03*
X157000000Y-110500000D03*
X158000000Y-112500000D03*
X159000000Y-110500000D03*
X160000000Y-112500000D03*
X161000000Y-110500000D03*
X162000000Y-112500000D03*
X163000000Y-110500000D03*
X164000000Y-112500000D03*
X165000000Y-110500000D03*
X166000000Y-112500000D03*
X167000000Y-110500000D03*
X168000000Y-112500000D03*
X169000000Y-110500000D03*
X170000000Y-112500000D03*
X171000000Y-110500000D03*
X172000000Y-112500000D03*
X173000000Y-110500000D03*
X174000000Y-112500000D03*
X175000000Y-110500000D03*
%TD*%
D12*
%TO.C,H2*%
X138500000Y-67500000D03*
D13*
X138500000Y-67500000D03*
%TD*%
D14*
%TO.C,J1*%
X175000000Y-75750000D03*
D15*
X174000000Y-77750000D03*
X173000000Y-75750000D03*
X172000000Y-77750000D03*
X171000000Y-75750000D03*
X170000000Y-77750000D03*
X169000000Y-75750000D03*
X168000000Y-77750000D03*
X167000000Y-75750000D03*
X166000000Y-77750000D03*
X165000000Y-75750000D03*
X164000000Y-77750000D03*
X163000000Y-75750000D03*
X162000000Y-77750000D03*
X161000000Y-75750000D03*
X160000000Y-77750000D03*
X159000000Y-75750000D03*
X158000000Y-77750000D03*
X157000000Y-75750000D03*
X156000000Y-77750000D03*
X155000000Y-75750000D03*
X154000000Y-77750000D03*
X153000000Y-75750000D03*
X152000000Y-77750000D03*
X151000000Y-75750000D03*
X150000000Y-77750000D03*
X149000000Y-75750000D03*
X148000000Y-77750000D03*
X147000000Y-75750000D03*
X146000000Y-77750000D03*
%TD*%
D12*
%TO.C,H1*%
X183750000Y-67500000D03*
D13*
X183750000Y-67500000D03*
%TD*%
M02*
